<svg xmlns="http://www.w3.org/2000/svg" viewBox="0 0 490.42 193.17"><defs><style>.cls-1{fill:#fff;}.cls-2{fill:#157dff;}</style></defs><g id="Capa_2" data-name="Capa 2"><g id="Capa_1-2" data-name="Capa 1"><path class="cls-1" d="M35.22,47.91,23.09,23.28h53.8q45,3.79,45.1,50,0,46.39-41,50H23.1V73.12H47.9V98.2h29c12.47,0,18.73-6.15,18.8-25.22-.2-18.73-7.8-25-22.8-24.91l-37.67-.16Z"/><polygon class="cls-1" points="172.57 23.44 172.57 123.06 147.67 123.06 147.67 23.44 172.57 23.44 172.57 23.44"/><path class="cls-1" d="M297.17,23.15l-11.9,24.92H245c-13.92.07-21,6.09-21.28,24.74.13,19.11,6.39,25.16,18.78,25.09h54.72v25.16H238.46q-41-5-41-49.95c0-30,14.06-50,45-50Z"/><polygon class="cls-1" points="347.2 23.44 347.2 123.06 322.3 123.06 322.3 23.44 347.2 23.44 347.2 23.44"/><path class="cls-1" d="M445.76,72.77q0-12.61-5.58-21.4t-18.29-8.78q-13.58,0-19.83,8.89t-6.25,21.29a38.06,38.06,0,0,0,6.2,20.3q6.21,10,19.88,10,12.72,0,18.29-8.94t5.58-21.35Zm27.55,0q0,23.57-13.83,38.07t-39,14.51q-24.93,0-38.86-15.09T367.73,72.77q0-23.55,14.88-38.06T420.52,20.2q24.08,0,38.44,14.51t14.35,38.06Z"/><path class="cls-2" d="M3.46,27.72A3.46,3.46,0,0,1,0,24.26V3.46A3.46,3.46,0,0,1,3.46,0h20.8a3.47,3.47,0,0,1,0,6.93H6.92V24.26a3.46,3.46,0,0,1-3.46,3.46Z"/><path class="cls-2" d="M487,27.72a3.46,3.46,0,0,0,3.46-3.46V3.46A3.46,3.46,0,0,0,487,0h-20.8a3.47,3.47,0,0,0,0,6.93H483.5V24.26A3.46,3.46,0,0,0,487,27.72Z"/><path class="cls-2" d="M487,146.42h-20.8a3.47,3.47,0,0,1,0-6.93h17.33V122.16a3.47,3.47,0,0,1,6.93,0V143a3.46,3.46,0,0,1-3.46,3.47Z"/><path class="cls-2" d="M24.26,146.56H3.46A3.46,3.46,0,0,1,0,143.1V122.3a3.46,3.46,0,0,1,6.92,0v17.33H24.26a3.47,3.47,0,0,1,0,6.93Z"/><path class="cls-2" d="M85.65,191.05l7.44-14.88a4.72,4.72,0,0,1,.8-1.06,5.14,5.14,0,0,1,6.9,0,4.44,4.44,0,0,1,.8,1.06L109,191.05h-5.31l-1.6-3.19H92.56L91,191.05Zm14.88-6.38-2.77-5.53a.48.48,0,0,0-.42-.28.5.5,0,0,0-.43.28l-2.76,5.53Z"/><path class="cls-2" d="M110.62,191.05V186.8h16.47a1,1,0,0,0,1.06-1.07,1,1,0,0,0-.31-.74,1,1,0,0,0-.75-.32H113.28a2.08,2.08,0,0,1-1.51-.61,2.1,2.1,0,0,1-.62-1.51v-6.36a2.08,2.08,0,0,1,.62-1.51,2.05,2.05,0,0,1,1.51-.63h18.59v4.25h-15.4a1.07,1.07,0,0,0-.77,1.82,1.08,1.08,0,0,0,.77.3h13.81a2.15,2.15,0,0,1,2.12,2.13v6.37a2.13,2.13,0,0,1-2.12,2.13Z"/><path class="cls-2" d="M148.34,191.05a4,4,0,0,1-3-1.25,4.09,4.09,0,0,1-1.25-3V174.05h4.25v10.62a2.1,2.1,0,0,0,2.13,2.13H159a2.13,2.13,0,0,0,2.12-2.13V174.05h4.25V186.8a4,4,0,0,1-1.26,3,4.09,4.09,0,0,1-3,1.25Z"/><path class="cls-2" d="M168.53,191.05V178a4.27,4.27,0,0,1,4.25-4.25,4.8,4.8,0,0,1,3.19,1.33q.39.36,10.62,10.62a.5.5,0,0,0,.8,0,1.25,1.25,0,0,0,.26-.79V174.05h4.25v13a4.27,4.27,0,0,1-4.25,4.25,5,5,0,0,1-3.18-1.33q-.41-.36-10.63-10.62a.5.5,0,0,0-.8,0,1.28,1.28,0,0,0-.26.8v10.89Z"/><path class="cls-2" d="M195.09,191.05v-17h4.25v17Z"/><path class="cls-2" d="M211,193.17v-2.12h-4.25a4.25,4.25,0,0,1-4.25-4.25v-8.5a4,4,0,0,1,1.24-3,4.09,4.09,0,0,1,3-1.26h12.75a4.3,4.3,0,0,1,4.25,4.25v8.5a4,4,0,0,1-1.26,3,4.09,4.09,0,0,1-3,1.25h-4.25v2.12Zm6.37-6.37a2.08,2.08,0,0,0,1.5-.62,2.05,2.05,0,0,0,.63-1.51v-4.25a2.15,2.15,0,0,0-2.13-2.12h-8.5a2.12,2.12,0,0,0-2.12,2.12v4.25a2.08,2.08,0,0,0,.61,1.51,2.1,2.1,0,0,0,1.51.62H211v-2.13h4.25v2.13Z"/><path class="cls-2" d="M231.22,191.05A4.25,4.25,0,0,1,227,186.8V174.05h4.25v10.62a2.1,2.1,0,0,0,2.12,2.13h8.5a2.06,2.06,0,0,0,1.49-.62,2,2,0,0,0,.64-1.51V174.05h4.25V186.8a4.3,4.3,0,0,1-4.25,4.25Z"/><path class="cls-2" d="M255.65,191.05a4.27,4.27,0,0,1-4.25-4.25v-8.5a4.29,4.29,0,0,1,4.25-4.25H270v4.25H256.72a1,1,0,0,0-1.07,1.06v1.06h14.16v4.25H255.65v1.06a1,1,0,0,0,1.07,1.07h13.81v4.25Z"/><path class="cls-2" d="M281.15,191.05l7.44-14.88a4.72,4.72,0,0,1,.8-1.06,5.14,5.14,0,0,1,6.9,0,4.44,4.44,0,0,1,.8,1.06l7.44,14.88h-5.31l-1.6-3.19h-9.56l-1.59,3.19ZM296,184.67l-2.77-5.53a.48.48,0,0,0-.42-.28.5.5,0,0,0-.43.28l-2.76,5.53Z"/><path class="cls-2" d="M306.12,191.05V186.8h16.47a1,1,0,0,0,1.06-1.07,1,1,0,0,0-.31-.74,1,1,0,0,0-.75-.32H308.78a2.08,2.08,0,0,1-1.51-.61,2.1,2.1,0,0,1-.62-1.51v-6.36a2.08,2.08,0,0,1,.62-1.51,2.05,2.05,0,0,1,1.51-.63h18.59v4.25H312a1.07,1.07,0,0,0-.77,1.82,1.08,1.08,0,0,0,.77.3h13.81a2.15,2.15,0,0,1,2.12,2.13v6.37a2.13,2.13,0,0,1-2.12,2.13Z"/><path class="cls-2" d="M348.09,191.05v-6.38h-4.25a4,4,0,0,1-3-1.24,4.12,4.12,0,0,1-1.25-3v-6.37h4.25v4.25a2.08,2.08,0,0,0,2.13,2.12h8.5a2.12,2.12,0,0,0,2.12-2.12v-4.25h4.25v6.37a4.27,4.27,0,0,1-4.25,4.25h-4.25v6.38Z"/><path class="cls-2" d="M368.28,191.05A4.25,4.25,0,0,1,364,186.8v-8.5a4,4,0,0,1,1.24-3,4.09,4.09,0,0,1,3-1.26H381a4.3,4.3,0,0,1,4.25,4.25v8.5a4,4,0,0,1-1.26,3,4.09,4.09,0,0,1-3,1.25Zm10.62-4.25a2.08,2.08,0,0,0,1.5-.62,2.05,2.05,0,0,0,.63-1.51v-4.25a2.15,2.15,0,0,0-2.13-2.12h-8.5a2.12,2.12,0,0,0-2.12,2.12v4.25a2.08,2.08,0,0,0,.61,1.51,2.1,2.1,0,0,0,1.51.62Z"/><path class="cls-2" d="M392.72,191.05a4.25,4.25,0,0,1-4.25-4.25V174.05h4.25v10.62a2.1,2.1,0,0,0,2.12,2.13h8.5a2.06,2.06,0,0,0,1.49-.62,2,2,0,0,0,.64-1.51V174.05h4.25V186.8a4.3,4.3,0,0,1-4.25,4.25Z"/></g></g></svg>