<?xml version="1.0" encoding="utf-8"?>
<!-- Generator: Adobe Illustrator 25.0.1, SVG Export Plug-In . SVG Version: 6.00 Build 0)  -->
<svg version="1.1" id="Capa_1" xmlns="http://www.w3.org/2000/svg" xmlns:xlink="http://www.w3.org/1999/xlink" x="0px" y="0px"
	 viewBox="0 0 490.4 195.9" style="enable-background:new 0 0 490.4 195.9;" xml:space="preserve">
<style type="text/css">
	.st0{fill:#212A33;}
	.st1{fill:#157DFF;}
	.st2{enable-background:new    ;}
</style>
<g id="Capa_2_1_">
	<g id="Capa_1-2">
		<g>
			<path class="st0" d="M35.2,47.9L23.1,23.3h53.8c30,2.5,45,19.2,45.1,50c0,30.9-13.7,47.6-41,50H23.1V73.1h24.8v25.1h29
				c12.5,0,18.7-6.2,18.8-25.2c-0.2-18.7-7.8-25-22.8-24.9L35.2,47.9L35.2,47.9z"/>
		</g>
		<g>
			<polygon class="st0" points="172.6,23.4 172.6,123.1 147.7,123.1 147.7,23.4 172.6,23.4 			"/>
		</g>
		<g>
			<path class="st0" d="M297.2,23.1l-11.9,24.9H245c-13.9,0.1-21,6.1-21.3,24.7c0.1,19.1,6.4,25.2,18.8,25.1h54.7v25.2h-58.8
				c-27.3-3.3-41-20-41-49.9c0-30,14.1-50,45-50L297.2,23.1z"/>
		</g>
		<g>
			<polygon class="st0" points="347.2,23.4 347.2,123.1 322.3,123.1 322.3,23.4 347.2,23.4 			"/>
		</g>
		<g>
			<path class="st0" d="M445.8,72.8c0-8.4-1.9-15.5-5.6-21.4c-3.7-5.9-9.8-8.8-18.3-8.8c-9.1,0-15.7,3-19.8,8.9
				c-4.2,5.9-6.2,13-6.2,21.3c0.1,7.2,2.3,14.3,6.2,20.3c4.1,6.7,10.8,10,19.9,10c8.5,0,14.6-3,18.3-8.9
				C443.9,88.2,445.8,81.1,445.8,72.8L445.8,72.8z M473.3,72.8c0,15.7-4.6,28.4-13.8,38.1c-9.2,9.7-22.2,14.5-39,14.5
				c-16.6,0-29.6-5-38.9-15.1s-13.9-22.6-13.9-37.5c0-15.7,5-28.4,14.9-38.1c9.9-9.7,22.6-14.5,37.9-14.5c16.1,0,28.9,4.8,38.4,14.5
				C468.5,44.4,473.3,57.1,473.3,72.8z"/>
		</g>
		<g>
			<path class="st1" d="M3.5,27.7c-1.9,0-3.5-1.5-3.5-3.5V3.5C0,1.5,1.5,0,3.5,0h20.8c1.9,0.1,3.4,1.7,3.3,3.7
				c-0.1,1.8-1.5,3.2-3.3,3.3H6.9v17.3C6.9,26.2,5.4,27.7,3.5,27.7C3.5,27.7,3.5,27.7,3.5,27.7z"/>
		</g>
		<g>
			<path class="st1" d="M487,27.7c1.9,0,3.5-1.5,3.5-3.5V3.5c0-1.9-1.5-3.5-3.5-3.5h-20.8c-1.9,0.1-3.4,1.7-3.3,3.7
				c0.1,1.8,1.5,3.2,3.3,3.3h17.3v17.3C483.5,26.2,485,27.7,487,27.7C487,27.7,487,27.7,487,27.7z"/>
		</g>
		<g>
			<path class="st1" d="M487,146.4h-20.8c-1.9-0.1-3.4-1.7-3.3-3.7c0.1-1.8,1.5-3.2,3.3-3.3h17.3v-17.3c0.1-1.9,1.7-3.4,3.7-3.3
				c1.8,0.1,3.2,1.5,3.3,3.3V143C490.5,144.9,488.9,146.5,487,146.4C487,146.5,487,146.5,487,146.4L487,146.4z"/>
		</g>
		<g>
			<path class="st1" d="M24.3,146.6H3.5c-1.9,0-3.5-1.5-3.5-3.5v-20.8c0-1.9,1.5-3.5,3.5-3.5c1.9,0,3.5,1.5,3.5,3.5v17.3h17.3
				c1.9,0.1,3.4,1.7,3.3,3.7C27.4,145.1,26,146.5,24.3,146.6z"/>
		</g>
		<g class="st2">
			<path class="st1" d="M76.8,189.5v-12.8h-8.5v-4.2h21.2v4.2h-8.5v12.8H76.8z"/>
			<path class="st1" d="M90.6,189.5l7.4-14.9c0.3-0.4,0.5-0.8,0.8-1.1c0.8-0.8,2-1.3,3.5-1.3c1.5,0,2.6,0.5,3.5,1.3
				c0.3,0.3,0.5,0.6,0.8,1.1l7.4,14.9h-5.3l-1.6-3.2h-9.6l-1.6,3.2H90.6z M105.5,183.2l-2.8-5.5c-0.1-0.2-0.2-0.3-0.4-0.3
				s-0.3,0.1-0.4,0.3l-2.8,5.5H105.5z"/>
			<path class="st1" d="M116.1,189.5v-13c0-1.2,0.4-2.2,1.2-3c0.8-0.8,1.8-1.3,3-1.3c1.3,0.1,2.3,0.5,3.2,1.3
				c0.3,0.2,3.8,3.8,10.6,10.6c0.3,0.3,0.5,0.3,0.8,0c0.2-0.2,0.3-0.5,0.3-0.8v-10.9h4.2v13c0,1.2-0.4,2.2-1.3,3
				c-0.8,0.8-1.8,1.2-3,1.2c-1.3-0.1-2.3-0.5-3.2-1.3c-0.3-0.2-3.8-3.8-10.6-10.6c-0.3-0.3-0.5-0.3-0.8,0c-0.2,0.2-0.3,0.5-0.3,0.8
				v10.9H116.1z"/>
			<path class="st1" d="M155.4,189.5c-1.2,0-2.2-0.4-3-1.2c-0.8-0.8-1.2-1.8-1.2-3v-12.8h4.2v10.6c0,0.6,0.2,1.1,0.6,1.5
				c0.4,0.4,0.9,0.6,1.5,0.6h8.5c0.6,0,1.1-0.2,1.5-0.6c0.4-0.4,0.6-0.9,0.6-1.5v-10.6h4.2v12.8c0,1.2-0.4,2.2-1.3,3
				c-0.8,0.8-1.8,1.2-3,1.2H155.4z M160.2,170.4l2.1-4.2h4.2l-4.2,4.2H160.2z"/>
			<path class="st1" d="M175.6,189.5v-13c0-1.2,0.4-2.2,1.2-3c0.8-0.8,1.8-1.3,3-1.3c1.3,0.1,2.3,0.5,3.2,1.3
				c0.3,0.2,3.8,3.8,10.6,10.6c0.3,0.3,0.5,0.3,0.8,0c0.2-0.2,0.3-0.5,0.3-0.8v-10.9h4.2v13c0,1.2-0.4,2.2-1.3,3
				c-0.8,0.8-1.8,1.2-3,1.2c-1.3-0.1-2.3-0.5-3.2-1.3c-0.3-0.2-3.8-3.8-10.6-10.6c-0.3-0.3-0.5-0.3-0.8,0c-0.2,0.2-0.3,0.5-0.3,0.8
				v10.9H175.6z"/>
			<path class="st1" d="M202.2,189.5v-17h4.2v17H202.2z"/>
			<path class="st1" d="M213.9,189.5c-1.2,0-2.2-0.4-3-1.2c-0.8-0.8-1.2-1.8-1.2-3v-8.5c0-1.2,0.4-2.2,1.2-3c0.8-0.8,1.8-1.3,3-1.3
				h14.7v4.2H216c-0.6,0-1.1,0.2-1.5,0.6c-0.4,0.4-0.6,0.9-0.6,1.5v4.2c0,0.6,0.2,1.1,0.6,1.5c0.4,0.4,0.9,0.6,1.5,0.6h12.8v4.2
				H213.9z"/>
			<path class="st1" d="M236.2,189.5c-1.2,0-2.2-0.4-3-1.2c-0.8-0.8-1.2-1.8-1.2-3v-8.5c0-1.2,0.4-2.2,1.2-3c0.8-0.8,1.8-1.3,3-1.3
				h12.8c1.2,0,2.2,0.4,3,1.3c0.8,0.8,1.3,1.8,1.3,3v8.5c0,1.2-0.4,2.2-1.3,3c-0.8,0.8-1.8,1.2-3,1.2H236.2z M246.8,185.3
				c0.6,0,1.1-0.2,1.5-0.6c0.4-0.4,0.6-0.9,0.6-1.5v-4.2c0-0.6-0.2-1.1-0.6-1.5c-0.4-0.4-0.9-0.6-1.5-0.6h-8.5
				c-0.6,0-1.1,0.2-1.5,0.6c-0.4,0.4-0.6,0.9-0.6,1.5v4.2c0,0.6,0.2,1.1,0.6,1.5c0.4,0.4,0.9,0.6,1.5,0.6H246.8z"/>
			<path class="st1" d="M269.1,189.5c-1.2,0-2.2-0.4-3-1.2c-0.8-0.8-1.2-1.8-1.2-3v-8.5c0-1.2,0.4-2.2,1.2-3c0.8-0.8,1.8-1.3,3-1.3
				h14.7v4.2h-12.6c-0.6,0-1.1,0.2-1.5,0.6c-0.4,0.4-0.6,0.9-0.6,1.5v4.2c0,0.6,0.2,1.1,0.6,1.5c0.4,0.4,0.9,0.6,1.5,0.6H284v4.2
				H269.1z"/>
			<path class="st1" d="M291.4,189.5c-1.2,0-2.2-0.4-3-1.2c-0.8-0.8-1.2-1.8-1.2-3v-8.5c0-1.2,0.4-2.2,1.2-3c0.8-0.8,1.8-1.3,3-1.3
				h12.8c1.2,0,2.2,0.4,3,1.3c0.8,0.8,1.3,1.8,1.3,3v8.5c0,1.2-0.4,2.2-1.3,3c-0.8,0.8-1.8,1.2-3,1.2H291.4z M302.1,185.3
				c0.6,0,1.1-0.2,1.5-0.6c0.4-0.4,0.6-0.9,0.6-1.5v-4.2c0-0.6-0.2-1.1-0.6-1.5c-0.4-0.4-0.9-0.6-1.5-0.6h-8.5
				c-0.6,0-1.1,0.2-1.5,0.6c-0.4,0.4-0.6,0.9-0.6,1.5v4.2c0,0.6,0.2,1.1,0.6,1.5c0.4,0.4,0.9,0.6,1.5,0.6H302.1z"/>
			<path class="st1" d="M311.6,189.5v-13c0-1.2,0.4-2.2,1.2-3c0.8-0.8,1.8-1.3,3-1.3c1.5,0,2.7,0.4,3.5,1.3c0.2,0.3,0.5,0.6,0.7,1.1
				l5.3,10.6l5.3-10.6c0.2-0.5,0.5-0.9,0.7-1.1c0.8-0.8,2-1.3,3.5-1.3c1.2,0,2.2,0.4,3,1.3c0.8,0.8,1.3,1.8,1.3,3v13H335v-10.6
				c0-0.7-0.2-1-0.7-1.1c-0.3,0-0.4,0.1-0.5,0.3l-5.7,11.4h-5.3l-5.7-11.4c-0.1-0.2-0.3-0.3-0.5-0.3c-0.4,0-0.7,0.4-0.7,1.1v10.6
				H311.6z"/>
			<path class="st1" d="M346.7,189.5c-1.2,0-2.2-0.4-3-1.2c-0.8-0.8-1.2-1.8-1.2-3v-8.5c0-1.2,0.4-2.2,1.2-3c0.8-0.8,1.8-1.3,3-1.3
				h12.8c1.2,0,2.2,0.4,3,1.3c0.8,0.8,1.3,1.8,1.3,3v8.5c0,1.2-0.4,2.2-1.3,3c-0.8,0.8-1.8,1.2-3,1.2H346.7z M357.3,185.3
				c0.6,0,1.1-0.2,1.5-0.6c0.4-0.4,0.6-0.9,0.6-1.5v-4.2c0-0.6-0.2-1.1-0.6-1.5c-0.4-0.4-0.9-0.6-1.5-0.6h-8.5
				c-0.6,0-1.1,0.2-1.5,0.6c-0.4,0.4-0.6,0.9-0.6,1.5v4.2c0,0.6,0.2,1.1,0.6,1.5c0.4,0.4,0.9,0.6,1.5,0.6H357.3z"/>
			<path class="st1" d="M382.8,189.5v-12.8h-8.5v-4.2h21.2v4.2h-8.5v12.8H382.8z"/>
			<path class="st1" d="M401.9,189.5c-1.2,0-2.2-0.4-3-1.2c-0.8-0.8-1.2-1.8-1.2-3v-12.8h4.2v10.6c0,0.6,0.2,1.1,0.6,1.5
				c0.4,0.4,0.9,0.6,1.5,0.6h8.5c0.6,0,1.1-0.2,1.5-0.6c0.4-0.4,0.6-0.9,0.6-1.5v-10.6h4.2v12.8c0,1.2-0.4,2.2-1.3,3
				c-0.8,0.8-1.8,1.2-3,1.2H401.9z M406.7,170.4l2.1-4.2h4.2l-4.2,4.2H406.7z"/>
		</g>
	</g>
</g>
</svg>
