<svg xmlns="http://www.w3.org/2000/svg" viewBox="0 0 490.42 191.67"><defs><style>.cls-1{fill:#212a33;}.cls-2{fill:#157dff;}</style></defs><g id="Capa_2" data-name="Capa 2"><g id="Capa_1-2" data-name="Capa 1"><path class="cls-1" d="M35.22,47.91,23.09,23.28h53.8q45,3.79,45.1,50,0,46.39-41,50H23.1V73.12H47.9V98.2h29c12.47,0,18.73-6.15,18.8-25.22-.2-18.73-7.8-25-22.8-24.91l-37.67-.16Z"/><polygon class="cls-1" points="172.57 23.44 172.57 123.06 147.67 123.06 147.67 23.44 172.57 23.44 172.57 23.44"/><path class="cls-1" d="M297.17,23.15l-11.9,24.92H245c-13.92.07-21,6.09-21.28,24.74.13,19.11,6.39,25.16,18.78,25.09h54.72v25.16H238.46q-41-5-41-49.95c0-30,14.06-50,45-50Z"/><polygon class="cls-1" points="347.2 23.44 347.2 123.06 322.3 123.06 322.3 23.44 347.2 23.44 347.2 23.44"/><path class="cls-1" d="M445.76,72.77q0-12.61-5.58-21.4t-18.29-8.78q-13.58,0-19.83,8.89t-6.25,21.29a38.06,38.06,0,0,0,6.2,20.3q6.21,10,19.88,10,12.72,0,18.29-8.94t5.58-21.35Zm27.55,0q0,23.57-13.83,38.07t-39,14.51q-24.93,0-38.86-15.09T367.73,72.77q0-23.55,14.88-38.06T420.52,20.2q24.08,0,38.44,14.51t14.35,38.06Z"/><path class="cls-2" d="M3.46,27.72A3.46,3.46,0,0,1,0,24.26V3.46A3.46,3.46,0,0,1,3.46,0h20.8a3.47,3.47,0,0,1,0,6.93H6.92V24.26a3.46,3.46,0,0,1-3.46,3.46Z"/><path class="cls-2" d="M487,27.72a3.46,3.46,0,0,0,3.46-3.46V3.46A3.46,3.46,0,0,0,487,0h-20.8a3.47,3.47,0,0,0,0,6.93H483.5V24.26A3.46,3.46,0,0,0,487,27.72Z"/><path class="cls-2" d="M487,146.42h-20.8a3.47,3.47,0,0,1,0-6.93h17.33V122.16a3.47,3.47,0,0,1,6.93,0V143a3.46,3.46,0,0,1-3.46,3.47Z"/><path class="cls-2" d="M24.26,146.56H3.46A3.46,3.46,0,0,1,0,143.1V122.3a3.46,3.46,0,0,1,6.92,0v17.33H24.26a3.47,3.47,0,0,1,0,6.93Z"/><path class="cls-2" d="M84.44,189.55l7.43-14.88a4.72,4.72,0,0,1,.8-1.06,5.15,5.15,0,0,1,6.91,0,4.71,4.71,0,0,1,.79,1.06l7.44,14.88H102.5l-1.59-3.19H91.34l-1.59,3.19Zm14.87-6.38-2.77-5.53a.48.48,0,0,0-.42-.28.51.51,0,0,0-.43.28l-2.75,5.53Z"/><path class="cls-2" d="M109.41,189.55V185.3h16.46a1.06,1.06,0,0,0,1.07-1.07,1,1,0,0,0-.32-.74,1,1,0,0,0-.75-.32H112.06a2.08,2.08,0,0,1-2.12-2.12v-6.36a2.08,2.08,0,0,1,.61-1.51,2.05,2.05,0,0,1,1.51-.63h18.6v4.25H115.25a1,1,0,0,0-.76.31,1.06,1.06,0,0,0,.76,1.81h13.81a2.15,2.15,0,0,1,2.13,2.13v6.37a2.05,2.05,0,0,1-.63,1.51,2.08,2.08,0,0,1-1.5.62Z"/><path class="cls-2" d="M147.12,189.55a4.27,4.27,0,0,1-4.25-4.25V172.55h4.25v10.62a2.12,2.12,0,0,0,2.13,2.13h8.5a2.13,2.13,0,0,0,2.12-2.13V172.55h4.25V185.3a4.29,4.29,0,0,1-4.25,4.25Z"/><path class="cls-2" d="M167.31,189.55v-13a4.29,4.29,0,0,1,4.25-4.25,4.76,4.76,0,0,1,3.19,1.33q.39.36,10.62,10.62a.5.5,0,0,0,.8,0,1.2,1.2,0,0,0,.27-.79V172.55h4.25v13a4,4,0,0,1-1.26,3,4.09,4.09,0,0,1-3,1.24,5,5,0,0,1-3.19-1.33q-.41-.36-10.63-10.62a.49.49,0,0,0-.79,0,1.23,1.23,0,0,0-.27.8v10.89Z"/><path class="cls-2" d="M193.87,189.55v-17h4.25v17Z"/><path class="cls-2" d="M209.81,191.67v-2.12h-4.25a4.27,4.27,0,0,1-4.25-4.25v-8.5a4.29,4.29,0,0,1,4.25-4.25h12.75a4.3,4.3,0,0,1,4.25,4.25v8.5a4,4,0,0,1-1.26,3,4.09,4.09,0,0,1-3,1.25h-4.25v2.12Zm6.38-6.37a2.13,2.13,0,0,0,2.12-2.13v-4.25a2.15,2.15,0,0,0-2.12-2.12h-8.5a2.13,2.13,0,0,0-2.13,2.12v4.25a2.12,2.12,0,0,0,2.13,2.13h2.12v-2.13h4.25v2.13Z"/><path class="cls-2" d="M230,189.55a4.25,4.25,0,0,1-4.25-4.25V172.55H230v10.62a2.08,2.08,0,0,0,.61,1.51,2.1,2.1,0,0,0,1.51.62h8.5a2.08,2.08,0,0,0,1.5-.62,2.05,2.05,0,0,0,.63-1.51V172.55H247V185.3a4,4,0,0,1-1.26,3,4.09,4.09,0,0,1-3,1.25Z"/><path class="cls-2" d="M254.44,189.55a4.25,4.25,0,0,1-4.25-4.25v-8.5a4.27,4.27,0,0,1,4.25-4.25h14.34v4.25H255.5a1,1,0,0,0-.76.31,1.05,1.05,0,0,0-.3.75v1.06H268.6v4.25H254.44v1.06a1.08,1.08,0,0,0,.3.77,1.06,1.06,0,0,0,.76.3h13.81v4.25Z"/><path class="cls-2" d="M279.94,189.55l7.43-14.88a4.72,4.72,0,0,1,.8-1.06,5.15,5.15,0,0,1,6.91,0,4.71,4.71,0,0,1,.79,1.06l7.44,14.88H298l-1.59-3.19h-9.57l-1.59,3.19Zm14.87-6.38L292,177.64a.48.48,0,0,0-.42-.28.51.51,0,0,0-.43.28l-2.75,5.53Z"/><path class="cls-2" d="M304.91,189.55V185.3h16.46a1.06,1.06,0,0,0,1.07-1.07,1,1,0,0,0-.32-.74,1,1,0,0,0-.75-.32H307.56a2.08,2.08,0,0,1-2.12-2.12v-6.36a2.08,2.08,0,0,1,.61-1.51,2.05,2.05,0,0,1,1.51-.63h18.6v4.25H310.75a1,1,0,0,0-.76.31,1.06,1.06,0,0,0,.76,1.81h13.81a2.15,2.15,0,0,1,2.13,2.13v6.37a2.05,2.05,0,0,1-.63,1.51,2.08,2.08,0,0,1-1.5.62Z"/><path class="cls-2" d="M346.87,189.55v-6.38h-4.25a4.05,4.05,0,0,1-3-1.24,4.12,4.12,0,0,1-1.25-3v-6.37h4.25v4.25a2.1,2.1,0,0,0,.62,1.51,2.08,2.08,0,0,0,1.51.61h8.5a2.12,2.12,0,0,0,2.12-2.12v-4.25h4.25v6.37a4.27,4.27,0,0,1-4.25,4.25h-4.25v6.38Z"/><path class="cls-2" d="M367.06,189.55a4.27,4.27,0,0,1-4.25-4.25v-8.5a4.29,4.29,0,0,1,4.25-4.25h12.75a4.3,4.3,0,0,1,4.25,4.25v8.5a4,4,0,0,1-1.26,3,4.09,4.09,0,0,1-3,1.25Zm10.63-4.25a2.13,2.13,0,0,0,2.12-2.13v-4.25a2.15,2.15,0,0,0-2.12-2.12h-8.5a2.13,2.13,0,0,0-2.13,2.12v4.25a2.12,2.12,0,0,0,2.13,2.13Z"/><path class="cls-2" d="M391.5,189.55a4.25,4.25,0,0,1-4.25-4.25V172.55h4.25v10.62a2.08,2.08,0,0,0,.61,1.51,2.1,2.1,0,0,0,1.51.62h8.5a2.08,2.08,0,0,0,1.5-.62,2.05,2.05,0,0,0,.63-1.51V172.55h4.25V185.3a4,4,0,0,1-1.26,3,4.09,4.09,0,0,1-3,1.25Z"/></g></g></svg>