<svg xmlns="http://www.w3.org/2000/svg" viewBox="0 0 372.69 71.31"><defs><style>.cls-1{fill:#66cd00;}</style></defs><g id="Capa_2" data-name="Capa 2"><g id="Capa_1-2" data-name="Capa 1"><path class="cls-1" d="M18.74,44.23A4.27,4.27,0,0,1,14.49,40v-8.5a4.29,4.29,0,0,1,4.25-4.25H33.09v4.25H19.81a1.09,1.09,0,0,0-.77.31,1.07,1.07,0,0,0-.3.75V33.6H32.91v4.25H18.74v1.07a1.06,1.06,0,0,0,.3.76,1.08,1.08,0,0,0,.77.3H33.62v4.25Z"/><path class="cls-1" d="M36.28,44.23l8.5-8.5-8.5-8.5h5.84l6.37,6.37,6.38-6.37h5.84l-8.5,8.5,8.5,8.5H54.87l-6.38-6.38-6.37,6.38Z"/><path class="cls-1" d="M63.37,44.23v-17H82.49a2.15,2.15,0,0,1,2.13,2.12v6.38a2.12,2.12,0,0,1-2.13,2.12H67.62v6.38ZM79.31,33.6a1,1,0,0,0,.74-.29,1.06,1.06,0,0,0,.32-.77,1.08,1.08,0,0,0-1.06-1.06H67.62V33.6Z"/><path class="cls-1" d="M87.81,44.23v-17h19.12a2.15,2.15,0,0,1,2.13,2.12v3.72a4,4,0,0,1-1.27,3,3.27,3.27,0,0,1-.68.56,4.3,4.3,0,0,1,1.22.88,3.93,3.93,0,0,1,.54.63,2.24,2.24,0,0,1,.34.62,9.91,9.91,0,0,1,.38,1.21l1.06,4.25H106l-.83-5a2,2,0,0,0-.5-.78,2,2,0,0,0-1.5-.64H92.06v6.38ZM103.74,33.6a1,1,0,0,0,.75-.29,1.06,1.06,0,0,0,.32-.77,1,1,0,0,0-.32-.75,1.06,1.06,0,0,0-.75-.31H92.06V33.6Z"/><path class="cls-1" d="M116.49,44.23A4.27,4.27,0,0,1,112.24,40v-8.5a4.29,4.29,0,0,1,4.25-4.25h14.35v4.25H117.56a1.09,1.09,0,0,0-.77.31,1.07,1.07,0,0,0-.3.75V33.6h14.17v4.25H116.49v1.07a1.06,1.06,0,0,0,.3.76,1.08,1.08,0,0,0,.77.3h13.81v4.25Z"/><path class="cls-1" d="M134,44.23V40h16.46a1.05,1.05,0,0,0,.75-.3,1.08,1.08,0,0,0-.75-1.83H136.68a2.08,2.08,0,0,1-2.12-2.12V29.37a2.08,2.08,0,0,1,.61-1.51,2.05,2.05,0,0,1,1.51-.63h18.6v4.25H139.87a1,1,0,0,0-1.06,1.06,1.08,1.08,0,0,0,.3.77,1,1,0,0,0,.76.29h13.81a2.17,2.17,0,0,1,2.13,2.13V42.1a2.05,2.05,0,0,1-.63,1.51,2.08,2.08,0,0,1-1.5.62Z"/><path class="cls-1" d="M158.46,44.23V40h16.47a1.05,1.05,0,0,0,.75-.3,1.08,1.08,0,0,0-.75-1.83H161.12A2.1,2.1,0,0,1,159,35.73V29.37a2.08,2.08,0,0,1,.62-1.51,2.05,2.05,0,0,1,1.51-.63h18.59v4.25h-15.4a1.09,1.09,0,0,0-.77.31,1.07,1.07,0,0,0-.3.75,1,1,0,0,0,1.07,1.06h13.81a2.17,2.17,0,0,1,2.12,2.13V42.1a2.13,2.13,0,0,1-2.12,2.13Z"/><path class="cls-1" d="M196.18,44.23A4.27,4.27,0,0,1,191.93,40v-8.5a4.29,4.29,0,0,1,4.25-4.25h14.69v4.25H198.31a2.13,2.13,0,0,0-2.13,2.12v4.25A2.12,2.12,0,0,0,198.31,40h12.75v4.25Z"/><path class="cls-1" d="M218.49,44.23A4.27,4.27,0,0,1,214.24,40v-8.5a4.29,4.29,0,0,1,4.25-4.25h12.75a4,4,0,0,1,3,1.26,4.06,4.06,0,0,1,1.26,3V40a4,4,0,0,1-1.26,3,4.07,4.07,0,0,1-3,1.25ZM229.12,40a2.13,2.13,0,0,0,2.12-2.13V33.6a2.15,2.15,0,0,0-2.12-2.12h-8.5a2.13,2.13,0,0,0-2.13,2.12v4.25A2.12,2.12,0,0,0,220.62,40Z"/><path class="cls-1" d="M238.68,44.23v-13A4.3,4.3,0,0,1,242.93,27a4.76,4.76,0,0,1,3.19,1.33q.39.36,10.62,10.63a.51.51,0,0,0,.8,0,1.25,1.25,0,0,0,.27-.8V27.23h4.25v13a4,4,0,0,1-1.27,3,4.07,4.07,0,0,1-3,1.25,5,5,0,0,1-3.19-1.33q-.41-.37-10.63-10.63a.5.5,0,0,0-.79,0,1.23,1.23,0,0,0-.27.8V44.23Z"/><path class="cls-1" d="M264.71,44.23V40h16.47a1.05,1.05,0,0,0,.75-.3,1.08,1.08,0,0,0-.75-1.83H267.37a2.1,2.1,0,0,1-2.13-2.12V29.37a2.08,2.08,0,0,1,.62-1.51,2.05,2.05,0,0,1,1.51-.63H286v4.25h-15.4a1.09,1.09,0,0,0-.77.31,1.07,1.07,0,0,0-.3.75,1,1,0,0,0,1.07,1.06h13.81a2.17,2.17,0,0,1,2.12,2.13V42.1a2.13,2.13,0,0,1-2.12,2.13Z"/><path class="cls-1" d="M293.93,44.23A4.27,4.27,0,0,1,289.68,40v-8.5a4.29,4.29,0,0,1,4.25-4.25h14.35v4.25H295a1.08,1.08,0,0,0-.76.31,1.07,1.07,0,0,0-.3.75V33.6h14.16v4.25H293.93v1.07a1.06,1.06,0,0,0,.3.76,1.07,1.07,0,0,0,.76.3h13.82v4.25Z"/><path class="cls-1" d="M312,44.23v-13A4.3,4.3,0,0,1,316.24,27a4.76,4.76,0,0,1,3.19,1.33q.4.36,10.63,10.63a.5.5,0,0,0,.79,0,1.25,1.25,0,0,0,.27-.8V27.23h4.25v13a4,4,0,0,1-1.26,3,4.09,4.09,0,0,1-3,1.25,5,5,0,0,1-3.19-1.33q-.39-.37-10.62-10.63a.51.51,0,0,0-.8,0,1.23,1.23,0,0,0-.27.8V44.23Z"/><path class="cls-1" d="M346,44.23V31.48h-8.5V27.23h21.25v4.25h-8.5V44.23Z"/><path class="cls-1" d="M1.74,13.49A1.72,1.72,0,0,1,0,11.8V1.69A1.71,1.71,0,0,1,1.74,0H12.2a1.71,1.71,0,0,1,1.74,1.69A1.71,1.71,0,0,1,12.2,3.37H3.48V11.8a1.72,1.72,0,0,1-1.74,1.69Z"/><path class="cls-1" d="M370.94,13.49a1.72,1.72,0,0,0,1.75-1.69V1.69A1.71,1.71,0,0,0,370.94,0H360.49a1.72,1.72,0,0,0-1.75,1.69,1.72,1.72,0,0,0,1.75,1.68h8.71V11.8a1.72,1.72,0,0,0,1.74,1.69Z"/><path class="cls-1" d="M370.94,71.24H360.49a1.69,1.69,0,1,1,0-3.37h8.71V59.43a1.75,1.75,0,0,1,3.49,0V69.55a1.72,1.72,0,0,1-1.75,1.69Z"/><path class="cls-1" d="M12.2,71.31H1.74A1.72,1.72,0,0,1,0,69.62V59.5a1.71,1.71,0,0,1,1.74-1.68A1.71,1.71,0,0,1,3.48,59.5v8.44H12.2a1.69,1.69,0,1,1,0,3.37Z"/></g></g></svg>