<svg xmlns="http://www.w3.org/2000/svg" viewBox="0 0 484.5 17.53"><defs><style>.cls-1{fill:#66cd00;}</style></defs><g id="Capa_2" data-name="Capa 2"><g id="Capa_1-2" data-name="Capa 1"><path class="cls-1" d="M4.25,17.27a4,4,0,0,1-3-1.25A4.09,4.09,0,0,1,0,13V4.52a4,4,0,0,1,1.25-3,4.06,4.06,0,0,1,3-1.26H18.94V4.52H6.38A2.12,2.12,0,0,0,4.25,6.64v4.25a2.08,2.08,0,0,0,.61,1.51A2.11,2.11,0,0,0,6.38,13H19.12v4.25Z"/><path class="cls-1" d="M26.56,17.27a4.06,4.06,0,0,1-3-1.25,4.09,4.09,0,0,1-1.25-3V4.52a4,4,0,0,1,1.25-3,4.06,4.06,0,0,1,3-1.26H39.31a4,4,0,0,1,3,1.26,4,4,0,0,1,1.26,3V13a4,4,0,0,1-1.26,3,4.09,4.09,0,0,1-3,1.25ZM37.19,13a2.13,2.13,0,0,0,2.12-2.13V6.64a2.15,2.15,0,0,0-2.12-2.12h-8.5a2.13,2.13,0,0,0-2.13,2.12v4.25A2.12,2.12,0,0,0,28.69,13Z"/><path class="cls-1" d="M46.75,17.27v-13a4.06,4.06,0,0,1,1.25-3A4.06,4.06,0,0,1,51,0a4.78,4.78,0,0,1,3.19,1.33q.39.36,10.62,10.62a.5.5,0,0,0,.8,0,1.2,1.2,0,0,0,.27-.79V.27h4.24v13a4.27,4.27,0,0,1-4.24,4.25,5,5,0,0,1-3.19-1.33q-.4-.36-10.63-10.62a.49.49,0,0,0-.79,0,1.23,1.23,0,0,0-.27.8V17.27Z"/><path class="cls-1" d="M72.78,17.27V13H89.25A1,1,0,0,0,90.31,12a1,1,0,0,0-.31-.74,1,1,0,0,0-.75-.32H75.44a2.08,2.08,0,0,1-1.51-.61,2.1,2.1,0,0,1-.62-1.51V2.41A2.08,2.08,0,0,1,73.93.9,2.05,2.05,0,0,1,75.44.27H94V4.52H78.62a1,1,0,0,0-1.06,1.06,1.06,1.06,0,0,0,.3.76,1.07,1.07,0,0,0,.76.3H92.44a2.15,2.15,0,0,1,2.12,2.13v6.37a2.13,2.13,0,0,1-2.12,2.13Z"/><path class="cls-1" d="M102,17.27A4,4,0,0,1,99,16a4.09,4.09,0,0,1-1.25-3V4.52a4,4,0,0,1,1.25-3,4.06,4.06,0,0,1,3-1.26h14.34V4.52H103.06a1,1,0,0,0-.76.31,1.05,1.05,0,0,0-.3.75V6.64h14.16v4.25H102V12a1.08,1.08,0,0,0,.3.77,1.06,1.06,0,0,0,.76.3h13.82v4.25Z"/><path class="cls-1" d="M120.06,17.27v-13a4.06,4.06,0,0,1,1.25-3,4.06,4.06,0,0,1,3-1.26,4.76,4.76,0,0,1,3.19,1.33q.41.36,10.62,10.62a.5.5,0,0,0,.8,0,1.2,1.2,0,0,0,.27-.79V.27h4.25v13a4.27,4.27,0,0,1-4.25,4.25A5,5,0,0,1,136,16.2q-.41-.36-10.62-10.62a.5.5,0,0,0-.8,0,1.23,1.23,0,0,0-.27.8V17.27Z"/><path class="cls-1" d="M154.06,17.27V4.52h-8.5V.27h21.25V4.52h-8.5V17.27Z"/><path class="cls-1" d="M168.94,17.27V.27h4.25v17Z"/><path class="cls-1" d="M176.38,17.27v-13a4,4,0,0,1,1.24-3,4.06,4.06,0,0,1,3-1.26,4.8,4.8,0,0,1,3.52,1.26,4.59,4.59,0,0,1,.74,1.13L190.19,13,195.5,2.39a4.6,4.6,0,0,1,.73-1.13A4.8,4.8,0,0,1,199.75,0a4,4,0,0,1,3,1.26,4.06,4.06,0,0,1,1.26,3v13h-4.25V6.64c0-.66-.22-1-.66-1.06a.5.5,0,0,0-.54.26l-5.71,11.43h-5.31L181.82,5.84a.49.49,0,0,0-.53-.26c-.44,0-.67.4-.67,1.06V17.27Z"/><path class="cls-1" d="M207.19,17.27V.27h4.25v17Z"/><path class="cls-1" d="M218.88,17.27A4.27,4.27,0,0,1,214.62,13V4.52a4,4,0,0,1,1.25-3,4.07,4.07,0,0,1,3-1.26h14.34V4.52H219.94a1,1,0,0,0-1.06,1.06V6.64H233v4.25H218.88V12A1,1,0,0,0,219.94,13h13.81v4.25Z"/><path class="cls-1" d="M236.94,17.27v-13a4,4,0,0,1,1.24-3,4.07,4.07,0,0,1,3-1.26,4.8,4.8,0,0,1,3.19,1.33Q244.77,1.69,255,12a.5.5,0,0,0,.8,0,1.25,1.25,0,0,0,.26-.79V.27h4.25v13a4.27,4.27,0,0,1-4.25,4.25,5,5,0,0,1-3.18-1.33q-.4-.36-10.63-10.62a.5.5,0,0,0-.8,0,1.28,1.28,0,0,0-.26.8V17.27Z"/><path class="cls-1" d="M270.94,17.27V4.52h-8.5V.27h21.25V4.52h-8.5V17.27Z"/><path class="cls-1" d="M290.06,17.27a4.06,4.06,0,0,1-3-1.25,4.09,4.09,0,0,1-1.25-3V4.52a4,4,0,0,1,1.25-3,4.06,4.06,0,0,1,3-1.26h12.75a4,4,0,0,1,3,1.26,4,4,0,0,1,1.26,3V13a4,4,0,0,1-1.26,3,4.09,4.09,0,0,1-3,1.25ZM300.69,13a2.13,2.13,0,0,0,2.12-2.13V6.64a2.15,2.15,0,0,0-2.12-2.12h-8.5a2.13,2.13,0,0,0-2.13,2.12v4.25A2.12,2.12,0,0,0,292.19,13Z"/><path class="cls-1" d="M323,17.27A4,4,0,0,1,320,16a4.09,4.09,0,0,1-1.25-3V4.52a4,4,0,0,1,1.25-3,4.06,4.06,0,0,1,3-1.26h14.34V4.52H324.06a1,1,0,0,0-.76.31,1.05,1.05,0,0,0-.3.75V6.64h14.16v4.25H323V12a1.08,1.08,0,0,0,.3.77,1.06,1.06,0,0,0,.76.3h13.82v4.25Z"/><path class="cls-1" d="M340.53,17.27l8.5-8.5-8.5-8.5h5.85l6.37,6.37L359.12.27H365l-8.5,8.5,8.5,8.5h-5.85l-6.37-6.38-6.37,6.38Z"/><path class="cls-1" d="M367.62,17.27V.27h19.13a2,2,0,0,1,1.49.63,2.05,2.05,0,0,1,.64,1.49V8.77a2.08,2.08,0,0,1-.64,1.51,2,2,0,0,1-1.49.61H371.88v6.38ZM383.56,6.64a1.05,1.05,0,0,0,.75-.3,1.07,1.07,0,0,0,0-1.51,1,1,0,0,0-.75-.31H371.88V6.64Z"/><path class="cls-1" d="M392.06,17.27V.27h19.13a2,2,0,0,1,1.49.63,2,2,0,0,1,.63,1.49V6.11a4,4,0,0,1-1.26,3,3.61,3.61,0,0,1-.68.57,4.08,4.08,0,0,1,1.21.88,4.6,4.6,0,0,1,.55.63,2.45,2.45,0,0,1,.33.61,10.15,10.15,0,0,1,.38,1.22l1.07,4.25h-4.62l-.83-5a1.93,1.93,0,0,0-.5-.78,2,2,0,0,0-1.49-.63H396.31v6.38ZM408,6.64a1.05,1.05,0,0,0,.75-.3,1.07,1.07,0,0,0,0-1.51,1,1,0,0,0-.75-.31H396.31V6.64Z"/><path class="cls-1" d="M420.75,17.27a4,4,0,0,1-3-1.25,4.09,4.09,0,0,1-1.25-3V4.52a4,4,0,0,1,1.25-3,4.06,4.06,0,0,1,3-1.26h14.34V4.52H421.81a1,1,0,0,0-.76.31,1.05,1.05,0,0,0-.3.75V6.64h14.16v4.25H420.75V12a1.08,1.08,0,0,0,.3.77,1.06,1.06,0,0,0,.76.3h13.81v4.25Z"/><path class="cls-1" d="M438.28,17.27V13h16.47A1,1,0,0,0,455.81,12a1,1,0,0,0-.31-.74,1,1,0,0,0-.75-.32H440.94a2.08,2.08,0,0,1-1.51-.61,2.1,2.1,0,0,1-.62-1.51V2.41A2.08,2.08,0,0,1,439.43.9a2.05,2.05,0,0,1,1.51-.63h18.59V4.52H444.12a1,1,0,0,0-1.06,1.06,1.06,1.06,0,0,0,.3.76,1.07,1.07,0,0,0,.76.3h13.82a2.15,2.15,0,0,1,2.12,2.13v6.37a2.13,2.13,0,0,1-2.12,2.13Z"/><path class="cls-1" d="M467.5,17.27a4,4,0,0,1-3-1.25,4.09,4.09,0,0,1-1.25-3V4.52a4,4,0,0,1,1.25-3,4.06,4.06,0,0,1,3-1.26h12.75a4,4,0,0,1,3,1.26,4,4,0,0,1,1.26,3V13a4,4,0,0,1-1.26,3,4.09,4.09,0,0,1-3,1.25ZM478.12,13a2.08,2.08,0,0,0,1.5-.62,2.05,2.05,0,0,0,.63-1.51V6.64a2.15,2.15,0,0,0-2.13-2.12h-8.5a2.12,2.12,0,0,0-2.12,2.12v4.25a2.08,2.08,0,0,0,.61,1.51,2.1,2.1,0,0,0,1.51.62Z"/></g></g></svg>