<svg xmlns="http://www.w3.org/2000/svg" viewBox="0 0 347.44 17.27"><defs><style>.cls-1{fill:#ff7300;}</style></defs><g id="Capa_2" data-name="Capa 2"><g id="Capa_1-2" data-name="Capa 1"><path class="cls-1" d="M0,17.27,7.44,2.39a4.71,4.71,0,0,1,.79-1.06A4.86,4.86,0,0,1,11.69,0a4.8,4.8,0,0,1,3.45,1.33,4.72,4.72,0,0,1,.8,1.06l7.44,14.88H18.06l-1.59-3.19H6.91l-1.6,3.19Zm14.88-6.38L12.1,5.36a.47.47,0,0,0-.41-.28.5.5,0,0,0-.43.28L8.5,10.89Z"/><path class="cls-1" d="M25.5,17.27V.27H44.62a2,2,0,0,1,1.5.63,2,2,0,0,1,.63,1.49V8.77a2.12,2.12,0,0,1-2.13,2.12H29.75v6.38ZM41.44,6.64a1.05,1.05,0,0,0,.74-1.81,1,1,0,0,0-.74-.31H29.75V6.64Z"/><path class="cls-1" d="M54.19,17.27A4.25,4.25,0,0,1,49.94,13V4.52a4,4,0,0,1,1.24-3,4.07,4.07,0,0,1,3-1.26H68.53V4.52H55.25a1,1,0,0,0-.76.31,1.05,1.05,0,0,0-.3.75V6.64H68.35v4.25H54.19V12a1.08,1.08,0,0,0,.3.77,1.06,1.06,0,0,0,.76.3H69.06v4.25Z"/><path class="cls-1" d="M72.25,17.27V.27H91.38A2,2,0,0,1,92.87.9a2,2,0,0,1,.63,1.49V6.11a4,4,0,0,1-1.26,3,3.61,3.61,0,0,1-.68.57,4.21,4.21,0,0,1,1.21.88,4.6,4.6,0,0,1,.55.63,2.45,2.45,0,0,1,.33.61A10.15,10.15,0,0,1,94,13l1.06,4.25H90.48l-.83-5a2.16,2.16,0,0,0-2-1.41H76.5v6.38ZM88.19,6.64a1.05,1.05,0,0,0,.74-1.81,1,1,0,0,0-.74-.31H76.5V6.64Z"/><path class="cls-1" d="M104.12,17.27V4.52h-8.5V.27h21.26V4.52h-8.5V17.27Z"/><path class="cls-1" d="M123.25,17.27a4,4,0,0,1-3-1.25A4.09,4.09,0,0,1,119,13V.27h4.25V10.89a2.08,2.08,0,0,0,.61,1.51,2.11,2.11,0,0,0,1.52.62h8.5A2.13,2.13,0,0,0,136,10.89V.27h4.25V13A4,4,0,0,1,139,16a4.09,4.09,0,0,1-3,1.25Z"/><path class="cls-1" d="M143.44,17.27V.27h19.12a2,2,0,0,1,1.5.63,2,2,0,0,1,.63,1.49V6.11a4,4,0,0,1-1.26,3,3.61,3.61,0,0,1-.68.57,4.21,4.21,0,0,1,1.21.88,3.93,3.93,0,0,1,.54.63,2.17,2.17,0,0,1,.34.61,10.15,10.15,0,0,1,.38,1.22l1.06,4.25h-4.61l-.83-5a2.16,2.16,0,0,0-2-1.41H147.69v6.38ZM159.38,6.64a1.06,1.06,0,0,0,1.06-1.06,1,1,0,0,0-.32-.75,1,1,0,0,0-.74-.31H147.69V6.64Z"/><path class="cls-1" d="M166.81,17.27l7.44-14.88a4.44,4.44,0,0,1,.8-1.06,5.14,5.14,0,0,1,6.9,0,4.44,4.44,0,0,1,.8,1.06l7.44,14.88h-5.31l-1.6-3.19h-9.56l-1.6,3.19Zm14.88-6.38-2.77-5.53a.49.49,0,0,0-.42-.28.5.5,0,0,0-.43.28l-2.76,5.53Z"/><path class="cls-1" d="M200.81,17.27V.27h19.13a2,2,0,0,1,1.49.63,2,2,0,0,1,.63,1.49V6.11a4,4,0,0,1-1.26,3,3.61,3.61,0,0,1-.68.57,4.08,4.08,0,0,1,1.21.88,4.6,4.6,0,0,1,.55.63,2.45,2.45,0,0,1,.33.61,10.15,10.15,0,0,1,.38,1.22l1.07,4.25H219l-.83-5a1.93,1.93,0,0,0-.5-.78,2,2,0,0,0-1.49-.63H205.06v6.38ZM216.75,6.64a1.05,1.05,0,0,0,.75-.3,1.07,1.07,0,0,0,0-1.51,1,1,0,0,0-.75-.31H205.06V6.64Z"/><path class="cls-1" d="M229.5,17.27a4,4,0,0,1-3-1.25,4.09,4.09,0,0,1-1.25-3V4.52a4,4,0,0,1,1.25-3,4.06,4.06,0,0,1,3-1.26h14.34V4.52H230.56a1,1,0,0,0-.76.31,1.05,1.05,0,0,0-.3.75V6.64h14.16v4.25H229.5V12a1.08,1.08,0,0,0,.3.77,1.06,1.06,0,0,0,.76.3h13.82v4.25Z"/><path class="cls-1" d="M247.56,17.27v-13a4.06,4.06,0,0,1,1.25-3,4.06,4.06,0,0,1,3-1.26,4.8,4.8,0,0,1,3.52,1.26,4.33,4.33,0,0,1,.73,1.13L261.38,13l5.31-10.63a4.33,4.33,0,0,1,.73-1.13A4.8,4.8,0,0,1,270.94,0a4,4,0,0,1,3,1.26,4.06,4.06,0,0,1,1.26,3v13h-4.25V6.64c0-.66-.22-1-.67-1.06a.49.49,0,0,0-.53.26L264,17.27h-5.31L253,5.84a.49.49,0,0,0-.53-.26c-.45,0-.67.4-.67,1.06V17.27Z"/><path class="cls-1" d="M282.62,17.27A4.25,4.25,0,0,1,278.38,13V4.52a4,4,0,0,1,1.24-3,4.06,4.06,0,0,1,3-1.26h12.76a4,4,0,0,1,3,1.26,4,4,0,0,1,1.26,3V13a4.29,4.29,0,0,1-4.24,4.25ZM293.25,13a2.15,2.15,0,0,0,2.13-2.13V6.64a2.05,2.05,0,0,0-.64-1.49,2,2,0,0,0-1.49-.63h-8.5a2.13,2.13,0,0,0-2.13,2.12v4.25A2.12,2.12,0,0,0,284.75,13Z"/><path class="cls-1" d="M310.25,17.27V4.52h-8.5V.27H323V4.52h-8.5V17.27Z"/><path class="cls-1" d="M324.06,17.27,331.5,2.39a4.44,4.44,0,0,1,.8-1.06,5.14,5.14,0,0,1,6.9,0,4.44,4.44,0,0,1,.8,1.06l7.44,14.88h-5.32l-1.59-3.19H331l-1.59,3.19Zm14.88-6.38-2.77-5.53a.49.49,0,0,0-.42-.28.5.5,0,0,0-.43.28l-2.76,5.53Z"/></g></g></svg>