<svg xmlns="http://www.w3.org/2000/svg" viewBox="0 0 390.74 28.41"><defs><style>.cls-1{fill:#0cc;}</style></defs><g id="Capa_2" data-name="Capa 2"><g id="Capa_1-2" data-name="Capa 1"><path class="cls-1" d="M0,28.09V7.66H22.35a2.42,2.42,0,0,1,1.79.76,2.44,2.44,0,0,1,.76,1.79v3.84a4.86,4.86,0,0,1-1.52,3.61.39.39,0,0,1-.08.1,4.79,4.79,0,0,1,1.36,1,4.89,4.89,0,0,1,1.52,3.6v3.19a2.56,2.56,0,0,1-2.56,2.55ZM18.52,15.32a1.25,1.25,0,0,0,.89-.36,1.27,1.27,0,0,0,0-1.81,1.23,1.23,0,0,0-.89-.38H5.11v2.55ZM19.15,23a1.21,1.21,0,0,0,.9-.36,1.29,1.29,0,0,0-.9-2.19h-14V23Z"/><path class="cls-1" d="M34.48,28.09a4.88,4.88,0,0,1-3.61-1.49A4.94,4.94,0,0,1,29.37,23V12.77a4.84,4.84,0,0,1,1.5-3.59,4.88,4.88,0,0,1,3.61-1.52H49.8a4.82,4.82,0,0,1,3.59,1.52,4.87,4.87,0,0,1,1.52,3.59V23a5.14,5.14,0,0,1-5.11,5.11ZM47.25,23a2.54,2.54,0,0,0,2.55-2.55V15.32a2.6,2.6,0,0,0-2.55-2.55H37a2.56,2.56,0,0,0-2.55,2.55v5.11A2.51,2.51,0,0,0,37,23Zm-7-17.87L42.78,0h5.1l-5.1,5.11Z"/><path class="cls-1" d="M67.36,26.81a5.68,5.68,0,0,1-1-1.27L57.46,7.66h6.39L71,22a.59.59,0,0,0,.52.34A.57.57,0,0,0,72,22L79.17,7.66h6.38L76.62,25.54a5.68,5.68,0,0,1-1,1.27,6.18,6.18,0,0,1-8.3,0Z"/><path class="cls-1" d="M93.22,28.09A5.09,5.09,0,0,1,88.11,23V12.77A4.87,4.87,0,0,1,89.6,9.18a4.92,4.92,0,0,1,3.62-1.52h17.23v5.11h-16a1.28,1.28,0,0,0-.92.38,1.24,1.24,0,0,0-.35.9v1.27h17v5.11h-17v1.28A1.22,1.22,0,0,0,94.49,23h16.6v5.11Z"/><path class="cls-1" d="M114.92,28.09V7.66h20.43A4.86,4.86,0,0,1,139,9.18a4.86,4.86,0,0,1,1.51,3.59V23A4.86,4.86,0,0,1,139,26.6a4.94,4.94,0,0,1-3.6,1.49ZM132.8,23a2.53,2.53,0,0,0,2.55-2.55V15.32a2.58,2.58,0,0,0-2.55-2.55H120V23Z"/><path class="cls-1" d="M143,28.09,152,10.21a5.56,5.56,0,0,1,5.11-2.87,5.81,5.81,0,0,1,4.15,1.6,5.92,5.92,0,0,1,1,1.27l8.94,17.88h-6.39l-1.91-3.83H151.32l-1.92,3.83Zm17.87-7.66-3.33-6.64a.57.57,0,0,0-.5-.34.62.62,0,0,0-.52.34l-3.31,6.64Z"/><path class="cls-1" d="M183.88,28.09V7.66h20.43a4.84,4.84,0,0,1,3.59,1.52,4.87,4.87,0,0,1,1.52,3.59V23a4.87,4.87,0,0,1-1.52,3.62,4.93,4.93,0,0,1-3.59,1.49ZM201.75,23a2.54,2.54,0,0,0,2.56-2.55V15.32a2.6,2.6,0,0,0-2.56-2.55H189V23Z"/><path class="cls-1" d="M218.35,28.09a5.09,5.09,0,0,1-5.1-5.11V12.77a4.83,4.83,0,0,1,1.49-3.59,4.9,4.9,0,0,1,3.61-1.52h17.24v5.11h-16a1.26,1.26,0,0,0-1.28,1.28v1.27h17v5.11h-17v1.28a1.26,1.26,0,0,0,.36.91,1.24,1.24,0,0,0,.92.36h16.6v5.11Z"/><path class="cls-1" d="M250.28,28.09V7.66h20.43a4.84,4.84,0,0,1,3.59,1.52,4.86,4.86,0,0,1,1.51,3.59V23a4.86,4.86,0,0,1-1.51,3.62,4.93,4.93,0,0,1-3.59,1.49ZM268.15,23a2.54,2.54,0,0,0,2.56-2.55V15.32a2.6,2.6,0,0,0-2.56-2.55H255.38V23Z"/><path class="cls-1" d="M278.37,28.09l8.94-17.88a5.6,5.6,0,0,1,.95-1.27,5.89,5.89,0,0,1,4.16-1.6,5.79,5.79,0,0,1,4.14,1.6,5.33,5.33,0,0,1,1,1.27l8.94,17.88h-6.38l-1.92-3.83H286.67l-1.92,3.83Zm17.88-7.66-3.34-6.64a.57.57,0,0,0-.49-.34.61.61,0,0,0-.52.34l-3.32,6.64Z"/><path class="cls-1" d="M318,28.09V12.77H307.74V7.66h25.54v5.11H323.06V28.09Z"/><path class="cls-1" d="M340.94,28.09a4.88,4.88,0,0,1-3.61-1.49,4.94,4.94,0,0,1-1.5-3.62V12.77a4.84,4.84,0,0,1,1.5-3.59,4.88,4.88,0,0,1,3.61-1.52h15.32a4.82,4.82,0,0,1,3.59,1.52,4.87,4.87,0,0,1,1.52,3.59V23a5.14,5.14,0,0,1-5.11,5.11ZM353.71,23a2.54,2.54,0,0,0,2.55-2.55V15.32a2.6,2.6,0,0,0-2.55-2.55H343.49a2.56,2.56,0,0,0-2.55,2.55v5.11A2.51,2.51,0,0,0,343.49,23Z"/><path class="cls-1" d="M364.56,28.09V23h19.79a1.21,1.21,0,0,0,.9-.36,1.29,1.29,0,0,0-.9-2.19h-16.6a2.47,2.47,0,0,1-1.81-.74,2.51,2.51,0,0,1-.74-1.81V10.24a2.53,2.53,0,0,1,.74-1.82,2.45,2.45,0,0,1,1.81-.76H390.1v5.11H371.58a1.24,1.24,0,0,0-.91.38,1.27,1.27,0,0,0,.91,2.17h16.6a2.6,2.6,0,0,1,2.56,2.56v7.66a2.56,2.56,0,0,1-2.56,2.55Z"/></g></g></svg>