<svg xmlns="http://www.w3.org/2000/svg" viewBox="0 0 375.7 71.94"><defs><style>.cls-1{fill:#ff7300;}</style></defs><g id="Capa_2" data-name="Capa 2"><g id="Capa_1-2" data-name="Capa 1"><path class="cls-1" d="M14.32,44.29l7.43-14.88a4.72,4.72,0,0,1,.8-1.06,5.15,5.15,0,0,1,6.91,0,4.71,4.71,0,0,1,.79,1.06l7.44,14.88H32.38L30.79,41.1H21.22l-1.59,3.19Zm14.87-6.38-2.77-5.53A.48.48,0,0,0,26,32.1a.51.51,0,0,0-.43.28l-2.75,5.53Z"/><path class="cls-1" d="M39.82,44.29v-17H58.94a2.15,2.15,0,0,1,2.13,2.12v6.38a2.12,2.12,0,0,1-2.13,2.12H44.07v6.38ZM55.75,33.66a1.05,1.05,0,0,0,.75-.3,1.05,1.05,0,0,0,0-1.51,1,1,0,0,0-.75-.31H44.07v2.12Z"/><path class="cls-1" d="M68.5,44.29A4.27,4.27,0,0,1,64.25,40v-8.5a4.29,4.29,0,0,1,4.25-4.25H82.85v4.25H69.57A1,1,0,0,0,68.5,32.6v1.06H82.67v4.25H68.5V39A1,1,0,0,0,69.57,40H83.38v4.25Z"/><path class="cls-1" d="M86.57,44.29v-17h19.12a2.15,2.15,0,0,1,2.13,2.12v3.72a4,4,0,0,1-1.26,3,3.67,3.67,0,0,1-.69.57,4.12,4.12,0,0,1,1.22.88,3.93,3.93,0,0,1,.54.63,2.32,2.32,0,0,1,.34.61,10.15,10.15,0,0,1,.38,1.22l1.06,4.25H104.8l-.83-5a2.16,2.16,0,0,0-2-1.41H90.82v6.38ZM102.5,33.66a1.05,1.05,0,0,0,.75-.3,1.05,1.05,0,0,0,0-1.51,1,1,0,0,0-.75-.31H90.82v2.12Z"/><path class="cls-1" d="M118.44,44.29V31.54h-8.5V27.29h21.25v4.25h-8.5V44.29Z"/><path class="cls-1" d="M137.57,44.29A4.25,4.25,0,0,1,133.32,40V27.29h4.25V37.91a2.08,2.08,0,0,0,.61,1.51,2.1,2.1,0,0,0,1.51.62h8.5a2.08,2.08,0,0,0,1.5-.62,2.05,2.05,0,0,0,.63-1.51V27.29h4.25V40a4,4,0,0,1-1.26,3,4.09,4.09,0,0,1-3,1.25Z"/><path class="cls-1" d="M157.75,44.29v-17h19.13A2.15,2.15,0,0,1,179,29.41v3.72a4,4,0,0,1-1.26,3,3.32,3.32,0,0,1-.68.57,4.08,4.08,0,0,1,1.21.88,4,4,0,0,1,.55.63,2.65,2.65,0,0,1,.33.61,9.92,9.92,0,0,1,.39,1.22l1.06,4.25H176l-.83-5a1.93,1.93,0,0,0-.5-.78,2,2,0,0,0-1.49-.63H162v6.38Zm15.94-10.63a1.05,1.05,0,0,0,.75-.3,1.07,1.07,0,0,0-.75-1.82H162v2.12Z"/><path class="cls-1" d="M181.13,44.29l7.44-14.88a4.71,4.71,0,0,1,.79-1.06,5.15,5.15,0,0,1,6.91,0,4.72,4.72,0,0,1,.8,1.06l7.43,14.88h-5.31L197.6,41.1H188l-1.6,3.19ZM196,37.91l-2.77-5.53a.47.47,0,0,0-.41-.28.5.5,0,0,0-.43.28l-2.76,5.53Z"/><path class="cls-1" d="M215.13,44.29v-17h19.12a2.15,2.15,0,0,1,2.13,2.12v3.72a4,4,0,0,1-1.26,3,3.61,3.61,0,0,1-.68.57,4.21,4.21,0,0,1,1.21.88,4.6,4.6,0,0,1,.55.63,2.65,2.65,0,0,1,.33.61,10.15,10.15,0,0,1,.38,1.22L238,44.29h-4.61l-.83-5a2.16,2.16,0,0,0-2-1.41H219.38v6.38Zm15.94-10.63a1.06,1.06,0,0,0,1.06-1.06,1,1,0,0,0-.32-.75,1,1,0,0,0-.74-.31H219.38v2.12Z"/><path class="cls-1" d="M243.82,44.29A4.25,4.25,0,0,1,239.57,40v-8.5a4.27,4.27,0,0,1,4.25-4.25h14.34v4.25H244.88a1,1,0,0,0-.76.31,1.05,1.05,0,0,0-.3.75v1.06H258v4.25H243.82V39a1.08,1.08,0,0,0,.3.77,1.06,1.06,0,0,0,.76.3h13.81v4.25Z"/><path class="cls-1" d="M261.88,44.29v-13A4.27,4.27,0,0,1,266.13,27a4.8,4.8,0,0,1,3.52,1.26,4.6,4.6,0,0,1,.73,1.13L275.69,40,281,29.41a4.91,4.91,0,0,1,.73-1.13A4.82,4.82,0,0,1,285.25,27a4,4,0,0,1,3,1.26,4.06,4.06,0,0,1,1.26,3v13h-4.25V33.66c0-.66-.22-1-.66-1.06a.5.5,0,0,0-.53.26l-5.71,11.43H273l-5.72-11.43a.49.49,0,0,0-.53-.26c-.44,0-.66.4-.66,1.06V44.29Z"/><path class="cls-1" d="M296.94,44.29A4.27,4.27,0,0,1,292.69,40v-8.5a4.29,4.29,0,0,1,4.25-4.25h12.75a4.3,4.3,0,0,1,4.25,4.25V40a4,4,0,0,1-1.26,3,4.09,4.09,0,0,1-3,1.25ZM307.57,40a2.13,2.13,0,0,0,2.12-2.13V33.66a2.15,2.15,0,0,0-2.12-2.12h-8.5a2.13,2.13,0,0,0-2.13,2.12v4.25A2.12,2.12,0,0,0,299.07,40Z"/><path class="cls-1" d="M324.57,44.29V31.54h-8.5V27.29h21.25v4.25h-8.5V44.29Z"/><path class="cls-1" d="M338.38,44.29l7.44-14.88a4.71,4.71,0,0,1,.79-1.06,5.15,5.15,0,0,1,6.91,0,4.72,4.72,0,0,1,.8,1.06l7.43,14.88h-5.31l-1.59-3.19h-9.56l-1.6,3.19Zm14.87-6.38-2.77-5.53a.47.47,0,0,0-.41-.28.5.5,0,0,0-.43.28l-2.76,5.53Z"/><path class="cls-1" d="M1.74,14.12A1.71,1.71,0,0,1,0,12.44V2.32A1.72,1.72,0,0,1,1.74.63H12.2a1.72,1.72,0,0,1,1.74,1.69A1.71,1.71,0,0,1,12.2,4H3.48v8.44a1.71,1.71,0,0,1-1.74,1.68Z"/><path class="cls-1" d="M374,13.49a1.72,1.72,0,0,0,1.74-1.69V1.69A1.71,1.71,0,0,0,374,0H363.5a1.71,1.71,0,0,0-1.74,1.69,1.71,1.71,0,0,0,1.74,1.68h8.71V11.8A1.72,1.72,0,0,0,374,13.49Z"/><path class="cls-1" d="M374,71.24H363.5a1.69,1.69,0,1,1,0-3.37h8.71V59.43a1.75,1.75,0,0,1,3.49,0V69.55A1.72,1.72,0,0,1,374,71.24Z"/><path class="cls-1" d="M12.2,71.94H1.74A1.71,1.71,0,0,1,0,70.26V60.14a1.72,1.72,0,0,1,1.74-1.69,1.72,1.72,0,0,1,1.74,1.69v8.43H12.2a1.69,1.69,0,1,1,0,3.37Z"/></g></g></svg>