<?xml version="1.0" encoding="utf-8"?>
<!-- Generator: Adobe Illustrator 25.2.3, SVG Export Plug-In . SVG Version: 6.00 Build 0)  -->
<svg version="1.1" id="Capa_1" xmlns="http://www.w3.org/2000/svg" xmlns:xlink="http://www.w3.org/1999/xlink" x="0px" y="0px"
	 viewBox="0 0 670.7 674.4" style="enable-background:new 0 0 670.7 674.4;" xml:space="preserve">
<style type="text/css">
	.st0{fill:#FFFFFF;}
	.st1{fill:#9E9E9E;}
	.st2{enable-background:new    ;}
	.st3{fill:#212A33;}
</style>
<g>
	<g id="Capa_1_1_">
		
			<image style="overflow:visible;opacity:0.21;enable-background:new    ;" width="244" height="247" xlink:href="1C5D448E25D5B72.png"  transform="matrix(1 0 0 1 382.35 346.7)">
		</image>
		<g>
			<path class="st0" d="M463.6,364.9h94c26.2,0,47.5,21.2,47.5,47.5V510c0,26.2-21.2,47.5-47.5,47.5h-94
				c-26.2,0-47.5-21.2-47.5-47.5v-97.7C416.2,386.1,437.4,364.9,463.6,364.9z"/>
		</g>
		<g>
			<path class="st1" d="M511.8,477.1c15.7,0,28.5-12.7,28.5-28.5s-12.7-28.5-28.5-28.5c-15.7,0-28.5,12.7-28.5,28.5c0,0,0,0,0,0
				C483.4,464.3,496.1,477.1,511.8,477.1z M486.1,448.6c0-14.2,11.5-25.6,25.6-25.6s25.6,11.5,25.6,25.6s-11.5,25.6-25.6,25.6l0,0
				C497.6,474.3,486.2,462.8,486.1,448.6z"/>
		</g>
		<g>
			<path class="st1" d="M503.3,428.5c7.2-3,15.5-2,21.7,2.8c0.6,0.5,0.7,1.3,0.3,2c-0.5,0.6-1.3,0.7-2,0.3l0,0
				c-7.8-6-18.9-5-25.6,2.3c-0.5,0.6-1.4,0.6-2,0.1c0,0,0,0,0,0c-0.6-0.5-0.6-1.4-0.1-2c0,0,0,0,0,0
				C497.8,431.5,500.4,429.7,503.3,428.5z"/>
		</g>
		<g>
			<path class="st1" d="M458.7,501.7c2.3,2.3,6.1,2.3,8.4,0l24.4-24.4c15.9,11.2,37.8,7.5,49.1-8.4s7.5-37.8-8.4-49.1
				s-37.8-7.5-49.1,8.4c-8.6,12.2-8.6,28.5,0,40.7l-24.4,24.4C456.4,495.7,456.4,499.4,458.7,501.7z M511.8,481
				c-7.3,0-14.4-2.5-20.2-7.1l-0.6-0.5l-0.8-0.7l-0.5-0.5c-0.5-0.4-0.9-0.9-1.4-1.4l-0.5-0.5c-0.2-0.3-0.5-0.5-0.7-0.8l-0.5-0.6
				c-11.1-13.9-8.8-34.3,5.1-45.4s34.3-8.8,45.4,5.1s8.8,34.3-5.1,45.4C526.2,478.5,519.1,481,511.8,481z M489.2,475.6l-3.2,3.2
				c-1.6-1.3-3.1-2.8-4.4-4.4l3.2-3.2l0.4,0.4c0.4,0.5,0.9,1,1.3,1.5l0.7,0.7c0.5,0.5,1,0.9,1.5,1.4L489.2,475.6z M459.8,497.6
				c0-0.8,0.3-1.6,0.9-2.2l18.9-18.9c1.4,1.6,2.8,3,4.4,4.4l-18.9,18.9c-1.2,1.2-3.2,1.2-4.4,0C460.1,499.2,459.8,498.4,459.8,497.6
				L459.8,497.6z"/>
		</g>
		<g class="st2">
			<path class="st3" d="M429.5,598.7c-0.6,0-1.1-0.1-1.7-0.2c-0.5-0.1-1-0.3-1.5-0.5c-0.5-0.2-0.9-0.4-1.2-0.7l0.7-1.5
				c0.6,0.4,1.2,0.7,1.7,0.9s1.2,0.3,2,0.3c0.8,0,1.4-0.1,1.8-0.4s0.6-0.7,0.6-1.2c0-0.3-0.1-0.5-0.3-0.7c-0.2-0.2-0.5-0.4-0.9-0.5
				s-0.9-0.3-1.4-0.4c-0.7-0.1-1.3-0.3-1.8-0.5c-0.5-0.2-0.9-0.4-1.3-0.7c-0.3-0.3-0.6-0.6-0.8-0.9c-0.2-0.4-0.3-0.8-0.3-1.3
				c0-0.7,0.2-1.3,0.5-1.8c0.4-0.5,0.9-0.9,1.5-1.2c0.7-0.3,1.4-0.4,2.3-0.4c0.5,0,1,0.1,1.5,0.2c0.5,0.1,1,0.3,1.4,0.5
				c0.4,0.2,0.8,0.4,1.1,0.7l-0.7,1.5c-0.5-0.4-1-0.7-1.6-0.9c-0.5-0.2-1.1-0.3-1.7-0.3c-0.7,0-1.3,0.1-1.7,0.4
				c-0.4,0.3-0.6,0.7-0.6,1.2c0,0.3,0.1,0.6,0.3,0.8c0.2,0.2,0.4,0.4,0.8,0.5c0.4,0.1,0.8,0.3,1.4,0.4c0.7,0.1,1.2,0.3,1.8,0.5
				c0.5,0.2,0.9,0.4,1.3,0.6c0.4,0.2,0.6,0.5,0.8,0.9s0.3,0.8,0.3,1.2c0,0.7-0.2,1.3-0.5,1.8c-0.4,0.5-0.9,0.9-1.5,1.2
				C431.3,598.6,430.5,598.7,429.5,598.7z"/>
			<path class="st3" d="M442.7,597.7c-0.4,0.3-0.8,0.6-1.4,0.7c-0.6,0.2-1.1,0.3-1.7,0.3c-0.9,0-1.6-0.2-2.2-0.5
				c-0.6-0.3-1.1-0.8-1.5-1.4c-0.3-0.6-0.5-1.4-0.5-2.2c0-0.8,0.2-1.6,0.5-2.2c0.3-0.6,0.8-1.1,1.4-1.5c0.6-0.4,1.3-0.5,2-0.5
				c0.7,0,1.4,0.2,1.9,0.5c0.5,0.3,0.9,0.8,1.2,1.4c0.3,0.6,0.4,1.3,0.4,2.1v0.3h-5.7l0-1.1h4.5l-0.5,0.5c0-0.8-0.1-1.4-0.5-1.8
				c-0.3-0.4-0.8-0.6-1.4-0.6c-0.6,0-1.1,0.2-1.5,0.7c-0.3,0.5-0.5,1.1-0.5,1.9c0,1,0.2,1.7,0.6,2.1c0.4,0.5,1,0.7,1.8,0.7
				c0.4,0,0.9-0.1,1.3-0.2c0.4-0.1,0.8-0.4,1.2-0.6L442.7,597.7z"/>
			<path class="st3" d="M448.2,602.2c-1.2,0-2.3-0.3-3.3-0.8l0.3-1.5c0.5,0.3,1,0.4,1.4,0.6c0.5,0.1,1,0.2,1.5,0.2
				c0.7,0,1.2-0.2,1.6-0.5c0.4-0.3,0.5-0.9,0.5-1.6v-2h0.2c-0.1,0.3-0.3,0.6-0.6,0.9c-0.3,0.3-0.6,0.5-1,0.7
				c-0.4,0.2-0.8,0.2-1.3,0.2c-0.7,0-1.3-0.2-1.9-0.5c-0.5-0.3-1-0.8-1.3-1.4c-0.3-0.6-0.5-1.3-0.5-2.1c0-0.8,0.2-1.5,0.5-2.1
				c0.3-0.6,0.7-1.1,1.3-1.4c0.5-0.3,1.2-0.5,1.9-0.5c0.7,0,1.3,0.2,1.8,0.5s0.9,0.8,1,1.4l-0.2,0v-1.7h2v7.8c0,1.2-0.3,2.2-1,2.8
				C450.5,601.8,449.5,602.2,448.2,602.2z M448.2,596.8c0.7,0,1.2-0.2,1.5-0.7c0.4-0.4,0.6-1,0.6-1.8s-0.2-1.4-0.6-1.8
				c-0.4-0.4-0.9-0.7-1.5-0.7c-0.7,0-1.2,0.2-1.6,0.7s-0.6,1-0.6,1.8s0.2,1.4,0.6,1.8S447.5,596.8,448.2,596.8z"/>
			<path class="st3" d="M457.3,598.7c-1,0-1.7-0.3-2.2-0.8c-0.5-0.5-0.7-1.4-0.7-2.5v-4.8h2v4.9c0,0.6,0.1,1,0.4,1.3
				c0.2,0.3,0.6,0.4,1.1,0.4c0.6,0,1-0.2,1.4-0.6c0.3-0.4,0.5-0.9,0.5-1.5v-4.5h2v8h-1.9V597l0.2,0c-0.2,0.6-0.6,1-1,1.3
				C458.5,598.6,457.9,598.7,457.3,598.7z"/>
			<path class="st3" d="M463.8,598.6v-5.7c0-0.4,0-0.7,0-1.1c0-0.4,0-0.8-0.1-1.1h1.9l0.2,2.1l-0.2-0.1c0.1-0.7,0.5-1.2,0.9-1.6
				c0.5-0.4,1-0.5,1.7-0.5c0.2,0,0.3,0,0.4,0c0.1,0,0.3,0.1,0.4,0.1l0,1.8c-0.3-0.1-0.7-0.2-1-0.2c-0.5,0-0.9,0.1-1.2,0.3
				c-0.3,0.2-0.5,0.4-0.7,0.8c-0.2,0.3-0.2,0.7-0.2,1.1v4.3H463.8z"/>
			<path class="st3" d="M470,587h2.2v2H470V587z M470,598.6v-8h2v8H470z"/>
			<path class="st3" d="M481.9,598.6h-2v-2l0.2,0.3c-0.2,0.6-0.5,1.1-1,1.4c-0.5,0.3-1.1,0.5-1.8,0.5c-0.7,0-1.3-0.2-1.8-0.5
				c-0.5-0.3-0.9-0.8-1.2-1.5s-0.4-1.4-0.4-2.2c0-0.8,0.1-1.6,0.4-2.2s0.7-1.1,1.2-1.4c0.5-0.3,1.2-0.5,1.9-0.5
				c0.7,0,1.3,0.2,1.8,0.5c0.5,0.3,0.8,0.8,1,1.4l-0.2,0.2v-5.6h2V598.6z M477.8,597.2c0.7,0,1.2-0.2,1.5-0.7s0.5-1.1,0.5-2
				c0-0.8-0.2-1.5-0.5-1.9c-0.4-0.5-0.9-0.7-1.5-0.7c-0.7,0-1.2,0.2-1.6,0.7c-0.4,0.5-0.6,1.1-0.6,1.9c0,0.8,0.2,1.5,0.6,2
				C476.7,597,477.2,597.2,477.8,597.2z"/>
			<path class="st3" d="M487.1,598.7c-0.7,0-1.3-0.2-1.9-0.5c-0.5-0.3-1-0.8-1.2-1.4s-0.4-1.3-0.4-2.2c0-0.8,0.1-1.6,0.4-2.2
				c0.3-0.6,0.7-1.1,1.2-1.5c0.5-0.4,1.2-0.5,1.8-0.5c0.7,0,1.3,0.2,1.8,0.5c0.5,0.3,0.8,0.8,1,1.4l-0.2,0.1v-1.8h2v8h-2v-1.8
				l0.2,0.1c-0.2,0.6-0.5,1.1-1,1.4C488.4,598.6,487.8,598.7,487.1,598.7z M487.7,597.2c0.7,0,1.2-0.2,1.5-0.7
				c0.4-0.5,0.5-1.1,0.5-1.9c0-0.9-0.2-1.5-0.5-2c-0.4-0.4-0.9-0.7-1.5-0.7c-0.7,0-1.2,0.2-1.6,0.7c-0.4,0.5-0.6,1.1-0.6,2
				c0,0.8,0.2,1.5,0.6,1.9C486.5,597,487,597.2,487.7,597.2z"/>
			<path class="st3" d="M501.5,598.6h-2v-2l0.2,0.3c-0.2,0.6-0.5,1.1-1,1.4c-0.5,0.3-1.1,0.5-1.8,0.5c-0.7,0-1.3-0.2-1.8-0.5
				c-0.5-0.3-0.9-0.8-1.2-1.5s-0.4-1.4-0.4-2.2c0-0.8,0.1-1.6,0.4-2.2s0.7-1.1,1.2-1.4c0.5-0.3,1.2-0.5,1.9-0.5
				c0.7,0,1.3,0.2,1.8,0.5c0.5,0.3,0.8,0.8,1,1.4l-0.2,0.2v-5.6h2V598.6z M497.5,597.2c0.7,0,1.2-0.2,1.5-0.7s0.5-1.1,0.5-2
				c0-0.8-0.2-1.5-0.5-1.9c-0.4-0.5-0.9-0.7-1.5-0.7c-0.7,0-1.2,0.2-1.6,0.7c-0.4,0.5-0.6,1.1-0.6,1.9c0,0.8,0.2,1.5,0.6,2
				C496.3,597,496.8,597.2,497.5,597.2z"/>
			<path class="st3" d="M510.6,599.1l-3.7-8.5h2.1l2.5,6.3L510.6,599.1z M507.8,602.2l-0.4-1.5c0.5-0.1,0.9-0.2,1.2-0.4
				s0.6-0.3,0.8-0.5c0.2-0.2,0.4-0.5,0.5-0.9l0.6-1.3l0.5-0.7l2.6-6.3h2l-3.7,8.6c-0.3,0.7-0.7,1.3-1.1,1.7s-0.9,0.7-1.4,0.9
				S508.4,602.1,507.8,602.2z"/>
		</g>
		<g class="st2">
			<path class="st3" d="M526.2,598.7c-1.1,0-2.1-0.2-2.9-0.7s-1.5-1.1-1.9-2c-0.4-0.9-0.7-1.9-0.7-3.1c0-1.2,0.2-2.2,0.7-3.1
				c0.4-0.9,1.1-1.5,1.9-2s1.8-0.7,2.9-0.7c0.8,0,1.5,0.1,2.2,0.3s1.2,0.6,1.7,1l-0.7,1.5c-0.5-0.4-1-0.7-1.5-0.9s-1-0.3-1.6-0.3
				c-1.1,0-1.9,0.4-2.5,1.1c-0.6,0.7-0.9,1.7-0.9,3.1c0,1.3,0.3,2.4,0.9,3.1c0.6,0.7,1.4,1.1,2.5,1.1c0.6,0,1.1-0.1,1.6-0.3
				c0.5-0.2,1-0.5,1.5-0.9l0.7,1.5c-0.4,0.4-1,0.8-1.7,1C527.7,598.6,527,598.7,526.2,598.7z"/>
		</g>
		<g class="st2">
			<path class="st3" d="M535.3,598.7c-0.8,0-1.6-0.2-2.2-0.5c-0.6-0.3-1.1-0.8-1.4-1.4s-0.5-1.4-0.5-2.2c0-0.8,0.2-1.6,0.5-2.2
				c0.3-0.6,0.8-1.1,1.4-1.5c0.6-0.3,1.3-0.5,2.2-0.5c0.8,0,1.5,0.2,2.1,0.5c0.6,0.3,1.1,0.8,1.4,1.5c0.3,0.6,0.5,1.4,0.5,2.2
				c0,0.9-0.2,1.6-0.5,2.2s-0.8,1.1-1.4,1.4C536.8,598.6,536.1,598.7,535.3,598.7z M535.3,597.2c0.7,0,1.2-0.2,1.5-0.7
				c0.4-0.4,0.5-1.1,0.5-2c0-0.9-0.2-1.5-0.5-2c-0.4-0.4-0.9-0.7-1.5-0.7c-0.7,0-1.2,0.2-1.5,0.7c-0.4,0.4-0.5,1.1-0.5,2
				c0,0.9,0.2,1.5,0.5,2C534.1,597,534.6,597.2,535.3,597.2z"/>
			<path class="st3" d="M541,598.6v-5.7c0-0.4,0-0.8,0-1.1s0-0.8-0.1-1.1h1.9l0.2,1.6l-0.2,0c0.3-0.6,0.6-1.1,1.1-1.4
				c0.5-0.3,1.1-0.5,1.7-0.5c1.9,0,2.9,1.1,2.9,3.3v4.9h-2v-4.8c0-0.6-0.1-1.1-0.4-1.4c-0.2-0.3-0.6-0.4-1.1-0.4
				c-0.6,0-1.1,0.2-1.5,0.6c-0.4,0.4-0.5,0.9-0.5,1.5v4.5H541z"/>
			<path class="st3" d="M558.4,590.6v8h-2v-6.5h-6.8v-1.5H558.4z M551.2,598.6v-8.8c0-0.7,0.1-1.3,0.3-1.7c0.2-0.4,0.6-0.7,1.1-0.9
				s1.2-0.3,2-0.3h0.6v1.5h-0.4c-0.5,0-0.8,0-1.1,0.1c-0.2,0.1-0.4,0.2-0.5,0.5c-0.1,0.2-0.1,0.6-0.1,1.1v8.6H551.2z M556.3,586.9
				h2.2v2h-2.2V586.9z"/>
			<path class="st3" d="M563.7,598.7c-0.7,0-1.3-0.2-1.9-0.5c-0.5-0.3-1-0.8-1.2-1.4s-0.4-1.3-0.4-2.2c0-0.8,0.1-1.6,0.4-2.2
				c0.3-0.6,0.7-1.1,1.2-1.5c0.5-0.4,1.2-0.5,1.8-0.5c0.7,0,1.3,0.2,1.8,0.5c0.5,0.3,0.8,0.8,1,1.4l-0.2,0.1v-1.8h2v8h-2v-1.8
				l0.2,0.1c-0.2,0.6-0.5,1.1-1,1.4C564.9,598.6,564.3,598.7,563.7,598.7z M564.2,597.2c0.7,0,1.2-0.2,1.5-0.7s0.5-1.1,0.5-1.9
				c0-0.9-0.2-1.5-0.5-2c-0.4-0.4-0.9-0.7-1.5-0.7c-0.7,0-1.2,0.2-1.6,0.7c-0.4,0.5-0.6,1.1-0.6,2c0,0.8,0.2,1.5,0.6,1.9
				C563,597,563.5,597.2,564.2,597.2z"/>
			<path class="st3" d="M570.4,598.6v-5.7c0-0.4,0-0.8,0-1.1s0-0.8-0.1-1.1h1.9l0.2,1.6l-0.2,0c0.3-0.6,0.6-1.1,1.1-1.4
				c0.5-0.3,1.1-0.5,1.7-0.5c1.9,0,2.9,1.1,2.9,3.3v4.9h-2v-4.8c0-0.6-0.1-1.1-0.4-1.4c-0.2-0.3-0.6-0.4-1.1-0.4
				c-0.6,0-1.1,0.2-1.5,0.6c-0.4,0.4-0.5,0.9-0.5,1.5v4.5H570.4z"/>
		</g>
		<g class="st2">
			<path class="st3" d="M579.6,598.6v-1.4l4.9-5.6l0.2,0.5h-4.9v-1.5h6.7v1.3l-4.9,5.7l-0.1-0.5h5.2v1.5H579.6z"/>
		</g>
		<g class="st2">
			<path class="st3" d="M591.1,598.7c-0.7,0-1.3-0.2-1.9-0.5c-0.5-0.3-1-0.8-1.2-1.4s-0.4-1.3-0.4-2.2c0-0.8,0.1-1.6,0.4-2.2
				c0.3-0.6,0.7-1.1,1.2-1.5c0.5-0.4,1.2-0.5,1.8-0.5c0.7,0,1.3,0.2,1.8,0.5c0.5,0.3,0.8,0.8,1,1.4l-0.2,0.1v-1.8h2v8h-2v-1.8
				l0.2,0.1c-0.2,0.6-0.5,1.1-1,1.4C592.4,598.6,591.8,598.7,591.1,598.7z M591.7,597.2c0.7,0,1.2-0.2,1.5-0.7s0.5-1.1,0.5-1.9
				c0-0.9-0.2-1.5-0.5-2c-0.4-0.4-0.9-0.7-1.5-0.7c-0.7,0-1.2,0.2-1.6,0.7c-0.4,0.5-0.6,1.1-0.6,2c0,0.8,0.2,1.5,0.6,1.9
				C590.5,597,591,597.2,591.7,597.2z"/>
		</g>
		<g class="st2">
			<path class="st3" d="M427.3,618.6v-10h4c1,0,1.8,0.2,2.4,0.7c0.6,0.5,0.9,1.2,0.9,2c0,0.9-0.3,1.5-0.9,2
				c-0.6,0.5-1.4,0.8-2.4,0.8h-2.8v4.4H427.3z M428.4,613.3h2.7c0.7,0,1.3-0.2,1.7-0.5c0.4-0.3,0.6-0.8,0.6-1.4s-0.2-1-0.6-1.4
				s-0.9-0.5-1.7-0.5h-2.7V613.3z"/>
			<path class="st3" d="M436,618.6v-5.1c0-0.3,0-0.7,0-1s0-0.7-0.1-1h1.1l0.2,1.7l-0.2,0c0.1-0.6,0.4-1.1,0.8-1.4
				c0.4-0.3,0.9-0.5,1.5-0.5c0.1,0,0.2,0,0.3,0c0.1,0,0.2,0,0.3,0.1l0,1c-0.2-0.1-0.5-0.1-0.7-0.1c-0.5,0-0.9,0.1-1.2,0.3
				c-0.3,0.2-0.5,0.5-0.6,0.8c-0.1,0.3-0.2,0.7-0.2,1v4H436z"/>
		</g>
		<g class="st2">
			<path class="st3" d="M443.9,618.7c-0.7,0-1.3-0.1-1.8-0.4c-0.5-0.3-0.9-0.7-1.2-1.3s-0.4-1.2-0.4-1.9c0-0.7,0.1-1.4,0.4-1.9
				s0.7-1,1.2-1.3c0.5-0.3,1.1-0.4,1.8-0.4s1.3,0.1,1.8,0.4s0.9,0.7,1.2,1.3s0.4,1.2,0.4,1.9c0,0.7-0.1,1.4-0.4,1.9s-0.7,1-1.2,1.3
				S444.6,618.7,443.9,618.7z M443.9,617.8c0.7,0,1.2-0.2,1.6-0.7s0.6-1.1,0.6-2c0-0.9-0.2-1.5-0.6-2s-0.9-0.7-1.6-0.7
				c-0.7,0-1.2,0.2-1.6,0.7c-0.4,0.5-0.6,1.1-0.6,2c0,0.9,0.2,1.6,0.6,2S443.2,617.8,443.9,617.8z"/>
			<path class="st3" d="M452,618.7c-0.7,0-1.3-0.1-1.8-0.4s-0.9-0.7-1.2-1.3c-0.3-0.5-0.4-1.2-0.4-1.9c0-0.7,0.1-1.4,0.4-1.9
				c0.3-0.6,0.7-1,1.2-1.3c0.5-0.3,1.1-0.5,1.8-0.5c0.5,0,0.9,0.1,1.4,0.2s0.8,0.4,1.1,0.7l-0.4,0.8c-0.3-0.3-0.7-0.5-1-0.6
				c-0.3-0.1-0.7-0.2-1-0.2c-0.7,0-1.3,0.2-1.7,0.7s-0.6,1.1-0.6,2c0,0.9,0.2,1.5,0.6,2c0.4,0.5,1,0.7,1.7,0.7c0.3,0,0.7-0.1,1-0.2
				c0.3-0.1,0.7-0.3,1-0.6l0.4,0.8c-0.3,0.3-0.7,0.5-1.1,0.7C452.9,618.6,452.5,618.7,452,618.7z"/>
			<path class="st3" d="M461.7,617.8c-0.3,0.3-0.7,0.5-1.2,0.7c-0.5,0.2-1,0.3-1.5,0.3c-0.7,0-1.4-0.1-1.9-0.4s-0.9-0.7-1.2-1.3
				c-0.3-0.5-0.4-1.2-0.4-2c0-0.7,0.1-1.4,0.4-1.9c0.3-0.6,0.7-1,1.2-1.3c0.5-0.3,1.1-0.5,1.7-0.5c0.6,0,1.2,0.1,1.6,0.4
				c0.4,0.3,0.8,0.7,1,1.2c0.2,0.5,0.4,1.1,0.4,1.8v0.2h-5.3v-0.7h4.7l-0.4,0.5c0-0.8-0.1-1.5-0.5-1.9s-0.8-0.7-1.5-0.7
				c-0.7,0-1.2,0.2-1.6,0.7c-0.4,0.5-0.6,1.1-0.6,2c0,0.9,0.2,1.6,0.6,2.1c0.4,0.5,1,0.7,1.8,0.7c0.4,0,0.8-0.1,1.2-0.2
				c0.4-0.1,0.7-0.3,1.1-0.6L461.7,617.8z"/>
			<path class="st3" d="M466,618.7c-1.2,0-2.1-0.3-2.8-0.9l0.4-0.8c0.4,0.3,0.8,0.5,1.2,0.6c0.4,0.1,0.8,0.2,1.3,0.2
				c0.5,0,0.9-0.1,1.2-0.3s0.4-0.4,0.4-0.8c0-0.3-0.1-0.5-0.3-0.7s-0.5-0.3-0.9-0.4l-1.2-0.3c-0.6-0.1-1-0.4-1.4-0.7
				s-0.5-0.7-0.5-1.2c0-0.4,0.1-0.8,0.3-1.1c0.2-0.3,0.5-0.6,0.9-0.7c0.4-0.2,0.9-0.3,1.4-0.3c0.5,0,1,0.1,1.4,0.2
				c0.4,0.2,0.8,0.4,1.1,0.7l-0.4,0.8c-0.3-0.3-0.7-0.5-1-0.6c-0.3-0.1-0.7-0.2-1.1-0.2c-0.5,0-0.9,0.1-1.2,0.3s-0.4,0.5-0.4,0.8
				c0,0.3,0.1,0.5,0.3,0.7s0.5,0.3,0.8,0.4l1.2,0.3c0.7,0.1,1.2,0.4,1.5,0.7s0.5,0.7,0.5,1.2c0,0.6-0.2,1.1-0.7,1.5
				C467.5,618.5,466.8,618.7,466,618.7z"/>
			<path class="st3" d="M473.4,618.7c-0.7,0-1.3-0.1-1.8-0.4s-0.9-0.7-1.2-1.3s-0.4-1.2-0.4-1.9c0-0.7,0.1-1.4,0.4-1.9
				s0.7-1,1.2-1.3s1.1-0.4,1.8-0.4s1.3,0.1,1.8,0.4c0.5,0.3,0.9,0.7,1.2,1.3s0.4,1.2,0.4,1.9c0,0.7-0.1,1.4-0.4,1.9s-0.7,1-1.2,1.3
				C474.7,618.6,474.1,618.7,473.4,618.7z M473.4,617.8c0.7,0,1.2-0.2,1.6-0.7s0.6-1.1,0.6-2c0-0.9-0.2-1.5-0.6-2
				c-0.4-0.5-0.9-0.7-1.6-0.7c-0.7,0-1.2,0.2-1.6,0.7c-0.4,0.5-0.6,1.1-0.6,2c0,0.9,0.2,1.6,0.6,2
				C472.2,617.5,472.7,617.8,473.4,617.8z"/>
			<path class="st3" d="M480.9,618.7c-1.2,0-2.1-0.3-2.8-0.9l0.4-0.8c0.4,0.3,0.8,0.5,1.2,0.6c0.4,0.1,0.8,0.2,1.3,0.2
				c0.5,0,0.9-0.1,1.2-0.3c0.3-0.2,0.4-0.4,0.4-0.8c0-0.3-0.1-0.5-0.3-0.7s-0.5-0.3-0.9-0.4l-1.2-0.3c-0.6-0.1-1-0.4-1.4-0.7
				c-0.3-0.3-0.5-0.7-0.5-1.2c0-0.4,0.1-0.8,0.3-1.1c0.2-0.3,0.5-0.6,0.9-0.7c0.4-0.2,0.9-0.3,1.4-0.3c0.5,0,1,0.1,1.4,0.2
				c0.4,0.2,0.8,0.4,1.1,0.7l-0.4,0.8c-0.3-0.3-0.7-0.5-1-0.6c-0.3-0.1-0.7-0.2-1.1-0.2c-0.5,0-0.9,0.1-1.2,0.3
				c-0.3,0.2-0.4,0.5-0.4,0.8c0,0.3,0.1,0.5,0.3,0.7s0.5,0.3,0.8,0.4l1.2,0.3c0.7,0.1,1.2,0.4,1.5,0.7c0.3,0.3,0.5,0.7,0.5,1.2
				c0,0.6-0.2,1.1-0.7,1.5C482.4,618.5,481.8,618.7,480.9,618.7z"/>
			<path class="st3" d="M492.1,618.7c-0.7,0-1.3-0.1-1.8-0.4s-0.9-0.7-1.2-1.3c-0.3-0.5-0.4-1.2-0.4-1.9c0-0.7,0.1-1.4,0.4-1.9
				c0.3-0.6,0.7-1,1.2-1.3s1.1-0.5,1.8-0.5c0.5,0,0.9,0.1,1.4,0.2s0.8,0.4,1.1,0.7l-0.4,0.8c-0.3-0.3-0.7-0.5-1-0.6
				c-0.3-0.1-0.7-0.2-1-0.2c-0.7,0-1.3,0.2-1.7,0.7c-0.4,0.5-0.6,1.1-0.6,2c0,0.9,0.2,1.5,0.6,2c0.4,0.5,1,0.7,1.7,0.7
				c0.3,0,0.7-0.1,1-0.2c0.3-0.1,0.7-0.3,1-0.6l0.4,0.8c-0.3,0.3-0.7,0.5-1.1,0.7C493,618.6,492.6,618.7,492.1,618.7z"/>
			<path class="st3" d="M499,618.7c-0.7,0-1.3-0.1-1.8-0.4s-0.9-0.7-1.2-1.3s-0.4-1.2-0.4-1.9c0-0.7,0.1-1.4,0.4-1.9s0.7-1,1.2-1.3
				s1.1-0.4,1.8-0.4s1.3,0.1,1.8,0.4c0.5,0.3,0.9,0.7,1.2,1.3s0.4,1.2,0.4,1.9c0,0.7-0.1,1.4-0.4,1.9s-0.7,1-1.2,1.3
				C500.2,618.6,499.6,618.7,499,618.7z M499,617.8c0.7,0,1.2-0.2,1.6-0.7s0.6-1.1,0.6-2c0-0.9-0.2-1.5-0.6-2
				c-0.4-0.5-0.9-0.7-1.6-0.7c-0.7,0-1.2,0.2-1.6,0.7c-0.4,0.5-0.6,1.1-0.6,2c0,0.9,0.2,1.6,0.6,2
				C497.7,617.5,498.3,617.8,499,617.8z"/>
			<path class="st3" d="M504.1,618.6v-5.1c0-0.3,0-0.7,0-1c0-0.3,0-0.7-0.1-1h1.1l0.1,1.5l-0.1,0.1c0.2-0.6,0.5-1,1-1.3
				c0.5-0.3,1-0.4,1.6-0.4c1.7,0,2.5,0.9,2.5,2.8v4.4H509v-4.4c0-0.7-0.1-1.1-0.4-1.4c-0.3-0.3-0.7-0.5-1.2-0.5
				c-0.7,0-1.2,0.2-1.6,0.6c-0.4,0.4-0.6,0.9-0.6,1.6v4H504.1z"/>
		</g>
		<g class="st2">
			<path class="st3" d="M518,618.6l-3-7h1.2l2.5,6.2h-0.3l2.6-6.2h1.1l-3,7H518z"/>
		</g>
		<g class="st2">
			<path class="st3" d="M526,618.7c-0.6,0-1.2-0.1-1.6-0.4c-0.5-0.3-0.8-0.7-1.1-1.3c-0.3-0.5-0.4-1.2-0.4-1.9s0.1-1.4,0.4-1.9
				c0.3-0.6,0.6-1,1.1-1.3s1-0.5,1.6-0.5c0.6,0,1.2,0.2,1.6,0.5c0.4,0.3,0.8,0.8,0.9,1.4l-0.2,0.1v-1.8h1.1v7h-1.1v-1.8l0.2,0.1
				c-0.2,0.6-0.5,1-0.9,1.4C527.2,618.6,526.6,618.7,526,618.7z M526.2,617.8c0.7,0,1.2-0.2,1.6-0.7s0.6-1.1,0.6-2
				c0-0.9-0.2-1.5-0.6-2s-0.9-0.7-1.6-0.7c-0.7,0-1.2,0.2-1.6,0.7c-0.4,0.5-0.6,1.2-0.6,2c0,0.9,0.2,1.5,0.6,2
				C525,617.5,525.5,617.8,526.2,617.8z"/>
			<path class="st3" d="M531.7,618.6v-10.3h1.1v10.3H531.7z"/>
			<path class="st3" d="M534.9,608.6h1.4v1.3h-1.4V608.6z M535,618.6v-7h1.1v7H535z"/>
			<path class="st3" d="M544.5,618.6h-1.1v-1.9l0.2,0.2c-0.2,0.6-0.5,1-0.9,1.4c-0.4,0.3-1,0.5-1.6,0.5c-0.6,0-1.2-0.2-1.6-0.5
				c-0.5-0.3-0.8-0.7-1.1-1.3c-0.3-0.6-0.4-1.2-0.4-1.9s0.1-1.4,0.4-1.9c0.3-0.5,0.6-1,1.1-1.3c0.5-0.3,1-0.4,1.6-0.4
				c0.6,0,1.2,0.2,1.6,0.5c0.4,0.3,0.8,0.8,0.9,1.4l-0.2,0.1v-5.1h1.1V618.6z M541.3,617.8c0.7,0,1.2-0.2,1.6-0.7s0.6-1.1,0.6-2
				c0-0.9-0.2-1.5-0.6-2c-0.4-0.5-0.9-0.7-1.6-0.7c-0.7,0-1.2,0.2-1.6,0.7c-0.4,0.5-0.6,1.1-0.6,2c0,0.9,0.2,1.5,0.6,2
				C540,617.5,540.6,617.8,541.3,617.8z"/>
		</g>
		<g class="st2">
			<path class="st3" d="M552.5,617.8c-0.3,0.3-0.7,0.5-1.2,0.7c-0.5,0.2-1,0.3-1.5,0.3c-0.7,0-1.4-0.1-1.9-0.4s-0.9-0.7-1.2-1.3
				c-0.3-0.5-0.4-1.2-0.4-2c0-0.7,0.1-1.4,0.4-1.9c0.3-0.6,0.7-1,1.2-1.3c0.5-0.3,1.1-0.5,1.7-0.5c0.6,0,1.2,0.1,1.6,0.4
				c0.4,0.3,0.8,0.7,1,1.2c0.2,0.5,0.4,1.1,0.4,1.8v0.2h-5.3v-0.7h4.7l-0.4,0.5c0-0.8-0.1-1.5-0.5-1.9s-0.8-0.7-1.5-0.7
				c-0.7,0-1.2,0.2-1.6,0.7c-0.4,0.5-0.6,1.1-0.6,2c0,0.9,0.2,1.6,0.6,2.1c0.4,0.5,1,0.7,1.8,0.7c0.4,0,0.8-0.1,1.2-0.2
				c0.4-0.1,0.7-0.3,1.1-0.6L552.5,617.8z"/>
		</g>
		<g class="st2">
			<path class="st3" d="M553.9,618.6v-0.8l4.8-5.8l0.2,0.5h-4.8v-0.9h5.6v0.8l-4.8,5.8l-0.2-0.5h5.1v0.9H553.9z"/>
			<path class="st3" d="M565.2,618.6v-10.3h1.1v10.3H565.2z"/>
			<path class="st3" d="M574.3,617.8c-0.3,0.3-0.7,0.5-1.2,0.7s-1,0.3-1.5,0.3c-0.7,0-1.4-0.1-1.9-0.4s-0.9-0.7-1.2-1.3
				s-0.4-1.2-0.4-2c0-0.7,0.1-1.4,0.4-1.9s0.7-1,1.2-1.3s1.1-0.5,1.7-0.5c0.6,0,1.2,0.1,1.6,0.4s0.8,0.7,1,1.2
				c0.2,0.5,0.4,1.1,0.4,1.8v0.2h-5.3v-0.7h4.7l-0.4,0.5c0-0.8-0.1-1.5-0.5-1.9c-0.3-0.4-0.8-0.7-1.5-0.7c-0.7,0-1.2,0.2-1.6,0.7
				c-0.4,0.5-0.6,1.1-0.6,2c0,0.9,0.2,1.6,0.6,2.1s1,0.7,1.8,0.7c0.4,0,0.8-0.1,1.2-0.2c0.4-0.1,0.7-0.3,1.1-0.6L574.3,617.8z"/>
			<path class="st3" d="M579.2,621.7c-1.1,0-2-0.2-2.8-0.7l0.2-0.9c0.4,0.3,0.9,0.4,1.2,0.5c0.4,0.1,0.8,0.2,1.3,0.2
				c0.7,0,1.2-0.2,1.5-0.5s0.5-0.9,0.5-1.6v-1.9l0.2-0.2c-0.1,0.4-0.3,0.7-0.5,1c-0.2,0.3-0.5,0.5-0.9,0.6c-0.3,0.1-0.7,0.2-1.2,0.2
				c-0.6,0-1.2-0.1-1.6-0.4c-0.5-0.3-0.8-0.7-1.1-1.2c-0.3-0.5-0.4-1.1-0.4-1.8s0.1-1.3,0.4-1.8c0.3-0.5,0.6-0.9,1.1-1.2
				c0.5-0.3,1-0.4,1.6-0.4c0.7,0,1.2,0.2,1.7,0.5c0.5,0.3,0.8,0.8,0.9,1.4l-0.2-0.2v-1.5h1.1v7c0,1.1-0.3,1.8-0.8,2.4
				S580.3,621.7,579.2,621.7z M579.1,617.5c0.7,0,1.2-0.2,1.6-0.7c0.4-0.5,0.6-1.1,0.6-1.9s-0.2-1.4-0.6-1.9
				c-0.4-0.5-0.9-0.7-1.6-0.7c-0.7,0-1.2,0.2-1.6,0.7c-0.4,0.5-0.6,1.1-0.6,1.9c0,0.8,0.2,1.4,0.6,1.9
				C577.9,617.2,578.4,617.5,579.1,617.5z"/>
			<path class="st3" d="M587.3,618.7c-0.6,0-1.2-0.1-1.6-0.4c-0.5-0.3-0.8-0.7-1.1-1.3c-0.3-0.5-0.4-1.2-0.4-1.9s0.1-1.4,0.4-1.9
				c0.3-0.6,0.6-1,1.1-1.3s1-0.5,1.6-0.5c0.6,0,1.2,0.2,1.6,0.5c0.4,0.3,0.8,0.8,0.9,1.4l-0.2,0.1v-1.8h1.1v7h-1.1v-1.8l0.2,0.1
				c-0.2,0.6-0.5,1-0.9,1.4C588.5,618.6,587.9,618.7,587.3,618.7z M587.5,617.8c0.7,0,1.2-0.2,1.6-0.7s0.6-1.1,0.6-2
				c0-0.9-0.2-1.5-0.6-2s-0.9-0.7-1.6-0.7c-0.7,0-1.2,0.2-1.6,0.7c-0.4,0.5-0.6,1.2-0.6,2c0,0.9,0.2,1.5,0.6,2
				C586.3,617.5,586.8,617.8,587.5,617.8z"/>
			<path class="st3" d="M593,618.6v-10.3h1.1v10.3H593z"/>
		</g>
		
			<image style="overflow:visible;opacity:0.21;enable-background:new    ;" width="244" height="248" xlink:href="1C5D448E25D5B76.png"  transform="matrix(1 0 0 1 38.35 345.7)">
		</image>
		<g>
			<path class="st0" d="M119.5,364.6h94c26.2,0,47.4,21.2,47.4,47.5v97.7c0,26.2-21.2,47.5-47.4,47.5h-94
				c-26.2,0-47.4-21.2-47.4-47.5v-97.7C72.1,385.9,93.3,364.6,119.5,364.6z"/>
		</g>
		<g>
			<path class="st1" d="M216.6,424h-9.4v-9.4c0-0.8-0.6-1.4-1.4-1.4c-0.4,0-0.7,0.1-1,0.4l-16.8,17.3c-0.2,0.2-0.3,0.4-0.4,0.7
				l-2.7,12.8L167,462.2c-0.5,0.5-0.5,1.4,0,2c0.3,0.3,0.6,0.4,1,0.4c0.4,0,0.7-0.1,1-0.4l17.9-17.9l12.8-2.7
				c0.3-0.1,0.5-0.2,0.7-0.4l17.2-16.8c0.6-0.5,0.6-1.4,0-2C217.4,424.2,217,424,216.6,424L216.6,424z M198.6,441l-10.6,2.2
				l2.2-10.6l14.2-14.5v7.3c0,0.8,0.6,1.4,1.4,1.4h7.3L198.6,441z"/>
		</g>
		<g>
			<path class="st1" d="M202.2,445.4c-0.7,0.3-1,1.1-0.7,1.8c2.4,5,3.6,10.5,3.6,16c0,20.6-16.7,37.2-37.3,37.1
				s-37.2-16.7-37.1-37.3c0-20.5,16.7-37.2,37.2-37.1c5.5,0,11,1.2,15.9,3.6c0.7,0.3,1.5,0,1.8-0.7c0.3-0.7,0-1.5-0.6-1.8
				c-20-9.5-43.8-1-53.3,19c-9.5,20-1,43.8,19,53.3c20,9.5,43.8,1,53.3-19c5.1-10.8,5.1-23.4,0-34.3
				C203.8,445.4,203,445.1,202.2,445.4C202.3,445.4,202.3,445.4,202.2,445.4z"/>
		</g>
		<g>
			<path class="st1" d="M167.8,455c1.3,0,2.5,0.2,3.6,0.8c0.7,0.3,1.5,0,1.8-0.7c0.3-0.7,0-1.5-0.7-1.8c-1.5-0.7-3.2-1-4.8-1
				c-6.1,0.1-10.9,5-10.9,11.1c0.1,6.1,5,10.9,11.1,10.9h0.3c6.1-0.1,10.9-5.1,10.8-11.2c0-1.5-0.4-3.1-1-4.5
				c-0.3-0.7-1.1-1-1.8-0.7c-0.7,0.3-1,1.1-0.7,1.8c0.5,1,0.7,2.2,0.8,3.3c0.1,4.6-3.5,8.4-8.1,8.5c-4.6,0.1-8.4-3.5-8.5-8.1
				C159.6,458.8,163.2,455.1,167.8,455C167.8,455,167.8,455,167.8,455L167.8,455z"/>
		</g>
		<g>
			<path class="st1" d="M179.1,447.4c0.4-0.7,0.2-1.5-0.5-1.9c-3.2-1.9-6.9-3-10.6-3h0c-11.4,0-20.7,9.2-20.7,20.6
				c0,11.4,9.2,20.7,20.6,20.7h0.1c11.4,0,20.7-9.3,20.7-20.7c0-3.7-1-7.4-2.9-10.6c-0.4-0.7-1.2-0.9-1.9-0.5
				c-0.7,0.4-0.9,1.2-0.5,1.9c5.1,8.5,2.3,19.5-6.2,24.6c-2.8,1.7-6,2.5-9.2,2.5h-0.1c-9.9-0.2-17.7-8.5-17.5-18.4
				c0.2-9.6,8-17.3,17.5-17.5l0,0c3.3,0,6.4,0.9,9.2,2.6C177.9,448.3,178.7,448.1,179.1,447.4C179.1,447.5,179.1,447.4,179.1,447.4z
				"/>
		</g>
		<g>
			<path class="st1" d="M184.3,439.3c0.4-0.6,0.2-1.5-0.4-1.9c0,0,0,0,0,0c-4.8-2.9-10.3-4.5-15.9-4.5l0,0
				c-16.7,0.3-30.1,14.1-29.8,30.9c0.3,16.3,13.5,29.5,29.8,29.8l0,0c16.7,0,30.3-13.6,30.3-30.3c0-5.8-1.7-11.5-4.8-16.4
				c-0.4-0.7-1.2-0.9-1.9-0.6c-0.7,0.4-0.9,1.2-0.6,1.9c0,0.1,0.1,0.1,0.1,0.2c8.2,12.8,4.5,29.9-8.4,38.1
				c-4.4,2.8-9.6,4.3-14.8,4.3l0,0c-15.2,0-27.6-12.4-27.5-27.6c0-15.2,12.3-27.5,27.5-27.5l0,0c5.1,0,10.1,1.4,14.4,4.1
				C183.1,440.1,183.9,439.9,184.3,439.3z"/>
		</g>
		<g class="st2">
			<path class="st3" d="M74.3,599.7c-1.1,0-2.1-0.2-2.9-0.7s-1.5-1.1-1.9-2c-0.4-0.9-0.7-1.9-0.7-3.1c0-1.2,0.2-2.2,0.7-3.1
				s1.1-1.5,1.9-2s1.8-0.7,2.9-0.7c0.8,0,1.5,0.1,2.2,0.3c0.7,0.2,1.2,0.6,1.7,1l-0.7,1.5c-0.5-0.4-1-0.7-1.5-0.9
				c-0.5-0.2-1-0.3-1.6-0.3c-1.1,0-1.9,0.4-2.5,1.1c-0.6,0.7-0.9,1.7-0.9,3.1c0,1.3,0.3,2.4,0.9,3.1c0.6,0.7,1.4,1.1,2.5,1.1
				c0.6,0,1.1-0.1,1.6-0.3c0.5-0.2,1-0.5,1.5-0.9l0.7,1.5c-0.4,0.4-1,0.8-1.7,1C75.8,599.6,75.1,599.7,74.3,599.7z"/>
		</g>
		<g class="st2">
			<path class="st3" d="M82.6,599.7c-1,0-1.7-0.3-2.2-0.8c-0.5-0.5-0.7-1.4-0.7-2.5v-4.8h2v4.9c0,0.6,0.1,1,0.4,1.3
				c0.2,0.3,0.6,0.4,1.1,0.4c0.6,0,1-0.2,1.4-0.6s0.5-0.9,0.5-1.5v-4.5h2v8h-1.9V598l0.2,0c-0.2,0.6-0.6,1-1,1.3
				C83.8,599.6,83.3,599.7,82.6,599.7z"/>
			<path class="st3" d="M89.2,599.6v-5.7c0-0.4,0-0.7,0-1.1c0-0.4-0.1-0.8-0.1-1.1h1.9l0.2,1.6l-0.2,0c0.2-0.6,0.5-1,1-1.3
				c0.5-0.3,1-0.5,1.7-0.5c0.8,0,1.3,0.2,1.8,0.6c0.4,0.4,0.7,0.9,0.8,1.7l-0.4-0.3c0.2-0.6,0.6-1,1.1-1.4c0.5-0.4,1.1-0.5,1.8-0.5
				c0.9,0,1.6,0.3,2,0.8s0.7,1.4,0.7,2.5v4.9h-2v-4.9c0-0.6-0.1-1.1-0.3-1.4c-0.2-0.3-0.5-0.4-1-0.4c-0.6,0-1,0.2-1.3,0.6
				c-0.3,0.4-0.5,0.9-0.5,1.6v4.5h-2v-4.9c0-0.6-0.1-1.1-0.3-1.4s-0.6-0.4-1-0.4c-0.6,0-1,0.2-1.3,0.6c-0.3,0.4-0.5,0.9-0.5,1.6v4.5
				H89.2z"/>
			<path class="st3" d="M103.4,603v-9.2c0-0.4,0-0.7,0-1.1c0-0.4-0.1-0.8-0.1-1.1h1.9l0.2,1.6l-0.1,0.1c0.2-0.6,0.5-1.1,1-1.4
				c0.5-0.3,1.1-0.5,1.8-0.5c0.7,0,1.3,0.2,1.8,0.5c0.5,0.4,1,0.8,1.3,1.5c0.3,0.6,0.5,1.4,0.5,2.2c0,0.8-0.2,1.6-0.5,2.2
				c-0.3,0.6-0.7,1.1-1.3,1.4c-0.5,0.3-1.1,0.5-1.9,0.5c-0.7,0-1.3-0.2-1.8-0.5c-0.5-0.3-0.8-0.8-1-1.4l0.2-0.3v5.4H103.4z
				 M107.5,598.2c0.7,0,1.2-0.2,1.5-0.7c0.4-0.4,0.5-1.1,0.5-1.9c0-0.8-0.2-1.5-0.5-2s-0.9-0.7-1.5-0.7c-0.7,0-1.2,0.2-1.5,0.7
				c-0.4,0.5-0.5,1.1-0.5,2c0,0.8,0.2,1.5,0.5,1.9S106.8,598.2,107.5,598.2z"/>
			<path class="st3" d="M113.3,599.6v-11.7h2v11.7H113.3z"/>
			<path class="st3" d="M117.3,588h2.2v2h-2.2V588z M117.4,599.6v-8h2v8H117.4z"/>
			<path class="st3" d="M121.5,599.6v-5.7c0-0.4,0-0.7,0-1.1c0-0.4-0.1-0.8-0.1-1.1h1.9l0.2,1.6l-0.2,0c0.2-0.6,0.5-1,1-1.3
				c0.5-0.3,1-0.5,1.7-0.5c0.8,0,1.3,0.2,1.8,0.6c0.4,0.4,0.7,0.9,0.8,1.7l-0.4-0.3c0.2-0.6,0.6-1,1.1-1.4c0.5-0.4,1.1-0.5,1.8-0.5
				c0.9,0,1.6,0.3,2,0.8s0.7,1.4,0.7,2.5v4.9h-2v-4.9c0-0.6-0.1-1.1-0.3-1.4c-0.2-0.3-0.5-0.4-1-0.4c-0.6,0-1,0.2-1.3,0.6
				c-0.3,0.4-0.5,0.9-0.5,1.6v4.5h-2v-4.9c0-0.6-0.1-1.1-0.3-1.4s-0.6-0.4-1-0.4c-0.6,0-1,0.2-1.3,0.6c-0.3,0.4-0.5,0.9-0.5,1.6v4.5
				H121.5z"/>
			<path class="st3" d="M135.7,588h2.2v2h-2.2V588z M135.8,599.6v-8h2v8H135.8z"/>
			<path class="st3" d="M146.8,598.7c-0.4,0.3-0.8,0.6-1.4,0.7c-0.6,0.2-1.1,0.3-1.7,0.3c-0.9,0-1.6-0.2-2.2-0.5
				c-0.6-0.3-1.1-0.8-1.5-1.4c-0.3-0.6-0.5-1.4-0.5-2.2c0-0.8,0.2-1.6,0.5-2.2c0.3-0.6,0.8-1.1,1.4-1.5c0.6-0.4,1.3-0.5,2-0.5
				c0.7,0,1.4,0.2,1.9,0.5c0.5,0.3,0.9,0.8,1.2,1.4c0.3,0.6,0.4,1.3,0.4,2.1v0.3h-5.7l0-1.1h4.5l-0.5,0.5c0-0.8-0.1-1.4-0.5-1.8
				c-0.3-0.4-0.8-0.6-1.4-0.6c-0.6,0-1.1,0.2-1.5,0.7c-0.3,0.5-0.5,1.1-0.5,1.9c0,1,0.2,1.7,0.6,2.1c0.4,0.5,1,0.7,1.8,0.7
				c0.4,0,0.9-0.1,1.3-0.2c0.4-0.1,0.8-0.4,1.2-0.6L146.8,598.7z"/>
			<path class="st3" d="M148.6,599.6v-5.7c0-0.4,0-0.8,0-1.1c0-0.4-0.1-0.8-0.1-1.1h1.9l0.2,1.6l-0.2,0c0.3-0.6,0.6-1.1,1.1-1.4
				c0.5-0.3,1.1-0.5,1.7-0.5c1.9,0,2.9,1.1,2.9,3.3v4.9h-2v-4.8c0-0.6-0.1-1.1-0.4-1.4c-0.2-0.3-0.6-0.4-1.1-0.4
				c-0.6,0-1.1,0.2-1.5,0.6c-0.4,0.4-0.5,0.9-0.5,1.5v4.5H148.6z"/>
			<path class="st3" d="M157.2,593.1v-1.5h5.6v1.5H157.2z M162.8,598v1.6c-0.2,0.1-0.4,0.1-0.6,0.2c-0.2,0-0.4,0-0.7,0
				c-0.9,0-1.6-0.3-2.1-0.8c-0.5-0.5-0.7-1.2-0.7-2.2v-7.1l2-0.7v7.7c0,0.4,0.1,0.6,0.2,0.8c0.1,0.2,0.3,0.4,0.5,0.4
				s0.4,0.1,0.7,0.1c0.1,0,0.3,0,0.4,0C162.5,598,162.7,598,162.8,598z"/>
			<path class="st3" d="M167.8,599.7c-0.8,0-1.6-0.2-2.2-0.5c-0.6-0.3-1.1-0.8-1.4-1.4c-0.3-0.6-0.5-1.4-0.5-2.2
				c0-0.8,0.2-1.6,0.5-2.2c0.3-0.6,0.8-1.1,1.4-1.5c0.6-0.3,1.3-0.5,2.2-0.5c0.8,0,1.5,0.2,2.1,0.5c0.6,0.3,1.1,0.8,1.4,1.5
				c0.3,0.6,0.5,1.4,0.5,2.2c0,0.9-0.2,1.6-0.5,2.2c-0.3,0.6-0.8,1.1-1.4,1.4C169.4,599.6,168.6,599.7,167.8,599.7z M167.8,598.2
				c0.7,0,1.2-0.2,1.5-0.7c0.4-0.4,0.5-1.1,0.5-2c0-0.9-0.2-1.5-0.5-2c-0.4-0.4-0.9-0.7-1.5-0.7c-0.7,0-1.2,0.2-1.5,0.7
				c-0.4,0.4-0.5,1.1-0.5,2c0,0.9,0.2,1.5,0.5,2C166.6,598,167.2,598.2,167.8,598.2z"/>
			<path class="st3" d="M178.1,599.6v-11.3h4.8c1.3,0,2.3,0.3,2.9,0.8s1,1.4,1,2.4c0,1-0.3,1.8-1,2.4c-0.7,0.6-1.6,0.9-2.9,0.9
				l1.3-0.3c0.4,0,0.7,0.1,1,0.3c0.3,0.2,0.6,0.6,0.7,1.1l1.4,3.6h-2.2l-1.4-3.8c-0.1-0.4-0.4-0.6-0.6-0.7c-0.3-0.1-0.6-0.2-1-0.2
				h-2.1v4.7H178.1z M180.1,593.3h2.6c0.8,0,1.4-0.1,1.7-0.4c0.4-0.3,0.5-0.7,0.5-1.3c0-0.6-0.2-1-0.5-1.3c-0.4-0.3-0.9-0.4-1.7-0.4
				h-2.6V593.3z"/>
			<path class="st3" d="M196,598.7c-0.4,0.3-0.8,0.6-1.4,0.7c-0.6,0.2-1.1,0.3-1.7,0.3c-0.9,0-1.6-0.2-2.2-0.5
				c-0.6-0.3-1.1-0.8-1.5-1.4c-0.3-0.6-0.5-1.4-0.5-2.2c0-0.8,0.2-1.6,0.5-2.2c0.3-0.6,0.8-1.1,1.4-1.5c0.6-0.4,1.3-0.5,2-0.5
				c0.7,0,1.4,0.2,1.9,0.5c0.5,0.3,0.9,0.8,1.2,1.4c0.3,0.6,0.4,1.3,0.4,2.1v0.3h-5.7l0-1.1h4.5l-0.5,0.5c0-0.8-0.1-1.4-0.5-1.8
				c-0.3-0.4-0.8-0.6-1.4-0.6c-0.6,0-1.1,0.2-1.5,0.7c-0.3,0.5-0.5,1.1-0.5,1.9c0,1,0.2,1.7,0.6,2.1c0.4,0.5,1,0.7,1.8,0.7
				c0.4,0,0.9-0.1,1.3-0.2c0.4-0.1,0.8-0.4,1.2-0.6L196,598.7z"/>
			<path class="st3" d="M201.4,603.2c-1.2,0-2.3-0.3-3.3-0.8l0.3-1.5c0.5,0.3,1,0.4,1.4,0.6c0.5,0.1,1,0.2,1.5,0.2
				c0.7,0,1.2-0.2,1.6-0.5c0.4-0.3,0.5-0.9,0.5-1.6v-2h0.2c-0.1,0.3-0.3,0.6-0.6,0.9c-0.3,0.3-0.6,0.5-1,0.7
				c-0.4,0.2-0.8,0.2-1.3,0.2c-0.7,0-1.3-0.2-1.9-0.5c-0.5-0.3-1-0.8-1.3-1.4c-0.3-0.6-0.5-1.3-0.5-2.1c0-0.8,0.2-1.5,0.5-2.1
				c0.3-0.6,0.7-1.1,1.3-1.4s1.2-0.5,1.9-0.5c0.7,0,1.3,0.2,1.8,0.5s0.9,0.8,1,1.4l-0.2,0v-1.7h2v7.8c0,1.2-0.3,2.2-1,2.8
				C203.8,602.8,202.8,603.2,201.4,603.2z M201.5,597.8c0.7,0,1.2-0.2,1.5-0.7c0.4-0.4,0.6-1,0.6-1.8s-0.2-1.4-0.6-1.8
				c-0.4-0.4-0.9-0.7-1.5-0.7c-0.7,0-1.2,0.2-1.6,0.7s-0.6,1-0.6,1.8s0.2,1.4,0.6,1.8S200.8,597.8,201.5,597.8z"/>
			<path class="st3" d="M210.6,599.7c-1,0-1.7-0.3-2.2-0.8c-0.5-0.5-0.7-1.4-0.7-2.5v-4.8h2v4.9c0,0.6,0.1,1,0.4,1.3
				c0.2,0.3,0.6,0.4,1.1,0.4c0.6,0,1-0.2,1.4-0.6s0.5-0.9,0.5-1.5v-4.5h2v8H213V598l0.2,0c-0.2,0.6-0.6,1-1,1.3
				C211.7,599.6,211.2,599.7,210.6,599.7z"/>
			<path class="st3" d="M217.1,599.6v-11.7h2v11.7H217.1z"/>
			<path class="st3" d="M224.3,599.7c-0.7,0-1.3-0.2-1.9-0.5s-1-0.8-1.2-1.4s-0.4-1.3-0.4-2.2c0-0.8,0.1-1.6,0.4-2.2
				c0.3-0.6,0.7-1.1,1.2-1.5c0.5-0.4,1.2-0.5,1.8-0.5c0.7,0,1.3,0.2,1.8,0.5s0.8,0.8,1,1.4l-0.2,0.1v-1.8h2v8h-2v-1.8l0.2,0.1
				c-0.2,0.6-0.5,1.1-1,1.4C225.6,599.6,225,599.7,224.3,599.7z M224.9,598.2c0.7,0,1.2-0.2,1.5-0.7c0.4-0.5,0.5-1.1,0.5-1.9
				c0-0.9-0.2-1.5-0.5-2c-0.4-0.4-0.9-0.7-1.5-0.7c-0.7,0-1.2,0.2-1.6,0.7c-0.4,0.5-0.6,1.1-0.6,2c0,0.8,0.2,1.5,0.6,1.9
				C223.7,598,224.2,598.2,224.9,598.2z"/>
			<path class="st3" d="M230.1,593.1v-1.5h5.6v1.5H230.1z M235.7,598v1.6c-0.2,0.1-0.4,0.1-0.6,0.2c-0.2,0-0.4,0-0.7,0
				c-0.9,0-1.6-0.3-2.1-0.8c-0.5-0.5-0.7-1.2-0.7-2.2v-7.1l2-0.7v7.7c0,0.4,0.1,0.6,0.2,0.8c0.1,0.2,0.3,0.4,0.5,0.4
				s0.4,0.1,0.7,0.1c0.1,0,0.3,0,0.4,0C235.4,598,235.5,598,235.7,598z"/>
			<path class="st3" d="M240.7,599.7c-0.8,0-1.6-0.2-2.2-0.5c-0.6-0.3-1.1-0.8-1.4-1.4c-0.3-0.6-0.5-1.4-0.5-2.2
				c0-0.8,0.2-1.6,0.5-2.2c0.3-0.6,0.8-1.1,1.4-1.5c0.6-0.3,1.3-0.5,2.2-0.5c0.8,0,1.5,0.2,2.1,0.5c0.6,0.3,1.1,0.8,1.4,1.5
				c0.3,0.6,0.5,1.4,0.5,2.2c0,0.9-0.2,1.6-0.5,2.2c-0.3,0.6-0.8,1.1-1.4,1.4C242.2,599.6,241.5,599.7,240.7,599.7z M240.7,598.2
				c0.7,0,1.2-0.2,1.5-0.7c0.4-0.4,0.5-1.1,0.5-2c0-0.9-0.2-1.5-0.5-2c-0.4-0.4-0.9-0.7-1.5-0.7c-0.7,0-1.2,0.2-1.5,0.7
				c-0.4,0.4-0.5,1.1-0.5,2c0,0.9,0.2,1.5,0.5,2C239.5,598,240,598.2,240.7,598.2z"/>
			<path class="st3" d="M246.5,599.6v-5.7c0-0.4,0-0.7,0-1.1c0-0.4-0.1-0.8-0.1-1.1h1.9l0.2,2.1l-0.2-0.1c0.1-0.7,0.4-1.2,0.9-1.6
				c0.5-0.4,1-0.5,1.7-0.5c0.2,0,0.3,0,0.4,0c0.1,0,0.3,0.1,0.4,0.1l0,1.8c-0.3-0.1-0.7-0.2-1-0.2c-0.5,0-0.9,0.1-1.2,0.3
				c-0.3,0.2-0.5,0.4-0.7,0.8c-0.2,0.3-0.2,0.7-0.2,1.1v4.3H246.5z"/>
			<path class="st3" d="M252.6,588h2.2v2h-2.2V588z M252.7,599.6v-8h2v8H252.7z"/>
			<path class="st3" d="M260.4,599.7c-0.8,0-1.6-0.2-2.2-0.5c-0.6-0.3-1.1-0.8-1.4-1.4c-0.3-0.6-0.5-1.4-0.5-2.2
				c0-0.8,0.2-1.6,0.5-2.2c0.3-0.6,0.8-1.1,1.4-1.5c0.6-0.3,1.3-0.5,2.2-0.5c0.8,0,1.5,0.2,2.1,0.5c0.6,0.3,1.1,0.8,1.4,1.5
				c0.3,0.6,0.5,1.4,0.5,2.2c0,0.9-0.2,1.6-0.5,2.2c-0.3,0.6-0.8,1.1-1.4,1.4C262,599.6,261.3,599.7,260.4,599.7z M260.4,598.2
				c0.7,0,1.2-0.2,1.5-0.7c0.4-0.4,0.5-1.1,0.5-2c0-0.9-0.2-1.5-0.5-2c-0.4-0.4-0.9-0.7-1.5-0.7c-0.7,0-1.2,0.2-1.5,0.7
				c-0.4,0.4-0.5,1.1-0.5,2c0,0.9,0.2,1.5,0.5,2C259.3,598,259.8,598.2,260.4,598.2z"/>
		</g>
		<g class="st2">
			<path class="st3" d="M77.8,619.7c-1,0-1.8-0.2-2.5-0.6c-0.7-0.4-1.2-1-1.6-1.8c-0.4-0.8-0.6-1.7-0.6-2.7s0.2-2,0.6-2.7
				c0.4-0.8,0.9-1.3,1.6-1.8c0.7-0.4,1.5-0.6,2.5-0.6c0.7,0,1.3,0.1,1.9,0.3s1.1,0.5,1.5,0.9l-0.4,0.9c-0.5-0.4-0.9-0.7-1.4-0.9
				c-0.5-0.2-1-0.3-1.5-0.3c-1.1,0-1.9,0.4-2.5,1.1c-0.6,0.7-0.9,1.7-0.9,3c0,1.3,0.3,2.3,0.9,3c0.6,0.7,1.4,1.1,2.5,1.1
				c0.6,0,1.1-0.1,1.5-0.3c0.5-0.2,0.9-0.5,1.4-0.9l0.4,0.9c-0.4,0.4-0.9,0.7-1.5,0.9S78.5,619.7,77.8,619.7z"/>
		</g>
		<g class="st2">
			<path class="st3" d="M85.3,619.7c-0.8,0-1.5-0.2-1.9-0.7s-0.6-1.2-0.6-2.1v-4.4h1.1v4.3c0,0.6,0.1,1.1,0.4,1.4
				c0.3,0.3,0.7,0.4,1.2,0.4c0.6,0,1.1-0.2,1.5-0.6s0.6-0.9,0.6-1.6v-4h1.1v7h-1.1v-1.5l0.2-0.1c-0.2,0.6-0.5,1-0.9,1.3
				S85.9,619.7,85.3,619.7z"/>
			<path class="st3" d="M90.9,619.6v-5.1c0-0.3,0-0.7,0-1c0-0.3,0-0.7-0.1-1h1.1L92,614l-0.1,0.1c0.2-0.6,0.5-1,0.9-1.3
				c0.4-0.3,0.9-0.4,1.5-0.4c0.7,0,1.2,0.2,1.6,0.5s0.6,0.8,0.7,1.5l-0.3-0.2c0.1-0.6,0.5-1,0.9-1.4c0.5-0.3,1-0.5,1.6-0.5
				c0.8,0,1.4,0.2,1.8,0.7c0.4,0.5,0.6,1.2,0.6,2.1v4.4h-1.1v-4.4c0-0.7-0.1-1.1-0.3-1.4c-0.2-0.3-0.6-0.5-1.1-0.5
				c-0.6,0-1.1,0.2-1.4,0.6s-0.5,0.9-0.5,1.6v4h-1.1v-4.4c0-0.7-0.1-1.1-0.4-1.4c-0.2-0.3-0.6-0.5-1.1-0.5c-0.6,0-1.1,0.2-1.4,0.6
				s-0.5,0.9-0.5,1.6v4H90.9z"/>
			<path class="st3" d="M103.2,622.6v-8.1c0-0.3,0-0.7,0-1c0-0.3,0-0.7-0.1-1h1.1l0.1,1.5l-0.1,0.2c0.2-0.6,0.5-1,0.9-1.4
				c0.4-0.3,1-0.5,1.6-0.5c0.6,0,1.2,0.2,1.6,0.5c0.5,0.3,0.8,0.7,1.1,1.3s0.4,1.2,0.4,1.9s-0.1,1.4-0.4,1.9c-0.3,0.5-0.6,1-1.1,1.3
				c-0.5,0.3-1,0.4-1.6,0.4c-0.6,0-1.2-0.2-1.6-0.5c-0.4-0.3-0.8-0.8-0.9-1.4l0.2-0.1v4.9H103.2z M106.5,618.8
				c0.7,0,1.2-0.2,1.6-0.7c0.4-0.5,0.6-1.1,0.6-2c0-0.9-0.2-1.5-0.6-2c-0.4-0.5-0.9-0.7-1.6-0.7c-0.7,0-1.2,0.2-1.6,0.7
				c-0.4,0.5-0.6,1.1-0.6,2c0,0.9,0.2,1.5,0.6,2C105.3,618.5,105.8,618.8,106.5,618.8z"/>
			<path class="st3" d="M111.6,619.6v-10.3h1.1v10.3H111.6z"/>
			<path class="st3" d="M114.8,609.6h1.4v1.3h-1.4V609.6z M114.9,619.6v-7h1.1v7H114.9z"/>
			<path class="st3" d="M118.3,619.6v-5.1c0-0.3,0-0.7,0-1s0-0.7-0.1-1h1.1l0.1,1.5l-0.1,0.1c0.2-0.6,0.5-1,0.9-1.3s0.9-0.4,1.5-0.4
				c0.7,0,1.2,0.2,1.6,0.5s0.6,0.8,0.7,1.5l-0.3-0.2c0.1-0.6,0.5-1,0.9-1.4c0.5-0.3,1-0.5,1.6-0.5c0.8,0,1.4,0.2,1.8,0.7
				s0.6,1.2,0.6,2.1v4.4h-1.1v-4.4c0-0.7-0.1-1.1-0.4-1.4c-0.2-0.3-0.6-0.5-1.1-0.5c-0.6,0-1.1,0.2-1.4,0.6s-0.5,0.9-0.5,1.6v4h-1.1
				v-4.4c0-0.7-0.1-1.1-0.4-1.4c-0.2-0.3-0.6-0.5-1.1-0.5c-0.6,0-1.1,0.2-1.4,0.6s-0.5,0.9-0.5,1.6v4H118.3z"/>
			<path class="st3" d="M130.5,609.6h1.4v1.3h-1.4V609.6z M130.6,619.6v-7h1.1v7H130.6z"/>
			<path class="st3" d="M139.7,618.8c-0.3,0.3-0.7,0.5-1.2,0.7c-0.5,0.2-1,0.3-1.5,0.3c-0.7,0-1.4-0.1-1.9-0.4s-0.9-0.7-1.2-1.3
				c-0.3-0.5-0.4-1.2-0.4-2c0-0.7,0.1-1.4,0.4-1.9c0.3-0.6,0.7-1,1.2-1.3c0.5-0.3,1.1-0.5,1.7-0.5c0.6,0,1.2,0.1,1.6,0.4
				c0.4,0.3,0.8,0.7,1,1.2c0.2,0.5,0.4,1.1,0.4,1.8v0.2h-5.3v-0.7h4.7l-0.4,0.5c0-0.8-0.1-1.5-0.5-1.9s-0.8-0.7-1.5-0.7
				c-0.7,0-1.2,0.2-1.6,0.7c-0.4,0.5-0.6,1.1-0.6,2c0,0.9,0.2,1.6,0.6,2.1c0.4,0.5,1,0.7,1.8,0.7c0.4,0,0.8-0.1,1.2-0.2
				c0.4-0.1,0.7-0.3,1.1-0.6L139.7,618.8z"/>
			<path class="st3" d="M141.5,619.6v-5.1c0-0.3,0-0.7,0-1c0-0.3,0-0.7-0.1-1h1.1l0.1,1.5l-0.1,0.1c0.2-0.6,0.5-1,1-1.3
				c0.5-0.3,1-0.4,1.6-0.4c1.7,0,2.5,0.9,2.5,2.8v4.4h-1.1v-4.4c0-0.7-0.1-1.1-0.4-1.4c-0.3-0.3-0.7-0.5-1.2-0.5
				c-0.7,0-1.2,0.2-1.6,0.6c-0.4,0.4-0.6,0.9-0.6,1.6v4H141.5z"/>
			<path class="st3" d="M148.7,613.5v-0.9h4.5v0.9H148.7z M153.2,618.6v1c-0.2,0-0.3,0.1-0.5,0.1c-0.2,0-0.3,0-0.5,0
				c-0.7,0-1.2-0.2-1.6-0.6c-0.4-0.4-0.6-0.9-0.6-1.7v-6.7l1.1-0.4v7c0,0.4,0.1,0.7,0.2,0.9c0.1,0.2,0.3,0.3,0.4,0.4
				s0.4,0.1,0.6,0.1c0.1,0,0.3,0,0.4,0C153,618.7,153.1,618.7,153.2,618.6z"/>
			<path class="st3" d="M157.5,619.7c-0.7,0-1.3-0.1-1.8-0.4c-0.5-0.3-0.9-0.7-1.2-1.3s-0.4-1.2-0.4-1.9c0-0.7,0.1-1.4,0.4-1.9
				s0.7-1,1.2-1.3c0.5-0.3,1.1-0.4,1.8-0.4s1.3,0.1,1.8,0.4s0.9,0.7,1.2,1.3s0.4,1.2,0.4,1.9c0,0.7-0.1,1.4-0.4,1.9s-0.7,1-1.2,1.3
				S158.2,619.7,157.5,619.7z M157.5,618.8c0.7,0,1.2-0.2,1.6-0.7s0.6-1.1,0.6-2c0-0.9-0.2-1.5-0.6-2s-0.9-0.7-1.6-0.7
				c-0.7,0-1.2,0.2-1.6,0.7c-0.4,0.5-0.6,1.1-0.6,2c0,0.9,0.2,1.6,0.6,2S156.8,618.8,157.5,618.8z"/>
			<path class="st3" d="M172.5,619.6h-1.1v-1.9l0.2,0.2c-0.2,0.6-0.5,1-0.9,1.4c-0.4,0.3-1,0.5-1.6,0.5c-0.6,0-1.2-0.2-1.6-0.5
				c-0.5-0.3-0.8-0.7-1.1-1.3c-0.3-0.6-0.4-1.2-0.4-1.9s0.1-1.4,0.4-1.9c0.3-0.5,0.6-1,1.1-1.3c0.5-0.3,1-0.4,1.6-0.4
				c0.6,0,1.2,0.2,1.6,0.5c0.4,0.3,0.8,0.8,0.9,1.4l-0.2,0.1v-5.1h1.1V619.6z M169.2,618.8c0.7,0,1.2-0.2,1.6-0.7s0.6-1.1,0.6-2
				c0-0.9-0.2-1.5-0.6-2c-0.4-0.5-0.9-0.7-1.6-0.7c-0.7,0-1.2,0.2-1.6,0.7c-0.4,0.5-0.6,1.1-0.6,2c0,0.9,0.2,1.5,0.6,2
				C168,618.5,168.5,618.8,169.2,618.8z"/>
			<path class="st3" d="M180.5,618.8c-0.3,0.3-0.7,0.5-1.2,0.7s-1,0.3-1.5,0.3c-0.7,0-1.4-0.1-1.9-0.4s-0.9-0.7-1.2-1.3
				s-0.4-1.2-0.4-2c0-0.7,0.1-1.4,0.4-1.9s0.7-1,1.2-1.3s1.1-0.5,1.7-0.5c0.6,0,1.2,0.1,1.6,0.4s0.8,0.7,1,1.2
				c0.2,0.5,0.4,1.1,0.4,1.8v0.2h-5.3v-0.7h4.7l-0.4,0.5c0-0.8-0.1-1.5-0.5-1.9c-0.3-0.4-0.8-0.7-1.5-0.7c-0.7,0-1.2,0.2-1.6,0.7
				c-0.4,0.5-0.6,1.1-0.6,2c0,0.9,0.2,1.6,0.6,2.1s1,0.7,1.8,0.7c0.4,0,0.8-0.1,1.2-0.2c0.4-0.1,0.7-0.3,1.1-0.6L180.5,618.8z"/>
			<path class="st3" d="M191.7,618.8c-0.3,0.3-0.7,0.5-1.2,0.7s-1,0.3-1.5,0.3c-0.7,0-1.4-0.1-1.9-0.4s-0.9-0.7-1.2-1.3
				s-0.4-1.2-0.4-2c0-0.7,0.1-1.4,0.4-1.9s0.7-1,1.2-1.3s1.1-0.5,1.7-0.5c0.6,0,1.2,0.1,1.6,0.4s0.8,0.7,1,1.2
				c0.2,0.5,0.4,1.1,0.4,1.8v0.2h-5.3v-0.7h4.7l-0.4,0.5c0-0.8-0.1-1.5-0.5-1.9c-0.3-0.4-0.8-0.7-1.5-0.7c-0.7,0-1.2,0.2-1.6,0.7
				c-0.4,0.5-0.6,1.1-0.6,2c0,0.9,0.2,1.6,0.6,2.1s1,0.7,1.8,0.7c0.4,0,0.8-0.1,1.2-0.2c0.4-0.1,0.7-0.3,1.1-0.6L191.7,618.8z"/>
		</g>
		<g class="st2">
			<path class="st3" d="M195.9,619.7c-1.2,0-2.1-0.3-2.8-0.9l0.4-0.8c0.4,0.3,0.8,0.5,1.2,0.6c0.4,0.1,0.8,0.2,1.3,0.2
				c0.5,0,0.9-0.1,1.2-0.3c0.3-0.2,0.4-0.4,0.4-0.8c0-0.3-0.1-0.5-0.3-0.7s-0.5-0.3-0.9-0.4l-1.2-0.3c-0.6-0.1-1-0.4-1.4-0.7
				c-0.3-0.3-0.5-0.7-0.5-1.2c0-0.4,0.1-0.8,0.3-1.1s0.5-0.6,0.9-0.7c0.4-0.2,0.9-0.3,1.4-0.3c0.5,0,1,0.1,1.4,0.2
				c0.4,0.2,0.8,0.4,1.1,0.7l-0.4,0.8c-0.3-0.3-0.7-0.5-1-0.6c-0.3-0.1-0.7-0.2-1.1-0.2c-0.5,0-0.9,0.1-1.2,0.3
				c-0.3,0.2-0.4,0.5-0.4,0.8c0,0.3,0.1,0.5,0.3,0.7s0.5,0.3,0.8,0.4l1.2,0.3c0.7,0.1,1.2,0.4,1.5,0.7c0.3,0.3,0.5,0.7,0.5,1.2
				c0,0.6-0.2,1.1-0.7,1.5C197.5,619.5,196.8,619.7,195.9,619.7z"/>
		</g>
		<g class="st2">
			<path class="st3" d="M199.4,613.5v-0.9h4.5v0.9H199.4z M203.9,618.6v1c-0.2,0-0.3,0.1-0.5,0.1c-0.2,0-0.3,0-0.5,0
				c-0.7,0-1.2-0.2-1.6-0.6s-0.6-0.9-0.6-1.7v-6.7l1.1-0.4v7c0,0.4,0.1,0.7,0.2,0.9c0.1,0.2,0.3,0.3,0.4,0.4
				c0.2,0.1,0.4,0.1,0.6,0.1c0.1,0,0.3,0,0.4,0C203.7,618.7,203.8,618.7,203.9,618.6z"/>
			<path class="st3" d="M208,619.7c-0.6,0-1.2-0.1-1.6-0.4s-0.8-0.7-1.1-1.3c-0.3-0.5-0.4-1.2-0.4-1.9s0.1-1.4,0.4-1.9
				s0.6-1,1.1-1.3c0.5-0.3,1-0.5,1.6-0.5c0.6,0,1.2,0.2,1.6,0.5c0.4,0.3,0.8,0.8,0.9,1.4l-0.2,0.1v-1.8h1.1v7h-1.1v-1.8l0.2,0.1
				c-0.2,0.6-0.5,1-0.9,1.4C209.2,619.6,208.7,619.7,208,619.7z M208.3,618.8c0.7,0,1.2-0.2,1.6-0.7c0.4-0.5,0.6-1.1,0.6-2
				c0-0.9-0.2-1.5-0.6-2s-0.9-0.7-1.6-0.7c-0.7,0-1.2,0.2-1.6,0.7s-0.6,1.2-0.6,2c0,0.9,0.2,1.5,0.6,2S207.6,618.8,208.3,618.8z"/>
			<path class="st3" d="M213.7,619.6v-5.1c0-0.3,0-0.7,0-1c0-0.3,0-0.7-0.1-1h1.1l0.1,1.5l-0.1,0.1c0.2-0.6,0.5-1,1-1.3
				c0.5-0.3,1-0.4,1.6-0.4c1.7,0,2.5,0.9,2.5,2.8v4.4h-1.1v-4.4c0-0.7-0.1-1.1-0.4-1.4c-0.3-0.3-0.7-0.5-1.2-0.5
				c-0.7,0-1.2,0.2-1.6,0.6s-0.6,0.9-0.6,1.6v4H213.7z"/>
			<path class="st3" d="M228.1,619.6H227v-1.9l0.2,0.2c-0.2,0.6-0.5,1-0.9,1.4c-0.4,0.3-1,0.5-1.6,0.5c-0.6,0-1.2-0.2-1.6-0.5
				c-0.5-0.3-0.8-0.7-1.1-1.3c-0.3-0.6-0.4-1.2-0.4-1.9s0.1-1.4,0.4-1.9c0.3-0.5,0.6-1,1.1-1.3s1-0.4,1.6-0.4c0.6,0,1.2,0.2,1.6,0.5
				c0.4,0.3,0.8,0.8,0.9,1.4l-0.2,0.1v-5.1h1.1V619.6z M224.9,618.8c0.7,0,1.2-0.2,1.6-0.7s0.6-1.1,0.6-2c0-0.9-0.2-1.5-0.6-2
				c-0.4-0.5-0.9-0.7-1.6-0.7c-0.7,0-1.2,0.2-1.6,0.7s-0.6,1.1-0.6,2c0,0.9,0.2,1.5,0.6,2C223.6,618.5,224.2,618.8,224.9,618.8z"/>
			<path class="st3" d="M233,619.7c-0.6,0-1.2-0.1-1.6-0.4s-0.8-0.7-1.1-1.3c-0.3-0.5-0.4-1.2-0.4-1.9s0.1-1.4,0.4-1.9
				s0.6-1,1.1-1.3c0.5-0.3,1-0.5,1.6-0.5c0.6,0,1.2,0.2,1.6,0.5c0.4,0.3,0.8,0.8,0.9,1.4l-0.2,0.1v-1.8h1.1v7h-1.1v-1.8l0.2,0.1
				c-0.2,0.6-0.5,1-0.9,1.4C234.2,619.6,233.7,619.7,233,619.7z M233.3,618.8c0.7,0,1.2-0.2,1.6-0.7c0.4-0.5,0.6-1.1,0.6-2
				c0-0.9-0.2-1.5-0.6-2s-0.9-0.7-1.6-0.7c-0.7,0-1.2,0.2-1.6,0.7s-0.6,1.2-0.6,2c0,0.9,0.2,1.5,0.6,2S232.6,618.8,233.3,618.8z"/>
		</g>
		<g class="st2">
			<path class="st3" d="M238.7,619.6v-5.1c0-0.3,0-0.7,0-1c0-0.3,0-0.7-0.1-1h1.1l0.2,1.7l-0.2,0c0.1-0.6,0.4-1.1,0.8-1.4
				c0.4-0.3,0.9-0.5,1.5-0.5c0.1,0,0.2,0,0.3,0c0.1,0,0.2,0,0.3,0.1l0,1c-0.2-0.1-0.5-0.1-0.7-0.1c-0.5,0-0.9,0.1-1.2,0.3
				c-0.3,0.2-0.5,0.5-0.6,0.8c-0.1,0.3-0.2,0.7-0.2,1v4H238.7z"/>
		</g>
		<g class="st2">
			<path class="st3" d="M249.4,618.8c-0.3,0.3-0.7,0.5-1.2,0.7c-0.5,0.2-1,0.3-1.5,0.3c-0.7,0-1.4-0.1-1.9-0.4s-0.9-0.7-1.2-1.3
				c-0.3-0.5-0.4-1.2-0.4-2c0-0.7,0.1-1.4,0.4-1.9c0.3-0.6,0.7-1,1.2-1.3c0.5-0.3,1.1-0.5,1.7-0.5c0.6,0,1.2,0.1,1.6,0.4
				c0.4,0.3,0.8,0.7,1,1.2c0.2,0.5,0.4,1.1,0.4,1.8v0.2h-5.3v-0.7h4.7l-0.4,0.5c0-0.8-0.1-1.5-0.5-1.9c-0.3-0.4-0.8-0.7-1.5-0.7
				c-0.7,0-1.2,0.2-1.6,0.7c-0.4,0.5-0.6,1.1-0.6,2c0,0.9,0.2,1.6,0.6,2.1c0.4,0.5,1,0.7,1.8,0.7c0.4,0,0.8-0.1,1.2-0.2
				c0.4-0.1,0.7-0.3,1.1-0.6L249.4,618.8z"/>
			<path class="st3" d="M253.7,619.7c-1.2,0-2.1-0.3-2.8-0.9l0.4-0.8c0.4,0.3,0.8,0.5,1.2,0.6c0.4,0.1,0.8,0.2,1.3,0.2
				c0.5,0,0.9-0.1,1.2-0.3c0.3-0.2,0.4-0.4,0.4-0.8c0-0.3-0.1-0.5-0.3-0.7s-0.5-0.3-0.9-0.4l-1.2-0.3c-0.6-0.1-1-0.4-1.4-0.7
				c-0.3-0.3-0.5-0.7-0.5-1.2c0-0.4,0.1-0.8,0.3-1.1s0.5-0.6,0.9-0.7c0.4-0.2,0.9-0.3,1.4-0.3c0.5,0,1,0.1,1.4,0.2
				c0.4,0.2,0.8,0.4,1.1,0.7l-0.4,0.8c-0.3-0.3-0.7-0.5-1-0.6c-0.3-0.1-0.7-0.2-1.1-0.2c-0.5,0-0.9,0.1-1.2,0.3
				c-0.3,0.2-0.4,0.5-0.4,0.8c0,0.3,0.1,0.5,0.3,0.7s0.5,0.3,0.8,0.4l1.2,0.3c0.7,0.1,1.2,0.4,1.5,0.7c0.3,0.3,0.5,0.7,0.5,1.2
				c0,0.6-0.2,1.1-0.7,1.5C255.2,619.5,254.5,619.7,253.7,619.7z"/>
		</g>
		<g class="st2">
			<path class="st3" d="M83,626.4h1.4v1.3H83V626.4z M83.2,636.4v-7h1.1v7H83.2z"/>
			<path class="st3" d="M86.5,636.4v-5.1c0-0.3,0-0.7,0-1c0-0.3,0-0.7-0.1-1h1.1l0.1,1.5l-0.1,0.1c0.2-0.6,0.5-1,1-1.3
				c0.5-0.3,1-0.4,1.6-0.4c1.7,0,2.5,0.9,2.5,2.8v4.4h-1.1v-4.4c0-0.7-0.1-1.1-0.4-1.4c-0.3-0.3-0.7-0.5-1.2-0.5
				c-0.7,0-1.2,0.2-1.6,0.6s-0.6,0.9-0.6,1.6v4H86.5z"/>
			<path class="st3" d="M93.7,630.3v-0.9h4.5v0.9H93.7z M98.2,635.4v1c-0.2,0-0.3,0.1-0.5,0.1c-0.2,0-0.3,0-0.5,0
				c-0.7,0-1.2-0.2-1.6-0.6s-0.6-0.9-0.6-1.7v-6.7l1.1-0.4v7c0,0.4,0.1,0.7,0.2,0.9c0.1,0.2,0.3,0.3,0.4,0.4
				c0.2,0.1,0.4,0.1,0.6,0.1c0.1,0,0.3,0,0.4,0C97.9,635.5,98,635.5,98.2,635.4z"/>
			<path class="st3" d="M105.3,635.6c-0.3,0.3-0.7,0.5-1.2,0.7c-0.5,0.2-1,0.3-1.5,0.3c-0.7,0-1.4-0.1-1.9-0.4s-0.9-0.7-1.2-1.3
				c-0.3-0.5-0.4-1.2-0.4-2c0-0.7,0.1-1.4,0.4-1.9c0.3-0.6,0.7-1,1.2-1.3c0.5-0.3,1.1-0.5,1.7-0.5c0.6,0,1.2,0.1,1.6,0.4
				c0.4,0.3,0.8,0.7,1,1.2c0.2,0.5,0.4,1.1,0.4,1.8v0.2h-5.3v-0.7h4.7l-0.4,0.5c0-0.8-0.1-1.5-0.5-1.9c-0.3-0.4-0.8-0.7-1.5-0.7
				c-0.7,0-1.2,0.2-1.6,0.7c-0.4,0.5-0.6,1.1-0.6,2c0,0.9,0.2,1.6,0.6,2.1c0.4,0.5,1,0.7,1.8,0.7c0.4,0,0.8-0.1,1.2-0.2
				c0.4-0.1,0.7-0.3,1.1-0.6L105.3,635.6z"/>
			<path class="st3" d="M107.2,636.4v-5.1c0-0.3,0-0.7,0-1c0-0.3,0-0.7-0.1-1h1.1l0.2,1.7l-0.2,0c0.1-0.6,0.4-1.1,0.8-1.4
				c0.4-0.3,0.9-0.5,1.5-0.5c0.1,0,0.2,0,0.3,0c0.1,0,0.2,0,0.3,0.1l0,1c-0.2-0.1-0.5-0.1-0.7-0.1c-0.5,0-0.9,0.1-1.2,0.3
				c-0.3,0.2-0.5,0.5-0.6,0.8c-0.1,0.3-0.2,0.7-0.2,1v4H107.2z"/>
			<path class="st3" d="M112.3,636.4v-5.1c0-0.3,0-0.7,0-1c0-0.3,0-0.7-0.1-1h1.1l0.1,1.5l-0.1,0.1c0.2-0.6,0.5-1,1-1.3
				c0.5-0.3,1-0.4,1.6-0.4c1.7,0,2.5,0.9,2.5,2.8v4.4h-1.1v-4.4c0-0.7-0.1-1.1-0.4-1.4c-0.3-0.3-0.7-0.5-1.2-0.5
				c-0.7,0-1.2,0.2-1.6,0.6s-0.6,0.9-0.6,1.6v4H112.3z"/>
			<path class="st3" d="M123.1,636.5c-0.6,0-1.2-0.1-1.6-0.4s-0.8-0.7-1.1-1.3c-0.3-0.5-0.4-1.2-0.4-1.9s0.1-1.4,0.4-1.9
				s0.6-1,1.1-1.3c0.5-0.3,1-0.5,1.6-0.5c0.6,0,1.2,0.2,1.6,0.5c0.4,0.3,0.8,0.8,0.9,1.4l-0.2,0.1v-1.8h1.1v7h-1.1v-1.8l0.2,0.1
				c-0.2,0.6-0.5,1-0.9,1.4C124.3,636.4,123.8,636.5,123.1,636.5z M123.4,635.6c0.7,0,1.2-0.2,1.6-0.7c0.4-0.5,0.6-1.1,0.6-2
				c0-0.9-0.2-1.5-0.6-2s-0.9-0.7-1.6-0.7c-0.7,0-1.2,0.2-1.6,0.7s-0.6,1.2-0.6,2c0,0.9,0.2,1.5,0.6,2S122.7,635.6,123.4,635.6z"/>
			<path class="st3" d="M131.8,636.5c-0.7,0-1.3-0.1-1.8-0.4s-0.9-0.7-1.2-1.3c-0.3-0.5-0.4-1.2-0.4-1.9c0-0.7,0.1-1.4,0.4-1.9
				c0.3-0.6,0.7-1,1.2-1.3c0.5-0.3,1.1-0.5,1.8-0.5c0.5,0,0.9,0.1,1.4,0.2s0.8,0.4,1.1,0.7L134,631c-0.3-0.3-0.7-0.5-1-0.6
				c-0.3-0.1-0.7-0.2-1-0.2c-0.7,0-1.3,0.2-1.7,0.7c-0.4,0.5-0.6,1.1-0.6,2c0,0.9,0.2,1.5,0.6,2s1,0.7,1.7,0.7c0.3,0,0.7-0.1,1-0.2
				c0.3-0.1,0.7-0.3,1-0.6l0.4,0.8c-0.3,0.3-0.7,0.5-1.1,0.7C132.8,636.4,132.3,636.5,131.8,636.5z"/>
			<path class="st3" d="M135.7,626.4h1.4v1.3h-1.4V626.4z M135.8,636.4v-7h1.1v7H135.8z"/>
			<path class="st3" d="M142,636.5c-0.7,0-1.3-0.1-1.8-0.4c-0.5-0.3-0.9-0.7-1.2-1.3s-0.4-1.2-0.4-1.9c0-0.7,0.1-1.4,0.4-1.9
				s0.7-1,1.2-1.3c0.5-0.3,1.1-0.4,1.8-0.4s1.3,0.1,1.8,0.4c0.5,0.3,0.9,0.7,1.2,1.3s0.4,1.2,0.4,1.9c0,0.7-0.1,1.4-0.4,1.9
				s-0.7,1-1.2,1.3C143.3,636.4,142.7,636.5,142,636.5z M142,635.6c0.7,0,1.2-0.2,1.6-0.7s0.6-1.1,0.6-2c0-0.9-0.2-1.5-0.6-2
				c-0.4-0.5-0.9-0.7-1.6-0.7s-1.2,0.2-1.6,0.7s-0.6,1.1-0.6,2c0,0.9,0.2,1.6,0.6,2C140.8,635.3,141.3,635.6,142,635.6z"/>
			<path class="st3" d="M147.1,636.4v-5.1c0-0.3,0-0.7,0-1c0-0.3,0-0.7-0.1-1h1.1l0.1,1.5l-0.1,0.1c0.2-0.6,0.5-1,1-1.3
				c0.5-0.3,1-0.4,1.6-0.4c1.7,0,2.5,0.9,2.5,2.8v4.4H152v-4.4c0-0.7-0.1-1.1-0.4-1.4c-0.3-0.3-0.7-0.5-1.2-0.5
				c-0.7,0-1.2,0.2-1.6,0.6s-0.6,0.9-0.6,1.6v4H147.1z"/>
			<path class="st3" d="M158,636.5c-0.6,0-1.2-0.1-1.6-0.4s-0.8-0.7-1.1-1.3c-0.3-0.5-0.4-1.2-0.4-1.9s0.1-1.4,0.4-1.9
				s0.6-1,1.1-1.3c0.5-0.3,1-0.5,1.6-0.5c0.6,0,1.2,0.2,1.6,0.5c0.4,0.3,0.8,0.8,0.9,1.4l-0.2,0.1v-1.8h1.1v7h-1.1v-1.8l0.2,0.1
				c-0.2,0.6-0.5,1-0.9,1.4C159.2,636.4,158.7,636.5,158,636.5z M158.2,635.6c0.7,0,1.2-0.2,1.6-0.7c0.4-0.5,0.6-1.1,0.6-2
				c0-0.9-0.2-1.5-0.6-2s-0.9-0.7-1.6-0.7c-0.7,0-1.2,0.2-1.6,0.7s-0.6,1.2-0.6,2c0,0.9,0.2,1.5,0.6,2S157.5,635.6,158.2,635.6z"/>
			<path class="st3" d="M163.7,636.4v-10.3h1.1v10.3H163.7z"/>
			<path class="st3" d="M172.8,635.6c-0.3,0.3-0.7,0.5-1.2,0.7c-0.5,0.2-1,0.3-1.5,0.3c-0.7,0-1.4-0.1-1.9-0.4s-0.9-0.7-1.2-1.3
				c-0.3-0.5-0.4-1.2-0.4-2c0-0.7,0.1-1.4,0.4-1.9c0.3-0.6,0.7-1,1.2-1.3c0.5-0.3,1.1-0.5,1.7-0.5c0.6,0,1.2,0.1,1.6,0.4
				c0.4,0.3,0.8,0.7,1,1.2c0.2,0.5,0.4,1.1,0.4,1.8v0.2h-5.3v-0.7h4.7l-0.4,0.5c0-0.8-0.1-1.5-0.5-1.9c-0.3-0.4-0.8-0.7-1.5-0.7
				c-0.7,0-1.2,0.2-1.6,0.7c-0.4,0.5-0.6,1.1-0.6,2c0,0.9,0.2,1.6,0.6,2.1c0.4,0.5,1,0.7,1.8,0.7c0.4,0,0.8-0.1,1.2-0.2
				c0.4-0.1,0.7-0.3,1.1-0.6L172.8,635.6z"/>
			<path class="st3" d="M177,636.5c-1.2,0-2.1-0.3-2.8-0.9l0.4-0.8c0.4,0.3,0.8,0.5,1.2,0.6c0.4,0.1,0.8,0.2,1.3,0.2
				c0.5,0,0.9-0.1,1.2-0.3c0.3-0.2,0.4-0.4,0.4-0.8c0-0.3-0.1-0.5-0.3-0.7s-0.5-0.3-0.9-0.4l-1.2-0.3c-0.6-0.1-1-0.4-1.4-0.7
				c-0.3-0.3-0.5-0.7-0.5-1.2c0-0.4,0.1-0.8,0.3-1.1s0.5-0.6,0.9-0.7c0.4-0.2,0.9-0.3,1.4-0.3c0.5,0,1,0.1,1.4,0.2
				c0.4,0.2,0.8,0.4,1.1,0.7l-0.4,0.8c-0.3-0.3-0.7-0.5-1-0.6c-0.3-0.1-0.7-0.2-1.1-0.2c-0.5,0-0.9,0.1-1.2,0.3
				c-0.3,0.2-0.4,0.5-0.4,0.8c0,0.3,0.1,0.5,0.3,0.7s0.5,0.3,0.8,0.4l1.2,0.3c0.7,0.1,1.2,0.4,1.5,0.7c0.3,0.3,0.5,0.7,0.5,1.2
				c0,0.6-0.2,1.1-0.7,1.5C178.6,636.3,177.9,636.5,177,636.5z"/>
			<path class="st3" d="M191.5,636.4h-1.1v-1.9l0.2,0.2c-0.2,0.6-0.5,1-0.9,1.4c-0.4,0.3-1,0.5-1.6,0.5c-0.6,0-1.2-0.2-1.6-0.5
				c-0.5-0.3-0.8-0.7-1.1-1.3c-0.3-0.6-0.4-1.2-0.4-1.9s0.1-1.4,0.4-1.9c0.3-0.5,0.6-1,1.1-1.3s1-0.4,1.6-0.4c0.6,0,1.2,0.2,1.6,0.5
				c0.4,0.3,0.8,0.8,0.9,1.4l-0.2,0.1v-5.1h1.1V636.4z M188.2,635.6c0.7,0,1.2-0.2,1.6-0.7s0.6-1.1,0.6-2c0-0.9-0.2-1.5-0.6-2
				c-0.4-0.5-0.9-0.7-1.6-0.7c-0.7,0-1.2,0.2-1.6,0.7s-0.6,1.1-0.6,2c0,0.9,0.2,1.5,0.6,2C186.9,635.3,187.5,635.6,188.2,635.6z"/>
			<path class="st3" d="M199.4,635.6c-0.3,0.3-0.7,0.5-1.2,0.7c-0.5,0.2-1,0.3-1.5,0.3c-0.7,0-1.4-0.1-1.9-0.4s-0.9-0.7-1.2-1.3
				c-0.3-0.5-0.4-1.2-0.4-2c0-0.7,0.1-1.4,0.4-1.9c0.3-0.6,0.7-1,1.2-1.3c0.5-0.3,1.1-0.5,1.7-0.5c0.6,0,1.2,0.1,1.6,0.4
				c0.4,0.3,0.8,0.7,1,1.2c0.2,0.5,0.4,1.1,0.4,1.8v0.2h-5.3v-0.7h4.7l-0.4,0.5c0-0.8-0.1-1.5-0.5-1.9c-0.3-0.4-0.8-0.7-1.5-0.7
				c-0.7,0-1.2,0.2-1.6,0.7c-0.4,0.5-0.6,1.1-0.6,2c0,0.9,0.2,1.6,0.6,2.1c0.4,0.5,1,0.7,1.8,0.7c0.4,0,0.8-0.1,1.2-0.2
				c0.4-0.1,0.7-0.3,1.1-0.6L199.4,635.6z"/>
			<path class="st3" d="M207.9,636.5c-0.7,0-1.3-0.1-1.8-0.4s-0.9-0.7-1.2-1.3c-0.3-0.5-0.4-1.2-0.4-1.9c0-0.7,0.1-1.4,0.4-1.9
				c0.3-0.6,0.7-1,1.2-1.3c0.5-0.3,1.1-0.5,1.8-0.5c0.5,0,0.9,0.1,1.4,0.2s0.8,0.4,1.1,0.7L210,631c-0.3-0.3-0.7-0.5-1-0.6
				c-0.3-0.1-0.7-0.2-1-0.2c-0.7,0-1.3,0.2-1.7,0.7c-0.4,0.5-0.6,1.1-0.6,2c0,0.9,0.2,1.5,0.6,2s1,0.7,1.7,0.7c0.3,0,0.7-0.1,1-0.2
				c0.3-0.1,0.7-0.3,1-0.6l0.4,0.8c-0.3,0.3-0.7,0.5-1.1,0.7C208.8,636.4,208.4,636.5,207.9,636.5z"/>
			<path class="st3" d="M214.6,636.5c-0.6,0-1.2-0.1-1.6-0.4s-0.8-0.7-1.1-1.3c-0.3-0.5-0.4-1.2-0.4-1.9s0.1-1.4,0.4-1.9
				s0.6-1,1.1-1.3c0.5-0.3,1-0.5,1.6-0.5c0.6,0,1.2,0.2,1.6,0.5c0.4,0.3,0.8,0.8,0.9,1.4l-0.2,0.1v-1.8h1.1v7h-1.1v-1.8l0.2,0.1
				c-0.2,0.6-0.5,1-0.9,1.4C215.7,636.4,215.2,636.5,214.6,636.5z M214.8,635.6c0.7,0,1.2-0.2,1.6-0.7c0.4-0.5,0.6-1.1,0.6-2
				c0-0.9-0.2-1.5-0.6-2s-0.9-0.7-1.6-0.7c-0.7,0-1.2,0.2-1.6,0.7s-0.6,1.2-0.6,2c0,0.9,0.2,1.5,0.6,2S214.1,635.6,214.8,635.6z"/>
			<path class="st3" d="M220.3,636.4v-10.3h1.1v10.3H220.3z"/>
			<path class="st3" d="M223.5,626.4h1.4v1.3h-1.4V626.4z M223.6,636.4v-7h1.1v7H223.6z"/>
			<path class="st3" d="M233.1,636.4H232v-1.9l0.2,0.2c-0.2,0.6-0.5,1-0.9,1.4c-0.4,0.3-1,0.5-1.6,0.5c-0.6,0-1.2-0.2-1.6-0.5
				c-0.5-0.3-0.8-0.7-1.1-1.3c-0.3-0.6-0.4-1.2-0.4-1.9s0.1-1.4,0.4-1.9c0.3-0.5,0.6-1,1.1-1.3s1-0.4,1.6-0.4c0.6,0,1.2,0.2,1.6,0.5
				c0.4,0.3,0.8,0.8,0.9,1.4l-0.2,0.1v-5.1h1.1V636.4z M229.8,635.6c0.7,0,1.2-0.2,1.6-0.7s0.6-1.1,0.6-2c0-0.9-0.2-1.5-0.6-2
				c-0.4-0.5-0.9-0.7-1.6-0.7c-0.7,0-1.2,0.2-1.6,0.7s-0.6,1.1-0.6,2c0,0.9,0.2,1.5,0.6,2C228.6,635.3,229.2,635.6,229.8,635.6z"/>
			<path class="st3" d="M238,636.5c-0.6,0-1.2-0.1-1.6-0.4s-0.8-0.7-1.1-1.3c-0.3-0.5-0.4-1.2-0.4-1.9s0.1-1.4,0.4-1.9
				s0.6-1,1.1-1.3c0.5-0.3,1-0.5,1.6-0.5c0.6,0,1.2,0.2,1.6,0.5c0.4,0.3,0.8,0.8,0.9,1.4l-0.2,0.1v-1.8h1.1v7h-1.1v-1.8l0.2,0.1
				c-0.2,0.6-0.5,1-0.9,1.4C239.2,636.4,238.7,636.5,238,636.5z M238.2,635.6c0.7,0,1.2-0.2,1.6-0.7c0.4-0.5,0.6-1.1,0.6-2
				c0-0.9-0.2-1.5-0.6-2s-0.9-0.7-1.6-0.7c-0.7,0-1.2,0.2-1.6,0.7s-0.6,1.2-0.6,2c0,0.9,0.2,1.5,0.6,2S237.6,635.6,238.2,635.6z"/>
			<path class="st3" d="M249.9,636.4h-1.1v-1.9l0.2,0.2c-0.2,0.6-0.5,1-0.9,1.4c-0.4,0.3-1,0.5-1.6,0.5c-0.6,0-1.2-0.2-1.6-0.5
				c-0.5-0.3-0.8-0.7-1.1-1.3c-0.3-0.6-0.4-1.2-0.4-1.9s0.1-1.4,0.4-1.9c0.3-0.5,0.6-1,1.1-1.3s1-0.4,1.6-0.4c0.6,0,1.2,0.2,1.6,0.5
				c0.4,0.3,0.8,0.8,0.9,1.4l-0.2,0.1v-5.1h1.1V636.4z M246.6,635.6c0.7,0,1.2-0.2,1.6-0.7s0.6-1.1,0.6-2c0-0.9-0.2-1.5-0.6-2
				c-0.4-0.5-0.9-0.7-1.6-0.7c-0.7,0-1.2,0.2-1.6,0.7s-0.6,1.1-0.6,2c0,0.9,0.2,1.5,0.6,2C245.4,635.3,246,635.6,246.6,635.6z"/>
		</g>
		
			<image style="overflow:visible;opacity:0.21;enable-background:new    ;" width="244" height="247" xlink:href="1C5D448E25D5B71.png"  transform="matrix(1 0 0 1 383.35 37.7)">
		</image>
		<g>
			<path class="st0" d="M464,55.9h94c26.2,0,47.5,21.2,47.5,47.4V201c0,26.2-21.2,47.4-47.5,47.4h-94c-26.2,0-47.5-21.2-47.5-47.4
				v-97.7C416.5,77.1,437.8,55.9,464,55.9z"/>
		</g>
		<g>
			<path class="st1" d="M506.5,128.9c-1.1,1.1-2.2,2.2-3.2,3.2l-37,21.2c-0.6,0.3-0.8,1.1-0.5,1.7c0.2,0.3,0.5,0.5,0.8,0.6l13.8,3
				c-1.5,2.1-2.9,4.3-4,6.6c0,0.1-0.1,0.2-0.1,0.3c0,0,0,0.1,0,0.1c0,0.1,0,0.2,0,0.3c0,0,0,0.1,0,0.1c0,0.1,0.1,0.2,0.1,0.3l0,0.1
				c0.1,0.1,0.2,0.3,0.3,0.4l16.4,16.4c0.3,0.3,0.7,0.5,1.1,0.4c0.2,0,0.4,0,0.6-0.1c2.3-1.1,4.5-2.5,6.6-4l3,13.8
				c0.1,0.5,0.5,0.9,1,1h0.2c0.4,0,0.8-0.2,1.1-0.6l21.2-37c1.1-1,2.1-2.1,3.2-3.2c12.5-12.5,20.2-23.7,23.2-33.3
				c2.4-8.1,0.6-12.6-0.7-13.9C550.6,103.2,535,100.4,506.5,128.9z M470.3,153.9l27-15.5c-5.4,5.7-10.5,11.7-15.2,18L470.3,153.9z
				 M479.8,165.5c0.3-0.5,0.7-1.3,1.3-2.2l15.8,15.8c-1,0.6-1.7,1-2.2,1.3L479.8,165.5z M506.3,189.8l-2.5-11.7
				c6.3-4.7,12.3-9.8,18-15.2L506.3,189.8z M529.1,151.5c-14.5,14.5-24.1,22.1-29.6,25.9l-16.7-16.7c3.8-5.5,11.4-15.1,25.9-29.6
				c30.2-30.2,42.8-22.6,43-22.5S559.3,121.3,529.1,151.5L529.1,151.5z"/>
		</g>
		<g>
			<path class="st1" d="M524.5,129.6c-3.4,0-6.1,2.7-6.1,6.1c0,3.4,2.7,6.1,6.1,6.1c3.4,0,6.1-2.7,6.1-6.1c0,0,0,0,0,0
				C530.6,132.3,527.9,129.6,524.5,129.6z M524.5,138.7c-1.7,0-3.1-1.3-3.1-3c0-1.7,1.3-3.1,3-3.1c1.7,0,3.1,1.3,3.1,3c0,0,0,0,0,0
				C527.5,137.4,526.2,138.7,524.5,138.7z"/>
		</g>
		<g>
			<path class="st1" d="M536.4,117.7c-3.4,0-6.1,2.7-6.1,6.1c0,3.4,2.7,6.1,6.1,6.1c3.4,0,6.1-2.7,6.1-6.1c0,0,0,0,0,0
				C542.5,120.4,539.8,117.7,536.4,117.7z M536.4,126.8c-1.7,0-3-1.4-2.9-3s1.4-3,3-2.9c1.6,0,2.9,1.4,3,3
				C539.4,125.5,538.1,126.8,536.4,126.8z"/>
		</g>
		<g>
			<path class="st1" d="M511.2,142.9c-3.4,0-6.1,2.7-6.1,6.1c0,3.4,2.7,6.1,6.1,6.1c3.4,0,6.1-2.7,6.1-6.1c0,0,0,0,0,0
				C517.3,145.6,514.6,142.9,511.2,142.9z M511.2,152c-1.7,0-3.1-1.4-3.1-3.1c0-1.7,1.4-3.1,3.1-3.1c1.7,0,3.1,1.4,3.1,3.1
				C514.3,150.6,512.9,152,511.2,152L511.2,152z"/>
		</g>
		<g>
			<path class="st1" d="M487,180.6c-0.7-0.4-1.6-0.2-2,0.5c0,0,0,0,0,0l-4.9,8c-0.4,0.7-0.2,1.6,0.4,2c0.7,0.4,1.6,0.2,2-0.4
				c0,0,0-0.1,0.1-0.1l4.9-8C487.9,181.9,487.7,181,487,180.6z"/>
		</g>
		<g>
			<path class="st1" d="M479.6,173.2c-0.4-0.7-1.3-0.9-2-0.5l-8,4.9c-0.7,0.4-1,1.2-0.6,2c0.4,0.7,1.2,1,2,0.6
				c0.1,0,0.1-0.1,0.2-0.1l8-4.9C479.7,174.8,480,173.9,479.6,173.2z"/>
		</g>
		<g>
			<path class="st1" d="M483.3,176.9c-0.6-0.5-1.4-0.5-2,0l-8.9,8.9c-0.5,0.6-0.5,1.4,0,2c0.3,0.3,0.6,0.4,1,0.4
				c0.4,0,0.7-0.2,1-0.4l8.8-8.9C483.8,178.3,483.8,177.4,483.3,176.9z"/>
		</g>
		<g class="st2">
			<path class="st3" d="M432.8,289.6v-11.3h7.6v1.6h-5.6v3.1h5.2v1.6h-5.2v3.3h5.6v1.6H432.8z"/>
		</g>
		<g class="st2">
			<path class="st3" d="M443.2,289.6h-2.4l3.4-4.1l1.1-1.4l2-2.5h2.4l-3.2,3.9l-1.2,1.4L443.2,289.6z M447.6,289.6l-2.2-2.7
				l-1.1-1.4l-3.2-3.9h2.3l2,2.5l1.2,1.4l3.3,4.1H447.6z"/>
		</g>
		<g class="st2">
			<path class="st3" d="M454.3,289.7c-0.8,0-1.6-0.2-2.2-0.5s-1.1-0.8-1.4-1.4c-0.3-0.6-0.5-1.3-0.5-2.2c0-0.8,0.2-1.6,0.5-2.2
				c0.3-0.6,0.8-1.1,1.4-1.5c0.6-0.3,1.4-0.5,2.2-0.5c0.6,0,1.1,0.1,1.6,0.3c0.5,0.2,1,0.4,1.3,0.7l-0.6,1.4
				c-0.3-0.3-0.7-0.5-1.1-0.6c-0.4-0.1-0.8-0.2-1.1-0.2c-0.7,0-1.3,0.2-1.7,0.7s-0.6,1.1-0.6,2c0,0.8,0.2,1.5,0.6,1.9s1,0.7,1.7,0.7
				c0.4,0,0.7-0.1,1.1-0.2s0.7-0.4,1.1-0.6l0.6,1.4c-0.3,0.3-0.8,0.6-1.3,0.7C455.5,289.6,454.9,289.7,454.3,289.7z"/>
			<path class="st3" d="M465.5,288.7c-0.4,0.3-0.8,0.6-1.4,0.7c-0.6,0.2-1.1,0.3-1.7,0.3c-0.9,0-1.6-0.2-2.2-0.5
				c-0.6-0.3-1.1-0.8-1.5-1.4c-0.3-0.6-0.5-1.4-0.5-2.2c0-0.8,0.2-1.6,0.5-2.2c0.3-0.6,0.8-1.1,1.4-1.5c0.6-0.4,1.3-0.5,2-0.5
				c0.7,0,1.4,0.2,1.9,0.5c0.5,0.3,0.9,0.8,1.2,1.4c0.3,0.6,0.4,1.3,0.4,2.1v0.3H460l0-1.1h4.5l-0.5,0.5c0-0.8-0.1-1.4-0.5-1.8
				c-0.3-0.4-0.8-0.6-1.4-0.6c-0.6,0-1.1,0.2-1.5,0.7c-0.3,0.5-0.5,1.1-0.5,1.9c0,1,0.2,1.7,0.6,2.1c0.4,0.5,1,0.7,1.8,0.7
				c0.4,0,0.9-0.1,1.3-0.2c0.4-0.1,0.8-0.4,1.2-0.6L465.5,288.7z"/>
			<path class="st3" d="M467.4,289.6v-11.7h2v11.7H467.4z"/>
			<path class="st3" d="M478.4,288.7c-0.4,0.3-0.8,0.6-1.4,0.7c-0.6,0.2-1.1,0.3-1.7,0.3c-0.9,0-1.6-0.2-2.2-0.5
				c-0.6-0.3-1.1-0.8-1.5-1.4c-0.3-0.6-0.5-1.4-0.5-2.2c0-0.8,0.2-1.6,0.5-2.2c0.3-0.6,0.8-1.1,1.4-1.5c0.6-0.4,1.3-0.5,2-0.5
				c0.7,0,1.4,0.2,1.9,0.5c0.5,0.3,0.9,0.8,1.2,1.4c0.3,0.6,0.4,1.3,0.4,2.1v0.3h-5.7l0-1.1h4.5l-0.5,0.5c0-0.8-0.1-1.4-0.5-1.8
				c-0.3-0.4-0.8-0.6-1.4-0.6c-0.6,0-1.1,0.2-1.5,0.7c-0.3,0.5-0.5,1.1-0.5,1.9c0,1,0.2,1.7,0.6,2.1c0.4,0.5,1,0.7,1.8,0.7
				c0.4,0,0.9-0.1,1.3-0.2c0.4-0.1,0.8-0.4,1.2-0.6L478.4,288.7z"/>
			<path class="st3" d="M480.2,289.6v-5.7c0-0.4,0-0.8,0-1.1c0-0.4-0.1-0.8-0.1-1.1h1.9l0.2,1.6l-0.2,0c0.3-0.6,0.6-1.1,1.1-1.4
				c0.5-0.3,1.1-0.5,1.7-0.5c1.9,0,2.9,1.1,2.9,3.3v4.9h-2v-4.8c0-0.6-0.1-1.1-0.4-1.4s-0.6-0.4-1.1-0.4c-0.6,0-1.1,0.2-1.5,0.6
				c-0.4,0.4-0.5,0.9-0.5,1.5v4.5H480.2z"/>
			<path class="st3" d="M493.4,289.7c-0.8,0-1.6-0.2-2.2-0.5s-1.1-0.8-1.4-1.4c-0.3-0.6-0.5-1.3-0.5-2.2c0-0.8,0.2-1.6,0.5-2.2
				c0.3-0.6,0.8-1.1,1.4-1.5c0.6-0.3,1.4-0.5,2.2-0.5c0.6,0,1.1,0.1,1.6,0.3c0.5,0.2,1,0.4,1.3,0.7l-0.6,1.4
				c-0.3-0.3-0.7-0.5-1.1-0.6c-0.4-0.1-0.8-0.2-1.1-0.2c-0.7,0-1.3,0.2-1.7,0.7s-0.6,1.1-0.6,2c0,0.8,0.2,1.5,0.6,1.9s1,0.7,1.7,0.7
				c0.4,0,0.7-0.1,1.1-0.2s0.7-0.4,1.1-0.6l0.6,1.4c-0.3,0.3-0.8,0.6-1.3,0.7C494.5,289.6,494,289.7,493.4,289.7z"/>
			<path class="st3" d="M497.6,278h2.2v2h-2.2V278z M497.7,289.6v-8h2v8H497.7z"/>
			<path class="st3" d="M505,289.7c-0.7,0-1.3-0.2-1.9-0.5c-0.5-0.3-1-0.8-1.2-1.4s-0.4-1.3-0.4-2.2c0-0.8,0.1-1.6,0.4-2.2
				c0.3-0.6,0.7-1.1,1.2-1.5c0.5-0.4,1.2-0.5,1.8-0.5c0.7,0,1.3,0.2,1.8,0.5c0.5,0.3,0.8,0.8,1,1.4l-0.2,0.1v-1.8h2v8h-2v-1.8
				l0.2,0.1c-0.2,0.6-0.5,1.1-1,1.4C506.3,289.6,505.7,289.7,505,289.7z M505.5,288.2c0.7,0,1.2-0.2,1.5-0.7
				c0.4-0.5,0.5-1.1,0.5-1.9c0-0.9-0.2-1.5-0.5-2c-0.4-0.4-0.9-0.7-1.5-0.7c-0.7,0-1.2,0.2-1.6,0.7s-0.6,1.1-0.6,2
				c0,0.8,0.2,1.5,0.6,1.9C504.3,288,504.9,288.2,505.5,288.2z"/>
			<path class="st3" d="M521.2,289.7c-1.1,0-2.1-0.2-2.9-0.7c-0.8-0.5-1.4-1.1-1.9-2c-0.4-0.9-0.7-1.9-0.7-3.1
				c0-1.2,0.2-2.2,0.7-3.1s1.1-1.5,1.9-2c0.8-0.5,1.8-0.7,2.9-0.7c1.1,0,2.1,0.2,2.9,0.7c0.8,0.5,1.4,1.1,1.9,2
				c0.4,0.9,0.7,1.9,0.7,3.1c0,1.2-0.2,2.2-0.7,3.1c-0.4,0.9-1.1,1.5-1.9,2S522.3,289.7,521.2,289.7z M521.2,288.1
				c1,0,1.9-0.4,2.4-1.1c0.6-0.7,0.9-1.7,0.9-3.1c0-1.4-0.3-2.4-0.9-3.1c-0.6-0.7-1.4-1.1-2.4-1.1c-1,0-1.8,0.4-2.4,1.1
				c-0.6,0.7-0.9,1.7-0.9,3.1c0,1.4,0.3,2.4,0.9,3.1C519.4,287.8,520.2,288.1,521.2,288.1z"/>
			<path class="st3" d="M528.5,293v-9.2c0-0.4,0-0.7,0-1.1c0-0.4,0-0.8-0.1-1.1h1.9l0.2,1.6l-0.1,0.1c0.2-0.6,0.5-1.1,1-1.4
				s1.1-0.5,1.8-0.5c0.7,0,1.3,0.2,1.8,0.5c0.5,0.4,1,0.8,1.3,1.5c0.3,0.6,0.5,1.4,0.5,2.2c0,0.8-0.2,1.6-0.5,2.2s-0.7,1.1-1.3,1.4
				s-1.1,0.5-1.9,0.5c-0.7,0-1.3-0.2-1.8-0.5c-0.5-0.3-0.8-0.8-1-1.4l0.2-0.3v5.4H528.5z M532.6,288.2c0.7,0,1.2-0.2,1.5-0.7
				c0.4-0.4,0.5-1.1,0.5-1.9c0-0.8-0.2-1.5-0.5-2c-0.4-0.5-0.9-0.7-1.5-0.7c-0.7,0-1.2,0.2-1.5,0.7c-0.4,0.5-0.5,1.1-0.5,2
				c0,0.8,0.2,1.5,0.5,1.9S531.9,288.2,532.6,288.2z"/>
			<path class="st3" d="M545.2,288.7c-0.4,0.3-0.8,0.6-1.4,0.7c-0.6,0.2-1.1,0.3-1.7,0.3c-0.9,0-1.6-0.2-2.2-0.5
				c-0.6-0.3-1.1-0.8-1.5-1.4c-0.3-0.6-0.5-1.4-0.5-2.2c0-0.8,0.2-1.6,0.5-2.2c0.3-0.6,0.8-1.1,1.4-1.5c0.6-0.4,1.3-0.5,2-0.5
				c0.7,0,1.4,0.2,1.9,0.5c0.5,0.3,0.9,0.8,1.2,1.4c0.3,0.6,0.4,1.3,0.4,2.1v0.3h-5.7l0-1.1h4.5l-0.5,0.5c0-0.8-0.1-1.4-0.5-1.8
				c-0.3-0.4-0.8-0.6-1.4-0.6c-0.6,0-1.1,0.2-1.5,0.7c-0.3,0.5-0.5,1.1-0.5,1.9c0,1,0.2,1.7,0.6,2.1c0.4,0.5,1,0.7,1.8,0.7
				c0.4,0,0.9-0.1,1.3-0.2c0.4-0.1,0.8-0.4,1.2-0.6L545.2,288.7z"/>
		</g>
		<g class="st2">
			<path class="st3" d="M547.1,289.6v-5.7c0-0.4,0-0.7,0-1.1c0-0.4,0-0.8-0.1-1.1h1.9l0.2,2.1l-0.2-0.1c0.1-0.7,0.5-1.2,0.9-1.6
				s1-0.5,1.7-0.5c0.2,0,0.3,0,0.4,0s0.3,0.1,0.4,0.1l0,1.8c-0.3-0.1-0.7-0.2-1-0.2c-0.5,0-0.9,0.1-1.2,0.3
				c-0.3,0.2-0.5,0.4-0.7,0.8c-0.2,0.3-0.2,0.7-0.2,1.1v4.3H547.1z"/>
		</g>
		<g class="st2">
			<path class="st3" d="M556.2,289.7c-0.7,0-1.3-0.2-1.9-0.5c-0.5-0.3-1-0.8-1.2-1.4s-0.4-1.3-0.4-2.2c0-0.8,0.1-1.6,0.4-2.2
				c0.3-0.6,0.7-1.1,1.2-1.5c0.5-0.4,1.2-0.5,1.8-0.5c0.7,0,1.3,0.2,1.8,0.5c0.5,0.3,0.8,0.8,1,1.4l-0.2,0.1v-1.8h2v8h-2v-1.8
				l0.2,0.1c-0.2,0.6-0.5,1.1-1,1.4C557.5,289.6,556.9,289.7,556.2,289.7z M556.8,288.2c0.7,0,1.2-0.2,1.5-0.7s0.5-1.1,0.5-1.9
				c0-0.9-0.2-1.5-0.5-2c-0.4-0.4-0.9-0.7-1.5-0.7c-0.7,0-1.2,0.2-1.6,0.7c-0.4,0.5-0.6,1.1-0.6,2c0,0.8,0.2,1.5,0.6,1.9
				C555.6,288,556.1,288.2,556.8,288.2z"/>
			<path class="st3" d="M562,283.1v-1.5h5.6v1.5H562z M567.6,288v1.6c-0.2,0.1-0.4,0.1-0.6,0.2s-0.4,0-0.7,0c-0.9,0-1.6-0.3-2.1-0.8
				c-0.5-0.5-0.7-1.2-0.7-2.2v-7.1l2-0.7v7.7c0,0.4,0.1,0.6,0.2,0.8s0.3,0.4,0.5,0.4c0.2,0.1,0.4,0.1,0.7,0.1c0.1,0,0.3,0,0.4,0
				C567.3,288,567.4,288,567.6,288z"/>
			<path class="st3" d="M568.9,278h2.2v2h-2.2V278z M569,289.6v-8h2v8H569z"/>
		</g>
		<g class="st2">
			<path class="st3" d="M575.4,289.6l-3.5-8h2.1l2.5,6.3h-0.4l2.6-6.3h2l-3.5,8H575.4z"/>
		</g>
		<g class="st2">
			<path class="st3" d="M584.7,289.7c-0.7,0-1.3-0.2-1.9-0.5c-0.5-0.3-1-0.8-1.2-1.4s-0.4-1.3-0.4-2.2c0-0.8,0.1-1.6,0.4-2.2
				c0.3-0.6,0.7-1.1,1.2-1.5c0.5-0.4,1.2-0.5,1.8-0.5c0.7,0,1.3,0.2,1.8,0.5c0.5,0.3,0.8,0.8,1,1.4l-0.2,0.1v-1.8h2v8h-2v-1.8
				l0.2,0.1c-0.2,0.6-0.5,1.1-1,1.4C586,289.6,585.4,289.7,584.7,289.7z M585.2,288.2c0.7,0,1.2-0.2,1.5-0.7s0.5-1.1,0.5-1.9
				c0-0.9-0.2-1.5-0.5-2c-0.4-0.4-0.9-0.7-1.5-0.7c-0.7,0-1.2,0.2-1.6,0.7c-0.4,0.5-0.6,1.1-0.6,2c0,0.8,0.2,1.5,0.6,1.9
				C584.1,288,584.6,288.2,585.2,288.2z"/>
		</g>
		<g class="st2">
			<path class="st3" d="M444.2,309.6v-10h1l4,9.2h-0.5l4-9.2h1v10h-1.1v-8.5l0.4,0.1l-3.7,8.4h-0.8l-3.7-8.4l0.5-0.1l0,8.5H444.2z"
				/>
			<path class="st3" d="M461.7,308.8c-0.3,0.3-0.7,0.5-1.2,0.7s-1,0.3-1.5,0.3c-0.7,0-1.4-0.1-1.9-0.4s-0.9-0.7-1.2-1.3
				s-0.4-1.2-0.4-2c0-0.7,0.1-1.4,0.4-1.9c0.3-0.6,0.7-1,1.2-1.3c0.5-0.3,1.1-0.5,1.7-0.5c0.6,0,1.2,0.1,1.6,0.4s0.8,0.7,1,1.2
				c0.2,0.5,0.4,1.1,0.4,1.8v0.2h-5.3v-0.7h4.7l-0.4,0.5c0-0.8-0.1-1.5-0.5-1.9c-0.3-0.4-0.8-0.7-1.5-0.7c-0.7,0-1.2,0.2-1.6,0.7
				c-0.4,0.5-0.6,1.1-0.6,2c0,0.9,0.2,1.6,0.6,2.1s1,0.7,1.8,0.7c0.4,0,0.8-0.1,1.2-0.2c0.4-0.1,0.7-0.3,1.1-0.6L461.7,308.8z"/>
			<path class="st3" d="M463.6,309.6v-5.1c0-0.3,0-0.7,0-1s0-0.7-0.1-1h1.1l0.1,1.5l-0.1,0.1c0.2-0.6,0.5-1,1-1.3
				c0.5-0.3,1-0.4,1.6-0.4c1.7,0,2.5,0.9,2.5,2.8v4.4h-1.1v-4.4c0-0.7-0.1-1.1-0.4-1.4c-0.3-0.3-0.7-0.5-1.2-0.5
				c-0.7,0-1.2,0.2-1.6,0.6s-0.6,0.9-0.6,1.6v4H463.6z"/>
			<path class="st3" d="M474.7,309.7c-0.7,0-1.3-0.1-1.8-0.4s-0.9-0.7-1.2-1.3s-0.4-1.2-0.4-1.9c0-0.7,0.1-1.4,0.4-1.9
				s0.7-1,1.2-1.3s1.1-0.4,1.8-0.4s1.3,0.1,1.8,0.4c0.5,0.3,0.9,0.7,1.2,1.3s0.4,1.2,0.4,1.9c0,0.7-0.1,1.4-0.4,1.9s-0.7,1-1.2,1.3
				C475.9,309.6,475.3,309.7,474.7,309.7z M474.7,308.8c0.7,0,1.2-0.2,1.6-0.7c0.4-0.5,0.6-1.1,0.6-2c0-0.9-0.2-1.5-0.6-2
				s-0.9-0.7-1.6-0.7s-1.2,0.2-1.6,0.7c-0.4,0.5-0.6,1.1-0.6,2c0,0.9,0.2,1.6,0.6,2C473.4,308.5,474,308.8,474.7,308.8z"/>
			<path class="st3" d="M479.8,309.6v-5.1c0-0.3,0-0.7,0-1c0-0.3,0-0.7-0.1-1h1.1l0.2,1.7l-0.2,0c0.1-0.6,0.4-1.1,0.8-1.4
				c0.4-0.3,0.9-0.5,1.5-0.5c0.1,0,0.2,0,0.3,0c0.1,0,0.2,0,0.3,0.1l0,1c-0.2-0.1-0.5-0.1-0.7-0.1c-0.5,0-0.9,0.1-1.2,0.3
				s-0.5,0.5-0.6,0.8c-0.1,0.3-0.2,0.7-0.2,1v4H479.8z"/>
			<path class="st3" d="M491.4,309.7c-0.7,0-1.3-0.1-1.8-0.4s-0.9-0.7-1.2-1.3c-0.3-0.5-0.4-1.2-0.4-1.9c0-0.7,0.1-1.4,0.4-1.9
				c0.3-0.6,0.7-1,1.2-1.3s1.1-0.5,1.8-0.5c0.5,0,0.9,0.1,1.4,0.2s0.8,0.4,1.1,0.7l-0.4,0.8c-0.3-0.3-0.7-0.5-1-0.6
				c-0.3-0.1-0.7-0.2-1-0.2c-0.7,0-1.3,0.2-1.7,0.7c-0.4,0.5-0.6,1.1-0.6,2c0,0.9,0.2,1.5,0.6,2s1,0.7,1.7,0.7c0.3,0,0.7-0.1,1-0.2
				c0.3-0.1,0.7-0.3,1-0.6l0.4,0.8c-0.3,0.3-0.7,0.5-1.1,0.7C492.4,309.6,491.9,309.7,491.4,309.7z"/>
			<path class="st3" d="M498.3,309.7c-0.7,0-1.3-0.1-1.8-0.4c-0.5-0.3-0.9-0.7-1.2-1.3s-0.4-1.2-0.4-1.9c0-0.7,0.1-1.4,0.4-1.9
				s0.7-1,1.2-1.3c0.5-0.3,1.1-0.4,1.8-0.4s1.3,0.1,1.8,0.4s0.9,0.7,1.2,1.3s0.4,1.2,0.4,1.9c0,0.7-0.1,1.4-0.4,1.9s-0.7,1-1.2,1.3
				S499,309.7,498.3,309.7z M498.3,308.8c0.7,0,1.2-0.2,1.6-0.7s0.6-1.1,0.6-2c0-0.9-0.2-1.5-0.6-2s-0.9-0.7-1.6-0.7
				c-0.7,0-1.2,0.2-1.6,0.7s-0.6,1.1-0.6,2c0,0.9,0.2,1.6,0.6,2C497.1,308.5,497.6,308.8,498.3,308.8z"/>
		</g>
		<g class="st2">
			<path class="st3" d="M505.8,309.7c-1.2,0-2.1-0.3-2.8-0.9l0.4-0.8c0.4,0.3,0.8,0.5,1.2,0.6c0.4,0.1,0.8,0.2,1.3,0.2
				c0.5,0,0.9-0.1,1.2-0.3c0.3-0.2,0.4-0.4,0.4-0.8c0-0.3-0.1-0.5-0.3-0.7s-0.5-0.3-0.9-0.4l-1.2-0.3c-0.6-0.1-1-0.4-1.4-0.7
				c-0.3-0.3-0.5-0.7-0.5-1.2c0-0.4,0.1-0.8,0.3-1.1c0.2-0.3,0.5-0.6,0.9-0.7c0.4-0.2,0.9-0.3,1.4-0.3c0.5,0,1,0.1,1.4,0.2
				c0.4,0.2,0.8,0.4,1.1,0.7l-0.4,0.8c-0.3-0.3-0.7-0.5-1-0.6c-0.3-0.1-0.7-0.2-1.1-0.2c-0.5,0-0.9,0.1-1.2,0.3
				c-0.3,0.2-0.4,0.5-0.4,0.8c0,0.3,0.1,0.5,0.3,0.7s0.5,0.3,0.8,0.4l1.2,0.3c0.7,0.1,1.2,0.4,1.5,0.7c0.3,0.3,0.5,0.7,0.5,1.2
				c0,0.6-0.2,1.1-0.7,1.5C507.3,309.5,506.7,309.7,505.8,309.7z"/>
		</g>
		<g class="st2">
			<path class="st3" d="M509.3,303.5v-0.9h4.5v0.9H509.3z M513.8,308.6v1c-0.2,0-0.3,0.1-0.5,0.1c-0.2,0-0.3,0-0.5,0
				c-0.7,0-1.2-0.2-1.6-0.6c-0.4-0.4-0.6-0.9-0.6-1.7v-6.7l1.1-0.4v7c0,0.4,0.1,0.7,0.2,0.9c0.1,0.2,0.3,0.3,0.4,0.4
				s0.4,0.1,0.6,0.1c0.1,0,0.3,0,0.4,0C513.5,308.7,513.7,308.7,513.8,308.6z"/>
			<path class="st3" d="M518.1,309.7c-0.7,0-1.3-0.1-1.8-0.4c-0.5-0.3-0.9-0.7-1.2-1.3s-0.4-1.2-0.4-1.9c0-0.7,0.1-1.4,0.4-1.9
				s0.7-1,1.2-1.3c0.5-0.3,1.1-0.4,1.8-0.4s1.3,0.1,1.8,0.4s0.9,0.7,1.2,1.3s0.4,1.2,0.4,1.9c0,0.7-0.1,1.4-0.4,1.9s-0.7,1-1.2,1.3
				S518.8,309.7,518.1,309.7z M518.1,308.8c0.7,0,1.2-0.2,1.6-0.7s0.6-1.1,0.6-2c0-0.9-0.2-1.5-0.6-2s-0.9-0.7-1.6-0.7
				c-0.7,0-1.2,0.2-1.6,0.7c-0.4,0.5-0.6,1.1-0.6,2c0,0.9,0.2,1.6,0.6,2S517.4,308.8,518.1,308.8z"/>
			<path class="st3" d="M526.9,309.6v-10.3h1.1v10.3H526.9z"/>
			<path class="st3" d="M533.1,309.7c-0.7,0-1.3-0.1-1.8-0.4s-0.9-0.7-1.2-1.3s-0.4-1.2-0.4-1.9c0-0.7,0.1-1.4,0.4-1.9
				s0.7-1,1.2-1.3s1.1-0.4,1.8-0.4s1.3,0.1,1.8,0.4c0.5,0.3,0.9,0.7,1.2,1.3s0.4,1.2,0.4,1.9c0,0.7-0.1,1.4-0.4,1.9s-0.7,1-1.2,1.3
				C534.4,309.6,533.8,309.7,533.1,309.7z M533.1,308.8c0.7,0,1.2-0.2,1.6-0.7s0.6-1.1,0.6-2c0-0.9-0.2-1.5-0.6-2
				c-0.4-0.5-0.9-0.7-1.6-0.7c-0.7,0-1.2,0.2-1.6,0.7c-0.4,0.5-0.6,1.1-0.6,2c0,0.9,0.2,1.6,0.6,2
				C531.9,308.5,532.4,308.8,533.1,308.8z"/>
			<path class="st3" d="M541.3,312.7c-1.1,0-2-0.2-2.8-0.7l0.2-0.9c0.4,0.3,0.9,0.4,1.2,0.5c0.4,0.1,0.8,0.2,1.3,0.2
				c0.7,0,1.2-0.2,1.5-0.5c0.3-0.4,0.5-0.9,0.5-1.6v-1.9l0.2-0.2c-0.1,0.4-0.3,0.7-0.5,1c-0.2,0.3-0.5,0.5-0.9,0.6
				c-0.3,0.1-0.7,0.2-1.2,0.2c-0.6,0-1.2-0.1-1.6-0.4c-0.5-0.3-0.8-0.7-1.1-1.2s-0.4-1.1-0.4-1.8s0.1-1.3,0.4-1.8s0.6-0.9,1.1-1.2
				c0.5-0.3,1-0.4,1.6-0.4c0.7,0,1.2,0.2,1.7,0.5c0.5,0.3,0.8,0.8,0.9,1.4l-0.2-0.2v-1.5h1.1v7c0,1.1-0.3,1.8-0.8,2.4
				C543.1,312.5,542.3,312.7,541.3,312.7z M541.2,308.5c0.7,0,1.2-0.2,1.6-0.7c0.4-0.5,0.6-1.1,0.6-1.9s-0.2-1.4-0.6-1.9
				c-0.4-0.5-0.9-0.7-1.6-0.7c-0.7,0-1.2,0.2-1.6,0.7c-0.4,0.5-0.6,1.1-0.6,1.9c0,0.8,0.2,1.4,0.6,1.9S540.5,308.5,541.2,308.5z"/>
			<path class="st3" d="M546.7,309.6v-7h1.1v7H546.7z M547.6,301.7h-0.8l1.4-2.9h1.3L547.6,301.7z"/>
		</g>
		<g class="st2">
			<path class="st3" d="M552.4,309.7c-1.2,0-2.1-0.3-2.8-0.9l0.4-0.8c0.4,0.3,0.8,0.5,1.2,0.6c0.4,0.1,0.8,0.2,1.3,0.2
				c0.5,0,0.9-0.1,1.2-0.3s0.4-0.4,0.4-0.8c0-0.3-0.1-0.5-0.3-0.7s-0.5-0.3-0.9-0.4l-1.2-0.3c-0.6-0.1-1-0.4-1.4-0.7
				s-0.5-0.7-0.5-1.2c0-0.4,0.1-0.8,0.3-1.1c0.2-0.3,0.5-0.6,0.9-0.7c0.4-0.2,0.9-0.3,1.4-0.3c0.5,0,1,0.1,1.4,0.2
				c0.4,0.2,0.8,0.4,1.1,0.7l-0.4,0.8c-0.3-0.3-0.7-0.5-1-0.6c-0.3-0.1-0.7-0.2-1.1-0.2c-0.5,0-0.9,0.1-1.2,0.3s-0.4,0.5-0.4,0.8
				c0,0.3,0.1,0.5,0.3,0.7s0.5,0.3,0.8,0.4l1.2,0.3c0.7,0.1,1.2,0.4,1.5,0.7s0.5,0.7,0.5,1.2c0,0.6-0.2,1.1-0.7,1.5
				C553.9,309.5,553.2,309.7,552.4,309.7z"/>
		</g>
		<g class="st2">
			<path class="st3" d="M555.9,303.5v-0.9h4.5v0.9H555.9z M560.4,308.6v1c-0.2,0-0.3,0.1-0.5,0.1c-0.2,0-0.3,0-0.5,0
				c-0.7,0-1.2-0.2-1.6-0.6c-0.4-0.4-0.6-0.9-0.6-1.7v-6.7l1.1-0.4v7c0,0.4,0.1,0.7,0.2,0.9s0.3,0.3,0.4,0.4
				c0.2,0.1,0.4,0.1,0.6,0.1c0.1,0,0.3,0,0.4,0S560.2,308.7,560.4,308.6z"/>
			<path class="st3" d="M561.7,299.6h1.4v1.3h-1.4V299.6z M561.8,309.6v-7h1.1v7H561.8z"/>
			<path class="st3" d="M568.1,309.7c-0.7,0-1.3-0.1-1.8-0.4s-0.9-0.7-1.2-1.3c-0.3-0.5-0.4-1.2-0.4-1.9c0-0.7,0.1-1.4,0.4-1.9
				c0.3-0.6,0.7-1,1.2-1.3s1.1-0.5,1.8-0.5c0.5,0,0.9,0.1,1.4,0.2s0.8,0.4,1.1,0.7l-0.4,0.8c-0.3-0.3-0.7-0.5-1-0.6
				c-0.3-0.1-0.7-0.2-1-0.2c-0.7,0-1.3,0.2-1.7,0.7c-0.4,0.5-0.6,1.1-0.6,2c0,0.9,0.2,1.5,0.6,2c0.4,0.5,1,0.7,1.7,0.7
				c0.3,0,0.7-0.1,1-0.2c0.3-0.1,0.7-0.3,1-0.6l0.4,0.8c-0.3,0.3-0.7,0.5-1.1,0.7C569,309.6,568.5,309.7,568.1,309.7z"/>
			<path class="st3" d="M574.9,309.7c-0.7,0-1.3-0.1-1.8-0.4s-0.9-0.7-1.2-1.3s-0.4-1.2-0.4-1.9c0-0.7,0.1-1.4,0.4-1.9
				s0.7-1,1.2-1.3s1.1-0.4,1.8-0.4s1.3,0.1,1.8,0.4c0.5,0.3,0.9,0.7,1.2,1.3s0.4,1.2,0.4,1.9c0,0.7-0.1,1.4-0.4,1.9s-0.7,1-1.2,1.3
				C576.2,309.6,575.6,309.7,574.9,309.7z M574.9,308.8c0.7,0,1.2-0.2,1.6-0.7s0.6-1.1,0.6-2c0-0.9-0.2-1.5-0.6-2
				c-0.4-0.5-0.9-0.7-1.6-0.7c-0.7,0-1.2,0.2-1.6,0.7c-0.4,0.5-0.6,1.1-0.6,2c0,0.9,0.2,1.6,0.6,2
				C573.7,308.5,574.2,308.8,574.9,308.8z"/>
		</g>
		
			<image style="overflow:visible;opacity:0.21;enable-background:new    ;" width="244" height="248" xlink:href="1C5D448E25D5B73.png"  transform="matrix(1 0 0 1 40.35 36.7)">
		</image>
		<g>
			<path class="st0" d="M121.1,55.6h94c26.2,0,47.4,21.2,47.4,47.4v97.7c0,26.2-21.2,47.4-47.4,47.4h-94
				c-26.2,0-47.4-21.2-47.4-47.4v-97.7C73.6,76.9,94.9,55.6,121.1,55.6z"/>
		</g>
		<g>
			<path class="st1" d="M180.1,122.4l-7.3-1.1l-3.3-6.7c-0.3-0.6-1.1-0.8-1.7-0.4c-0.2,0.1-0.3,0.2-0.4,0.4l-3.3,6.7l-7.3,1.1
				c-0.5,0-0.9,0.4-1,0.8c-0.1,0.4,0,0.9,0.3,1.2l5.3,5.2l-1.3,7.3c-0.1,0.6,0.3,1.3,1,1.4c0.3,0,0.5,0,0.8-0.1l6.6-3.5l6.6,3.5
				c0.2,0.1,0.4,0.1,0.6,0.1c0.2,0,0.5-0.1,0.7-0.2c0.4-0.3,0.5-0.7,0.5-1.2l-1.3-7.3l5.3-5.2c0.3-0.3,0.4-0.8,0.3-1.2
				C180.9,122.8,180.5,122.5,180.1,122.4z M173.4,128.4c-0.3,0.3-0.4,0.6-0.3,1l1,5.6l-5-2.6c-0.3-0.2-0.7-0.2-1.1,0l-5,2.6l1-5.6
				c0.1-0.4-0.1-0.7-0.3-1l-4-3.9l5.6-0.8c0.4-0.1,0.7-0.3,0.9-0.6l2.5-5.1l2.4,5.1c0.2,0.3,0.5,0.6,0.9,0.6l5.6,0.8L173.4,128.4z"
				/>
		</g>
		<g>
			<path class="st1" d="M207.9,110.2h-10.5c0-0.3,0-0.7,0.1-1c0.1-1.2,0.1-2.5,0.1-3.7c0-0.8-0.6-1.4-1.4-1.5c0,0,0,0-0.1,0h-55.3
				c-0.8,0-1.4,0.6-1.4,1.4v0c0,1.2,0,2.5,0.1,3.7c0,0.3,0,0.7,0.1,1h-10.1c-0.8,0-1.4,0.6-1.4,1.4v4.3c0,9.2,6.9,17,16.1,18.2
				c4.4,12.5,11.3,20.8,19.2,23.4v15.3h-0.8c-2.9,0-5.2,2.3-5.2,5.2v3.8h-1.5c-3.1,0-5.6,2.5-5.6,5.6v5.7c0,0.8,0.6,1.4,1.4,1.4l0,0
				h33.9c0.8,0,1.4-0.6,1.4-1.4l0,0v-5.7c0-3.1-2.5-5.6-5.6-5.6h-1.5v-3.8c0-2.9-2.3-5.2-5.2-5.2h-0.8v-15.3
				c7.9-2.6,14.8-10.9,19.2-23.4c9.3-0.9,16.4-8.8,16.4-18.1v-4.3C209.3,110.8,208.7,110.2,207.9,110.2
				C207.9,110.2,207.9,110.2,207.9,110.2z M130.8,115.9V113h8.9c0,0.2,0,0.3,0.1,0.4c0.1,1.4,0.2,2.8,0.4,4.1l0.1,0.4
				c0.2,1.3,0.4,2.6,0.6,3.9l0.1,0.5c0.2,1.3,0.5,2.7,0.8,3.9l0.1,0.7c0.3,1.3,0.7,2.5,1,3.8c0,0,0,0.1,0,0.2
				C135.8,129.4,130.8,123.1,130.8,115.9z M184,187.3v4.3h-31.1v-4.3c0-1.6,1.3-2.8,2.8-2.8h0h25.4C182.7,184.4,184,185.7,184,187.3
				C184,187.2,184,187.3,184,187.3z M176.9,177.9v3.8H160v-3.8c0-1.3,1.1-2.4,2.3-2.4h0h12.1C175.8,175.5,176.9,176.6,176.9,177.9
				L176.9,177.9L176.9,177.9z M171,158.2v14.4h-5v-14.5L171,158.2L171,158.2z M168.6,155.4h-0.2c-8.8-0.1-17-8.5-21.9-22.8
				c0-0.1-0.1-0.2-0.1-0.4c-0.3-0.8-0.5-1.6-0.8-2.4c-1.5-5.1-2.5-10.3-3-15.5c-0.1-0.9-0.2-1.8-0.2-2.8l0,0c0-0.8-0.1-1.6-0.1-2.5
				s-0.1-1.5-0.1-2.2h52.5c0,0.7,0,1.5-0.1,2.2s-0.1,1.6-0.1,2.5c-0.4,6.2-1.4,12.4-3.2,18.4c-0.2,0.8-0.5,1.6-0.8,2.4l0,0
				c0,0,0,0.1,0,0.1c0,0.1-0.1,0.2-0.1,0.4C185.5,146.9,177.3,155.4,168.6,155.4L168.6,155.4z M206.5,115.9
				c0,7.4-5.3,13.8-12.6,15.1c0,0,0-0.1,0-0.1c0.4-1.2,0.7-2.5,1-3.7c0.1-0.3,0.1-0.5,0.2-0.8c0.3-1.3,0.6-2.6,0.8-3.9
				c0-0.2,0.1-0.4,0.1-0.6c0.2-1.3,0.4-2.5,0.6-3.8c0-0.2,0-0.3,0.1-0.5c0.2-1.4,0.3-2.7,0.4-4.1c0-0.2,0-0.3,0.1-0.4h9.2
				L206.5,115.9z"/>
		</g>
		<g class="st2">
			<path class="st3" d="M85.2,290.7c-1.1,0-2.1-0.2-2.9-0.7s-1.5-1.1-1.9-2c-0.4-0.9-0.7-1.9-0.7-3.1c0-1.2,0.2-2.2,0.7-3.1
				s1.1-1.5,1.9-2s1.8-0.7,2.9-0.7c0.8,0,1.5,0.1,2.2,0.3c0.7,0.2,1.2,0.6,1.7,1l-0.7,1.5c-0.5-0.4-1-0.7-1.5-0.9
				c-0.5-0.2-1-0.3-1.6-0.3c-1.1,0-1.9,0.4-2.5,1.1c-0.6,0.7-0.9,1.7-0.9,3.1c0,1.3,0.3,2.4,0.9,3.1c0.6,0.7,1.4,1.1,2.5,1.1
				c0.6,0,1.1-0.1,1.6-0.3c0.5-0.2,1-0.5,1.5-0.9l0.7,1.5c-0.4,0.4-1,0.8-1.7,1C86.6,290.6,85.9,290.7,85.2,290.7z"/>
		</g>
		<g class="st2">
			<path class="st3" d="M90.7,290.6v-5.7c0-0.4,0-0.7,0-1.1c0-0.4-0.1-0.8-0.1-1.1h1.9l0.2,2.1l-0.2-0.1c0.1-0.7,0.4-1.2,0.9-1.6
				c0.5-0.4,1-0.5,1.7-0.5c0.2,0,0.3,0,0.4,0c0.1,0,0.3,0.1,0.4,0.1l0,1.8c-0.3-0.1-0.7-0.2-1-0.2c-0.5,0-0.9,0.1-1.2,0.3
				c-0.3,0.2-0.5,0.4-0.7,0.8c-0.2,0.3-0.2,0.7-0.2,1.1v4.3H90.7z"/>
		</g>
		<g class="st2">
			<path class="st3" d="M103.7,289.7c-0.4,0.3-0.8,0.6-1.4,0.7c-0.6,0.2-1.1,0.3-1.7,0.3c-0.9,0-1.6-0.2-2.2-0.5
				c-0.6-0.3-1.1-0.8-1.5-1.4c-0.3-0.6-0.5-1.4-0.5-2.2c0-0.8,0.2-1.6,0.5-2.2c0.3-0.6,0.8-1.1,1.4-1.5c0.6-0.4,1.3-0.5,2-0.5
				c0.7,0,1.4,0.2,1.9,0.5c0.5,0.3,0.9,0.8,1.2,1.4c0.3,0.6,0.4,1.3,0.4,2.1v0.3h-5.7l0-1.1h4.5l-0.5,0.5c0-0.8-0.1-1.4-0.5-1.8
				c-0.3-0.4-0.8-0.6-1.4-0.6c-0.6,0-1.1,0.2-1.5,0.7c-0.3,0.5-0.5,1.1-0.5,1.9c0,1,0.2,1.7,0.6,2.1c0.4,0.5,1,0.7,1.8,0.7
				c0.4,0,0.9-0.1,1.3-0.2c0.4-0.1,0.8-0.4,1.2-0.6L103.7,289.7z"/>
			<path class="st3" d="M109.1,290.7c-0.8,0-1.6-0.2-2.2-0.5s-1.1-0.8-1.4-1.4c-0.3-0.6-0.5-1.3-0.5-2.2c0-0.8,0.2-1.6,0.5-2.2
				c0.3-0.6,0.8-1.1,1.4-1.5c0.6-0.3,1.4-0.5,2.2-0.5c0.6,0,1.1,0.1,1.6,0.3c0.5,0.2,1,0.4,1.3,0.7l-0.6,1.4
				c-0.3-0.3-0.7-0.5-1.1-0.6c-0.4-0.1-0.8-0.2-1.1-0.2c-0.7,0-1.3,0.2-1.7,0.7s-0.6,1.1-0.6,2c0,0.8,0.2,1.5,0.6,1.9s1,0.7,1.7,0.7
				c0.4,0,0.7-0.1,1.1-0.2s0.7-0.4,1.1-0.6l0.6,1.4c-0.3,0.3-0.8,0.6-1.3,0.7C110.3,290.6,109.7,290.7,109.1,290.7z"/>
			<path class="st3" d="M113.4,279h2.2v2h-2.2V279z M113.5,290.6v-8h2v8H113.5z"/>
			<path class="st3" d="M117.6,290.6v-5.7c0-0.4,0-0.7,0-1.1c0-0.4,0-0.8-0.1-1.1h1.9l0.2,1.6l-0.2,0c0.2-0.6,0.5-1,1-1.3
				s1-0.5,1.7-0.5c0.8,0,1.3,0.2,1.8,0.6c0.4,0.4,0.7,0.9,0.8,1.7l-0.4-0.3c0.2-0.6,0.6-1,1.1-1.4c0.5-0.4,1.1-0.5,1.8-0.5
				c0.9,0,1.6,0.3,2,0.8s0.7,1.4,0.7,2.5v4.9h-2v-4.9c0-0.6-0.1-1.1-0.3-1.4c-0.2-0.3-0.5-0.4-1-0.4c-0.6,0-1,0.2-1.3,0.6
				c-0.3,0.4-0.5,0.9-0.5,1.6v4.5h-2v-4.9c0-0.6-0.1-1.1-0.3-1.4s-0.6-0.4-1-0.4c-0.6,0-1,0.2-1.3,0.6c-0.3,0.4-0.5,0.9-0.5,1.6v4.5
				H117.6z"/>
			<path class="st3" d="M131.8,279h2.2v2h-2.2V279z M131.9,290.6v-8h2v8H131.9z"/>
			<path class="st3" d="M142.9,289.7c-0.4,0.3-0.8,0.6-1.4,0.7c-0.6,0.2-1.1,0.3-1.7,0.3c-0.9,0-1.6-0.2-2.2-0.5
				c-0.6-0.3-1.1-0.8-1.5-1.4c-0.3-0.6-0.5-1.4-0.5-2.2c0-0.8,0.2-1.6,0.5-2.2c0.3-0.6,0.8-1.1,1.4-1.5c0.6-0.4,1.3-0.5,2-0.5
				c0.7,0,1.4,0.2,1.9,0.5c0.5,0.3,0.9,0.8,1.2,1.4c0.3,0.6,0.4,1.3,0.4,2.1v0.3h-5.7l0-1.1h4.5l-0.5,0.5c0-0.8-0.1-1.4-0.5-1.8
				c-0.3-0.4-0.8-0.6-1.4-0.6c-0.6,0-1.1,0.2-1.5,0.7c-0.3,0.5-0.5,1.1-0.5,1.9c0,1,0.2,1.7,0.6,2.1c0.4,0.5,1,0.7,1.8,0.7
				c0.4,0,0.9-0.1,1.3-0.2c0.4-0.1,0.8-0.4,1.2-0.6L142.9,289.7z"/>
			<path class="st3" d="M144.7,290.6v-5.7c0-0.4,0-0.8,0-1.1c0-0.4-0.1-0.8-0.1-1.1h1.9l0.2,1.6l-0.2,0c0.3-0.6,0.6-1.1,1.1-1.4
				c0.5-0.3,1.1-0.5,1.7-0.5c1.9,0,2.9,1.1,2.9,3.3v4.9h-2v-4.8c0-0.6-0.1-1.1-0.4-1.4s-0.6-0.4-1.1-0.4c-0.6,0-1.1,0.2-1.5,0.6
				c-0.4,0.4-0.5,0.9-0.5,1.5v4.5H144.7z"/>
			<path class="st3" d="M153.3,284.1v-1.5h5.6v1.5H153.3z M158.9,289v1.6c-0.2,0.1-0.4,0.1-0.6,0.2s-0.4,0-0.7,0
				c-0.9,0-1.6-0.3-2.1-0.8c-0.5-0.5-0.7-1.2-0.7-2.2v-7.1l2-0.7v7.7c0,0.4,0.1,0.6,0.2,0.8s0.3,0.4,0.5,0.4
				c0.2,0.1,0.4,0.1,0.7,0.1c0.1,0,0.3,0,0.4,0C158.6,289,158.8,289,158.9,289z"/>
			<path class="st3" d="M163.9,290.7c-0.8,0-1.6-0.2-2.2-0.5c-0.6-0.3-1.1-0.8-1.4-1.4s-0.5-1.4-0.5-2.2c0-0.8,0.2-1.6,0.5-2.2
				c0.3-0.6,0.8-1.1,1.4-1.5c0.6-0.3,1.3-0.5,2.2-0.5c0.8,0,1.5,0.2,2.1,0.5c0.6,0.3,1.1,0.8,1.4,1.5c0.3,0.6,0.5,1.4,0.5,2.2
				c0,0.9-0.2,1.6-0.5,2.2s-0.8,1.1-1.4,1.4C165.5,290.6,164.7,290.7,163.9,290.7z M163.9,289.2c0.7,0,1.2-0.2,1.5-0.7
				c0.4-0.4,0.5-1.1,0.5-2c0-0.9-0.2-1.5-0.5-2c-0.4-0.4-0.9-0.7-1.5-0.7c-0.7,0-1.2,0.2-1.5,0.7c-0.4,0.4-0.5,1.1-0.5,2
				c0,0.9,0.2,1.5,0.5,2C162.7,289,163.3,289.2,163.9,289.2z"/>
			<path class="st3" d="M181.7,290.6h-2v-2l0.2,0.3c-0.2,0.6-0.5,1.1-1,1.4c-0.5,0.3-1.1,0.5-1.8,0.5c-0.7,0-1.3-0.2-1.8-0.5
				s-0.9-0.8-1.2-1.5c-0.3-0.6-0.4-1.4-0.4-2.2c0-0.8,0.1-1.6,0.4-2.2s0.7-1.1,1.2-1.4c0.5-0.3,1.2-0.5,1.9-0.5
				c0.7,0,1.3,0.2,1.8,0.5c0.5,0.3,0.8,0.8,1,1.4l-0.2,0.2v-5.6h2V290.6z M177.7,289.2c0.7,0,1.2-0.2,1.5-0.7s0.5-1.1,0.5-2
				c0-0.8-0.2-1.5-0.5-1.9c-0.4-0.5-0.9-0.7-1.5-0.7c-0.7,0-1.2,0.2-1.6,0.7c-0.4,0.5-0.6,1.1-0.6,1.9c0,0.8,0.2,1.5,0.6,2
				C176.5,289,177,289.2,177.7,289.2z"/>
			<path class="st3" d="M190.7,289.7c-0.4,0.3-0.8,0.6-1.4,0.7c-0.6,0.2-1.1,0.3-1.7,0.3c-0.9,0-1.6-0.2-2.2-0.5
				c-0.6-0.3-1.1-0.8-1.5-1.4c-0.3-0.6-0.5-1.4-0.5-2.2c0-0.8,0.2-1.6,0.5-2.2c0.3-0.6,0.8-1.1,1.4-1.5c0.6-0.4,1.3-0.5,2-0.5
				c0.7,0,1.4,0.2,1.9,0.5c0.5,0.3,0.9,0.8,1.2,1.4c0.3,0.6,0.4,1.3,0.4,2.1v0.3h-5.7l0-1.1h4.5l-0.5,0.5c0-0.8-0.1-1.4-0.5-1.8
				c-0.3-0.4-0.8-0.6-1.4-0.6c-0.6,0-1.1,0.2-1.5,0.7c-0.3,0.5-0.5,1.1-0.5,1.9c0,1,0.2,1.7,0.6,2.1c0.4,0.5,1,0.7,1.8,0.7
				c0.4,0,0.9-0.1,1.3-0.2c0.4-0.1,0.8-0.4,1.2-0.6L190.7,289.7z"/>
			<path class="st3" d="M197.1,290.6v-11.3h1.5l6.5,8.5l-0.4,0.2v-8.7h1.9v11.3H205l-6.5-8.4l0.4-0.3v8.7H197.1z"/>
			<path class="st3" d="M215.8,289.7c-0.4,0.3-0.8,0.6-1.4,0.7c-0.6,0.2-1.1,0.3-1.7,0.3c-0.9,0-1.6-0.2-2.2-0.5
				c-0.6-0.3-1.1-0.8-1.5-1.4c-0.3-0.6-0.5-1.4-0.5-2.2c0-0.8,0.2-1.6,0.5-2.2c0.3-0.6,0.8-1.1,1.4-1.5c0.6-0.4,1.3-0.5,2-0.5
				c0.7,0,1.4,0.2,1.9,0.5c0.5,0.3,0.9,0.8,1.2,1.4c0.3,0.6,0.4,1.3,0.4,2.1v0.3h-5.7l0-1.1h4.5l-0.5,0.5c0-0.8-0.1-1.4-0.5-1.8
				c-0.3-0.4-0.8-0.6-1.4-0.6c-0.6,0-1.1,0.2-1.5,0.7c-0.3,0.5-0.5,1.1-0.5,1.9c0,1,0.2,1.7,0.6,2.1c0.4,0.5,1,0.7,1.8,0.7
				c0.4,0,0.9-0.1,1.3-0.2c0.4-0.1,0.8-0.4,1.2-0.6L215.8,289.7z"/>
			<path class="st3" d="M221.3,294.2c-1.2,0-2.3-0.3-3.3-0.8l0.3-1.5c0.5,0.3,1,0.4,1.4,0.6c0.5,0.1,1,0.2,1.5,0.2
				c0.7,0,1.2-0.2,1.6-0.5c0.4-0.3,0.5-0.9,0.5-1.6v-2h0.2c-0.1,0.3-0.3,0.6-0.6,0.9c-0.3,0.3-0.6,0.5-1,0.7
				c-0.4,0.2-0.8,0.2-1.3,0.2c-0.7,0-1.3-0.2-1.9-0.5c-0.5-0.3-1-0.8-1.3-1.4s-0.5-1.3-0.5-2.1c0-0.8,0.2-1.5,0.5-2.1
				s0.7-1.1,1.3-1.4c0.5-0.3,1.2-0.5,1.9-0.5c0.7,0,1.3,0.2,1.8,0.5s0.9,0.8,1,1.4l-0.2,0v-1.7h2v7.8c0,1.2-0.3,2.2-1,2.8
				C223.6,293.8,222.6,294.2,221.3,294.2z M221.3,288.8c0.7,0,1.2-0.2,1.5-0.7s0.6-1,0.6-1.8s-0.2-1.4-0.6-1.8s-0.9-0.7-1.5-0.7
				c-0.7,0-1.2,0.2-1.6,0.7s-0.6,1-0.6,1.8s0.2,1.4,0.6,1.8S220.6,288.8,221.3,288.8z"/>
			<path class="st3" d="M231.1,290.7c-0.8,0-1.6-0.2-2.2-0.5s-1.1-0.8-1.4-1.4c-0.3-0.6-0.5-1.4-0.5-2.2c0-0.8,0.2-1.6,0.5-2.2
				c0.3-0.6,0.8-1.1,1.4-1.5s1.3-0.5,2.2-0.5c0.8,0,1.5,0.2,2.1,0.5s1.1,0.8,1.4,1.5c0.3,0.6,0.5,1.4,0.5,2.2c0,0.9-0.2,1.6-0.5,2.2
				c-0.3,0.6-0.8,1.1-1.4,1.4S231.9,290.7,231.1,290.7z M231.1,289.2c0.7,0,1.2-0.2,1.5-0.7c0.4-0.4,0.5-1.1,0.5-2
				c0-0.9-0.2-1.5-0.5-2c-0.4-0.4-0.9-0.7-1.5-0.7c-0.7,0-1.2,0.2-1.5,0.7c-0.4,0.4-0.5,1.1-0.5,2c0,0.9,0.2,1.5,0.5,2
				C229.9,289,230.4,289.2,231.1,289.2z"/>
			<path class="st3" d="M240.5,290.7c-0.8,0-1.6-0.2-2.2-0.5s-1.1-0.8-1.4-1.4c-0.3-0.6-0.5-1.3-0.5-2.2c0-0.8,0.2-1.6,0.5-2.2
				c0.3-0.6,0.8-1.1,1.4-1.5c0.6-0.3,1.4-0.5,2.2-0.5c0.6,0,1.1,0.1,1.6,0.3c0.5,0.2,1,0.4,1.3,0.7l-0.6,1.4
				c-0.3-0.3-0.7-0.5-1.1-0.6c-0.4-0.1-0.8-0.2-1.1-0.2c-0.7,0-1.3,0.2-1.7,0.7s-0.6,1.1-0.6,2c0,0.8,0.2,1.5,0.6,1.9s1,0.7,1.7,0.7
				c0.4,0,0.7-0.1,1.1-0.2s0.7-0.4,1.1-0.6l0.6,1.4c-0.3,0.3-0.8,0.6-1.3,0.7C241.6,290.6,241.1,290.7,240.5,290.7z"/>
			<path class="st3" d="M244.8,279h2.2v2h-2.2V279z M244.9,290.6v-8h2v8H244.9z"/>
			<path class="st3" d="M252.6,290.7c-0.8,0-1.6-0.2-2.2-0.5s-1.1-0.8-1.4-1.4c-0.3-0.6-0.5-1.4-0.5-2.2c0-0.8,0.2-1.6,0.5-2.2
				c0.3-0.6,0.8-1.1,1.4-1.5s1.3-0.5,2.2-0.5c0.8,0,1.5,0.2,2.1,0.5s1.1,0.8,1.4,1.5c0.3,0.6,0.5,1.4,0.5,2.2c0,0.9-0.2,1.6-0.5,2.2
				c-0.3,0.6-0.8,1.1-1.4,1.4S253.4,290.7,252.6,290.7z M252.6,289.2c0.7,0,1.2-0.2,1.5-0.7c0.4-0.4,0.5-1.1,0.5-2
				c0-0.9-0.2-1.5-0.5-2c-0.4-0.4-0.9-0.7-1.5-0.7c-0.7,0-1.2,0.2-1.5,0.7c-0.4,0.4-0.5,1.1-0.5,2c0,0.9,0.2,1.5,0.5,2
				C251.4,289,252,289.2,252.6,289.2z"/>
		</g>
		<g class="st2">
			<path class="st3" d="M66.5,310.6v-10h1l4,9.2H71l4-9.2h1v10h-1.1v-8.5l0.4,0.1l-3.7,8.4h-0.8l-3.7-8.4l0.5-0.1l0,8.5H66.5z"/>
			<path class="st3" d="M81,310.7c-0.6,0-1.2-0.1-1.6-0.4s-0.8-0.7-1.1-1.3c-0.3-0.5-0.4-1.2-0.4-1.9s0.1-1.4,0.4-1.9s0.6-1,1.1-1.3
				c0.5-0.3,1-0.5,1.6-0.5c0.6,0,1.2,0.2,1.6,0.5c0.4,0.3,0.8,0.8,0.9,1.4l-0.2,0.1v-1.8h1.1v7h-1.1v-1.8l0.2,0.1
				c-0.2,0.6-0.5,1-0.9,1.4C82.1,310.6,81.6,310.7,81,310.7z M81.2,309.8c0.7,0,1.2-0.2,1.6-0.7c0.4-0.5,0.6-1.1,0.6-2
				c0-0.9-0.2-1.5-0.6-2s-0.9-0.7-1.6-0.7c-0.7,0-1.2,0.2-1.6,0.7s-0.6,1.2-0.6,2c0,0.9,0.2,1.5,0.6,2S80.5,309.8,81.2,309.8z"/>
		</g>
		<g class="st2">
			<path class="st3" d="M88.9,311l-3.2-7.4h1.2l2.5,6.2L88.9,311z M86.3,313.8l-0.2-0.9c0.4-0.1,0.8-0.2,1.1-0.4
				c0.3-0.1,0.5-0.3,0.7-0.5c0.2-0.2,0.4-0.5,0.5-0.9l0.4-1l0.3-0.4l2.6-6.2h1.1l-3.3,7.7c-0.3,0.6-0.5,1-0.9,1.4
				c-0.3,0.3-0.7,0.6-1.1,0.8C87.2,313.6,86.8,313.7,86.3,313.8z"/>
		</g>
		<g class="st2">
			<path class="st3" d="M96.9,310.7c-0.7,0-1.3-0.1-1.8-0.4c-0.5-0.3-0.9-0.7-1.2-1.3s-0.4-1.2-0.4-1.9c0-0.7,0.1-1.4,0.4-1.9
				s0.7-1,1.2-1.3c0.5-0.3,1.1-0.4,1.8-0.4s1.3,0.1,1.8,0.4c0.5,0.3,0.9,0.7,1.2,1.3s0.4,1.2,0.4,1.9c0,0.7-0.1,1.4-0.4,1.9
				s-0.7,1-1.2,1.3C98.2,310.6,97.6,310.7,96.9,310.7z M96.9,309.8c0.7,0,1.2-0.2,1.6-0.7s0.6-1.1,0.6-2c0-0.9-0.2-1.5-0.6-2
				c-0.4-0.5-0.9-0.7-1.6-0.7s-1.2,0.2-1.6,0.7s-0.6,1.1-0.6,2c0,0.9,0.2,1.6,0.6,2C95.7,309.5,96.2,309.8,96.9,309.8z"/>
			<path class="st3" d="M102,310.6v-5.1c0-0.3,0-0.7,0-1c0-0.3,0-0.7-0.1-1h1.1l0.2,1.7l-0.2,0c0.1-0.6,0.4-1.1,0.8-1.4
				c0.4-0.3,0.9-0.5,1.5-0.5c0.1,0,0.2,0,0.3,0c0.1,0,0.2,0,0.3,0.1l0,1c-0.2-0.1-0.5-0.1-0.7-0.1c-0.5,0-0.9,0.1-1.2,0.3
				c-0.3,0.2-0.5,0.5-0.6,0.8c-0.1,0.3-0.2,0.7-0.2,1v4H102z"/>
			<path class="st3" d="M110.7,313.6v-8.1c0-0.3,0-0.7,0-1c0-0.3,0-0.7-0.1-1h1.1l0.1,1.5l-0.1,0.2c0.2-0.6,0.5-1,0.9-1.4
				c0.4-0.3,1-0.5,1.6-0.5c0.6,0,1.2,0.2,1.6,0.5s0.8,0.7,1.1,1.3c0.3,0.6,0.4,1.2,0.4,1.9s-0.1,1.4-0.4,1.9c-0.3,0.5-0.6,1-1.1,1.3
				c-0.5,0.3-1,0.4-1.6,0.4c-0.6,0-1.2-0.2-1.6-0.5c-0.4-0.3-0.8-0.8-0.9-1.4l0.2-0.1v4.9H110.7z M114,309.8c0.7,0,1.2-0.2,1.6-0.7
				c0.4-0.5,0.6-1.1,0.6-2c0-0.9-0.2-1.5-0.6-2c-0.4-0.5-0.9-0.7-1.6-0.7c-0.7,0-1.2,0.2-1.6,0.7c-0.4,0.5-0.6,1.1-0.6,2
				c0,0.9,0.2,1.5,0.6,2C112.8,309.5,113.3,309.8,114,309.8z"/>
			<path class="st3" d="M122.1,310.7c-0.7,0-1.3-0.1-1.8-0.4c-0.5-0.3-0.9-0.7-1.2-1.3s-0.4-1.2-0.4-1.9c0-0.7,0.1-1.4,0.4-1.9
				s0.7-1,1.2-1.3c0.5-0.3,1.1-0.4,1.8-0.4s1.3,0.1,1.8,0.4c0.5,0.3,0.9,0.7,1.2,1.3s0.4,1.2,0.4,1.9c0,0.7-0.1,1.4-0.4,1.9
				s-0.7,1-1.2,1.3C123.3,310.6,122.7,310.7,122.1,310.7z M122.1,309.8c0.7,0,1.2-0.2,1.6-0.7s0.6-1.1,0.6-2c0-0.9-0.2-1.5-0.6-2
				c-0.4-0.5-0.9-0.7-1.6-0.7s-1.2,0.2-1.6,0.7s-0.6,1.1-0.6,2c0,0.9,0.2,1.6,0.6,2C120.8,309.5,121.4,309.8,122.1,309.8z"/>
		</g>
		<g class="st2">
			<path class="st3" d="M127.1,310.6v-5.1c0-0.3,0-0.7,0-1c0-0.3,0-0.7-0.1-1h1.1l0.2,1.7l-0.2,0c0.1-0.6,0.4-1.1,0.8-1.4
				c0.4-0.3,0.9-0.5,1.5-0.5c0.1,0,0.2,0,0.3,0c0.1,0,0.2,0,0.3,0.1l0,1c-0.2-0.1-0.5-0.1-0.7-0.1c-0.5,0-0.9,0.1-1.2,0.3
				c-0.3,0.2-0.5,0.5-0.6,0.8c-0.1,0.3-0.2,0.7-0.2,1v4H127.1z"/>
		</g>
		<g class="st2">
			<path class="st3" d="M135,310.7c-0.7,0-1.3-0.1-1.8-0.4s-0.9-0.7-1.2-1.3c-0.3-0.5-0.4-1.2-0.4-1.9c0-0.7,0.1-1.4,0.4-1.9
				c0.3-0.6,0.7-1,1.2-1.3c0.5-0.3,1.1-0.5,1.8-0.5c0.5,0,0.9,0.1,1.4,0.2s0.8,0.4,1.1,0.7l-0.4,0.8c-0.3-0.3-0.7-0.5-1-0.6
				c-0.3-0.1-0.7-0.2-1-0.2c-0.7,0-1.3,0.2-1.7,0.7c-0.4,0.5-0.6,1.1-0.6,2c0,0.9,0.2,1.5,0.6,2s1,0.7,1.7,0.7c0.3,0,0.7-0.1,1-0.2
				c0.3-0.1,0.7-0.3,1-0.6l0.4,0.8c-0.3,0.3-0.7,0.5-1.1,0.7C136,310.6,135.5,310.7,135,310.7z"/>
			<path class="st3" d="M144.8,309.8c-0.3,0.3-0.7,0.5-1.2,0.7c-0.5,0.2-1,0.3-1.5,0.3c-0.7,0-1.4-0.1-1.9-0.4s-0.9-0.7-1.2-1.3
				c-0.3-0.5-0.4-1.2-0.4-2c0-0.7,0.1-1.4,0.4-1.9c0.3-0.6,0.7-1,1.2-1.3c0.5-0.3,1.1-0.5,1.7-0.5c0.6,0,1.2,0.1,1.6,0.4
				c0.4,0.3,0.8,0.7,1,1.2c0.2,0.5,0.4,1.1,0.4,1.8v0.2h-5.3v-0.7h4.7l-0.4,0.5c0-0.8-0.1-1.5-0.5-1.9c-0.3-0.4-0.8-0.7-1.5-0.7
				c-0.7,0-1.2,0.2-1.6,0.7c-0.4,0.5-0.6,1.1-0.6,2c0,0.9,0.2,1.6,0.6,2.1c0.4,0.5,1,0.7,1.8,0.7c0.4,0,0.8-0.1,1.2-0.2
				c0.4-0.1,0.7-0.3,1.1-0.6L144.8,309.8z"/>
			<path class="st3" d="M146.6,310.6v-5.1c0-0.3,0-0.7,0-1c0-0.3,0-0.7-0.1-1h1.1l0.1,1.5l-0.1,0.1c0.2-0.6,0.5-1,1-1.3
				c0.5-0.3,1-0.4,1.6-0.4c1.7,0,2.5,0.9,2.5,2.8v4.4h-1.1v-4.4c0-0.7-0.1-1.1-0.4-1.4c-0.3-0.3-0.7-0.5-1.2-0.5
				c-0.7,0-1.2,0.2-1.6,0.6s-0.6,0.9-0.6,1.6v4H146.6z"/>
			<path class="st3" d="M153.8,304.5v-0.9h4.5v0.9H153.8z M158.3,309.6v1c-0.2,0-0.3,0.1-0.5,0.1c-0.2,0-0.3,0-0.5,0
				c-0.7,0-1.2-0.2-1.6-0.6s-0.6-0.9-0.6-1.7v-6.7l1.1-0.4v7c0,0.4,0.1,0.7,0.2,0.9c0.1,0.2,0.3,0.3,0.4,0.4
				c0.2,0.1,0.4,0.1,0.6,0.1c0.1,0,0.3,0,0.4,0C158,309.7,158.2,309.7,158.3,309.6z"/>
			<path class="st3" d="M162.4,310.7c-0.6,0-1.2-0.1-1.6-0.4s-0.8-0.7-1.1-1.3c-0.3-0.5-0.4-1.2-0.4-1.9s0.1-1.4,0.4-1.9
				s0.6-1,1.1-1.3c0.5-0.3,1-0.5,1.6-0.5c0.6,0,1.2,0.2,1.6,0.5c0.4,0.3,0.8,0.8,0.9,1.4l-0.2,0.1v-1.8h1.1v7h-1.1v-1.8l0.2,0.1
				c-0.2,0.6-0.5,1-0.9,1.4C163.6,310.6,163.1,310.7,162.4,310.7z M162.6,309.8c0.7,0,1.2-0.2,1.6-0.7c0.4-0.5,0.6-1.1,0.6-2
				c0-0.9-0.2-1.5-0.6-2s-0.9-0.7-1.6-0.7c-0.7,0-1.2,0.2-1.6,0.7s-0.6,1.2-0.6,2c0,0.9,0.2,1.5,0.6,2S161.9,309.8,162.6,309.8z"/>
			<path class="st3" d="M166.2,312.6c0.1,0,0.3,0.1,0.4,0.1c0.1,0,0.2,0,0.3,0c0.2,0,0.4,0,0.6-0.1c0.2-0.1,0.3-0.2,0.4-0.4
				c0.1-0.2,0.2-0.5,0.2-0.9v-7.7h1.1v7.9c0,0.8-0.2,1.3-0.6,1.7c-0.4,0.4-0.9,0.6-1.5,0.6c-0.1,0-0.3,0-0.5,0s-0.3-0.1-0.5-0.1
				V312.6z M168,300.6h1.4v1.3H168V300.6z"/>
			<path class="st3" d="M177.2,309.8c-0.3,0.3-0.7,0.5-1.2,0.7c-0.5,0.2-1,0.3-1.5,0.3c-0.7,0-1.4-0.1-1.9-0.4s-0.9-0.7-1.2-1.3
				c-0.3-0.5-0.4-1.2-0.4-2c0-0.7,0.1-1.4,0.4-1.9c0.3-0.6,0.7-1,1.2-1.3c0.5-0.3,1.1-0.5,1.7-0.5c0.6,0,1.2,0.1,1.6,0.4
				c0.4,0.3,0.8,0.7,1,1.2c0.2,0.5,0.4,1.1,0.4,1.8v0.2H172v-0.7h4.7l-0.4,0.5c0-0.8-0.1-1.5-0.5-1.9c-0.3-0.4-0.8-0.7-1.5-0.7
				c-0.7,0-1.2,0.2-1.6,0.7c-0.4,0.5-0.6,1.1-0.6,2c0,0.9,0.2,1.6,0.6,2.1c0.4,0.5,1,0.7,1.8,0.7c0.4,0,0.8-0.1,1.2-0.2
				c0.4-0.1,0.7-0.3,1.1-0.6L177.2,309.8z"/>
			<path class="st3" d="M188.9,310.6h-1.1v-1.9l0.2,0.2c-0.2,0.6-0.5,1-0.9,1.4c-0.4,0.3-1,0.5-1.6,0.5c-0.6,0-1.2-0.2-1.6-0.5
				c-0.5-0.3-0.8-0.7-1.1-1.3c-0.3-0.6-0.4-1.2-0.4-1.9s0.1-1.4,0.4-1.9c0.3-0.5,0.6-1,1.1-1.3s1-0.4,1.6-0.4c0.6,0,1.2,0.2,1.6,0.5
				c0.4,0.3,0.8,0.8,0.9,1.4l-0.2,0.1v-5.1h1.1V310.6z M185.6,309.8c0.7,0,1.2-0.2,1.6-0.7s0.6-1.1,0.6-2c0-0.9-0.2-1.5-0.6-2
				c-0.4-0.5-0.9-0.7-1.6-0.7c-0.7,0-1.2,0.2-1.6,0.7s-0.6,1.1-0.6,2c0,0.9,0.2,1.5,0.6,2C184.4,309.5,184.9,309.8,185.6,309.8z"/>
			<path class="st3" d="M196.9,309.8c-0.3,0.3-0.7,0.5-1.2,0.7c-0.5,0.2-1,0.3-1.5,0.3c-0.7,0-1.4-0.1-1.9-0.4s-0.9-0.7-1.2-1.3
				c-0.3-0.5-0.4-1.2-0.4-2c0-0.7,0.1-1.4,0.4-1.9c0.3-0.6,0.7-1,1.2-1.3c0.5-0.3,1.1-0.5,1.7-0.5c0.6,0,1.2,0.1,1.6,0.4
				c0.4,0.3,0.8,0.7,1,1.2c0.2,0.5,0.4,1.1,0.4,1.8v0.2h-5.3v-0.7h4.7l-0.4,0.5c0-0.8-0.1-1.5-0.5-1.9c-0.3-0.4-0.8-0.7-1.5-0.7
				c-0.7,0-1.2,0.2-1.6,0.7c-0.4,0.5-0.6,1.1-0.6,2c0,0.9,0.2,1.6,0.6,2.1c0.4,0.5,1,0.7,1.8,0.7c0.4,0,0.8-0.1,1.2-0.2
				c0.4-0.1,0.7-0.3,1.1-0.6L196.9,309.8z"/>
			<path class="st3" d="M205.3,310.7c-0.7,0-1.3-0.1-1.8-0.4s-0.9-0.7-1.2-1.3c-0.3-0.5-0.4-1.2-0.4-1.9c0-0.7,0.1-1.4,0.4-1.9
				c0.3-0.6,0.7-1,1.2-1.3c0.5-0.3,1.1-0.5,1.8-0.5c0.5,0,0.9,0.1,1.4,0.2s0.8,0.4,1.1,0.7l-0.4,0.8c-0.3-0.3-0.7-0.5-1-0.6
				c-0.3-0.1-0.7-0.2-1-0.2c-0.7,0-1.3,0.2-1.7,0.7c-0.4,0.5-0.6,1.1-0.6,2c0,0.9,0.2,1.5,0.6,2s1,0.7,1.7,0.7c0.3,0,0.7-0.1,1-0.2
				c0.3-0.1,0.7-0.3,1-0.6l0.4,0.8c-0.3,0.3-0.7,0.5-1.1,0.7C206.3,310.6,205.8,310.7,205.3,310.7z"/>
			<path class="st3" d="M212.2,310.7c-0.7,0-1.3-0.1-1.8-0.4c-0.5-0.3-0.9-0.7-1.2-1.3s-0.4-1.2-0.4-1.9c0-0.7,0.1-1.4,0.4-1.9
				s0.7-1,1.2-1.3c0.5-0.3,1.1-0.4,1.8-0.4s1.3,0.1,1.8,0.4c0.5,0.3,0.9,0.7,1.2,1.3s0.4,1.2,0.4,1.9c0,0.7-0.1,1.4-0.4,1.9
				s-0.7,1-1.2,1.3C213.5,310.6,212.9,310.7,212.2,310.7z M212.2,309.8c0.7,0,1.2-0.2,1.6-0.7s0.6-1.1,0.6-2c0-0.9-0.2-1.5-0.6-2
				c-0.4-0.5-0.9-0.7-1.6-0.7s-1.2,0.2-1.6,0.7s-0.6,1.1-0.6,2c0,0.9,0.2,1.6,0.6,2C211,309.5,211.5,309.8,212.2,309.8z"/>
			<path class="st3" d="M217.3,310.6v-5.1c0-0.3,0-0.7,0-1c0-0.3,0-0.7-0.1-1h1.1l0.1,1.5l-0.1,0.1c0.2-0.6,0.5-1,1-1.3
				c0.5-0.3,1-0.4,1.6-0.4c1.7,0,2.5,0.9,2.5,2.8v4.4h-1.1v-4.4c0-0.7-0.1-1.1-0.4-1.4c-0.3-0.3-0.7-0.5-1.2-0.5
				c-0.7,0-1.2,0.2-1.6,0.6s-0.6,0.9-0.6,1.6v4H217.3z"/>
		</g>
		<g class="st2">
			<path class="st3" d="M227.6,310.6l-3-7h1.2l2.5,6.2H228l2.6-6.2h1.1l-3,7H227.6z"/>
		</g>
		<g class="st2">
			<path class="st3" d="M238.6,309.8c-0.3,0.3-0.7,0.5-1.2,0.7c-0.5,0.2-1,0.3-1.5,0.3c-0.7,0-1.4-0.1-1.9-0.4s-0.9-0.7-1.2-1.3
				c-0.3-0.5-0.4-1.2-0.4-2c0-0.7,0.1-1.4,0.4-1.9c0.3-0.6,0.7-1,1.2-1.3c0.5-0.3,1.1-0.5,1.7-0.5c0.6,0,1.2,0.1,1.6,0.4
				c0.4,0.3,0.8,0.7,1,1.2c0.2,0.5,0.4,1.1,0.4,1.8v0.2h-5.3v-0.7h4.7l-0.4,0.5c0-0.8-0.1-1.5-0.5-1.9c-0.3-0.4-0.8-0.7-1.5-0.7
				c-0.7,0-1.2,0.2-1.6,0.7c-0.4,0.5-0.6,1.1-0.6,2c0,0.9,0.2,1.6,0.6,2.1c0.4,0.5,1,0.7,1.8,0.7c0.4,0,0.8-0.1,1.2-0.2
				c0.4-0.1,0.7-0.3,1.1-0.6L238.6,309.8z"/>
		</g>
		<g class="st2">
			<path class="st3" d="M240.5,310.6v-5.1c0-0.3,0-0.7,0-1c0-0.3,0-0.7-0.1-1h1.1l0.2,1.7l-0.2,0c0.1-0.6,0.4-1.1,0.8-1.4
				c0.4-0.3,0.9-0.5,1.5-0.5c0.1,0,0.2,0,0.3,0c0.1,0,0.2,0,0.3,0.1l0,1c-0.2-0.1-0.5-0.1-0.7-0.1c-0.5,0-0.9,0.1-1.2,0.3
				c-0.3,0.2-0.5,0.5-0.6,0.8c-0.1,0.3-0.2,0.7-0.2,1v4H240.5z"/>
		</g>
		<g class="st2">
			<path class="st3" d="M247.9,310.7c-1.2,0-2.1-0.3-2.8-0.9l0.4-0.8c0.4,0.3,0.8,0.5,1.2,0.6c0.4,0.1,0.8,0.2,1.3,0.2
				c0.5,0,0.9-0.1,1.2-0.3c0.3-0.2,0.4-0.4,0.4-0.8c0-0.3-0.1-0.5-0.3-0.7s-0.5-0.3-0.9-0.4l-1.2-0.3c-0.6-0.1-1-0.4-1.4-0.7
				c-0.3-0.3-0.5-0.7-0.5-1.2c0-0.4,0.1-0.8,0.3-1.1s0.5-0.6,0.9-0.7c0.4-0.2,0.9-0.3,1.4-0.3c0.5,0,1,0.1,1.4,0.2
				c0.4,0.2,0.8,0.4,1.1,0.7l-0.4,0.8c-0.3-0.3-0.7-0.5-1-0.6c-0.3-0.1-0.7-0.2-1.1-0.2c-0.5,0-0.9,0.1-1.2,0.3
				c-0.3,0.2-0.4,0.5-0.4,0.8c0,0.3,0.1,0.5,0.3,0.7s0.5,0.3,0.8,0.4l1.2,0.3c0.7,0.1,1.2,0.4,1.5,0.7c0.3,0.3,0.5,0.7,0.5,1.2
				c0,0.6-0.2,1.1-0.7,1.5C249.4,310.5,248.7,310.7,247.9,310.7z"/>
			<path class="st3" d="M252.3,300.6h1.4v1.3h-1.4V300.6z M252.4,310.6v-7h1.1v7H252.4z"/>
			<path class="st3" d="M258.7,310.7c-0.7,0-1.3-0.1-1.8-0.4c-0.5-0.3-0.9-0.7-1.2-1.3s-0.4-1.2-0.4-1.9c0-0.7,0.1-1.4,0.4-1.9
				s0.7-1,1.2-1.3c0.5-0.3,1.1-0.4,1.8-0.4s1.3,0.1,1.8,0.4c0.5,0.3,0.9,0.7,1.2,1.3s0.4,1.2,0.4,1.9c0,0.7-0.1,1.4-0.4,1.9
				s-0.7,1-1.2,1.3C259.9,310.6,259.3,310.7,258.7,310.7z M258.7,309.8c0.7,0,1.2-0.2,1.6-0.7s0.6-1.1,0.6-2c0-0.9-0.2-1.5-0.6-2
				c-0.4-0.5-0.9-0.7-1.6-0.7s-1.2,0.2-1.6,0.7s-0.6,1.1-0.6,2c0,0.9,0.2,1.6,0.6,2C257.4,309.5,258,309.8,258.7,309.8z
				 M259.1,302.7h-0.8l1.4-2.9h1.3L259.1,302.7z"/>
			<path class="st3" d="M263.8,310.6v-5.1c0-0.3,0-0.7,0-1c0-0.3,0-0.7-0.1-1h1.1l0.1,1.5l-0.1,0.1c0.2-0.6,0.5-1,1-1.3
				c0.5-0.3,1-0.4,1.6-0.4c1.7,0,2.5,0.9,2.5,2.8v4.4h-1.1v-4.4c0-0.7-0.1-1.1-0.4-1.4c-0.3-0.3-0.7-0.5-1.2-0.5
				c-0.7,0-1.2,0.2-1.6,0.6s-0.6,0.9-0.6,1.6v4H263.8z"/>
		</g>
	</g>
</g>
</svg>
