<?xml version="1.0" encoding="utf-8"?>
<!-- Generator: Adobe Illustrator 25.2.3, SVG Export Plug-In . SVG Version: 6.00 Build 0)  -->
<svg version="1.1" id="Capa_1" xmlns="http://www.w3.org/2000/svg" xmlns:xlink="http://www.w3.org/1999/xlink" x="0px" y="0px"
	 viewBox="0 0 1821.3 115.7" style="enable-background:new 0 0 1821.3 115.7;" xml:space="preserve">
<style type="text/css">
	.st0{enable-background:new    ;}
	.st1{fill:#FF7300;}
</style>
<g id="Capa_2_1_">
	<g id="Capa_1-2">
		<g class="st0">
			<path class="st1" d="M4.3,94l35.3-78h8.2l35.3,78h-9.4l-9.1-20.5H22.5L13.3,94H4.3z M25.9,65.7h35.3L43.6,26.2L25.9,65.7z"/>
			<path class="st1" d="M142.6,94V16.6h29c8.8,0,15.9,2.2,21.1,6.6c5.2,4.4,7.9,10.5,7.9,18.1c0,8-2.9,14.3-8.7,18.7
				c-5.8,4.4-13,6.6-21.7,6.6h-18.8V94H142.6z M151.3,58.7h19.1c6.4,0,11.6-1.6,15.4-4.7c3.9-3.1,5.8-7.3,5.8-12.6
				c0-5.4-1.9-9.5-5.6-12.4c-3.7-2.9-8.8-4.4-15.2-4.4h-19.6V58.7z"/>
			<path class="st1" d="M260.7,94V16.6h56v8h-47.2V51h42.3v8h-42.3V86h47.8v8H260.7z"/>
			<path class="st1" d="M379.1,94V16.6h33.3c9.5,0,16.8,2.6,22,7.7c4,4,6,9.1,6,15.5c0,6.2-1.9,11.2-5.8,15
				c-3.8,3.8-8.9,6.3-15.3,7.5L443.1,94h-10.7l-22.5-30.1h-22.1V94H379.1z M387.8,56.1h23.8c5.9,0,10.7-1.4,14.4-4.3
				c3.7-2.9,5.5-6.8,5.5-11.8c0-4.8-1.8-8.5-5.3-11.2c-3.5-2.7-8.4-4-14.5-4h-23.9V56.1z"/>
			<path class="st1" d="M523.7,94V24.7h-26v-8.1h60.8v8.1h-26V94H523.7z"/>
			<path class="st1" d="M650.2,95.2c-9.8,0-17.6-2.9-23.4-8.8c-5.8-5.9-8.7-14.1-8.7-24.8v-45h8.7V61c0,8.3,2.1,14.8,6.2,19.3
				c4.2,4.5,10,6.8,17.4,6.8c7.3,0,13-2.2,17.1-6.5c4.1-4.4,6.2-10.7,6.2-19v-45h8.7v44.4c0,11.1-2.9,19.5-8.7,25.4
				C667.9,92.3,660,95.2,650.2,95.2z"/>
			<path class="st1" d="M747.4,94V16.6h33.3c9.5,0,16.8,2.6,22,7.7c4,4,6,9.1,6,15.5c0,6.2-1.9,11.2-5.8,15
				c-3.8,3.8-8.9,6.3-15.3,7.5L811.4,94h-10.7l-22.5-30.1h-22.1V94H747.4z M756.1,56.1h23.8c5.9,0,10.7-1.4,14.4-4.3
				c3.7-2.9,5.5-6.8,5.5-11.8c0-4.8-1.8-8.5-5.3-11.2c-3.5-2.7-8.4-4-14.5-4h-23.9V56.1z"/>
			<path class="st1" d="M865,94l35.3-78h8.2l35.3,78h-9.4l-9.1-20.5h-42.1L873.9,94H865z M886.5,65.7h35.3l-17.6-39.5L886.5,65.7z"
				/>
			<path class="st1" d="M1080.7,94V16.6h33.3c9.5,0,16.8,2.6,22,7.7c4,4,6,9.1,6,15.5c0,6.2-1.9,11.2-5.8,15
				c-3.8,3.8-8.9,6.3-15.3,7.5l23.8,31.6H1134l-22.5-30.1h-22.1V94H1080.7z M1089.4,56.1h23.8c5.9,0,10.7-1.4,14.4-4.3
				c3.7-2.9,5.5-6.8,5.5-11.8c0-4.8-1.8-8.5-5.3-11.2c-3.5-2.7-8.4-4-14.5-4h-23.9V56.1z"/>
			<path class="st1" d="M1204.9,94V16.6h56v8h-47.2V51h42.3v8h-42.3V86h47.8v8H1204.9z"/>
			<path class="st1" d="M1323.2,94V16.6h8.8l28.2,42.3l28.2-42.3h8.8V94h-8.7V31.3l-28.2,41.5h-0.4l-28.2-41.4V94H1323.2z"/>
		</g>
		<g class="st0">
			<path class="st1" d="M1526.5,83.6c-7.4,7.9-16.9,11.8-28.4,11.8c-11.5,0-20.9-3.9-28.3-11.7c-7.4-7.8-11.1-17.3-11.1-28.3
				c0-11,3.7-20.4,11.2-28.3c7.4-7.9,16.9-11.8,28.4-11.8s20.9,3.9,28.3,11.7c7.4,7.8,11.1,17.3,11.1,28.3
				C1537.6,66.3,1533.9,75.7,1526.5,83.6z M1476.4,78c5.8,6.2,13.1,9.3,21.8,9.3c8.8,0,16-3.1,21.7-9.2c5.7-6.2,8.6-13.7,8.6-22.7
				c0-8.9-2.9-16.5-8.7-22.7c-5.8-6.2-13.1-9.3-21.8-9.3s-16,3.1-21.7,9.2c-5.7,6.2-8.6,13.7-8.6,22.7
				C1467.7,64.2,1470.6,71.8,1476.4,78z"/>
		</g>
		<g class="st0">
			<path class="st1" d="M1615.4,94V24.7h-26v-8.1h60.8v8.1h-26V94H1615.4z"/>
		</g>
		<g class="st0">
			<path class="st1" d="M1694.1,94l35.3-78h8.2l35.3,78h-9.4l-9.1-20.5h-42.1l-9.2,20.5H1694.1z M1715.7,65.7h35.3l-17.6-39.5
				L1715.7,65.7z"/>
		</g>
	</g>
</g>
</svg>
