<svg xmlns="http://www.w3.org/2000/svg" viewBox="0 0 1774.33 79.54"><defs><style>.cls-1{fill:#66cd00;}</style></defs><g id="Capa_2" data-name="Capa 2"><g id="Capa_1-2" data-name="Capa 1"><path class="cls-1" d="M0,39.77C0,18,16.26,0,38.89,0,52.84,0,61,5.16,68.66,12.41L63,18.57C56.47,12.41,49.22,8,38.78,8,21.75,8,9,21.86,9,39.77S21.86,71.52,38.78,71.52c10.55,0,17.47-4.07,24.83-11.1l5.71,6c-8,8.13-16.81,13.08-30.76,13.08C16.37,79.54,0,62.07,0,39.77Z"/><path class="cls-1" d="M87.12,39.77C87.12,18.57,103.05,0,126.45,0s39.11,18.35,39.11,39.77c0,21.2-15.93,39.77-39.33,39.77S87.12,61.19,87.12,39.77Zm69.43,0C156.55,22.3,143.81,8,126.23,8s-30.1,14.06-30.1,31.75c0,17.47,12.74,31.75,30.32,31.75S156.55,57.46,156.55,39.77Z"/><path class="cls-1" d="M192.14,1.32h8.13L248.72,63V1.32h8.46v76.9h-6.92L200.6,15.16V78.22h-8.46Z"/><path class="cls-1" d="M282.12,67l5.38-6.37c8,7.25,15.71,10.88,26.37,10.88,10.32,0,17.14-5.5,17.14-13.3,0-7.14-3.85-11.2-20-14.61-17.69-3.84-25.82-9.55-25.82-22.41,0-12.08,10.66-21,25.27-21,11.21,0,19.23,3.19,27,9.45l-5.06,6.7C325.29,10.55,318.15,8,310.24,8c-10,0-16.37,5.49-16.37,12.63s4,11.32,20.88,14.94c17.13,3.74,25,10,25,22,0,13.18-11,21.75-26.25,21.75C301.34,79.32,291.35,75.25,282.12,67Z"/><path class="cls-1" d="M365.72,1.32h55.59V9.23H374.4V35.48h42v7.91h-42V70.31h47.46v7.91H365.72Z"/><path class="cls-1" d="M447.57,1.32h8.13L504.14,63V1.32h8.46v76.9h-6.92L456,15.16V78.22h-8.46Z"/><path class="cls-1" d="M562.92,9.34H537.1v-8h60.42v8H571.71V78.22h-8.79Z"/><path class="cls-1" d="M622.79,1.32h8.68v76.9h-8.68Z"/><path class="cls-1" d="M662.23,1.32H671l28,42,28-42h8.79v76.9h-8.68V15.93l-28,41.2h-.44L670.69,16V78.22h-8.46Z"/><path class="cls-1" d="M766.6,1.32h8.68v76.9H766.6Z"/><path class="cls-1" d="M806,1.32h55.59V9.23H814.71V35.48h42v7.91h-42V70.31h47.46v7.91H806Z"/><path class="cls-1" d="M887.88,1.32H896L944.46,63V1.32h8.46v76.9H946L896.34,15.16V78.22h-8.46Z"/><path class="cls-1" d="M1003.23,9.34H977.41v-8h60.43v8H1012V78.22h-8.79Z"/><path class="cls-1" d="M1053.66,39.77C1053.66,18.57,1069.59,0,1093,0s39.11,18.35,39.11,39.77c0,21.2-15.93,39.77-39.33,39.77S1053.66,61.19,1053.66,39.77Zm69.43,0c0-17.47-12.74-31.75-30.32-31.75s-30.1,14.06-30.1,31.75c0,17.47,12.74,31.75,30.32,31.75S1123.09,57.46,1123.09,39.77Z"/><path class="cls-1" d="M1199.88,1.32h55.59V9.23h-46.91V35.48h42v7.91h-42V70.31H1256v7.91h-56.14Z"/><path class="cls-1" d="M1305.45,39,1277,1.32h10.22l23.62,31.42,23.4-31.42h10.1l-28.45,37.57,29.55,39.33h-10.33l-24.6-33.07L1285.9,78.22h-10Z"/><path class="cls-1" d="M1369.61,1.32h28.78c17.36,0,28.79,9.23,28.79,24.61,0,16.59-13.85,25.15-30.22,25.15h-18.67V78.22h-8.68Zm27.68,41.85c12.75,0,21.1-6.81,21.1-17.13,0-11-8.24-16.7-20.66-16.7h-19.44V43.17Z"/><path class="cls-1" d="M1451.24,1.32h33.06c9.45,0,17,2.85,21.86,7.69a21.38,21.38,0,0,1,5.94,15.38c0,12.74-8.79,20.21-20.88,22.41l23.62,31.42h-10.65l-22.3-29.88h-22V78.22h-8.67Zm32.29,39.22c11.54,0,19.78-5.93,19.78-16,0-9.45-7.25-15.16-19.67-15.16h-23.73v31.2Z"/><path class="cls-1" d="M1538.9,1.32h55.59V9.23h-46.91V35.48h42v7.91h-42V70.31H1595v7.91H1538.9Z"/><path class="cls-1" d="M1615.69,67l5.39-6.37c8,7.25,15.71,10.88,26.36,10.88,10.33,0,17.14-5.5,17.14-13.3,0-7.14-3.84-11.2-20-14.61-17.69-3.84-25.82-9.55-25.82-22.41,0-12.08,10.66-21,25.27-21,11.2,0,19.22,3.19,27,9.45l-5,6.7c-7.14-5.82-14.28-8.35-22.19-8.35-10,0-16.37,5.49-16.37,12.63s4,11.32,20.87,14.94c17.14,3.74,25,10,25,22,0,13.18-11,21.75-26.26,21.75C1634.92,79.32,1624.92,75.25,1615.69,67Z"/><path class="cls-1" d="M1695.89,39.77c0-21.2,15.93-39.77,39.33-39.77s39.11,18.35,39.11,39.77c0,21.2-15.93,39.77-39.33,39.77S1695.89,61.19,1695.89,39.77Zm69.43,0C1765.32,22.3,1752.58,8,1735,8s-30.1,14.06-30.1,31.75c0,17.47,12.74,31.75,30.32,31.75S1765.32,57.46,1765.32,39.77Z"/></g></g></svg>