<svg xmlns="http://www.w3.org/2000/svg" viewBox="0 0 229.5 17.53"><defs><style>.cls-1{fill:#eae500;}</style></defs><g id="Capa_2" data-name="Capa 2"><g id="Capa_1-2" data-name="Capa 1"><path class="cls-1" d="M8.23,16.2a4.71,4.71,0,0,1-.79-1.06L0,.27H5.31l6,11.92a.5.5,0,0,0,.43.28.47.47,0,0,0,.41-.28l6-11.92h5.32L15.94,15.14a4.72,4.72,0,0,1-.8,1.06,4.92,4.92,0,0,1-3.45,1.33A4.89,4.89,0,0,1,8.23,16.2Z"/><path class="cls-1" d="M25.5,17.27V.27h4.25v17Z"/><path class="cls-1" d="M32.94,17.27V.27h17a4,4,0,0,1,3,1.26,4,4,0,0,1,1.26,3V13a4,4,0,0,1-1.26,3,4.09,4.09,0,0,1-3,1.25ZM47.81,13a2.08,2.08,0,0,0,1.5-.62,2.05,2.05,0,0,0,.63-1.51V6.64a2.15,2.15,0,0,0-2.13-2.12H37.19V13Z"/><path class="cls-1" d="M61.62,17.27A4.25,4.25,0,0,1,57.38,13V4.52a4,4,0,0,1,1.24-3,4.06,4.06,0,0,1,3-1.26H76V4.52H62.69a1,1,0,0,0-1.07,1.06V6.64H75.79v4.25H61.62V12A1,1,0,0,0,62.69,13H76.5v4.25Z"/><path class="cls-1" d="M83.94,17.27A4.25,4.25,0,0,1,79.69,13V4.52a4,4,0,0,1,1.24-3,4.07,4.07,0,0,1,3-1.26H96.69a4,4,0,0,1,3,1.26,4,4,0,0,1,1.26,3V13a4,4,0,0,1-1.26,3,4.09,4.09,0,0,1-3,1.25ZM94.56,13a2.08,2.08,0,0,0,1.5-.62,2.05,2.05,0,0,0,.63-1.51V6.64a2.15,2.15,0,0,0-2.13-2.12h-8.5a2.12,2.12,0,0,0-2.12,2.12v4.25a2.08,2.08,0,0,0,.61,1.51,2.1,2.1,0,0,0,1.51.62Z"/><path class="cls-1" d="M120.06,17.27V4.52h-8.5V.27h21.25V4.52h-8.5V17.27Z"/><path class="cls-1" d="M139.19,17.27A4.25,4.25,0,0,1,134.94,13V4.52a4,4,0,0,1,1.24-3,4.07,4.07,0,0,1,3-1.26h12.75a4,4,0,0,1,3,1.26,4,4,0,0,1,1.26,3V13a4,4,0,0,1-1.26,3,4.09,4.09,0,0,1-3,1.25ZM149.81,13a2.08,2.08,0,0,0,1.5-.62,2.05,2.05,0,0,0,.63-1.51V6.64a2.15,2.15,0,0,0-2.13-2.12h-8.5a2.12,2.12,0,0,0-2.12,2.12v4.25a2.08,2.08,0,0,0,.61,1.51,2.1,2.1,0,0,0,1.51.62Z"/><path class="cls-1" d="M159.38,17.27V.27h4.24V6.64h5.32L175.31.27h5.85l-8.5,8.5,8.5,8.5h-5.85l-6.37-6.38h-5.32v6.38Z"/><path class="cls-1" d="M188.06,17.27a4.06,4.06,0,0,1-3-1.25,4.09,4.09,0,0,1-1.25-3V4.52a4,4,0,0,1,1.25-3,4.06,4.06,0,0,1,3-1.26h14.35V4.52H189.12a1,1,0,0,0-1.06,1.06V6.64h14.16v4.25H188.06V12A1,1,0,0,0,189.12,13h13.82v4.25Z"/><path class="cls-1" d="M206.12,17.27v-13a4.06,4.06,0,0,1,1.25-3,4.07,4.07,0,0,1,3-1.26,4.75,4.75,0,0,1,3.18,1.33Q214,1.69,224.19,12a.49.49,0,0,0,.79,0,1.2,1.2,0,0,0,.27-.79V.27h4.25v13a4.27,4.27,0,0,1-4.25,4.25,5,5,0,0,1-3.19-1.33q-.39-.36-10.62-10.62a.5.5,0,0,0-.8,0,1.22,1.22,0,0,0-.26.8V17.27Z"/></g></g></svg>