<svg xmlns="http://www.w3.org/2000/svg" viewBox="0 0 270.84 16.13"><defs><style>.cls-1{fill:#e70000;}</style></defs><g id="Capa_2" data-name="Capa 2"><g id="Capa_1-2" data-name="Capa 1"><path class="cls-1" d="M0,15.89V4.16A3.69,3.69,0,0,1,1.15,1.41,3.71,3.71,0,0,1,3.91.24H17.6V4.16H4.89a.91.91,0,0,0-.7.29.93.93,0,0,0-.28.68v1h13.2V10H3.91v5.87Z"/><path class="cls-1" d="M20.53,15.89V.24h3.91V15.89Z"/><path class="cls-1" d="M27.38,15.89V.24H45a1.87,1.87,0,0,1,1.37.59,1.84,1.84,0,0,1,.58,1.37V5.62a3.75,3.75,0,0,1-1.16,2.77,3.49,3.49,0,0,1-.63.52,3.76,3.76,0,0,1,1.12.81,3.41,3.41,0,0,1,.5.58,2,2,0,0,1,.31.56A9.61,9.61,0,0,1,47.42,12l1,3.91H44.15l-.76-4.57a2,2,0,0,0-.46-.72A1.92,1.92,0,0,0,41.55,10H31.29v5.87ZM42,6.11a1,1,0,0,0,.69-.27A1,1,0,0,0,43,5.13a.94.94,0,0,0-.29-.68A.91.91,0,0,0,42,4.16H31.29v2Z"/><path class="cls-1" d="M49.87,15.89v-12A3.74,3.74,0,0,1,51,1.16,3.76,3.76,0,0,1,53.78,0,4.46,4.46,0,0,1,57,1.16a4.57,4.57,0,0,1,.67,1L62.58,12,67.46,2.2a4.25,4.25,0,0,1,.68-1A4.43,4.43,0,0,1,71.38,0a3.72,3.72,0,0,1,2.75,1.16,3.73,3.73,0,0,1,1.16,2.75v12H71.38V6.11c0-.61-.21-.94-.62-1a.44.44,0,0,0-.48.25L65,15.89H60.13L54.88,5.38a.46.46,0,0,0-.49-.25c-.41,0-.61.37-.61,1v9.78Z"/><path class="cls-1" d="M77.24,15.89,84.09,2.2a4.46,4.46,0,0,1,.73-1,4.75,4.75,0,0,1,6.36,0,4.8,4.8,0,0,1,.73,1l6.84,13.69H93.86L92.4,13H83.6l-1.47,2.93ZM90.93,10,88.38,4.93A.45.45,0,0,0,88,4.67a.48.48,0,0,0-.4.26L85.06,10Z"/><path class="cls-1" d="M108.53,15.89V.24h3.91V15.89Z"/><path class="cls-1" d="M115.37,15.89v-12a3.75,3.75,0,0,1,1.15-2.75A3.76,3.76,0,0,1,119.29,0a4.39,4.39,0,0,1,2.93,1.22L132,11a.46.46,0,0,0,.73,0,1.14,1.14,0,0,0,.24-.73V.24h3.92v12A3.94,3.94,0,0,1,133,16.13,4.57,4.57,0,0,1,130,14.91q-.36-.33-9.78-9.78a.46.46,0,0,0-.73,0,1.17,1.17,0,0,0-.24.74v10Z"/><path class="cls-1" d="M139.82,15.89V4.16A3.72,3.72,0,0,1,141,1.41,3.75,3.75,0,0,1,143.73.24h13.69V4.16H144.71a1,1,0,0,0-1,1v1h13.2V10h-13.2v5.87Z"/><path class="cls-1" d="M159.37,15.89,166.22,2.2a4.46,4.46,0,0,1,.73-1,4.75,4.75,0,0,1,6.36,0,4.46,4.46,0,0,1,.73,1l6.84,13.69H176L174.53,13h-8.8l-1.47,2.93ZM173.06,10l-2.55-5.09a.45.45,0,0,0-.38-.26.49.49,0,0,0-.4.26L167.2,10Z"/><path class="cls-1" d="M186.75,15.89A3.7,3.7,0,0,1,184,14.74,3.73,3.73,0,0,1,182.84,12V.24h3.91V10a1.95,1.95,0,0,0,2,2h11.73v3.91Z"/><path class="cls-1" d="M203.37,15.89V.24h3.91V15.89Z"/><path class="cls-1" d="M210.22,15.89V.24h17.11a1.85,1.85,0,0,1,1.37.59,1.84,1.84,0,0,1,.58,1.37V5.13a3.71,3.71,0,0,1-1.16,2.77.22.22,0,0,1-.06.07,3.79,3.79,0,0,1,1,.77,3.73,3.73,0,0,1,1.16,2.75v2.44a1.87,1.87,0,0,1-.58,1.39,1.91,1.91,0,0,1-1.37.57Zm14.17-9.78a1,1,0,0,0,.69-.27,1,1,0,0,0,.29-.71.94.94,0,0,0-.29-.68.91.91,0,0,0-.69-.29H214.13v2Zm.49,5.87a.94.94,0,0,0,.69-.28,1,1,0,0,0,.29-.7,1,1,0,0,0-.29-.69.94.94,0,0,0-.69-.29H214.13v2Z"/><path class="cls-1" d="M236.62,15.89a3.72,3.72,0,0,1-2.77-1.15A3.76,3.76,0,0,1,232.71,12V.24h3.91V10a1.89,1.89,0,0,0,.56,1.39,1.92,1.92,0,0,0,1.39.57H250.3v3.91Z"/><path class="cls-1" d="M257.15,15.89A3.91,3.91,0,0,1,253.24,12V4.16a3.72,3.72,0,0,1,1.14-2.75A3.75,3.75,0,0,1,257.15.24h13.2V4.16H258.13a1,1,0,0,0-1,1v1h13V10h-13v1a.94.94,0,0,0,1,1h12.71v3.91Z"/></g></g></svg>