<svg xmlns="http://www.w3.org/2000/svg" xmlns:xlink="http://www.w3.org/1999/xlink" viewBox="0 0 332.42 302.27"><defs><style>.cls-1{fill:none;}.cls-2{fill:url(#Degradado_sin_nombre_1113);}.cls-3{fill:#17a815;}.cls-4{fill:#87d287;}.cls-5{fill:url(#Degradado_sin_nombre_1115);}.cls-6{fill:#fff;}.cls-7{fill:#fefefe;}.cls-8{fill:#fcfcfd;}.cls-9{fill:#fbfbfc;}.cls-10{fill:#faf9fa;}.cls-11{fill:#f9f8f9;}.cls-12{fill:#f8f7f9;}.cls-13{fill:#f6f6f7;}.cls-14{fill:#f5f4f6;}.cls-15{fill:#f4f3f5;}.cls-16{fill:#f3f2f4;}.cls-17{fill:#f1f0f3;}.cls-18{fill:#f0eff2;}.cls-19{fill:#efeef1;}.cls-20{fill:#eeecf0;}.cls-21{fill:#ecebee;}.cls-22{fill:#ebeaee;}.cls-23{fill:#eae9ed;}.cls-24{fill:#e9e7eb;}.cls-25{fill:#e8e6ea;}.cls-26{fill:#e6e4e9;}.cls-27{fill:#e5e3e8;}.cls-28{fill:#2eb12d;}.cls-29{fill:#70c96f;}.cls-30{fill:url(#Degradado_sin_nombre_1106);}.cls-31{fill:url(#Degradado_sin_nombre_1113-2);}.cls-32{fill:#fdfdfd;}.cls-33{fill:#fcfbfc;}.cls-34{fill:#fafafb;}.cls-35{fill:#f8f8f9;}.cls-36{fill:#f7f6f8;}.cls-37{fill:#f6f5f7;}.cls-38{fill:#eeedf0;}.cls-39{fill:#edecef;}.cls-40{fill:#eceaee;}.cls-41{fill:#eae8ec;}.cls-42{fill:#e8e7eb;}.cls-43{fill:#e7e5ea;}.cls-44{fill:#41b840;}.cls-45{fill:#d6ffce;}.cls-46{fill:#38b436;}.cls-47{fill:url(#Degradado_sin_nombre_1105);}.cls-48{fill:#d2eed2;}.cls-49,.cls-51{fill:url(#Degradado_sin_nombre_1106-2);}.cls-50{fill:#c4e9c4;}.cls-51{opacity:0.8;isolation:isolate;}.cls-52{fill:url(#Degradado_sin_nombre_1106-4);}.cls-53{fill:#fafafa;}.cls-54{fill:url(#Degradado_sin_nombre_2525);}.cls-55{fill:url(#Degradado_sin_nombre_2525-2);}.cls-56{fill:#54ff34;}.cls-57{fill:url(#Degradado_sin_nombre_1105-2);}.cls-58{fill:url(#Degradado_sin_nombre_1106-5);}.cls-59{fill:url(#Degradado_sin_nombre_1106-6);}.cls-60{fill:url(#Degradado_sin_nombre_1105-3);}.cls-61{fill:url(#Degradado_sin_nombre_1105-4);}.cls-62{fill:url(#Degradado_sin_nombre_1105-5);}.cls-63{fill:url(#Degradado_sin_nombre_1114);}.cls-64{fill:url(#Degradado_sin_nombre_1106-7);}.cls-65{fill:url(#Degradado_sin_nombre_1105-6);}.cls-66{fill:url(#Degradado_sin_nombre_1105-7);}.cls-67{fill:url(#Degradado_sin_nombre_1105-8);}.cls-68{fill:url(#Degradado_sin_nombre_1110);}.cls-69{fill:url(#Degradado_sin_nombre_1105-9);}.cls-70{fill:url(#Degradado_sin_nombre_1110-2);}.cls-71{fill:url(#Degradado_sin_nombre_1106-8);}.cls-72{fill:#c8e9ff;}.cls-73{fill:url(#Degradado_sin_nombre_1110-3);}.cls-74{fill:#82ff6b;}.cls-75{clip-path:url(#clip-path);}.cls-76{fill:url(#Degradado_sin_nombre_1109);}.cls-77{fill:url(#Degradado_sin_nombre_1109-2);}.cls-78{fill:url(#Degradado_sin_nombre_1109-3);}.cls-79{fill:url(#Degradado_sin_nombre_1109-4);}.cls-80{fill:url(#Degradado_sin_nombre_1109-5);}.cls-81{fill:url(#Degradado_sin_nombre_1109-6);}.cls-82{fill:url(#Degradado_sin_nombre_1109-7);}.cls-83{fill:url(#Degradado_sin_nombre_1109-8);}.cls-84{fill:url(#Degradado_sin_nombre_1109-9);}.cls-85{fill:url(#Degradado_sin_nombre_1109-10);}.cls-86{fill:url(#Degradado_sin_nombre_1109-11);}.cls-87{fill:url(#Degradado_sin_nombre_1109-12);}.cls-88{fill:url(#Degradado_sin_nombre_1109-13);}.cls-89{fill:url(#Degradado_sin_nombre_1109-14);}.cls-90{fill:url(#Degradado_sin_nombre_1109-15);}.cls-91{fill:url(#Degradado_sin_nombre_1109-16);}.cls-92{fill:url(#Degradado_sin_nombre_1109-17);}.cls-93{fill:url(#Degradado_sin_nombre_1109-18);}.cls-94{fill:url(#Degradado_sin_nombre_1109-19);}.cls-95{fill:url(#Degradado_sin_nombre_1109-20);}.cls-96{fill:url(#Degradado_sin_nombre_1109-21);}.cls-97{fill:url(#Degradado_sin_nombre_1109-22);}.cls-98{fill:url(#Degradado_sin_nombre_1109-23);}.cls-99{fill:url(#Degradado_sin_nombre_1109-24);}.cls-100{fill:url(#Degradado_sin_nombre_1109-25);}.cls-101{fill:url(#Degradado_sin_nombre_1109-26);}.cls-102{fill:url(#Degradado_sin_nombre_1109-27);}.cls-103{fill:url(#Degradado_sin_nombre_1109-28);}.cls-104{fill:url(#Degradado_sin_nombre_1109-29);}.cls-105{fill:url(#Degradado_sin_nombre_1109-30);}.cls-106{fill:url(#Degradado_sin_nombre_1109-31);}.cls-107{fill:url(#Degradado_sin_nombre_1109-32);}.cls-108{fill:url(#Degradado_sin_nombre_1109-33);}.cls-109{fill:url(#Degradado_sin_nombre_1109-34);}.cls-110{fill:url(#Degradado_sin_nombre_1109-35);}.cls-111{fill:url(#Degradado_sin_nombre_1109-36);}.cls-112{fill:url(#Degradado_sin_nombre_1109-37);}.cls-113{fill:url(#Degradado_sin_nombre_1109-38);}.cls-114{fill:url(#Degradado_sin_nombre_1109-39);}.cls-115{fill:url(#Degradado_sin_nombre_1109-40);}.cls-116{fill:url(#Degradado_sin_nombre_1109-41);}.cls-117{fill:url(#Degradado_sin_nombre_1109-42);}.cls-118{fill:url(#Degradado_sin_nombre_1109-43);}.cls-119{fill:url(#Degradado_sin_nombre_1109-44);}.cls-120{fill:url(#Degradado_sin_nombre_1109-45);}.cls-121{fill:url(#Degradado_sin_nombre_1109-46);}.cls-122{fill:url(#Degradado_sin_nombre_1109-47);}.cls-123{fill:url(#Degradado_sin_nombre_1109-48);}.cls-124{fill:url(#Degradado_sin_nombre_1109-49);}.cls-125{fill:url(#Degradado_sin_nombre_1109-50);}.cls-126{fill:url(#Degradado_sin_nombre_1109-51);}.cls-127{fill:url(#Degradado_sin_nombre_1109-52);}.cls-128{fill:url(#Degradado_sin_nombre_1109-53);}.cls-129{fill:url(#Degradado_sin_nombre_1109-54);}.cls-130{fill:url(#Degradado_sin_nombre_1109-55);}.cls-131{fill:url(#Degradado_sin_nombre_1109-56);}.cls-132{fill:url(#Degradado_sin_nombre_1109-57);}.cls-133{fill:url(#Degradado_sin_nombre_1109-58);}.cls-134{fill:url(#Degradado_sin_nombre_1109-59);}.cls-135{fill:url(#Degradado_sin_nombre_1109-60);}.cls-136{fill:url(#Degradado_sin_nombre_1109-61);}.cls-137{fill:url(#Degradado_sin_nombre_1109-62);}.cls-138{fill:url(#Degradado_sin_nombre_1109-63);}.cls-139{fill:url(#Degradado_sin_nombre_1109-64);}.cls-140{fill:url(#Degradado_sin_nombre_1109-65);}.cls-141{fill:url(#Degradado_sin_nombre_1108);}.cls-142{fill:url(#Degradado_sin_nombre_1107);}.cls-143{fill:url(#Degradado_sin_nombre_1105-10);}.cls-144{fill:url(#Degradado_sin_nombre_1105-11);}.cls-145{fill:url(#Degradado_sin_nombre_1106-9);}.cls-146{fill:#94ff74;}.cls-147{fill:url(#Degradado_sin_nombre_1113-3);}.cls-148{fill:#71ff57;}.cls-149{fill:url(#Degradado_sin_nombre_1105-12);}.cls-150{fill:#65ff48;}.cls-151{fill:url(#Degradado_sin_nombre_1111);}</style><linearGradient id="Degradado_sin_nombre_1113" x1="188.13" y1="-5421.9" x2="216.96" y2="-5445.44" gradientTransform="matrix(1, 0, 0, -1, 0, -5239.99)" gradientUnits="userSpaceOnUse"><stop offset="0" stop-color="#d9f1d9"/><stop offset="1" stop-color="#fff" stop-opacity="0"/></linearGradient><linearGradient id="Degradado_sin_nombre_1115" x1="201.91" y1="-5497.61" x2="254.71" y2="-5497.61" gradientTransform="matrix(1, 0, 0, -1, 0, -5239.99)" gradientUnits="userSpaceOnUse"><stop offset="0" stop-color="#f3f2f5" stop-opacity="0.8"/><stop offset="1" stop-color="#f3f2f5" stop-opacity="0"/></linearGradient><linearGradient id="Degradado_sin_nombre_1106" x1="200.48" y1="-5481.84" x2="228.53" y2="-5481.84" gradientTransform="matrix(1, 0, 0, -1, 0, -5239.99)" gradientUnits="userSpaceOnUse"><stop offset="0" stop-color="#70c96f"/><stop offset="1" stop-color="#2eb12d"/></linearGradient><linearGradient id="Degradado_sin_nombre_1113-2" x1="13.71" y1="-5522.06" x2="81.31" y2="-5522.06" xlink:href="#Degradado_sin_nombre_1113"/><linearGradient id="Degradado_sin_nombre_1105" x1="680.85" y1="-5472.92" x2="691.93" y2="-5472.92" gradientTransform="matrix(1, 0, 0, -1, -659.25, -5239.99)" gradientUnits="userSpaceOnUse"><stop offset="0" stop-color="#94ff74"/><stop offset="1" stop-color="#82ff6b"/></linearGradient><linearGradient id="Degradado_sin_nombre_1106-2" x1="65.81" y1="-5401.96" x2="255.21" y2="-5401.96" xlink:href="#Degradado_sin_nombre_1106"/><linearGradient id="Degradado_sin_nombre_1106-4" x1="8850.35" y1="-5441.96" x2="8895.65" y2="-5441.96" gradientTransform="translate(8926.85 -5239.99) rotate(180)" xlink:href="#Degradado_sin_nombre_1106"/><linearGradient id="Degradado_sin_nombre_2525" x1="476.57" y1="-5436.92" x2="487.48" y2="-5436.92" gradientTransform="matrix(1, 0, 0, -1, -432.17, -5239.99)" gradientUnits="userSpaceOnUse"><stop offset="0" stop-color="#fafafa"/><stop offset="1" stop-color="#c9c9c9"/></linearGradient><linearGradient id="Degradado_sin_nombre_2525-2" x1="474.58" y1="-5451.54" x2="489.22" y2="-5451.54" xlink:href="#Degradado_sin_nombre_2525"/><linearGradient id="Degradado_sin_nombre_1105-2" x1="210.81" y1="-5369.51" x2="254.51" y2="-5369.51" gradientTransform="matrix(1, 0, 0, -1, 0, -5239.99)" xlink:href="#Degradado_sin_nombre_1105"/><linearGradient id="Degradado_sin_nombre_1106-5" x1="221.05" y1="-5371.37" x2="240.1" y2="-5371.37" xlink:href="#Degradado_sin_nombre_1106"/><linearGradient id="Degradado_sin_nombre_1106-6" x1="228.3" y1="-5371.46" x2="235.99" y2="-5371.46" xlink:href="#Degradado_sin_nombre_1106"/><linearGradient id="Degradado_sin_nombre_1105-3" x1="89.01" y1="-5322.96" x2="159.71" y2="-5322.96" gradientTransform="matrix(1, 0, 0, -1, 0, -5239.99)" xlink:href="#Degradado_sin_nombre_1105"/><linearGradient id="Degradado_sin_nombre_1105-4" x1="208.93" y1="-5460.08" x2="219.35" y2="-5460.08" gradientTransform="matrix(1, 0, 0, -1, 0, -5239.99)" xlink:href="#Degradado_sin_nombre_1105"/><linearGradient id="Degradado_sin_nombre_1105-5" x1="207.05" y1="-5474" x2="221.01" y2="-5474" gradientTransform="matrix(1, 0, 0, -1, 0, -5239.99)" xlink:href="#Degradado_sin_nombre_1105"/><linearGradient id="Degradado_sin_nombre_1114" x1="214.55" y1="-5445.22" x2="214.55" y2="-5500.59" gradientTransform="matrix(1, 0, 0, -1, 0, -5239.99)" gradientUnits="userSpaceOnUse"><stop offset="0" stop-color="#94ff74" stop-opacity="0"/><stop offset="1" stop-color="#82ff6b"/></linearGradient><linearGradient id="Degradado_sin_nombre_1106-7" x1="-1356.87" y1="-5261.99" x2="-1325.57" y2="-5261.99" gradientTransform="matrix(1, 0, 0, -1, 1507.34, -5239.99)" xlink:href="#Degradado_sin_nombre_1106"/><linearGradient id="Degradado_sin_nombre_1105-6" x1="155.37" y1="-5253.73" x2="156.7" y2="-5254.78" gradientTransform="matrix(1, 0, 0, -1, 0, -5239.99)" xlink:href="#Degradado_sin_nombre_1105"/><linearGradient id="Degradado_sin_nombre_1105-7" x1="173.48" y1="-5266.41" x2="177.15" y2="-5271" gradientTransform="matrix(1, 0, 0, -1, 0, -5239.99)" xlink:href="#Degradado_sin_nombre_1105"/><linearGradient id="Degradado_sin_nombre_1105-8" x1="162.2" y1="-5251.89" x2="167.18" y2="-5256.79" gradientTransform="matrix(1, 0, 0, -1, 0, -5239.99)" xlink:href="#Degradado_sin_nombre_1105"/><linearGradient id="Degradado_sin_nombre_1110" x1="9129.23" y1="-5252.78" x2="9129.23" y2="-5252.78" gradientTransform="translate(9287.57 -5239.99) rotate(180)" gradientUnits="userSpaceOnUse"><stop offset="0" stop-color="#5bc15a"/><stop offset="1" stop-color="#35b334"/></linearGradient><linearGradient id="Degradado_sin_nombre_1105-9" x1="170.41" y1="-5258.16" x2="174.08" y2="-5263.84" gradientTransform="matrix(1, 0, 0, -1, 0, -5239.99)" xlink:href="#Degradado_sin_nombre_1105"/><linearGradient id="Degradado_sin_nombre_1110-2" x1="9114.18" y1="-5257.47" x2="9114.41" y2="-5257.08" xlink:href="#Degradado_sin_nombre_1110"/><linearGradient id="Degradado_sin_nombre_1106-8" x1="152.71" y1="-5263.9" x2="176.22" y2="-5263.9" xlink:href="#Degradado_sin_nombre_1106"/><linearGradient id="Degradado_sin_nombre_1110-3" x1="153.27" y1="-5255.66" x2="153.14" y2="-5255.76" gradientTransform="matrix(1, 0, 0, -1, 0, -5239.99)" xlink:href="#Degradado_sin_nombre_1110"/><clipPath id="clip-path"><path class="cls-1" d="M175.51,34.81c-5-2.9-17.5-10.1-17.5-10.1a10.2,10.2,0,0,1-3.4-3.7,10.26,10.26,0,0,1-1.5-5.1h0a2.18,2.18,0,0,0-.4.5c.7-1.5,2.5-1.4,4.6.3.1-6.6,6.5-3.3,8.8,1.8,3.2-.8,6.6,4.4,5.6,7.6C174,26.71,177.81,32.51,175.51,34.81Z"/></clipPath><linearGradient id="Degradado_sin_nombre_1109" x1="173.4" y1="-5270.14" x2="171.37" y2="-5261.68" gradientTransform="matrix(1, 0, 0, -1, 0, -5239.99)" gradientUnits="userSpaceOnUse"><stop offset="0" stop-color="#fff"/><stop offset="1" stop-color="#d9f1d9"/></linearGradient><linearGradient id="Degradado_sin_nombre_1109-2" x1="172.93" y1="-5270.25" x2="170.9" y2="-5261.79" xlink:href="#Degradado_sin_nombre_1109"/><linearGradient id="Degradado_sin_nombre_1109-3" x1="173.58" y1="-5270.1" x2="171.55" y2="-5261.63" xlink:href="#Degradado_sin_nombre_1109"/><linearGradient id="Degradado_sin_nombre_1109-4" x1="174.38" y1="-5269.9" x2="172.35" y2="-5261.44" xlink:href="#Degradado_sin_nombre_1109"/><linearGradient id="Degradado_sin_nombre_1109-5" x1="172.83" y1="-5270.27" x2="170.8" y2="-5261.81" xlink:href="#Degradado_sin_nombre_1109"/><linearGradient id="Degradado_sin_nombre_1109-6" x1="171.79" y1="-5270.53" x2="169.76" y2="-5262.06" xlink:href="#Degradado_sin_nombre_1109"/><linearGradient id="Degradado_sin_nombre_1109-7" x1="170.94" y1="-5270.73" x2="168.91" y2="-5262.27" xlink:href="#Degradado_sin_nombre_1109"/><linearGradient id="Degradado_sin_nombre_1109-8" x1="170.07" y1="-5270.94" x2="168.03" y2="-5262.48" xlink:href="#Degradado_sin_nombre_1109"/><linearGradient id="Degradado_sin_nombre_1109-9" x1="169.66" y1="-5271.02" x2="167.63" y2="-5262.57" xlink:href="#Degradado_sin_nombre_1109"/><linearGradient id="Degradado_sin_nombre_1109-10" x1="170.7" y1="-5270.78" x2="168.67" y2="-5262.32" xlink:href="#Degradado_sin_nombre_1109"/><linearGradient id="Degradado_sin_nombre_1109-11" x1="170.56" y1="-5270.81" x2="168.53" y2="-5262.36" xlink:href="#Degradado_sin_nombre_1109"/><linearGradient id="Degradado_sin_nombre_1109-12" x1="170.62" y1="-5270.81" x2="168.59" y2="-5262.34" xlink:href="#Degradado_sin_nombre_1109"/><linearGradient id="Degradado_sin_nombre_1109-13" x1="169.21" y1="-5271.16" x2="167.18" y2="-5262.68" xlink:href="#Degradado_sin_nombre_1109"/><linearGradient id="Degradado_sin_nombre_1109-14" x1="168.76" y1="-5271.25" x2="166.73" y2="-5262.79" xlink:href="#Degradado_sin_nombre_1109"/><linearGradient id="Degradado_sin_nombre_1109-15" x1="168.45" y1="-5271.33" x2="166.42" y2="-5262.86" xlink:href="#Degradado_sin_nombre_1109"/><linearGradient id="Degradado_sin_nombre_1109-16" x1="165.03" y1="-5272.15" x2="163" y2="-5263.68" xlink:href="#Degradado_sin_nombre_1109"/><linearGradient id="Degradado_sin_nombre_1109-17" x1="166.56" y1="-5271.78" x2="164.53" y2="-5263.32" xlink:href="#Degradado_sin_nombre_1109"/><linearGradient id="Degradado_sin_nombre_1109-18" x1="172.89" y1="-5270.26" x2="170.86" y2="-5261.8" xlink:href="#Degradado_sin_nombre_1109"/><linearGradient id="Degradado_sin_nombre_1109-19" x1="173.85" y1="-5270.03" x2="171.82" y2="-5261.56" xlink:href="#Degradado_sin_nombre_1109"/><linearGradient id="Degradado_sin_nombre_1109-20" x1="171.6" y1="-5270.57" x2="169.57" y2="-5262.11" xlink:href="#Degradado_sin_nombre_1109"/><linearGradient id="Degradado_sin_nombre_1109-21" x1="169.07" y1="-5271.18" x2="167.04" y2="-5262.71" xlink:href="#Degradado_sin_nombre_1109"/><linearGradient id="Degradado_sin_nombre_1109-22" x1="169.8" y1="-5271" x2="167.77" y2="-5262.54" xlink:href="#Degradado_sin_nombre_1109"/><linearGradient id="Degradado_sin_nombre_1109-23" x1="170.98" y1="-5270.72" x2="168.95" y2="-5262.26" xlink:href="#Degradado_sin_nombre_1109"/><linearGradient id="Degradado_sin_nombre_1109-24" x1="171.85" y1="-5270.51" x2="169.82" y2="-5262.05" xlink:href="#Degradado_sin_nombre_1109"/><linearGradient id="Degradado_sin_nombre_1109-25" x1="164.96" y1="-5272.16" x2="162.93" y2="-5263.7" xlink:href="#Degradado_sin_nombre_1109"/><linearGradient id="Degradado_sin_nombre_1109-26" x1="167.65" y1="-5271.52" x2="165.61" y2="-5263.06" xlink:href="#Degradado_sin_nombre_1109"/><linearGradient id="Degradado_sin_nombre_1109-27" x1="169.41" y1="-5271.1" x2="167.38" y2="-5262.63" xlink:href="#Degradado_sin_nombre_1109"/><linearGradient id="Degradado_sin_nombre_1109-28" x1="168.25" y1="-5271.37" x2="166.22" y2="-5262.92" xlink:href="#Degradado_sin_nombre_1109"/><linearGradient id="Degradado_sin_nombre_1109-29" x1="172.44" y1="-5270.37" x2="170.41" y2="-5261.9" xlink:href="#Degradado_sin_nombre_1109"/><linearGradient id="Degradado_sin_nombre_1109-30" x1="172.53" y1="-5270.34" x2="170.5" y2="-5261.89" xlink:href="#Degradado_sin_nombre_1109"/><linearGradient id="Degradado_sin_nombre_1109-31" x1="173.21" y1="-5270.18" x2="171.18" y2="-5261.73" xlink:href="#Degradado_sin_nombre_1109"/><linearGradient id="Degradado_sin_nombre_1109-32" x1="170.54" y1="-5270.82" x2="168.51" y2="-5262.36" xlink:href="#Degradado_sin_nombre_1109"/><linearGradient id="Degradado_sin_nombre_1109-33" x1="172.06" y1="-5270.46" x2="170.03" y2="-5262" xlink:href="#Degradado_sin_nombre_1109"/><linearGradient id="Degradado_sin_nombre_1109-34" x1="171.21" y1="-5270.67" x2="169.18" y2="-5262.2" xlink:href="#Degradado_sin_nombre_1109"/><linearGradient id="Degradado_sin_nombre_1109-35" x1="173.08" y1="-5270.21" x2="171.05" y2="-5261.75" xlink:href="#Degradado_sin_nombre_1109"/><linearGradient id="Degradado_sin_nombre_1109-36" x1="171.05" y1="-5270.7" x2="169.02" y2="-5262.24" xlink:href="#Degradado_sin_nombre_1109"/><linearGradient id="Degradado_sin_nombre_1109-37" x1="170.53" y1="-5270.82" x2="168.5" y2="-5262.36" xlink:href="#Degradado_sin_nombre_1109"/><linearGradient id="Degradado_sin_nombre_1109-38" x1="170.31" y1="-5270.88" x2="168.28" y2="-5262.42" xlink:href="#Degradado_sin_nombre_1109"/><linearGradient id="Degradado_sin_nombre_1109-39" x1="173.66" y1="-5270.08" x2="171.63" y2="-5261.61" xlink:href="#Degradado_sin_nombre_1109"/><linearGradient id="Degradado_sin_nombre_1109-40" x1="175.15" y1="-5269.72" x2="173.12" y2="-5261.26" xlink:href="#Degradado_sin_nombre_1109"/><linearGradient id="Degradado_sin_nombre_1109-41" x1="170.7" y1="-5270.78" x2="168.67" y2="-5262.32" xlink:href="#Degradado_sin_nombre_1109"/><linearGradient id="Degradado_sin_nombre_1109-42" x1="172.15" y1="-5270.44" x2="170.12" y2="-5261.98" xlink:href="#Degradado_sin_nombre_1109"/><linearGradient id="Degradado_sin_nombre_1109-43" x1="169.73" y1="-5271.02" x2="167.7" y2="-5262.56" xlink:href="#Degradado_sin_nombre_1109"/><linearGradient id="Degradado_sin_nombre_1109-44" x1="170.67" y1="-5270.79" x2="168.64" y2="-5262.33" xlink:href="#Degradado_sin_nombre_1109"/><linearGradient id="Degradado_sin_nombre_1109-45" x1="169.99" y1="-5270.96" x2="167.96" y2="-5262.5" xlink:href="#Degradado_sin_nombre_1109"/><linearGradient id="Degradado_sin_nombre_1109-46" x1="169.93" y1="-5270.97" x2="167.9" y2="-5262.51" xlink:href="#Degradado_sin_nombre_1109"/><linearGradient id="Degradado_sin_nombre_1109-47" x1="169.8" y1="-5271" x2="167.77" y2="-5262.54" xlink:href="#Degradado_sin_nombre_1109"/><linearGradient id="Degradado_sin_nombre_1109-48" x1="168.35" y1="-5271.35" x2="166.32" y2="-5262.89" xlink:href="#Degradado_sin_nombre_1109"/><linearGradient id="Degradado_sin_nombre_1109-49" x1="167.46" y1="-5271.56" x2="165.43" y2="-5263.1" xlink:href="#Degradado_sin_nombre_1109"/><linearGradient id="Degradado_sin_nombre_1109-50" x1="166.72" y1="-5271.74" x2="164.69" y2="-5263.28" xlink:href="#Degradado_sin_nombre_1109"/><linearGradient id="Degradado_sin_nombre_1109-51" x1="165.82" y1="-5271.96" x2="163.79" y2="-5263.49" xlink:href="#Degradado_sin_nombre_1109"/><linearGradient id="Degradado_sin_nombre_1109-52" x1="165.72" y1="-5271.98" x2="163.69" y2="-5263.52" xlink:href="#Degradado_sin_nombre_1109"/><linearGradient id="Degradado_sin_nombre_1109-53" x1="169.75" y1="-5271.01" x2="167.72" y2="-5262.55" xlink:href="#Degradado_sin_nombre_1109"/><linearGradient id="Degradado_sin_nombre_1109-54" x1="170.13" y1="-5270.92" x2="168.1" y2="-5262.46" xlink:href="#Degradado_sin_nombre_1109"/><linearGradient id="Degradado_sin_nombre_1109-55" x1="170.03" y1="-5270.95" x2="168" y2="-5262.48" xlink:href="#Degradado_sin_nombre_1109"/><linearGradient id="Degradado_sin_nombre_1109-56" x1="174.43" y1="-5269.89" x2="172.4" y2="-5261.43" xlink:href="#Degradado_sin_nombre_1109"/><linearGradient id="Degradado_sin_nombre_1109-57" x1="174.7" y1="-5269.83" x2="172.67" y2="-5261.37" xlink:href="#Degradado_sin_nombre_1109"/><linearGradient id="Degradado_sin_nombre_1109-58" x1="173.73" y1="-5270.06" x2="171.7" y2="-5261.6" xlink:href="#Degradado_sin_nombre_1109"/><linearGradient id="Degradado_sin_nombre_1109-59" x1="170.73" y1="-5270.78" x2="168.7" y2="-5262.32" xlink:href="#Degradado_sin_nombre_1109"/><linearGradient id="Degradado_sin_nombre_1109-60" x1="170.19" y1="-5270.91" x2="168.16" y2="-5262.44" xlink:href="#Degradado_sin_nombre_1109"/><linearGradient id="Degradado_sin_nombre_1109-61" x1="173.13" y1="-5270.2" x2="171.1" y2="-5261.74" xlink:href="#Degradado_sin_nombre_1109"/><linearGradient id="Degradado_sin_nombre_1109-62" x1="166.48" y1="-5271.8" x2="164.45" y2="-5263.34" xlink:href="#Degradado_sin_nombre_1109"/><linearGradient id="Degradado_sin_nombre_1109-63" x1="171.03" y1="-5270.71" x2="169" y2="-5262.24" xlink:href="#Degradado_sin_nombre_1109"/><linearGradient id="Degradado_sin_nombre_1109-64" x1="171.14" y1="-5270.68" x2="169.1" y2="-5262.22" xlink:href="#Degradado_sin_nombre_1109"/><linearGradient id="Degradado_sin_nombre_1109-65" x1="169.29" y1="-5271.12" x2="167.26" y2="-5262.66" xlink:href="#Degradado_sin_nombre_1109"/><linearGradient id="Degradado_sin_nombre_1108" x1="159.98" y1="-5254.82" x2="164.02" y2="-5268.78" gradientTransform="matrix(1, 0, 0, -1, 0, -5239.99)" gradientUnits="userSpaceOnUse"><stop offset="0" stop-color="#9fdb9e"/><stop offset="1" stop-color="#2eb12d"/></linearGradient><linearGradient id="Degradado_sin_nombre_1107" x1="158.59" y1="-5254.53" x2="162.65" y2="-5268.54" gradientTransform="matrix(1, 0, 0, -1, 0, -5239.99)" gradientUnits="userSpaceOnUse"><stop offset="0" stop-color="#9fdb9e"/><stop offset="1" stop-color="#64c563"/></linearGradient><linearGradient id="Degradado_sin_nombre_1105-10" x1="157.9" y1="-5254.62" x2="159.15" y2="-5266.75" gradientTransform="matrix(1, 0, 0, -1, 0, -5239.99)" xlink:href="#Degradado_sin_nombre_1105"/><linearGradient id="Degradado_sin_nombre_1105-11" x1="9595.73" y1="-5307.09" x2="9628.13" y2="-5307.09" gradientTransform="translate(9832.73 -5239.99) rotate(180)" xlink:href="#Degradado_sin_nombre_1105"/><linearGradient id="Degradado_sin_nombre_1106-9" x1="211.26" y1="-5307.68" x2="228.01" y2="-5307.68" xlink:href="#Degradado_sin_nombre_1106"/><linearGradient id="Degradado_sin_nombre_1113-3" x1="264.92" y1="-5490.42" x2="332.49" y2="-5490.42" xlink:href="#Degradado_sin_nombre_1113"/><linearGradient id="Degradado_sin_nombre_1105-12" x1="-24.95" y1="-6312.97" x2="-0.99" y2="-6312.97" gradientTransform="matrix(1, 0.19, 0, -1, 287.19, -6087.65)" xlink:href="#Degradado_sin_nombre_1105"/><linearGradient id="Degradado_sin_nombre_1111" x1="269.34" y1="-5437.8" x2="285.9" y2="-5437.8" gradientTransform="matrix(1, 0, 0, -1, 0, -5239.99)" gradientUnits="userSpaceOnUse"><stop offset="0" stop-color="#2eb12d"/><stop offset="1" stop-color="#70c96f"/></linearGradient></defs><g id="Capa_2" data-name="Capa 2"><g id="Capa_1-2" data-name="Capa 1"><path class="cls-2" d="M136.91,221.67l114.2-67.1a1.2,1.2,0,0,1,1.4,0l21,12.9a1.42,1.42,0,0,1,0,2.5l-87.7,81.5a1.2,1.2,0,0,1-1.4,0l-47.5-27.2A1.59,1.59,0,0,1,136.91,221.67Z"/><path class="cls-3" d="M113.11,193.47l-64.7,34.9a2.65,2.65,0,0,0-1.3,2.3,2.54,2.54,0,0,0,1.4,2.3l17.9,9.9a2.1,2.1,0,0,1,1,1.8,1.85,1.85,0,0,1-1.1,1.7L18.81,273a.25.25,0,0,0-.1.4c.1.1.2.2.3.2h.2L66.71,247a2.54,2.54,0,0,0,1.4-2.3,2.44,2.44,0,0,0-1.4-2.3l-17.9-9.9a2.06,2.06,0,0,1-1-1.7,1.94,1.94,0,0,1,1-1.7l64.7-34.9c.2-.1.2-.3.1-.5S113.21,193.37,113.11,193.47Z"/><path class="cls-4" d="M187.81,175.27a1.56,1.56,0,0,0-.8,1.3,1.34,1.34,0,0,0,.8,1.3l50.2,25.6a.67.67,0,0,1,.4.7.84.84,0,0,1-.4.7l-11.2,5.6a1.56,1.56,0,0,0-.8,1.3,1.34,1.34,0,0,0,.8,1.3l23.1,12.1a1.38,1.38,0,0,1,0,2.4l-43.8,24.3a.34.34,0,0,1-.5-.3l-.8-.1s.1,1.8,1.6,1l43.8-24.3a2.1,2.1,0,0,0,1-1.8,2.23,2.23,0,0,0-1-1.8l-23.1-12.1a.74.74,0,0,1,0-1.4l11.2-5.6a1.44,1.44,0,0,0,.8-1.3,1.34,1.34,0,0,0-.8-1.3l-50.2-25.6c-.3-.1-.4-.4-.5-.7a.84.84,0,0,1,.4-.7Z"/><polygon class="cls-5" points="201.91 255.87 232.71 273.37 254.71 262.97 217.81 241.87 201.91 255.87"/><path class="cls-6" d="M229.11,240.07c-8.2-4.3-21.3-4.1-29.3.5s-7.9,11.8.3,16.1,21.3,4.1,29.3-.5S237.21,244.37,229.11,240.07Z"/><path class="cls-7" d="M228.91,240.17c-8.1-4.3-21.1-4.1-29,.5s-7.8,11.7.3,15.9,21.1,4.1,29-.5S237,244.47,228.91,240.17Z"/><path class="cls-8" d="M228.81,240.27c-8-4.2-20.9-4-28.7.5s-7.7,11.5.3,15.8,20.9,4,28.7-.5S236.81,244.47,228.81,240.27Z"/><path class="cls-9" d="M228.61,240.37c-7.9-4.2-20.6-4-28.4.5s-7.6,11.4.3,15.6,20.6,4,28.4-.5S236.51,244.47,228.61,240.37Z"/><path class="cls-10" d="M228.41,240.47c-7.8-4.1-20.4-3.9-28.1.5s-7.6,11.3.3,15.4,20.4,3.9,28.1-.5S236.31,244.57,228.41,240.47Z"/><path class="cls-11" d="M228.31,240.47c-7.7-4.1-20.2-3.9-27.8.4s-7.5,11.1.3,15.2,20.2,3.9,27.8-.4S236,244.57,228.31,240.47Z"/><path class="cls-12" d="M228.11,240.57c-7.7-4-19.9-3.8-27.4.4s-7.4,11,.3,15.1,19.9,3.8,27.4-.4S235.81,244.67,228.11,240.57Z"/><path class="cls-13" d="M228,240.67c-7.6-4-19.7-3.8-27.1.4s-7.3,10.9.3,14.9,19.7,3.8,27.1-.4S235.51,244.67,228,240.67Z"/><path class="cls-14" d="M227.81,240.77c-7.5-3.9-19.5-3.7-26.8.4s-7.2,10.8.3,14.7,19.5,3.7,26.8-.4S235.31,244.77,227.81,240.77Z"/><path class="cls-15" d="M227.71,240.87c-7.4-3.9-19.2-3.7-26.5.4s-7.1,10.6.3,14.5,19.2,3.7,26.5-.4S235,244.77,227.71,240.87Z"/><path class="cls-16" d="M227.51,241c-7.3-3.8-19-3.7-26.2.4s-7,10.5.3,14.4,19,3.7,26.2-.4S234.81,244.77,227.51,241Z"/><path class="cls-17" d="M227.31,241.07c-7.2-3.8-18.8-3.6-25.9.4s-7,10.4.3,14.2,18.8,3.6,25.9-.4S234.61,244.87,227.31,241.07Z"/><path class="cls-18" d="M227.21,241.17c-7.1-3.8-18.6-3.6-25.5.4s-6.9,10.3.3,14,18.6,3.6,25.5-.4S234.31,244.87,227.21,241.17Z"/><path class="cls-19" d="M227,241.27c-7-3.7-18.3-3.5-25.2.4s-6.8,10.1.2,13.8,18.3,3.5,25.2-.4S234.11,245,227,241.27Z"/><path class="cls-20" d="M226.91,241.27c-6.9-3.7-18.1-3.5-24.9.4s-6.7,10,.2,13.7,18.1,3.5,24.9-.4S233.81,245,226.91,241.27Z"/><path class="cls-21" d="M226.71,241.37c-6.9-3.6-17.9-3.4-24.6.4s-6.6,9.9.2,13.5,17.9,3.4,24.6-.4S233.61,245.07,226.71,241.37Z"/><path class="cls-22" d="M226.61,241.47c-6.8-3.6-17.6-3.4-24.3.4s-6.5,9.8.2,13.3,17.6,3.4,24.3-.4S233.31,245.07,226.61,241.47Z"/><path class="cls-23" d="M226.41,241.57c-6.7-3.5-17.4-3.3-24,.4s-6.4,9.6.2,13.1,17.4,3.3,24-.4S233.11,245.07,226.41,241.57Z"/><path class="cls-24" d="M226.21,241.67c-6.6-3.5-17.2-3.3-23.6.4s-6.4,9.5.2,13,17.2,3.3,23.6-.4S232.81,245.17,226.21,241.67Z"/><path class="cls-25" d="M226.11,241.77c-6.5-3.4-16.9-3.3-23.3.4s-6.3,9.4.2,12.8,16.9,3.3,23.3-.4S232.61,245.17,226.11,241.77Z"/><path class="cls-26" d="M225.91,241.87c-6.4-3.4-16.7-3.2-23,.4s-6.2,9.2.2,12.6,16.7,3.2,23-.4S232.31,245.27,225.91,241.87Z"/><path class="cls-27" d="M225.81,242c-6.3-3.3-16.5-3.2-22.7.4s-6.1,9.1.2,12.5,16.5,3.2,22.7-.4S232.11,245.27,225.81,242Z"/><path class="cls-28" d="M203,237.87c6.4-3.7,16.7-3.7,23,0,3.1,1.8,4.7,4.1,4.8,6.5v4c-.1,2.3-1.7,4.7-4.8,6.5-6.4,3.7-16.7,3.7-23,0-3.1-1.8-4.7-4.1-4.8-6.5v-4C198.31,242.07,199.91,239.67,203,237.87Z"/><path class="cls-29" d="M203,237.87c-6.4,3.7-6.4,9.6,0,13.3s16.7,3.7,23,0,6.4-9.6,0-13.3S209.41,234.27,203,237.87Z"/><path class="cls-28" d="M227.71,241.87a9.74,9.74,0,0,0-3.3-3c-5.5-3.2-14.4-3.2-19.8,0a9.74,9.74,0,0,0-3.3,3h-.8v2.9h0c.1,2,1.4,4,4.1,5.6,5.5,3.2,14.4,3.2,19.8,0,2.7-1.5,4-3.5,4.1-5.6h0v-2.9Z"/><path class="cls-30" d="M204.61,236.07c-5.5,3.2-5.5,8.3,0,11.5s14.4,3.2,19.8,0,5.5-8.3,0-11.5S210.11,233,204.61,236.07Z"/><path class="cls-28" d="M206.21,236.67c-4.6,2.7-4.6,7,0,9.6a18,18,0,0,0,16.6,0c4.6-2.7,4.6-7,0-9.6S210.81,234,206.21,236.67Z"/><polygon class="cls-31" points="13.71 279.77 53.11 302.27 81.31 288.97 33.91 261.87 13.71 279.77"/><path class="cls-6" d="M53.71,268.87l-23.6-13.5a4.2,4.2,0,0,0-2.1-.6,4.28,4.28,0,0,0-2.2.6l-23.6,12.8a4.41,4.41,0,0,0-2.2,4,4.58,4.58,0,0,0,2.3,4l23.6,13.3a3.94,3.94,0,0,0,2.1.6,4.28,4.28,0,0,0,2.2-.6l23.6-12.6a4.58,4.58,0,0,0,2.3-4A4.89,4.89,0,0,0,53.71,268.87Z"/><path class="cls-7" d="M25.81,255.47l-23.5,12.8a4.36,4.36,0,0,0-1.4,1.3,4.3,4.3,0,0,0-.8,2.7,4.64,4.64,0,0,0,2.4,3.9L26,289.37a5.78,5.78,0,0,0,1.4.5c.2,0,.5.1.7.1a3.94,3.94,0,0,0,2.1-.6l23.4-12.6a4.49,4.49,0,0,0,1.3-1.1,4.27,4.27,0,0,0,1-2.9,4.76,4.76,0,0,0-2.3-3.9l-23.4-13.4a3.94,3.94,0,0,0-2.1-.6h-.7A4.42,4.42,0,0,0,25.81,255.47Z"/><path class="cls-32" d="M25.91,255.57l-23.4,12.8a4.36,4.36,0,0,0-1.4,1.3,4.3,4.3,0,0,0-.8,2.7,4.7,4.7,0,0,0,2.4,3.8L26,289.27a3.26,3.26,0,0,0,1.3.4H28a5.09,5.09,0,0,0,2.1-.6l23.3-12.5,1.3-1a3.76,3.76,0,0,0,.9-2.9,4.7,4.7,0,0,0-2.4-3.8l-23.1-13.2a5.09,5.09,0,0,0-2.1-.6h-.7A3.36,3.36,0,0,0,25.91,255.57Z"/><path class="cls-33" d="M26,255.67l-23.4,12.7a5.53,5.53,0,0,0-1.4,1.2,3.46,3.46,0,0,0-.7,2.6,4.8,4.8,0,0,0,2.5,3.7L26.21,289a3.26,3.26,0,0,0,1.3.4h.7a5.09,5.09,0,0,0,2.1-.6l23.1-12.4a6.42,6.42,0,0,0,1.3-1,3.66,3.66,0,0,0,.9-2.8,4.93,4.93,0,0,0-2.4-3.7l-22.9-13.1a5.09,5.09,0,0,0-2.1-.6h-.7A5.27,5.27,0,0,0,26,255.67Z"/><path class="cls-34" d="M26,255.87l-23.3,12.7a5.53,5.53,0,0,0-1.4,1.2,3.46,3.46,0,0,0-.7,2.6c0,1.4,1.4,3,2.5,3.6l23,13a3.26,3.26,0,0,0,1.3.4h.7a5.56,5.56,0,0,0,2.1-.6l23-12.3a6.42,6.42,0,0,0,1.3-1,3.24,3.24,0,0,0,.8-2.8,4.85,4.85,0,0,0-2.4-3.6l-22.7-13a4.66,4.66,0,0,0-2-.6h-.6A2.28,2.28,0,0,0,26,255.87Z"/><path class="cls-10" d="M26.11,256l-23.2,12.7a5.53,5.53,0,0,0-1.4,1.2,3,3,0,0,0-.6,2.6c0,1.3,1.5,2.9,2.6,3.5l22.9,12.9a3.26,3.26,0,0,0,1.3.4h.7a6.64,6.64,0,0,0,2-.6l22.8-12.2a4,4,0,0,0,1.2-1,3.16,3.16,0,0,0,.8-2.8c0-1.3-1.4-2.9-2.5-3.5l-22.5-12.9a4.66,4.66,0,0,0-2-.6h-.6A1.88,1.88,0,0,0,26.11,256Z"/><path class="cls-35" d="M26.21,256.07,3,268.67a4.07,4.07,0,0,0-1.4,1.2,3,3,0,0,0-.6,2.6c0,1.2,1.6,2.9,2.6,3.5l22.7,12.8a3.26,3.26,0,0,0,1.3.4h.7a4.79,4.79,0,0,0,2-.7L53,276.27a4,4,0,0,0,1.2-1,3,3,0,0,0,.8-2.7c0-1.2-1.5-2.8-2.5-3.4l-22.3-12.7a4.66,4.66,0,0,0-2-.6c-.2,0-.5-.1-.6,0A1.7,1.7,0,0,0,26.21,256.07Z"/><path class="cls-36" d="M26.21,256.17l-23.1,12.6a5.66,5.66,0,0,0-1.5,1.2,3,3,0,0,0-.6,2.6c0,1.2,1.7,2.8,2.7,3.4l22.5,12.7a3.08,3.08,0,0,0,1.3.3h.7a5.33,5.33,0,0,0,2-.7l22.5-12.1a5.8,5.8,0,0,0,1.2-1,2.74,2.74,0,0,0,.7-2.7c0-1.2-1.6-2.8-2.6-3.3l-22-12.6a4.9,4.9,0,0,0-1.9-.7c-.2,0-.5-.1-.6,0A3.92,3.92,0,0,0,26.21,256.17Z"/><path class="cls-37" d="M26.31,256.37l-23,12.5a8.28,8.28,0,0,0-1.5,1.1,2.57,2.57,0,0,0-.5,2.5c0,1.1,1.8,2.8,2.7,3.3l22.4,12.7a3.08,3.08,0,0,0,1.3.3c.2,0,.5-.1.7-.1a4.79,4.79,0,0,0,2-.7l22.4-12a12.49,12.49,0,0,0,1.2-.9,2.74,2.74,0,0,0,.7-2.7c0-1.1-1.7-2.7-2.6-3.2l-21.9-12.5a6.19,6.19,0,0,0-1.9-.7c-.1,0-.5-.1-.6-.1A3.36,3.36,0,0,0,26.31,256.37Z"/><path class="cls-14" d="M26.41,256.47,3.41,269a14.31,14.31,0,0,0-1.5,1.1,2.35,2.35,0,0,0-.5,2.5c0,1,1.9,2.7,2.8,3.2l22.2,12.5a3.08,3.08,0,0,0,1.3.3c.2,0,.5-.1.7-.1a6.79,6.79,0,0,0,2-.7l22.2-11.9a12.49,12.49,0,0,0,1.2-.9,2.57,2.57,0,0,0,.6-2.6c0-1-1.8-2.7-2.7-3.2l-21.6-12.4a6.19,6.19,0,0,0-1.9-.7c-.1,0-.5-.1-.6-.1A3.85,3.85,0,0,0,26.41,256.47Z"/><path class="cls-15" d="M26.41,256.57l-22.9,12.5a8.28,8.28,0,0,0-1.5,1.1,2.35,2.35,0,0,0-.5,2.5c0,.9,2.1,2.7,2.8,3.1l22.1,12.4a3.08,3.08,0,0,0,1.3.3c.1,0,.5-.1.7-.1a6.19,6.19,0,0,0,1.9-.7l22.1-11.8a6.23,6.23,0,0,0,1.2-.9,2.57,2.57,0,0,0,.6-2.6c0-.9-1.9-2.6-2.7-3.1l-21.4-12.2a6.19,6.19,0,0,0-1.9-.7c-.1,0-.5-.1-.6-.1A3.46,3.46,0,0,0,26.41,256.57Z"/><path class="cls-16" d="M26.51,256.67l-22.8,12.4a8.28,8.28,0,0,0-1.5,1.1,2.12,2.12,0,0,0-.4,2.5c0,.9,2.2,2.6,2.9,3l21.9,12.4a3.08,3.08,0,0,0,1.3.3c.1,0,.5-.1.6-.1a6.19,6.19,0,0,0,1.9-.7l21.9-11.8a3.78,3.78,0,0,0,1.2-.9,2.33,2.33,0,0,0,.5-2.6c0-.9-2-2.5-2.7-3l-21.1-12.1a5.63,5.63,0,0,0-1.8-.7c-.1,0-.5-.1-.6-.1A3.08,3.08,0,0,0,26.51,256.67Z"/><path class="cls-17" d="M26.61,256.87l-22.7,12.4a8.28,8.28,0,0,0-1.5,1.1,2.12,2.12,0,0,0-.4,2.5c0,.8,2.3,2.6,3,2.9l21.8,12.3a1.91,1.91,0,0,0,1.3.2c.1,0,.5-.1.6-.1a10.66,10.66,0,0,0,1.9-.7l21.8-11.7a5.38,5.38,0,0,0,1.2-.9,2.3,2.3,0,0,0,.5-2.6c0-.8-2.1-2.5-2.8-2.9l-20.9-12a5.63,5.63,0,0,0-1.8-.7c-.1,0-.5-.1-.6-.1A1.74,1.74,0,0,0,26.61,256.87Z"/><path class="cls-18" d="M26.61,257l-22.7,12.4a7.17,7.17,0,0,0-1.5,1.1,2,2,0,0,0-.4,2.4c0,.7,2.4,2.5,3,2.9L26.61,288a1.91,1.91,0,0,0,1.3.2c.1,0,.5-.1.6-.1a7.71,7.71,0,0,0,1.9-.8L52,275.67a12.49,12.49,0,0,0,1.2-.8,1.89,1.89,0,0,0,.4-2.5c0-.7-2.2-2.4-2.8-2.8l-20.7-11.8a6.7,6.7,0,0,0-1.8-.7c-.1,0-.5-.1-.6-.1C27.51,256.67,27.11,256.67,26.61,257Z"/><path class="cls-19" d="M26.71,257.07l-22.6,12.3a7.84,7.84,0,0,0-1.5,1,1.85,1.85,0,0,0-.3,2.4c0,.6,2.5,2.5,3.1,2.8l21.5,12.1a1.72,1.72,0,0,0,1.2.2c.1,0,.5-.1.6-.1a7.71,7.71,0,0,0,1.9-.8l21.5-11.5a12.49,12.49,0,0,0,1.2-.8,1.89,1.89,0,0,0,.4-2.5c0-.7-2.3-2.4-2.9-2.7l-20.5-11.7c-.3-.1-1.5-.7-1.7-.7s-.5-.2-.5-.1A1.69,1.69,0,0,0,26.71,257.07Z"/><path class="cls-38" d="M26.81,257.17l-22.5,12.3a7.84,7.84,0,0,0-1.5,1,1.85,1.85,0,0,0-.3,2.4c0,.6,2.6,2.4,3.1,2.7l21.3,12a1.72,1.72,0,0,0,1.2.2c.1,0,.5-.2.6-.2a9.82,9.82,0,0,0,1.8-.8l21.3-11.4a12.49,12.49,0,0,0,1.2-.8,1.89,1.89,0,0,0,.4-2.5c0-.6-2.4-2.3-2.9-2.6l-20.2-11.6a13,13,0,0,0-1.7-.8,2.57,2.57,0,0,1-.5-.2A3.08,3.08,0,0,0,26.81,257.17Z"/><path class="cls-39" d="M26.81,257.37l-22.4,12.2a7.84,7.84,0,0,0-1.5,1,1.73,1.73,0,0,0-.2,2.4c0,.5,2.7,2.4,3.2,2.6l21.2,11.9a1.29,1.29,0,0,0,1.2.1c.1,0,.5-.2.6-.2a14.17,14.17,0,0,0,1.8-.8l21.2-11.4c.1-.1,1.1-.7,1.2-.8a1.66,1.66,0,0,0,.3-2.4c0-.5-2.5-2.3-2.9-2.5l-20-11.5a13,13,0,0,0-1.7-.8,2.57,2.57,0,0,1-.5-.2A3.31,3.31,0,0,0,26.81,257.37Z"/><path class="cls-40" d="M26.91,257.47l-22.4,12.2a13,13,0,0,0-1.5,1,1.53,1.53,0,0,0-.2,2.3c0,.4,2.9,2.3,3.2,2.5l21,11.8a1.29,1.29,0,0,0,1.2.1c.1,0,.5-.2.6-.2a14.17,14.17,0,0,0,1.8-.8l21-11.3a12.49,12.49,0,0,0,1.2-.8,1.66,1.66,0,0,0,.3-2.4c0-.4-2.6-2.2-3-2.4l-19.7-11.2a13,13,0,0,0-1.7-.8,2.57,2.57,0,0,1-.5-.2A2,2,0,0,0,26.91,257.47Z"/><path class="cls-23" d="M27,257.57l-22.3,12.2c-.1.1-1.5.8-1.5,1a1.53,1.53,0,0,0-.2,2.3c0,.4,3,2.3,3.3,2.4l20.8,11.8a1.67,1.67,0,0,0,1.2.1c.1,0,.5-.2.6-.2a14.17,14.17,0,0,0,1.8-.8l20.9-11.2a12.49,12.49,0,0,0,1.2-.8A1.57,1.57,0,0,0,53,272c0-.4-2.7-2.1-3-2.3l-19.6-11.2a11.94,11.94,0,0,0-1.6-.8l-.5-.2A1.47,1.47,0,0,0,27,257.57Z"/><path class="cls-41" d="M27.11,257.67l-22.3,12.1c-.1.1-1.5.8-1.5.9a1.46,1.46,0,0,0-.1,2.3c0,.3,3.1,2.2,3.3,2.3L27.21,287a1.67,1.67,0,0,0,1.2.1,4.17,4.17,0,0,1,.6-.2c.1,0,1.6-.8,1.8-.8L51.51,275a12.75,12.75,0,0,0,1.2-.7,1.47,1.47,0,0,0,.2-2.3c0-.3-2.8-2.1-3.1-2.2l-19.4-11.1a11.94,11.94,0,0,0-1.6-.8l-.5-.2A1.27,1.27,0,0,0,27.11,257.67Z"/><path class="cls-42" d="M27.11,257.87,4.91,270c-.1,0-1.5.9-1.6.9a1.46,1.46,0,0,0-.1,2.3,28.84,28.84,0,0,0,3.4,2.3l20.5,11.6a1.67,1.67,0,0,0,1.2.1,4.17,4.17,0,0,1,.6-.2,9.15,9.15,0,0,0,1.7-.9l20.6-11a12.75,12.75,0,0,0,1.2-.7,1.4,1.4,0,0,0,.1-2.3,24,24,0,0,0-3.1-2.1l-19-11.2c-.1,0-1.5-.8-1.6-.8l-.5-.2A1.07,1.07,0,0,0,27.11,257.87Z"/><path class="cls-43" d="M27.21,258l-22.1,12.1s-1.5.9-1.6.9a1.46,1.46,0,0,0-.1,2.3c0,.1,3.3,2.1,3.4,2.2L27.21,287a1.27,1.27,0,0,0,1.2,0,3.33,3.33,0,0,1,.6-.3,9.15,9.15,0,0,0,1.7-.9l20.4-11,1.2-.7a1.4,1.4,0,0,0,.1-2.3,32.84,32.84,0,0,0-3.1-2L30.41,259c-.1,0-1.5-.8-1.6-.8l-.5-.2C28,257.67,27.61,257.77,27.21,258Z"/><path class="cls-26" d="M27.31,258.07l-22,12-1.6.9a1.31,1.31,0,0,0,0,2.2,40.5,40.5,0,0,0,3.5,2.1l20.1,11.4a1.28,1.28,0,0,0,1.2,0l.5-.3,1.7-.9L51,274.57l1.2-.7a1.31,1.31,0,0,0,0-2.2,33.71,33.71,0,0,0-3.2-1.9l-18.7-10.7-1.5-.8-.5-.3A1.21,1.21,0,0,0,27.31,258.07Z"/><path class="cls-27" d="M28.51,258.17a1.28,1.28,0,0,0-1.2,0L3.71,271a1.31,1.31,0,0,0,0,2.2l23.7,13.4a1.27,1.27,0,0,0,1.2,0L52.21,274a1.31,1.31,0,0,0,0-2.2Z"/><path class="cls-44" d="M4,270.67l22.4-12.2a4.87,4.87,0,0,1,4.4,0l21.8,12.2a1.69,1.69,0,0,1,0,2.9l-21.8,12.2a4.33,4.33,0,0,1-4.4,0L4,273.57A1.69,1.69,0,0,1,4,270.67Z"/><rect class="cls-44" x="3.21" y="268.97" width="50.3" height="3.2"/><path class="cls-6" d="M4,267.37l22.4-12.2a4.87,4.87,0,0,1,4.4,0l21.8,12.2a1.69,1.69,0,0,1,0,2.9l-21.8,12.2a4.33,4.33,0,0,1-4.4,0L4,270.27A1.69,1.69,0,0,1,4,267.37Z"/><path class="cls-29" d="M52.61,269.87l-8,4.5-13.8,7.7a4.33,4.33,0,0,1-4.4,0L12,274.27l-6.3-3.4L4,270a1.7,1.7,0,0,1,0-3l22.4-12.2a4.87,4.87,0,0,1,4.4,0l14.2,7.9,7.6,4.3A1.62,1.62,0,0,1,52.61,269.87Z"/><path class="cls-45" d="M37.21,216.57c-.3.6-.7,1.1-.4,1.2s1.2-.4,1.3-.3c.4.4-1.1,1-1.8,1-.9,0-2.8,5.6-2.8,5.6l-2.1-.9a43.68,43.68,0,0,0,3-5.6,2.82,2.82,0,0,1,1.2-1.7c.2-.1,1.2.5,1.4-.4s.5-1.3.6-1.3A4.6,4.6,0,0,1,37.21,216.57Z"/><path class="cls-6" d="M22.81,225.87c.1,1.6,1.7,1.8,4,1.6a11.61,11.61,0,0,0,6.8-2.7c.9-.8-1.5-2.6-2.2-2.4a26.56,26.56,0,0,1-4.5,1C24.21,223.67,22.81,224.37,22.81,225.87Z"/><path class="cls-6" d="M23.91,265.57a3.19,3.19,0,0,0-.4,2.1.71.71,0,0,0,.6.3c1.7.6,4.3-1.6,4.7-2a1.66,1.66,0,0,0,.6-1.6C29.21,264.07,24.31,265.27,23.91,265.57Z"/><path class="cls-3" d="M26.31,264.27a20.37,20.37,0,0,0-2.6,1.4,1.89,1.89,0,0,0-.3,1.6c.1.2.5.3.7.4.8.3,3.1-.8,4.2-1.8.4-.3,1.1-1.1.8-1.6C29.11,263.87,27.51,263.77,26.31,264.27Z"/><ellipse class="cls-6" cx="25.81" cy="266.67" rx="0.2" ry="0.3"/><path class="cls-6" d="M23.91,265.77a1.92,1.92,0,0,0-.3,1.5,1.12,1.12,0,0,0,.7.4,4.19,4.19,0,0,1,.2-1.4l.1-.2-.5-.6Z"/><path class="cls-45" d="M24,265c-.1.3-.1.6-.2.8a.45.45,0,0,1,.5,0,.76.76,0,0,1,.2.4,1.64,1.64,0,0,0,1.2-.2c1-.4,1.2-1,1.1-1.3C26.61,264.07,24.31,265,24,265Z"/><path class="cls-46" d="M23.11,251.67a11.08,11.08,0,0,0-.3,4.3c.2,2.1.7,8.8.7,8.8a3.11,3.11,0,0,0,3.2-.2s.7-9.5.8-12.4S23.51,250.67,23.11,251.67Z"/><path class="cls-46" d="M27.31,237.27c-1.5-1.3-3.1-1.1-3.6-.7-2.1,1.6-2.1,5.3-1.9,6.5s.9,7.3,1.2,9.1c.5,2.7,4.5,2.9,4.5.9S30.11,239.67,27.31,237.27Z"/><path class="cls-6" d="M28.51,267.87a3.19,3.19,0,0,0-.4,2.1.71.71,0,0,0,.6.3c1.7.6,4.3-1.6,4.7-2a1.66,1.66,0,0,0,.6-1.6C33.81,266.27,28.81,267.47,28.51,267.87Z"/><path class="cls-3" d="M30.91,266.47a20.37,20.37,0,0,0-2.6,1.4,1.89,1.89,0,0,0-.3,1.6c.1.2.5.3.7.4.8.3,3.1-.8,4.2-1.8.4-.3,1.1-1.1.8-1.6C33.71,266.07,32.11,266.07,30.91,266.47Z"/><ellipse class="cls-6" cx="30.41" cy="268.87" rx="0.2" ry="0.3"/><path class="cls-6" d="M28.41,268.07a1.92,1.92,0,0,0-.3,1.5,1.12,1.12,0,0,0,.7.4,4.19,4.19,0,0,1,.2-1.4l.1-.2-.5-.6Z"/><path class="cls-45" d="M28.61,267.17c-.1.3-.1.6-.2.8a.45.45,0,0,1,.5,0,.76.76,0,0,1,.2.4,1.64,1.64,0,0,0,1.2-.2c1-.4,1.2-1,1.1-1.3C31.11,266.27,28.91,267.27,28.61,267.17Z"/><path class="cls-44" d="M27.31,253.77a15,15,0,0,0-.1,4.6c.2,2.1.8,9.2.8,9.2a2.66,2.66,0,0,0,3.2-.8s.7-9.3.8-12.3C32,251.67,27.81,252.77,27.31,253.77Z"/><path class="cls-44" d="M31.51,238.87c-1.6-1.3-3.5-.2-4,.2-2.1,1.6-1.7,3.6-1.6,4.9.1,1.1,1.3,8.9,1.6,10.7.5,2.7,4.5,2.9,4.5.9S33.61,240.67,31.51,238.87Z"/><path class="cls-47" d="M32.41,228.37c0-3.4-5.3-4.8-6.9-4.8-3.3,0-3.4,4.2-3,7.2s-.8,10-.8,10c2.4,2.8,11.1.9,11.1.9C31.81,238.17,32.41,231.37,32.41,228.37Z"/><path class="cls-45" d="M30.71,218.77c0-.4-.5-.1-.8-.4a1.75,1.75,0,0,0-1.2-.4,2,2,0,0,0-1.1.2,2.65,2.65,0,0,0-.5.6c-1,1.7-.5,3.1-.8,4.9a12.24,12.24,0,0,0,2.7.9c.1,0-.6-.9-.5-1.7.8.2,1.2-.8,2-1.9a1.66,1.66,0,0,0,0-1.2C30.41,219.27,30.81,219.17,30.71,218.77Z"/><path class="cls-3" d="M29.21,216.57c0-1-2.1-1.1-1.9.1a1.55,1.55,0,0,0-1.8,2.1c-.5,1.1.5,2.1.8,2.8a3.63,3.63,0,0,1,.3.7s1.4.4,1.9,0a2.75,2.75,0,0,0,1-1.9c.2-1.1.9-.6.9-1.6.4-.2.6.4.6.4C31.91,217.27,30.31,216,29.21,216.57Z"/><path class="cls-6" d="M29,223.57a4.61,4.61,0,0,0-2.5-.8.76.76,0,0,0-.5.2l-.4.6,4,1.3A1.38,1.38,0,0,0,29,223.57Z"/><path class="cls-45" d="M37.71,239.17c-.6-.4-.8-.3-.7-.6s.8-.7.8-.8c0-.3-.7,0-1.2.4a1.16,1.16,0,0,1-1,0c-1.4-.5-5-3.5-5-3.5l-1.4,1.9s5.2,2.8,6.1,3.6c.3.3,1,1.3,1.2,1.2s1.2-.4,1.3-.6-.4-1.4.2-.6c.5.6,1.3,1,1.1.8A4.65,4.65,0,0,0,37.71,239.17Z"/><path class="cls-6" d="M30.51,225.87c-1.6-.4-2.2,1.2-2.6,3.4a12,12,0,0,0,.7,7.3c.5,1,2.9-.7,2.9-1.4a28.63,28.63,0,0,1,.2-4.6C32.21,227.77,31.91,226.17,30.51,225.87Z"/><path class="cls-6" d="M140.71,233.07a18.75,18.75,0,0,0,9.5-2.4l108.9-63a11.61,11.61,0,0,0-.1-20.8L184.51,104a20,20,0,0,0-19,0L56.61,167a11.61,11.61,0,0,0,.1,20.8l74.5,42.9a19.22,19.22,0,0,0,9.5,2.4Z"/><path class="cls-7" d="M165.71,104.27l-108.9,63a11.12,11.12,0,0,0-6,10.2c0,4,2.7,8,6.6,10.2l74,42.6a18.52,18.52,0,0,0,9.5,2.3h0a10.28,10.28,0,0,0,1.7-.1,19.85,19.85,0,0,0,7.8-2.4L259,167.17a11.52,11.52,0,0,0,5.7-7.4,13.33,13.33,0,0,0,.3-2.8c0-4-2.7-8-6.6-10.2l-73.9-42.5a18.12,18.12,0,0,0-5.7-2.1,27.63,27.63,0,0,0-3.7-.4A20,20,0,0,0,165.71,104.27Z"/><path class="cls-32" d="M165.91,104.57,57,167.57a10.48,10.48,0,0,0-5.3,6.9,11.58,11.58,0,0,0-.3,3.2c0,3.8,3,7.8,6.7,10l73.5,42.3a18,18,0,0,0,9.4,2.2h0c.5,0,1.1-.1,1.7-.1a19.24,19.24,0,0,0,7.7-2.5l108.3-62.7a11,11,0,0,0,5.5-7.3,13.2,13.2,0,0,0,.2-2.8c0-3.8-3-7.8-6.7-9.9l-73.2-42.2a20.42,20.42,0,0,0-5.6-2.1,16.47,16.47,0,0,0-3.6-.4A20.41,20.41,0,0,0,165.91,104.57Z"/><path class="cls-33" d="M166.11,104.87l-108.9,63a9.88,9.88,0,0,0-5.1,6.9A11.33,11.33,0,0,0,52,178c0,3.6,3.3,7.7,6.8,9.7l73,42a17.78,17.78,0,0,0,9.4,2.2h0c.5,0,1.1-.1,1.7-.1a21.9,21.9,0,0,0,7.7-2.6l108-62.5c3-1.8,4.9-4.4,5.2-7.3a12,12,0,0,0,.1-2.7c0-3.6-3.3-7.7-6.8-9.7l-72.5-41.8a19.3,19.3,0,0,0-5.6-2.1,15.86,15.86,0,0,0-3.6-.4A17.45,17.45,0,0,0,166.11,104.87Z"/><path class="cls-34" d="M166.31,105.27l-108.9,63c-2.9,1.7-4.6,4.2-4.8,6.8a10.73,10.73,0,0,0,0,3.1c0,3.5,3.6,7.6,7,9.5l72.5,41.7a16.7,16.7,0,0,0,9.4,2.1h0a11.14,11.14,0,0,0,1.7-.2,22.89,22.89,0,0,0,7.6-2.6l107.6-62.3c3-1.8,4.8-4.4,4.9-7.2a11.3,11.3,0,0,0,0-2.6c0-3.5-3.5-7.6-6.9-9.5l-71.9-41.4a18.77,18.77,0,0,0-5.5-2.1,15.64,15.64,0,0,0-3.5-.4A15.92,15.92,0,0,0,166.31,105.27Z"/><path class="cls-10" d="M166.51,105.57l-108.9,63c-2.9,1.7-4.5,4.2-4.6,6.8-.3.9.1,2.1.1,3,0,3.3,3.9,7.5,7.1,9.3l71.9,41.4a17.22,17.22,0,0,0,9.4,2h0a11.14,11.14,0,0,0,1.7-.2,21.15,21.15,0,0,0,7.6-2.7L258.21,166c3-1.7,4.7-4.4,4.7-7.2a10.48,10.48,0,0,0-.1-2.5c0-3.3-3.8-7.4-7-9.2l-71.2-41a18.24,18.24,0,0,0-5.4-2.1,26.69,26.69,0,0,0-3.5-.5A15.61,15.61,0,0,0,166.51,105.57Z"/><path class="cls-35" d="M166.71,105.87l-108.9,63c-2.9,1.7-4.4,4.2-4.3,6.7-.3.8.3,2,.3,2.9,0,3.1,4.2,7.4,7.2,9.1l71.4,41.1a16.08,16.08,0,0,0,9.4,1.9h0a11.14,11.14,0,0,0,1.7-.2,23.17,23.17,0,0,0,7.5-2.8l107.1-62c3-1.7,4.6-4.4,4.4-7.1a11,11,0,0,0-.2-2.5c0-3.1-4.1-7.3-7.1-9l-70.6-40.7a24.55,24.55,0,0,0-5.4-2.2,22.68,22.68,0,0,0-3.5-.5A19.07,19.07,0,0,0,166.71,105.87Z"/><path class="cls-36" d="M166.81,106.17l-108.9,63c-2.9,1.7-4.3,4.2-4.1,6.7-.2.8.4,2,.4,2.8,0,2.9,4.5,7.3,7.3,8.9l70.9,40.8a15.77,15.77,0,0,0,9.3,1.9h0a9,9,0,0,0,1.6-.3c1.6-.1,5.6-1.7,7.5-2.8l106.9-61.9c3-1.7,4.5-4.4,4.2-7,.2-.7-.3-1.7-.3-2.4,0-2.9-4.4-7.2-7.2-8.8l-69.9-40.3a21.34,21.34,0,0,0-5.3-2.2,14.71,14.71,0,0,0-3.4-.5A17.8,17.8,0,0,0,166.81,106.17Z"/><path class="cls-37" d="M167,106.47l-108.9,63c-2.9,1.7-4.2,4.2-3.8,6.7-.2.7.5,2,.5,2.7,0,2.7,4.8,7.1,7.5,8.7l70.4,40.6A15.5,15.5,0,0,0,142,230h0l1.6-.3a24.63,24.63,0,0,0,7.4-2.9l106.6-61.7c3-1.7,4.4-4.4,3.9-7,.2-.6-.4-1.7-.4-2.3,0-2.7-4.7-7-7.3-8.6l-69.3-39.9a27.78,27.78,0,0,0-5.2-2.2,22.14,22.14,0,0,0-3.4-.6A17.07,17.07,0,0,0,167,106.47Z"/><path class="cls-14" d="M167.21,106.77l-108.9,63c-2.9,1.7-4.1,4.3-3.5,6.6-.2.7.6,1.9.7,2.6,0,2.6,5.1,7,7.6,8.4l69.9,40.3a14.58,14.58,0,0,0,9.3,1.7h0l1.6-.3c1.4-.1,5.7-2,7.4-2.9l106.3-61.5c3-1.7,4.3-4.4,3.6-6.9.2-.6-.5-1.6-.5-2.2,0-2.6-4.9-6.9-7.4-8.3l-68.6-39.5a25.25,25.25,0,0,0-5.2-2.2,23.26,23.26,0,0,0-3.3-.6A16.56,16.56,0,0,0,167.21,106.77Z"/><path class="cls-15" d="M167.41,107.17l-108.9,63c-2.9,1.7-4,4.3-3.3,6.6-.2.6.8,1.9.8,2.6,0,2.4,5.4,6.9,7.7,8.2l69.4,40a14.48,14.48,0,0,0,9.3,1.6h0l1.6-.3c1.3-.1,5.8-2.1,7.3-3l106-61.4c3-1.7,4.2-4.4,3.4-6.9.1-.5-.6-1.6-.6-2.2,0-2.4-5.2-6.8-7.5-8.1l-68-39.1a31.41,31.41,0,0,0-5.1-2.2,21,21,0,0,0-3.3-.6A14.34,14.34,0,0,0,167.41,107.17Z"/><path class="cls-16" d="M167.61,107.47l-108.9,63c-2.9,1.7-3.9,4.3-3,6.5-.2.6.9,1.9.9,2.5,0,2.2,5.7,6.8,7.8,8l68.9,39.7a15,15,0,0,0,9.3,1.6h0a9.36,9.36,0,0,0,1.6-.4c1.2-.1,5.9-2.2,7.3-3.1l105.7-61.2c3-1.7,4.1-4.4,3.1-6.8.1-.5-.8-1.6-.8-2.1,0-2.2-5.5-6.7-7.6-7.9l-67.3-38.8a23.87,23.87,0,0,0-5-2.2,13,13,0,0,0-3.3-.7A16.6,16.6,0,0,0,167.61,107.47Z"/><path class="cls-17" d="M167.81,107.77l-108.9,63c-2.9,1.7-3.9,4.3-2.8,6.5-.2.5,1,1.8,1,2.4,0,2,6,6.7,8,7.8l68.3,39.4a14,14,0,0,0,9.2,1.5h0a9.36,9.36,0,0,0,1.6-.4c1.1-.1,5.9-2.4,7.2-3.1l105.4-61c3-1.7,4-4.4,2.8-6.7.1-.5-.9-1.5-.9-2,0-2-5.8-6.5-7.7-7.6l-66.6-38.4a37.09,37.09,0,0,0-5-2.3,14.81,14.81,0,0,0-11.6.9Z"/><path class="cls-18" d="M168,108.07l-108.9,63c-2.9,1.7-3.8,4.3-2.5,6.5-.2.5,1.2,1.8,1.2,2.3,0,1.8,6.3,6.6,8.1,7.6l67.8,39.1a13.34,13.34,0,0,0,9.2,1.4h0a9.36,9.36,0,0,0,1.6-.4c1-.1,6-2.5,7.2-3.2l105.1-60.9c3-1.7,3.9-4.4,2.6-6.7.1-.4-1-1.5-1-1.9,0-1.8-6.1-6.4-7.8-7.4l-66-38a36,36,0,0,0-4.9-2.3,13.2,13.2,0,0,0-3.2-.7A14.42,14.42,0,0,0,168,108.07Z"/><path class="cls-19" d="M168.11,108.37l-108.9,63c-2.9,1.7-3.7,4.3-2.3,6.4-.1.4,1.3,1.8,1.3,2.2,0,1.6,6.6,6.4,8.2,7.3l67.3,38.8a13.69,13.69,0,0,0,9.2,1.3h0c.5-.1,1.1-.3,1.6-.4.9-.1,6.1-2.7,7.1-3.3L256.41,163c3-1.7,3.8-4.4,2.3-6.6.1-.4-1.1-1.5-1.1-1.8,0-1.6-6.3-6.3-7.9-7.2l-65.3-37.6a41.54,41.54,0,0,0-4.8-2.3,11.56,11.56,0,0,0-3.1-.7A15.21,15.21,0,0,0,168.11,108.37Z"/><path class="cls-38" d="M168.31,108.77l-108.9,63c-2.9,1.7-3.6,4.3-2,6.4-.1.4,1.4,1.7,1.4,2.1,0,1.5,6.9,6.3,8.3,7.1l66.8,38.5a13.69,13.69,0,0,0,9.2,1.3h0a9.83,9.83,0,0,0,1.6-.5c.8-.1,6.1-2.8,7.1-3.3l104.6-60.5c2.9-1.7,3.7-4.4,2.1-6.6.1-.3-1.2-1.4-1.2-1.8,0-1.5-6.6-6.1-8-6.9l-64.7-37.3a34.94,34.94,0,0,0-4.8-2.3,17.68,17.68,0,0,0-3.1-.8A14.1,14.1,0,0,0,168.31,108.77Z"/><path class="cls-39" d="M168.51,109.07l-108.9,63c-2.9,1.7-3.5,4.3-1.7,6.3-.1.3,1.6,1.7,1.6,2,0,1.3,7.2,6.2,8.5,6.9l66.3,38.2a12.94,12.94,0,0,0,9.2,1.2h0a8.8,8.8,0,0,0,1.5-.5,63.88,63.88,0,0,0,7-3.4l104.3-60.4c2.9-1.7,3.6-4.4,1.8-6.5.1-.3-1.3-1.4-1.3-1.7,0-1.3-6.9-6-8.1-6.7l-64-36.9c-.6-.3-4.2-2.2-4.7-2.3a10.89,10.89,0,0,0-3.1-.8A14.59,14.59,0,0,0,168.51,109.07Z"/><path class="cls-40" d="M168.71,109.37l-108.9,63c-2.9,1.7-3.4,4.3-1.5,6.3-.1.3,1.7,1.6,1.7,2,0,1.1,7.5,6.1,8.6,6.7l65.8,37.9a12.69,12.69,0,0,0,9.1,1.1h0a8.8,8.8,0,0,0,1.5-.5c.6,0,6.3-3.1,7-3.5l104-60.2c2.9-1.7,3.5-4.4,1.5-6.4.1-.2-1.4-1.4-1.4-1.6,0-1.1-7.2-5.9-8.2-6.5l-63.4-36.5a39.43,39.43,0,0,0-4.6-2.3,11.14,11.14,0,0,0-3-.8A12.4,12.4,0,0,0,168.71,109.37Z"/><path class="cls-23" d="M168.91,109.67,60,172.67c-2.9,1.7-3.3,4.3-1.2,6.3-.1.2,1.8,1.6,1.8,1.9,0,.9,7.8,6,8.7,6.5l65.3,37.6a12.64,12.64,0,0,0,9.1,1h0a8.8,8.8,0,0,0,1.5-.5c.5,0,6.3-3.2,6.9-3.5l103.7-60c2.9-1.7,3.4-4.4,1.3-6.4.1-.2-1.5-1.3-1.5-1.5,0-.9-7.5-5.7-8.3-6.3l-62.7-36.1c-.4-.2-4.2-2.3-4.6-2.4a14.88,14.88,0,0,0-3-.9A12.74,12.74,0,0,0,168.91,109.67Z"/><path class="cls-41" d="M169.11,110,60.21,173c-2.9,1.7-3.2,4.4-1,6.2-.1.2,2,1.6,2,1.8,0,.7,8.1,5.9,8.8,6.3l64.7,37.3a12.54,12.54,0,0,0,9.1,1h0a9.38,9.38,0,0,0,1.5-.6c.4,0,6.4-3.3,6.9-3.6l103.4-59.9c2.9-1.7,3.3-4.4,1-6.3,0-.2-1.6-1.3-1.6-1.5,0-.7-7.7-5.6-8.4-6l-62.1-35.8c-.3-.2-4.2-2.3-4.5-2.4a14,14,0,0,0-2.9-.9A13.81,13.81,0,0,0,169.11,110Z"/><path class="cls-42" d="M169.31,110.37l-108.9,63c-2.9,1.7-3.1,4.4-.7,6.2,0,.1,2.1,1.5,2.1,1.7,0,.5,8.4,5.7,9,6l64.2,37a12.51,12.51,0,0,0,9.1.9h0l1.5-.6c.3,0,6.5-3.5,6.8-3.7l103-59.6c2.9-1.7,3.2-4.4.7-6.3,0-.1-1.7-1.3-1.7-1.4,0-.5-8-5.5-8.5-5.8l-61.4-35.4c-.3-.1-4.2-2.4-4.4-2.4a14,14,0,0,0-2.9-.9A12,12,0,0,0,169.31,110.37Z"/><path class="cls-43" d="M169.51,110.67l-108.9,63c-2.9,1.7-3.1,4.4-.5,6.2,0,.1,2.2,1.5,2.2,1.6,0,.4,8.7,5.6,9.1,5.8l63.7,36.7a11.92,11.92,0,0,0,9.1.8h0l1.5-.6c.2,0,6.5-3.6,6.8-3.7L255.31,161c2.9-1.7,3.1-4.4.5-6.2,0-.1-1.8-1.2-1.8-1.3,0-.4-8.3-5.4-8.6-5.6l-60.7-35c-.2-.1-4.2-2.4-4.4-2.4a12.37,12.37,0,0,0-2.9-1A11.72,11.72,0,0,0,169.51,110.67Z"/><path class="cls-26" d="M169.61,111,60.71,174c-2.9,1.7-3,4.4-.2,6.1l2.4,1.5c0,.2,9,5.5,9.2,5.6l63.2,36.4a11.7,11.7,0,0,0,9,.7h0l1.5-.6c.1,0,6.6-3.7,6.7-3.8L255,160.47c2.9-1.7,3-4.4.2-6.1l-1.9-1.2c0-.2-8.6-5.2-8.7-5.3l-60.1-34.6c-.1,0-4.2-2.4-4.3-2.4a8.49,8.49,0,0,0-2.8-1A11.59,11.59,0,0,0,169.61,111Z"/><path class="cls-27" d="M61,180.37l74.5,42.9a11.45,11.45,0,0,0,10.5,0l108.9-63c2.9-1.7,2.9-4.4,0-6.1l-74.5-42.9a11.45,11.45,0,0,0-10.5,0L61,174.27C58,176,58,178.77,61,180.37Z"/><path class="cls-48" d="M58.81,173.47c0,1.1.7,2.2,2.2,3.1l74.5,42.9a11.45,11.45,0,0,0,10.5,0l108.9-63a3.73,3.73,0,0,0,2.2-3v3.8a3.54,3.54,0,0,1-2.2,3l-108.9,63a11.45,11.45,0,0,1-10.5,0L61,180.37a3.55,3.55,0,0,1-2.2-3.1Z"/><path class="cls-10" d="M61,176.57l74.5,42.9a11.45,11.45,0,0,0,10.5,0l108.9-63c2.9-1.7,2.9-4.4,0-6.1l-74.5-42.9a11.45,11.45,0,0,0-10.5,0L61,170.47C58,172.17,58,174.87,61,176.57Z"/><polygon class="cls-49" points="65.81 169.17 148.31 216.77 255.21 154.67 172.71 107.17 65.81 169.17"/><path class="cls-6" d="M240.51,166.67l6.4-3.7c.3-.2.5,0,.5.3v.2a1.39,1.39,0,0,1-.5,1l-6.4,3.7c-.3.2-.5,0-.5-.3v-.2A1,1,0,0,1,240.51,166.67Z"/><path class="cls-11" d="M239.61,167.07c0-.1.1-.2.2-.4l.3-.3,6.4-3.7c.2-.1.3-.1.4,0l.4.2c-.1-.1-.2,0-.4,0l-6.4,3.7-.3.3c-.1.1-.1.2-.2.4s-.1.2-.1.3v.2a.52.52,0,0,0,.2.4l-.4-.2a.52.52,0,0,1-.2-.4v-.2A.37.37,0,0,1,239.61,167.07Z"/><path class="cls-11" d="M233.31,170.47l.3-.3,3-1.8c.2-.1.3-.1.4,0l.4.2c-.1-.1-.2,0-.4,0l-3,1.8-.3.3c-.1.1-.1.2-.2.4s-.1.2-.1.3v.2a.52.52,0,0,0,.2.4l-.4-.2a.52.52,0,0,1-.2-.4v-.2a.37.37,0,0,1,.1-.3C233.21,170.67,233.21,170.57,233.31,170.47Z"/><path class="cls-6" d="M234,170.37l3-1.8a.37.37,0,0,1,.6.3v.2a1.39,1.39,0,0,1-.5,1l-3,1.8c-.3.2-.5,0-.5-.3v-.2A1,1,0,0,1,234,170.37Z"/><path class="cls-50" d="M209.31,125.77l9.8,5.6c.3.2.3.4.1.6h0a1.17,1.17,0,0,1-1,0l-9.8-5.6c-.3-.2-.3-.4-.1-.6h0C208.51,125.57,209,125.67,209.31,125.77Z"/><polygon class="cls-51" points="65.81 169.17 148.31 216.77 255.21 154.67 172.71 107.17 65.81 169.17"/><path class="cls-28" d="M76.71,193.87l-42.4-23.5a2.21,2.21,0,0,0-3.1,1.9l1.2,35.4a1.23,1.23,0,0,0,.7,1.1l41.6,24.6c.9.5,2.7-.2,2.7-2.2V195A1.44,1.44,0,0,0,76.71,193.87Z"/><path class="cls-52" d="M75.81,194.47l-42.7-23.7a1.25,1.25,0,0,0-1.9,1.1v36.5a1.23,1.23,0,0,0,.7,1.1l42.7,23.7a1.25,1.25,0,0,0,1.9-1.1v-36.4A1.52,1.52,0,0,0,75.81,194.47Z"/><path class="cls-53" d="M56,201.9h0l-2,1.24-.62-1a7.49,7.49,0,0,1-1.49-.62c-3-1.74-5.46-5.71-5.46-8.94a1.64,1.64,0,0,1,.12-.75l-.74-1,1.86-1.12a1,1,0,0,1,.5-.25h0a4.16,4.16,0,0,1,3.72.5c3,1.74,5.47,5.71,5.47,8.94A3.17,3.17,0,0,1,56,201.9Z"/><path class="cls-53" d="M44.54,208.86a8,8,0,0,1,.62-3.11l-.25-.74s1.86-1.12,2-1.24l.24-.13a5,5,0,0,1,4.72.37c4.1,2.36,7.33,8.82,7.33,13.17l-2.11,1.36-4.72-4.34,1-.38Z"/><path class="cls-54" d="M49.88,191.1c3,1.74,5.46,5.71,5.46,8.94s-2.48,4.47-5.46,2.73-5.47-5.71-5.47-8.94S46.9,189.36,49.88,191.1Z"/><path class="cls-55" d="M49.75,205.38c4.1,2.36,7.33,8.82,7.33,13.16L42.42,210.1C42.42,205.75,45.78,203.14,49.75,205.38Z"/><path class="cls-56" d="M254.71,121.57l-40.9-22.7c-.8-.5-3,0-3,1.8l1.1,34.2a1.15,1.15,0,0,0,.6,1.1l40.1,23.7c.8.5,2.6-.2,2.6-2.1v-35A.88.88,0,0,0,254.71,121.57Z"/><path class="cls-57" d="M253.91,122.27l-41.2-22.9a1.26,1.26,0,0,0-1.9,1.1v35.2a1.15,1.15,0,0,0,.6,1.1l41.2,22.9a1.26,1.26,0,0,0,1.9-1.1v-35.3A1.1,1.1,0,0,0,253.91,122.27Z"/><path class="cls-3" d="M242.21,129.27c0,2.5-.3,9.4-3.6,12l-1.6,1.4-.1-.5a6.57,6.57,0,0,1-2.8,0H234a27,27,0,0,1-6.2-8.5,49.46,49.46,0,0,1-3.9-12.2l-.1-.1-2.6-2.2h0l2.1-1.8c5,1.9,7.7.6,8.7-.1h0a2.74,2.74,0,0,0,.5-.4h0a38.11,38.11,0,0,0,7.7,9.8l2.1,1.8C242.11,128.37,242.21,128.67,242.21,129.27Z"/><path class="cls-28" d="M242.11,128.37l-2.1,1.8-1.3.2-4.5.8-.4-.6-2.3-3.3-.9-6.3-.3-2.3,1.6-1.4h0l.5-.4h0a38.11,38.11,0,0,0,7.7,9.8Z"/><path class="cls-58" d="M236.91,142.67a5,5,0,0,1-5.1,1.2,30.39,30.39,0,0,1-6.5-9.1,51.06,51.06,0,0,1-4.2-15.6h0c6.6,2.5,9.2-.5,9.2-.5a35.71,35.71,0,0,0,7.8,9.8c.6.6,1.3,1.1,2,1.7C240.11,130.17,240.51,139.17,236.91,142.67Z"/><path class="cls-6" d="M230.31,120.47s-2.2,2.6-7.8.5c0,0,1.1,13.9,9.1,21.1,7.8,1.9,7.1-11.7,7.1-11.7A31.66,31.66,0,0,1,230.31,120.47Z"/><path class="cls-59" d="M235.71,133.57l-3.7,3a.76.76,0,0,1-.5.2h-.3c-.1,0-.2-.1-.3-.2s-.2-.2-.2-.3l-2.4-9.1a.76.76,0,0,1,.6-1h.5c.2.1.5.3.5.6l2,7.5a.1.1,0,0,0,.1.1h.2l.3-.3h0l2.1-1.7a.31.31,0,0,1,.2-.1h.2a.83.83,0,0,1,.8.3C236.11,132.67,236,133.27,235.71,133.57Z"/><path class="cls-28" d="M228.91,127.27a.89.89,0,0,1,.6-1h.2a1,1,0,0,0-.7-.2.89.89,0,0,0-.6,1l2.4,9.1a.76.76,0,0,0,.8.6.52.52,0,0,1-.2-.4Z"/><path class="cls-28" d="M235.71,132.27a.76.76,0,0,0-.5.2l-2.4,2h-.2l-.5-.2h.2l.3-.3h0l2.1-1.7a.31.31,0,0,1,.2-.1h.2A.47.47,0,0,1,235.71,132.27Z"/><path class="cls-56" d="M160.31,88.87l-67.6-37.2a2.47,2.47,0,0,0-1.7,0h-.1a4.33,4.33,0,0,0-1.2.5l-.3,1.5,1.2,20.7a1.52,1.52,0,0,0,.7,1.2l66,37.9.9.5h.8a1.85,1.85,0,0,0,1.2-.5,2.48,2.48,0,0,0,.7-1.8V90.17A1.29,1.29,0,0,0,160.31,88.87Z"/><path class="cls-60" d="M159,89.57,91,52.17a1.36,1.36,0,0,0-2,1.2v21.8a1.52,1.52,0,0,0,.7,1.2l68,37.4a1.36,1.36,0,0,0,2-1.2V90.77A1.21,1.21,0,0,0,159,89.57Z"/><path class="cls-6" d="M101.71,67.17c.3.3.4.8.2,1l-1.6,1.7h0l2.6.9a1.17,1.17,0,0,1,.6,1V72c0,.4-.3.5-.6.3l-2.6-1.6h0l1.6,3.1c.2.4.1.8-.2.9h-.2a1,1,0,0,1-.8-.7l-1-3.2h0L98.61,73c-.1.3-.5.2-.8-.1l-.1-.2a.78.78,0,0,1-.1-1l1.6-1.6h0l-2.5-.9a1.17,1.17,0,0,1-.6-1V68c0-.4.3-.5.6-.3l2.5,1.6h0l-1.6-3.2c-.2-.4-.1-.8.2-.9H98a1,1,0,0,1,.8.7l1,3.2h0l1.1-2.2c.1-.3.5-.3.8.1Z"/><path class="cls-6" d="M113.41,73.57c.3.3.4.8.2,1l-1.6,1.7h0l2.6.9a1.17,1.17,0,0,1,.6,1v.2c0,.4-.3.5-.6.3l-2.6-1.6h0l1.6,3.1c.2.4.1.8-.2.9h-.2a1,1,0,0,1-.8-.7l-1-3.2h0l-1.1,2.2c-.1.3-.5.2-.8-.1l-.1-.2a.78.78,0,0,1-.1-1l1.6-1.6h0l-2.5-.9a1.17,1.17,0,0,1-.6-1v-.2c0-.4.3-.5.6-.3l2.5,1.6h0l-1.6-3.2c-.2-.4-.1-.8.2-.9h.2a1,1,0,0,1,.8.7l1,3.2h0l1.1-2.2c.1-.3.5-.3.8.1Z"/><path class="cls-6" d="M125.11,80c.3.3.4.8.2,1l-1.6,1.7h0l2.6.9a1.17,1.17,0,0,1,.6,1v.2c0,.4-.3.5-.6.3l-2.6-1.6h0l1.6,3.1c.2.4.1.8-.2.9h-.2a1,1,0,0,1-.8-.7l-1-3.2h0l-1.1,2.2c-.1.3-.5.2-.8-.1l-.1-.2a.78.78,0,0,1-.1-1l1.6-1.6h0l-2.5-.9a1.17,1.17,0,0,1-.6-1v-.2c0-.4.3-.5.6-.3l2.5,1.6h0l-1.6-3.2c-.2-.4-.1-.8.2-.9h.2c.3-.1.7.3.8.7l1,3.2h0l1.1-2.2c.1-.3.5-.3.8.1Z"/><path class="cls-6" d="M136.81,86.37c.3.3.4.8.2,1l-1.6,1.7h0l2.6.9a1.17,1.17,0,0,1,.6,1v.2c0,.4-.3.5-.6.3l-2.6-1.6h0L137,93c.2.4.1.8-.2.9h-.2a1,1,0,0,1-.8-.7l-1-3.2h0l-1.1,2.2c-.1.3-.5.2-.8-.1l-.1-.2a.78.78,0,0,1-.1-1l1.6-1.6h0l-2.5-.9a1.17,1.17,0,0,1-.6-1v-.2c0-.4.3-.5.6-.3l2.5,1.6h0l-1.6-3.2c-.2-.4-.1-.8.2-.9h.2a1,1,0,0,1,.8.7l1,3.2h0l1.1-2.2c.1-.3.5-.3.8.1Z"/><path class="cls-6" d="M148.51,92.77c.3.3.4.8.2,1l-1.6,1.7v.1l2.6.9a1.17,1.17,0,0,1,.6,1v.2c0,.4-.3.5-.6.3l-2.6-1.6h0l1.6,3.1c.2.4.1.8-.2.9h-.2a1,1,0,0,1-.8-.7l-1-3.2h0l-1.1,2.2c-.1.3-.5.2-.8-.1l-.1-.2a.78.78,0,0,1-.1-1l1.6-1.6h0l-2.5-.9a1.17,1.17,0,0,1-.6-1v-.2c0-.4.3-.5.6-.3L146,95h0l-1.6-3.2c-.2-.4-.1-.8.2-.9h.2a1,1,0,0,1,.8.7l1,3.2h0l1.1-2.2c.1-.3.5-.3.8.1Z"/><path class="cls-56" d="M220,224.77h0l-1.9,1.2-.6-1a5.34,5.34,0,0,1-1.4-.6,11.1,11.1,0,0,1-5.2-8.6,1.48,1.48,0,0,1,.1-.7l-.7-1L212,213a2.19,2.19,0,0,1,.5-.3h0a4.08,4.08,0,0,1,3.6.5,11.1,11.1,0,0,1,5.2,8.6A3.1,3.1,0,0,1,220,224.77Z"/><path class="cls-56" d="M209.11,231.47a6.53,6.53,0,0,1,.6-2.9l-.2-.7,1.8-1.1.2-.1a4.64,4.64,0,0,1,4.5.4c3.9,2.2,7,8.4,6.9,12.5l-2,1.3-4.5-4.2.9-.3Z"/><path class="cls-61" d="M214.21,214.47a11.1,11.1,0,0,1,5.2,8.6c0,3.1-2.4,4.3-5.3,2.6a11.1,11.1,0,0,1-5.2-8.6C209,214,211.31,212.87,214.21,214.47Z"/><path class="cls-62" d="M214.11,228.17c3.9,2.2,7,8.4,6.9,12.5l-14-8C207.11,228.57,210.21,226,214.11,228.17Z"/><path class="cls-63" d="M226.31,204.87h-23.5v36.2h0c-.2,1.9.9,3.8,3.4,5.2a18,18,0,0,0,16.6,0c2.5-1.4,3.6-3.3,3.4-5.2h0v-36.2Z"/><ellipse class="cls-6" cx="175.66" cy="147.67" rx="25.36" ry="16.2"/><path class="cls-6" d="M93.52,166.22c16.89-9.79,35.68-11.29,52.27-1.43,17.79,8.46,18,28.51,7.31,35.85Z"/><path class="cls-3" d="M176.11,98.41h-.8V94h.8Zm0-7.7h-.8v-4.4h.8Zm0-7.7h-.8v-4.4h.8Zm0-7.7h-.8v-4.4h.8Zm0-7.7h-.8v-2.4l-1.4-.7.4-.7,1.8,1Zm-5.1-4.7-3.9-2.1.4-.7,3.9,2.1Zm-6.8-3.6-1.8-1v-2.8h.8v2.3l1.4.7Zm-1-7.1h-.8v-4.4h.8Zm0-7.7h-.8v-4.4h.8Zm0-7.7h-.8v-4.4h.8Z"/><path class="cls-4" d="M196.51,108.21h-.8v-4.4h.8Zm0-7.7h-.8v-4.4h.8ZM226,95l-3.8-2.2.4-.7,3.8,2.2Zm-29.5-2.2h-.8v-4.4h.8Zm30.3-1.1H226v-4.4h.8Zm-7.5-.6-3.8-2.2.4-.7,3.8,2.2Zm-6.6-3.9-3.8-2.2.4-.7,3.8,2.2Zm-16.2-2.1h-.8v-4.4h.8Zm30.3-1.1H226v-4.4h.8Zm-20.8-.7-3.8-2.2.4-.7,3.8,2.2Zm-6.6-3.9-3.5-2h-.2v-1.1l4.1,2.4Zm27.4-3.1H226v-4.4h.8Z"/><path class="cls-28" d="M181.91,16.31,152.61.11a1.52,1.52,0,0,0-2.1,1.3l.8,24.5a1,1,0,0,0,.5.8l28.7,17a1.44,1.44,0,0,0,1.9-1.5v-25A1.35,1.35,0,0,0,181.91,16.31Z"/><path class="cls-64" d="M181.31,16.81,151.81.41a.88.88,0,0,0-1.3.8v25.2a1,1,0,0,0,.5.8l29.5,16.4a.88.88,0,0,0,1.3-.8V17.61A1,1,0,0,0,181.31,16.81Z"/><path class="cls-65" d="M153.31,15a1.42,1.42,0,0,1,.6-.2,4.17,4.17,0,0,1,2.5.6c.1.1.3.2.4.3a3.5,3.5,0,0,1,1.3-2.7h-.3a3,3,0,0,0-1,.2Z"/><path class="cls-66" d="M175.71,23.91l-3.4,1.9c.1.1.2.1.4.2a9.06,9.06,0,0,1,4.1,7,2.84,2.84,0,0,1-1.2,2.6l3.5-1.9h0a2.84,2.84,0,0,0,1.2-2.6,8.8,8.8,0,0,0-4.1-7A1.69,1.69,0,0,0,175.71,23.91Z"/><path class="cls-67" d="M161.81,10.91l-3.3,1.8h.1a3,3,0,0,1,2.1-.2,4.34,4.34,0,0,1,1.6.7,11.36,11.36,0,0,1,4.2,4.7l3.4-1.9a11.36,11.36,0,0,0-4.2-4.7,3.78,3.78,0,0,0-3.9-.4Z"/><path class="cls-68" d="M158.31,12.81Z"/><path class="cls-69" d="M166.41,17.81a3.08,3.08,0,0,1,2.2.4c.2.1.3.2.5.3a8.53,8.53,0,0,1,3.3,6.1,3.08,3.08,0,0,1-.1,1l3.4-1.9a3.08,3.08,0,0,0,.1-1,8.27,8.27,0,0,0-3.8-6.5,2.82,2.82,0,0,0-2.3-.4Z"/><path class="cls-70" d="M173.11,17.11l.3.3Z"/><path class="cls-28" d="M151.81,18a10,10,0,0,0,4.6,7.9c.1.1,16.7,9.6,16.9,9.7,1.9.7,3.4-.3,3.4-2.6a8.8,8.8,0,0,0-4.1-7c-.1-.1-.2-.1-.4-.2a3.08,3.08,0,0,0,.1-1,8,8,0,0,0-3.3-6.1c-.2-.1-.3-.2-.5-.3a2.65,2.65,0,0,0-2.2-.4,11.36,11.36,0,0,0-4.2-4.7,6.39,6.39,0,0,0-1.6-.6,3,3,0,0,0-2.1.2,3.53,3.53,0,0,0-1.7,3c-.1-.1-.3-.2-.4-.3a4.17,4.17,0,0,0-2.5-.6C152.71,15,151.81,16.21,151.81,18Z"/><path class="cls-71" d="M175.51,34.81c-5-2.9-17.5-10.1-17.5-10.1a10.2,10.2,0,0,1-3.4-3.7,10.26,10.26,0,0,1-1.5-5.1h0a2.18,2.18,0,0,0-.4.5c.7-1.5,2.5-1.4,4.6.3.1-6.6,6.5-3.3,8.8,1.8,3.2-.8,6.6,4.4,5.6,7.6C174,26.71,177.81,32.51,175.51,34.81Z"/><path class="cls-72" d="M153.11,15.11l.2-.1C153.21,15,153.21,15.11,153.11,15.11Z"/><path class="cls-73" d="M153.21,15.71c-.1,0-.1.1-.2.2h0Z"/><path class="cls-56" d="M175.61,34.81l.1-.1a1.43,1.43,0,0,1-1.2.6,2.92,2.92,0,0,1-.9-.2c-.1,0-.2-.1-.4-.2s-16.6-9.6-16.7-9.6a8.44,8.44,0,0,1-2.8-3.1,8.88,8.88,0,0,1-1.3-4.2,2.54,2.54,0,0,1,.7-2.1h0a10.26,10.26,0,0,0,1.5,5.1,10.2,10.2,0,0,0,3.4,3.7C158.11,24.71,170.61,31.91,175.61,34.81Z"/><path class="cls-72" d="M172.61,26.51c-.1-.1-.2-.1-.4-.2,0-.2.1-.4.1-.6.1,0,.2.1.3.1a9.06,9.06,0,0,1,4.1,7v.3A9,9,0,0,0,172.61,26.51Z"/><path class="cls-72" d="M169.11,19.21c-.2-.1-.3-.2-.5-.3a2.65,2.65,0,0,0-2.2-.4,11.36,11.36,0,0,0-4.2-4.7,6.39,6.39,0,0,0-1.6-.6,3,3,0,0,0-2.1.2,3.53,3.53,0,0,0-1.7,3c-.1-.1-.3-.2-.4-.3a4.17,4.17,0,0,0-2.5-.6c-1.2.2-2,1.2-2.1,2.9v-.3c0-1.8.8-3,2.1-3.2a4.17,4.17,0,0,1,2.5.6c.1.1.3.2.4.3a3.53,3.53,0,0,1,1.7-3,3,3,0,0,1,2.1-.2,5.23,5.23,0,0,1,1.6.6,11.36,11.36,0,0,1,4.2,4.7,3.08,3.08,0,0,1,2.2.4c.2.1.3.2.5.3a8.53,8.53,0,0,1,3.3,6.1V25A8.27,8.27,0,0,0,169.11,19.21Z"/><path class="cls-74" d="M157.11,26.31c3,1.7,13.9,8,15.9,9.1a2.36,2.36,0,0,0,1.4.4c4.1-.2,2.1-7.9-2-10-.3-.2.1-.5,0-.8a7.27,7.27,0,0,0-.4-2.5c-.8-2.3-3.1-5.2-5.6-4.7a10.64,10.64,0,0,0-4.7-4.9c-2.3-1.1-4.7-.4-4.9,2.8a4.9,4.9,0,0,0-2.9-.9C150,15.61,152,23.81,157.11,26.31Zm-4.7-7.4c-.5-3.8,1.9-4.5,4.8-2.2.1-6.6,6.5-3.3,8.8,1.8,3.2-.8,6.6,4.4,5.6,7.6,2.5.7,6.5,7.1,3.4,9.1a2.08,2.08,0,0,1-1.8-.2c-2.1-1.2-16.7-9.6-16.8-9.6A10.82,10.82,0,0,1,152.41,18.91Z"/><g class="cls-75"><path class="cls-76" d="M172.21,22.21l-1.8-1v-1.3h.1v1.2l1.8,1Z"/><path class="cls-77" d="M170.61,19.91c0,.2-.1.3-.2.2a.76.76,0,0,1-.2-.5c0-.2.1-.3.2-.2A.76.76,0,0,1,170.61,19.91Z"/><path class="cls-78" d="M172.81,26.21c0,.2-.1.3-.2.2a.76.76,0,0,1-.2-.5c0-.2.1-.3.2-.2A.76.76,0,0,1,172.81,26.21Z"/><path class="cls-79" d="M174.81,31c0,.2-.1.3-.2.2a.76.76,0,0,1-.2-.5c0-.2.1-.3.2-.2A.76.76,0,0,1,174.81,31Z"/><path class="cls-80" d="M171.81,25.31c0,.2-.1.3-.2.2a.76.76,0,0,1-.2-.5c0-.2.1-.3.2-.2A1.06,1.06,0,0,1,171.81,25.31Z"/><path class="cls-81" d="M169.91,22c0,.2-.1.3-.2.2a.76.76,0,0,1-.2-.5c0-.2.1-.3.2-.2A.76.76,0,0,1,169.91,22Z"/><path class="cls-82" d="M169,22c0,.2-.1.3-.2.2a.76.76,0,0,1-.2-.5c0-.2.1-.3.2-.2A.76.76,0,0,1,169,22Z"/><path class="cls-83" d="M168.11,22.11c0,.2-.1.3-.2.2a.76.76,0,0,1-.2-.5c0-.2.1-.3.2-.2A.76.76,0,0,1,168.11,22.11Z"/><path class="cls-84" d="M167.61,21.81c0,.2-.1.3-.2.2a.76.76,0,0,1-.2-.5c0-.2.1-.3.2-.2A.76.76,0,0,1,167.61,21.81Z"/><path class="cls-85" d="M171.11,31.81c0,.2-.1.3-.2.2a.76.76,0,0,1-.2-.5c0-.2.1-.3.2-.2A.76.76,0,0,1,171.11,31.81Z"/><path class="cls-86" d="M168.71,22.41c0,.2-.1.3-.2.2a.76.76,0,0,1-.2-.5c0-.2.1-.3.2-.2A.76.76,0,0,1,168.71,22.41Z"/><path class="cls-87" d="M169,23.41c0,.2-.1.3-.2.2a.76.76,0,0,1-.2-.5c0-.2.1-.3.2-.2A.76.76,0,0,1,169,23.41Z"/><path class="cls-88" d="M167.61,23.81c0,.2-.1.3-.2.2a.76.76,0,0,1-.2-.5c0-.2.1-.3.2-.2A.76.76,0,0,1,167.61,23.81Z"/><path class="cls-89" d="M167.31,24.51c0,.2-.1.3-.2.2a.76.76,0,0,1-.2-.5c0-.2.1-.3.2-.2A.76.76,0,0,1,167.31,24.51Z"/><path class="cls-90" d="M167.41,25.91c0,.3-.2.4-.3.3a.78.78,0,0,1-.3-.7c0-.3.2-.4.3-.3A1.08,1.08,0,0,1,167.41,25.91Z"/><path class="cls-91" d="M163.81,26c0,.3-.2.4-.3.3a.78.78,0,0,1-.3-.7c0-.3.2-.4.3-.3A.78.78,0,0,1,163.81,26Z"/><path class="cls-92" d="M165.51,26.31c0,.3-.2.4-.3.3a.78.78,0,0,1-.3-.7c0-.3.2-.4.3-.3A1.49,1.49,0,0,1,165.51,26.31Z"/><path class="cls-93" d="M172.51,27.61c0,.3-.2.4-.3.3a.78.78,0,0,1-.3-.7c0-.3.2-.4.3-.3A1.08,1.08,0,0,1,172.51,27.61Z"/><path class="cls-94" d="M174.81,32.91c0,.3-.2.4-.3.3a.78.78,0,0,1-.3-.7c0-.3.2-.4.3-.3A2.12,2.12,0,0,1,174.81,32.91Z"/><path class="cls-95" d="M171.51,29.11c0,.3-.2.4-.3.3a.78.78,0,0,1-.3-.7c0-.3.2-.4.3-.3A1.08,1.08,0,0,1,171.51,29.11Z"/><path class="cls-96" d="M168.71,28.61c0,.3-.2.4-.3.3a.78.78,0,0,1-.3-.7c0-.3.2-.4.3-.3A1.08,1.08,0,0,1,168.71,28.61Z"/><path class="cls-97" d="M169.61,29.11c0,.3-.2.4-.3.3a.78.78,0,0,1-.3-.7c0-.3.2-.4.3-.3A2.12,2.12,0,0,1,169.61,29.11Z"/><path class="cls-98" d="M170.31,26.81c0,.3-.2.4-.3.3a.78.78,0,0,1-.3-.7c0-.3.2-.4.3-.3A1.49,1.49,0,0,1,170.31,26.81Z"/><path class="cls-99" d="M171.41,27.61c0,.3-.2.4-.3.3a.78.78,0,0,1-.3-.7c0-.3.2-.4.3-.3S171.41,27.41,171.41,27.61Z"/><path class="cls-100" d="M164.61,29.61c0,.3-.2.4-.3.3a.78.78,0,0,1-.3-.7c0-.3.2-.4.3-.3A1.14,1.14,0,0,1,164.61,29.61Z"/><path class="cls-101" d="M167.11,28.61c0,.2-.1.3-.2.2a.76.76,0,0,1-.2-.5c0-.2.1-.3.2-.2A.76.76,0,0,1,167.11,28.61Z"/><path class="cls-102" d="M167.61,22.91c0,.2-.1.3-.2.2a.76.76,0,0,1-.2-.5c0-.2.1-.3.2-.2A1.06,1.06,0,0,1,167.61,22.91Z"/><path class="cls-103" d="M167.61,28c0,.2-.1.3-.2.2a.76.76,0,0,1-.2-.5c0-.2.1-.3.2-.2A.76.76,0,0,1,167.61,28Z"/><path class="cls-104" d="M172.91,31.61c0,.2-.1.3-.2.2a.76.76,0,0,1-.2-.5c0-.2.1-.3.2-.2A1.69,1.69,0,0,1,172.91,31.61Z"/><path class="cls-105" d="M172.21,28.31c0,.2-.1.3-.2.2a.76.76,0,0,1-.2-.5c0-.2.1-.3.2-.2A1.06,1.06,0,0,1,172.21,28.31Z"/><path class="cls-106" d="M173.31,29.91c0,.2-.1.3-.2.2a.76.76,0,0,1-.2-.5c0-.2.1-.3.2-.2A.76.76,0,0,1,173.31,29.91Z"/><path class="cls-107" d="M170.41,29.61c0,.2-.1.3-.2.2a.76.76,0,0,1-.2-.5c0-.2.1-.3.2-.2A.76.76,0,0,1,170.41,29.61Z"/><path class="cls-108" d="M169.81,20.41c0,.2-.1.3-.2.2a.76.76,0,0,1-.2-.5c0-.2.1-.3.2-.2A.76.76,0,0,1,169.81,20.41Z"/><path class="cls-109" d="M168.91,20.41c0,.2-.1.3-.2.2a.76.76,0,0,1-.2-.5c0-.2.1-.3.2-.2A.76.76,0,0,1,168.91,20.41Z"/><path class="cls-110" d="M173.71,24.31l-3-1.8h0l-.5-1.1-1-.6-.3.3v.4h-.1v-.4h0l.4-.3h.1l1,.6h0l.5,1.1,3,1.7Z"/><path class="cls-111" d="M169.51,20.11l-.6-1.2-2.1-1.2.1-.1,2.1,1.2h0l.6,1.2Z"/><path class="cls-112" d="M168.51,20.11l-.7-1.4-1.1-.7.1-.1,1.2.7h0l.7,1.5Z"/><path class="cls-113" d="M168.31,25.71h-.1v-1.1h0l.4-.4h.1l1,.6-.1.1-1-.6-.4.3v1.1Z"/><path class="cls-114" d="M171.61,25.11h-.1v-.9l-.5-1v-.1h.1l2.2,1.3-.1.1-2.1-1.2.4.8h0v1Z"/><path class="cls-115" d="M174.71,30.71h-.1v-.4h0l.4-.4h.1l1,.6-.1.1-.9-.5-.4.3Z"/><path class="cls-116" d="M175.21,28.31l-3.6-2.1-.4.3h-.1l-1.8-1-.6.5h-.1l-5.1-3,.1-.1,5.1,3,.6-.5h.1l1.8,1,.4-.3h.1l3.7,2.1Z"/><path class="cls-117" d="M171,26.41h-.1v-2l-1.1-2.3.1-.1,1.1,2.3h0Z"/><path class="cls-118" d="M167.51,21.41h-.1v-.6l-.7-1.3.1-.1.7,1.3h0Z"/><path class="cls-119" d="M170.91,31.41h-.1v-.6l-.7-1.3.1-.1.7,1.3h0Z"/><path class="cls-120" d="M170.11,25.91l-.8-1.7h0v-.8l-.4-.7-2.8-1.6.1-.1,2.9,1.7h0l.4.8h0v.8l.8,1.7Z"/><path class="cls-121" d="M168,24.11h0l-.6-.3.1-.1.5.3.8-.7.1.1-.9.7Z"/><path class="cls-122" d="M167.51,23h0l.4-.5V22h.1v.5h0Z"/><polygon class="cls-123" points="166.91 24.21 165.61 21.51 165.71 21.51 167.01 24.21 166.91 24.21"/><polygon class="cls-124" points="166.71 28.31 166.31 27.41 166.41 27.41 166.81 28.21 166.71 28.31"/><path class="cls-125" d="M166.91,25.71l-2.5-1.4-.8.7v.6h-.1V25h0l.9-.8h.1l2.5,1.5Z"/><path class="cls-126" d="M164.31,29.21h-.1v-.6h0l1.4-1.2.1.1-1.4,1.2Z"/><path class="cls-127" d="M164.21,27.21h0l-1.4-.8-.5.5-.1-.1.6-.5h.1l1.3.8,2.1-1.8.1.1-2.2,1.8Z"/><path class="cls-128" d="M175.41,29.41l-5.1-3-.7.6h-.1l-1.6-.9-1.9,1.6h-.1l-1.1-.6-.7.6H164l-1-.6v.8h-.1v-1h.1l1,.6.7-.6h.1l1.1.6,1.9-1.6h.1l1.6.9.7-.6h.1l5.1,3Z"/><path class="cls-129" d="M167.51,27.61h-.1V27h0l.7-.6h.1l1.8,1.1.5-.4h.1l.6.3-.1.1-.5-.3-.5.4H170l-1.8-1.1-.6.5v.6Z"/><path class="cls-130" d="M167.51,30.81h-.1v-1.6h0l.5-.5v-1.5h0l.3-.3h.1l2,1.2.2-.2h.1l1.1.6.2-.2.1.1-.3.2h-.1l-1-.6-.2.2h-.1l-2-1.2-.3.2v1.5h0l-.5.5Z"/><path class="cls-131" d="M175.71,30,174,29l-.9.8-.1-.1,1-.8h.1l1.7,1Z"/><polygon class="cls-132" points="176.51 34.01 174.61 32.91 174.61 32.81 176.51 33.91 176.51 34.01"/><path class="cls-133" d="M176.81,33.21l-5-2.9h0l-.6-1.1.1-.1.5,1.1,4.9,2.9Z"/><path class="cls-134" d="M172.51,31.51l-1-.6h0l-.9-1.8-1.8-1-.2.2-.1-.1.2-.2h.1l1.8,1.1h0l.9,1.8,1,.6Z"/><polygon class="cls-135" points="170.01 29.51 169.51 29.21 169.51 29.11 170.11 29.41 170.01 29.51"/><path class="cls-136" d="M176.41,34.61l-4.2-2.4-.8.7-.1-.1.9-.8h.1l4.3,2.5Z"/><path class="cls-137" d="M166.61,29.81h-.1V29l-1-.6-.6.5-.1-.1.7-.6h.1l1.1.6v1Z"/><path class="cls-138" d="M169.71,24.51c0,.2-.1.3-.2.2a.76.76,0,0,1-.2-.5c0-.2.1-.3.2-.2A.76.76,0,0,1,169.71,24.51Z"/><path class="cls-139" d="M170,25.31c0,.2-.1.3-.2.2a.76.76,0,0,1-.2-.5c0-.2.1-.3.2-.2A.76.76,0,0,1,170,25.31Z"/><path class="cls-140" d="M170.61,32.31l-1.2-2-1.3-.8v1.1H168v-1.3h.1l1.4.9h0l1.2,2Z"/></g><path class="cls-141" d="M168.81,23c-1.3,3.1-4.7,4.7-8.4,4.6-.1-.1-.2-.1-.3-.2a.1.1,0,0,1-.1-.1c-.7-.4-1.3-.7-1.8-1a.1.1,0,0,1-.1-.1c-.1,0-.1-.1-.2-.1a10.26,10.26,0,0,1-4.6-7.9,3.45,3.45,0,0,1,1.2-2.9,5.53,5.53,0,0,1,2.7,1.3c0-.5.1-.9.1-1.3.2.1.3.1.5.2s.3.2.4.3a3.41,3.41,0,0,1,1.6-2.9c2.1.1,4.8,2.4,6.2,5.4a3.58,3.58,0,0,1,3.2,1A5.88,5.88,0,0,1,168.81,23Z"/><path class="cls-142" d="M167.41,22.81c-1.3,3.1-4.7,4.7-8.4,4.6-1.5-.9-2.5-1.5-2.6-1.5a10.26,10.26,0,0,1-4.6-7.9c0-1.8.8-3,2.1-3.2a4.17,4.17,0,0,1,2.5.6c.1.1.3.2.4.3a3.53,3.53,0,0,1,1.7-3,3,3,0,0,1,2.1-.2,5.23,5.23,0,0,1,1.6.6,11.36,11.36,0,0,1,4.2,4.7,2.4,2.4,0,0,1,1.2,0A8.51,8.51,0,0,1,167.41,22.81Z"/><path class="cls-74" d="M167.41,22.81c-1.3,3.1-4.7,4.7-8.4,4.6a8.79,8.79,0,0,1-1-.6,16.34,16.34,0,0,1-1.6-.9,10.26,10.26,0,0,1-4.6-7.9c0-1.8.8-3,2.1-3.2a4.17,4.17,0,0,1,2.5.6c.1.1.3.2.4.3a3.53,3.53,0,0,1,1.7-3,3,3,0,0,1,2.1-.2,5.23,5.23,0,0,1,1.6.6,10,10,0,0,1,2,1.6,13.43,13.43,0,0,1,2.2,3.1,2.4,2.4,0,0,1,1.2,0A8.51,8.51,0,0,1,167.41,22.81Z"/><path class="cls-143" d="M164.61,17.31a10,10,0,0,1-6.6,9.4,16.34,16.34,0,0,1-1.6-.9,10.26,10.26,0,0,1-4.6-7.9c0-1.8.8-3,2.1-3.2a4.17,4.17,0,0,1,2.5.6c.1.1.3.2.4.3a3.53,3.53,0,0,1,1.7-3,3,3,0,0,1,2.1-.2,5.23,5.23,0,0,1,1.6.6,10,10,0,0,1,2,1.6A13.57,13.57,0,0,1,164.61,17.31Z"/><path class="cls-56" d="M237.21,61.21l-30.3-16.8a1.61,1.61,0,0,0-2.2,1.4l.8,25.3a1,1,0,0,0,.5.8l29.7,17.6a1.47,1.47,0,0,0,1.9-1.6V62A1,1,0,0,0,237.21,61.21Z"/><path class="cls-144" d="M236.51,61.71,206,44.81a1,1,0,0,0-1.4.8v26.1a1,1,0,0,0,.5.8l30.5,16.9a1,1,0,0,0,1.4-.8V62.51A.79.79,0,0,0,236.51,61.71Z"/><path class="cls-3" d="M229.81,65.71c0,2.2-.3,8.2-3.2,10.6l-1.4,1.3-.1-.5a5.24,5.24,0,0,1-2.5,0h-.1a23.55,23.55,0,0,1-5.4-7.5,47.6,47.6,0,0,1-3.5-10.8h-.1l-2.3-1.9h0l1.8-1.6c4.4,1.7,6.8.5,7.7-.1h0a1.73,1.73,0,0,1,.4-.3h0a33,33,0,0,0,6.8,8.6c.6.5,1.2,1,1.9,1.5Z"/><path class="cls-28" d="M229.81,64.91l-1.8,1.6-1.2.2-3.9.7-.4-.5-2-2.9-.8-5.5-.3-2,1.4-1.2h0l.4-.3h0a33,33,0,0,0,6.8,8.6C228.51,63.91,229.11,64.41,229.81,64.91Z"/><path class="cls-145" d="M225.21,77.61a4.57,4.57,0,0,1-4.5,1.1,24.51,24.51,0,0,1-5.7-8,44.11,44.11,0,0,1-3.7-13.7h0c5.8,2.2,8.1-.5,8.1-.5a31.86,31.86,0,0,0,6.9,8.7c.6.5,1.1,1,1.8,1.5C228,66.51,228.41,74.41,225.21,77.61Z"/><path class="cls-146" d="M219.41,58.11s-2,2.3-6.9.4c0,0,.9,12.2,8,18.6,6.8,1.7,6.2-10.3,6.2-10.3A30.55,30.55,0,0,1,219.41,58.11Z"/><path class="cls-28" d="M220.81,67.91a.46.46,0,0,0,.3-.5,1.84,1.84,0,0,0-.9-1.4c-.5-.3-.9-.1-.9.4a1.22,1.22,0,0,0,.4.9v.1l-.4,2.1c0,.1,0,.1.1.1l1.5.9c.1.1.2,0,.2-.1l-.3-2.3C220.71,68,220.71,68,220.81,67.91Z"/><path class="cls-3" d="M220,69.81a.1.1,0,0,1-.1-.1l.4-2.1v-.1a1.8,1.8,0,0,1-.4-.9.46.46,0,0,1,.3-.5h0c-.5-.3-.9-.1-.9.4a1.22,1.22,0,0,0,.4.9v.1l-.4,2.1c0,.1,0,.1.1.1l1.5.9c.1.1.2,0,.2-.1Z"/><path class="cls-4" d="M304.12,201.33a1.76,1.76,0,0,0,.5-.4,1.91,1.91,0,0,0,.5-1v-.4a2.23,2.23,0,0,0-1-1.8l-49.1-26a.74.74,0,0,1,0-1.4l-.3-.6a1.56,1.56,0,0,0-.8,1.3,1.34,1.34,0,0,0,.8,1.3l49.1,26a1.52,1.52,0,0,1,.7,1.2,1.61,1.61,0,0,1-.5,1.1h0a.35.35,0,0,1-.2.1l-10.5,5.8a2.34,2.34,0,0,0-1,1.2,2.49,2.49,0,0,0-.1.8,2.19,2.19,0,0,0,1.3,2l15.5,7.8a1.82,1.82,0,0,1,1,1.5,1.92,1.92,0,0,1-.9,1.6L285,235.13l.3.5,24.1-13.7a2.25,2.25,0,0,0,1.2-2.1,2.19,2.19,0,0,0-1.3-2l-15.5-7.8a1.55,1.55,0,0,1-.9-1.5,1.92,1.92,0,0,1,.9-1.6Z"/><polygon class="cls-147" points="264.92 248.23 304.31 270.63 332.42 257.43 285.12 230.23 264.92 248.23"/><path class="cls-6" d="M304.92,237.23l-23.6-13.5a4.2,4.2,0,0,0-2.1-.6,4.28,4.28,0,0,0-2.2.6l-23.6,12.8a4.41,4.41,0,0,0-2.2,4,4.58,4.58,0,0,0,2.3,4l23.6,13.3a3.94,3.94,0,0,0,2.1.6,4.28,4.28,0,0,0,2.2-.6l23.6-12.6a4.58,4.58,0,0,0,2.3-4A5.14,5.14,0,0,0,304.92,237.23Z"/><path class="cls-7" d="M277,223.83l-23.5,12.8a4.36,4.36,0,0,0-1.4,1.3,4.3,4.3,0,0,0-.8,2.7,4.64,4.64,0,0,0,2.4,3.9l23.5,13.2a5.78,5.78,0,0,0,1.4.5c.2,0,.5.1.7.1a3.94,3.94,0,0,0,2.1-.6l23.4-12.6a4.49,4.49,0,0,0,1.3-1.1,4.27,4.27,0,0,0,1-2.9,4.76,4.76,0,0,0-2.3-3.9l-23.4-13.4a3.94,3.94,0,0,0-2.1-.6h-.7A7.58,7.58,0,0,0,277,223.83Z"/><path class="cls-32" d="M277.12,223.93l-23.4,12.8a4.36,4.36,0,0,0-1.4,1.3,4.3,4.3,0,0,0-.8,2.7,4.7,4.7,0,0,0,2.4,3.8l23.3,13.1a3.26,3.26,0,0,0,1.3.4h.7a5.09,5.09,0,0,0,2.1-.6l23.3-12.5,1.3-1a3.76,3.76,0,0,0,.9-2.9,4.7,4.7,0,0,0-2.4-3.8l-23.2-13.3a5.14,5.14,0,0,0-2.1-.6h-.7C278,223.53,277.52,223.73,277.12,223.93Z"/><path class="cls-33" d="M277.12,224.13l-23.4,12.7a5.53,5.53,0,0,0-1.4,1.2,3.46,3.46,0,0,0-.7,2.6,4.8,4.8,0,0,0,2.5,3.7l23.2,13.1a3.26,3.26,0,0,0,1.3.4h.7a5.09,5.09,0,0,0,2.1-.6l23.09-12.4a6.15,6.15,0,0,0,1.3-1,3.71,3.71,0,0,0,.91-2.8,4.94,4.94,0,0,0-2.41-3.7l-22.9-13.1a5.09,5.09,0,0,0-2.1-.6h-.7A3,3,0,0,0,277.12,224.13Z"/><path class="cls-34" d="M277.22,224.23l-23.3,12.7a5.53,5.53,0,0,0-1.4,1.2,3.46,3.46,0,0,0-.7,2.6c0,1.4,1.4,3,2.5,3.6l23,13a3.26,3.26,0,0,0,1.3.4h.7a5.56,5.56,0,0,0,2.1-.6l23-12.3a6.42,6.42,0,0,0,1.3-1,3.21,3.21,0,0,0,.79-2.8,4.82,4.82,0,0,0-2.4-3.6l-22.7-13a4.66,4.66,0,0,0-2-.6h-.6A2.92,2.92,0,0,0,277.22,224.23Z"/><path class="cls-10" d="M277.32,224.33,254.12,237a5.53,5.53,0,0,0-1.4,1.2,3,3,0,0,0-.6,2.6c0,1.3,1.5,2.9,2.6,3.5l22.9,12.9a3.26,3.26,0,0,0,1.3.4h.7a6.64,6.64,0,0,0,2-.6l22.8-12.2a6.42,6.42,0,0,0,1.3-1,3.13,3.13,0,0,0,.79-2.8c0-1.3-1.4-2.9-2.5-3.5l-22.5-12.9a4.66,4.66,0,0,0-2-.6h-.59A2.56,2.56,0,0,0,277.32,224.33Z"/><path class="cls-35" d="M277.32,224.43l-23.1,12.7a4.07,4.07,0,0,0-1.4,1.2,3,3,0,0,0-.6,2.6c0,1.2,1.6,2.9,2.6,3.5l22.7,12.8a3.26,3.26,0,0,0,1.3.4h.7a4.79,4.79,0,0,0,2-.7l22.7-12.2a4,4,0,0,0,1.2-1,3,3,0,0,0,.8-2.7c0-1.2-1.5-2.8-2.5-3.4l-22.3-12.7a4.66,4.66,0,0,0-2-.6c-.2,0-.5-.1-.6,0A2,2,0,0,0,277.32,224.43Z"/><path class="cls-36" d="M277.42,224.63l-23.1,12.6a5.66,5.66,0,0,0-1.5,1.2,3,3,0,0,0-.6,2.6c0,1.2,1.7,2.8,2.7,3.4l22.5,12.7a3.08,3.08,0,0,0,1.3.3h.7a5.33,5.33,0,0,0,2-.7l22.5-12.1a5.8,5.8,0,0,0,1.2-1,2.74,2.74,0,0,0,.7-2.7c0-1.2-1.6-2.8-2.6-3.3l-22-12.6a4.9,4.9,0,0,0-1.9-.7c-.2,0-.5-.1-.6,0A1.59,1.59,0,0,0,277.42,224.63Z"/><path class="cls-37" d="M277.52,224.73l-23,12.6a8.28,8.28,0,0,0-1.5,1.1,2.57,2.57,0,0,0-.5,2.5c0,1.1,1.8,2.8,2.7,3.3l22.4,12.6a3.08,3.08,0,0,0,1.3.3c.2,0,.5-.1.7-.1a4.79,4.79,0,0,0,2-.7l22.4-12a12.49,12.49,0,0,0,1.2-.9,2.74,2.74,0,0,0,.7-2.7c0-1.1-1.7-2.7-2.6-3.2L281.52,225a6.19,6.19,0,0,0-1.9-.7c-.1,0-.5-.1-.6-.1A3.33,3.33,0,0,0,277.52,224.73Z"/><path class="cls-14" d="M277.52,224.83l-22.9,12.5a8.28,8.28,0,0,0-1.5,1.1,2.35,2.35,0,0,0-.5,2.5c0,1,1.9,2.7,2.8,3.2l22.2,12.5a3.08,3.08,0,0,0,1.3.3c.2,0,.5-.1.7-.1a6.79,6.79,0,0,0,2-.7l22.2-11.9a12.49,12.49,0,0,0,1.2-.9,2.57,2.57,0,0,0,.6-2.6c0-1-1.8-2.7-2.7-3.2l-21.6-12.4a6.19,6.19,0,0,0-1.9-.7c-.1,0-.5-.1-.6-.1A8.93,8.93,0,0,1,277.52,224.83Z"/><path class="cls-15" d="M277.62,224.93l-22.9,12.5a8.28,8.28,0,0,0-1.5,1.1,2.35,2.35,0,0,0-.5,2.5c0,.9,2.1,2.7,2.8,3.1l22.1,12.4a3.08,3.08,0,0,0,1.3.3c.09,0,.5-.1.7-.1a6.19,6.19,0,0,0,1.9-.7l22.1-11.8a6.23,6.23,0,0,0,1.2-.9,2.57,2.57,0,0,0,.6-2.6c0-.9-1.91-2.6-2.7-3.1l-21.41-12.2a6.19,6.19,0,0,0-1.9-.7c-.1,0-.5-.1-.6-.1A3,3,0,0,0,277.62,224.93Z"/><path class="cls-16" d="M277.72,225.13l-22.8,12.4a8.28,8.28,0,0,0-1.5,1.1,2.12,2.12,0,0,0-.4,2.5c0,.9,2.2,2.6,2.9,3l21.9,12.4a2.77,2.77,0,0,0,1.3.3c.1,0,.5-.1.7-.1a6.19,6.19,0,0,0,1.9-.7l21.9-11.8a3.78,3.78,0,0,0,1.2-.9,2.33,2.33,0,0,0,.5-2.6c0-.9-2-2.5-2.7-3l-21.1-12.1a5.63,5.63,0,0,0-1.8-.7c-.1,0-.5-.1-.6-.1A1.74,1.74,0,0,0,277.72,225.13Z"/><path class="cls-17" d="M277.82,225.23l-22.7,12.4a8.28,8.28,0,0,0-1.5,1.1,2.12,2.12,0,0,0-.4,2.5c0,.8,2.29,2.6,3,2.9L278,256.43a1.92,1.92,0,0,0,1.3.2c.1,0,.5-.1.6-.1a10.66,10.66,0,0,0,1.9-.7l21.8-11.7a5.38,5.38,0,0,0,1.2-.9,2.28,2.28,0,0,0,.5-2.6c0-.8-2.09-2.5-2.8-2.9l-20.9-12a5.63,5.63,0,0,0-1.8-.7c-.09,0-.5-.1-.59-.1A3.19,3.19,0,0,0,277.82,225.23Z"/><path class="cls-18" d="M277.82,225.33l-22.6,12.4a7.17,7.17,0,0,0-1.5,1.1,2,2,0,0,0-.4,2.4c0,.7,2.4,2.5,3,2.9l21.6,12.2a1.91,1.91,0,0,0,1.3.2c.09,0,.5-.1.59-.1a7.94,7.94,0,0,0,1.91-.8L303.31,244a12.49,12.49,0,0,0,1.2-.8,1.89,1.89,0,0,0,.41-2.5c0-.7-2.2-2.4-2.8-2.8l-20.7-11.8a6.7,6.7,0,0,0-1.8-.7c-.1,0-.5-.1-.6-.1A1.05,1.05,0,0,0,277.82,225.33Z"/><path class="cls-19" d="M277.92,225.43l-22.6,12.3a7.84,7.84,0,0,0-1.5,1,1.85,1.85,0,0,0-.3,2.4c0,.6,2.5,2.5,3.1,2.8l21.5,12.1a1.72,1.72,0,0,0,1.2.2c.1,0,.5-.1.6-.1a7.71,7.71,0,0,0,1.9-.8l21.5-11.5a12.49,12.49,0,0,0,1.2-.8,1.89,1.89,0,0,0,.4-2.5c0-.6-2.3-2.4-2.9-2.7l-20.5-11.7c-.3-.1-1.5-.7-1.7-.7s-.5-.2-.5-.1A1.69,1.69,0,0,0,277.92,225.43Z"/><path class="cls-38" d="M278,225.63l-22.5,12.3a7.84,7.84,0,0,0-1.5,1,1.85,1.85,0,0,0-.3,2.4c0,.6,2.6,2.4,3.1,2.7l21.3,12a1.72,1.72,0,0,0,1.2.2c.1,0,.5-.2.6-.2a10.13,10.13,0,0,0,1.8-.8L303,243.83a12.7,12.7,0,0,0,1.21-.8,1.9,1.9,0,0,0,.4-2.5c0-.6-2.4-2.3-2.9-2.6l-20.2-11.6a13,13,0,0,0-1.7-.8,2.57,2.57,0,0,1-.5-.2A1.94,1.94,0,0,0,278,225.63Z"/><path class="cls-39" d="M278,225.73,255.52,238a7.84,7.84,0,0,0-1.5,1,1.73,1.73,0,0,0-.2,2.4c0,.5,2.7,2.4,3.2,2.6l21.2,11.9a1.29,1.29,0,0,0,1.2.1c.1,0,.5-.2.6-.2a14.17,14.17,0,0,0,1.8-.8l21.2-11.4c.1-.1,1.1-.7,1.2-.8a1.66,1.66,0,0,0,.3-2.4c0-.5-2.5-2.3-2.9-2.5l-20-11.5a13,13,0,0,0-1.7-.8,2.57,2.57,0,0,1-.5-.2A3.19,3.19,0,0,0,278,225.73Z"/><path class="cls-40" d="M278.12,225.83,255.72,238a13,13,0,0,0-1.5,1,1.53,1.53,0,0,0-.2,2.3c0,.4,2.9,2.3,3.2,2.5l21,11.8a1.29,1.29,0,0,0,1.2.1c.1,0,.5-.2.6-.2a14.17,14.17,0,0,0,1.8-.8l21-11.3a12.49,12.49,0,0,0,1.2-.8,1.66,1.66,0,0,0,.3-2.4c0-.4-2.6-2.2-3-2.4l-19.8-11.3a13,13,0,0,0-1.7-.8,2.57,2.57,0,0,1-.5-.2A3,3,0,0,0,278.12,225.83Z"/><path class="cls-23" d="M278.22,225.93l-22.3,12.2c-.1.1-1.5.8-1.5,1a1.53,1.53,0,0,0-.2,2.3c0,.4,3,2.3,3.3,2.4l20.8,11.8a1.67,1.67,0,0,0,1.2.1c.1,0,.5-.2.6-.2a14.17,14.17,0,0,0,1.8-.8l20.9-11.2a12.49,12.49,0,0,0,1.2-.8,1.57,1.57,0,0,0,.2-2.4c0-.4-2.7-2.1-3-2.3l-19.6-11.2a11.94,11.94,0,0,0-1.6-.8l-.5-.2A1.9,1.9,0,0,0,278.22,225.93Z"/><path class="cls-41" d="M278.22,226.13l-22.3,12.1c-.1.1-1.5.8-1.5.9a1.46,1.46,0,0,0-.1,2.3c0,.3,3.1,2.2,3.3,2.3l20.7,11.7a1.67,1.67,0,0,0,1.2.1,4.17,4.17,0,0,1,.6-.2c.1,0,1.6-.8,1.8-.8l20.7-11.1a12.75,12.75,0,0,0,1.2-.7,1.47,1.47,0,0,0,.2-2.3c0-.3-2.8-2.1-3.1-2.2l-19.3-11.1a11.94,11.94,0,0,0-1.6-.8l-.5-.2A1.05,1.05,0,0,0,278.22,226.13Z"/><path class="cls-42" d="M278.32,226.23l-22.2,12.1c-.1,0-1.5.9-1.6.9a1.46,1.46,0,0,0-.1,2.3,28.84,28.84,0,0,0,3.4,2.3l20.5,11.6a1.67,1.67,0,0,0,1.2.1,4.17,4.17,0,0,1,.6-.2,9.15,9.15,0,0,0,1.7-.9l20.6-11a12.75,12.75,0,0,0,1.2-.7,1.4,1.4,0,0,0,.1-2.3,24,24,0,0,0-3.1-2.1l-19.1-10.9c-.1,0-1.5-.8-1.6-.8l-.5-.2C279.12,225.93,278.72,226,278.32,226.23Z"/><path class="cls-43" d="M278.42,226.33l-22.1,12.1s-1.5.9-1.6.9a1.46,1.46,0,0,0-.1,2.3c0,.1,3.3,2.1,3.4,2.2l20.4,11.5a1.27,1.27,0,0,0,1.2,0,3.33,3.33,0,0,1,.6-.3,9.15,9.15,0,0,0,1.7-.9l20.4-11,1.2-.7a1.4,1.4,0,0,0,.1-2.3,32.84,32.84,0,0,0-3.1-2l-18.9-10.8c-.1,0-1.5-.8-1.6-.8l-.5-.2A1.08,1.08,0,0,0,278.42,226.33Z"/><path class="cls-26" d="M278.42,226.43l-22.1,12-1.6.9a1.31,1.31,0,0,0,0,2.2,40.5,40.5,0,0,0,3.5,2.1l20.2,11.4a1.27,1.27,0,0,0,1.2,0l.5-.3,1.7-.9,20.3-10.9,1.2-.7a1.31,1.31,0,0,0,0-2.2,33.71,33.71,0,0,0-3.2-1.9l-18.7-10.7-1.5-.8-.5-.3A1.23,1.23,0,0,0,278.42,226.43Z"/><path class="cls-27" d="M279.72,226.63a1.28,1.28,0,0,0-1.2,0l-23.6,12.8a1.31,1.31,0,0,0,0,2.2l23.6,13.3a1.28,1.28,0,0,0,1.2,0l23.6-12.6a1.31,1.31,0,0,0,0-2.2Z"/><path class="cls-44" d="M255.22,239l22.4-12.2a4.87,4.87,0,0,1,4.4,0l21.8,12.2a1.69,1.69,0,0,1,0,2.9L282,254.13a4.33,4.33,0,0,1-4.4,0L255.22,242A1.7,1.7,0,0,1,255.22,239Z"/><rect class="cls-44" x="254.32" y="237.33" width="50.3" height="3.2"/><path class="cls-6" d="M255.22,235.73l22.4-12.2a4.87,4.87,0,0,1,4.4,0l21.8,12.2a1.69,1.69,0,0,1,0,2.9L282,250.83a4.33,4.33,0,0,1-4.4,0l-22.4-12.1A1.7,1.7,0,0,1,255.22,235.73Z"/><path class="cls-29" d="M303.82,238.23l-8,4.5-13.8,7.7a4.33,4.33,0,0,1-4.4,0l-14.4-7.8-6.3-3.4-1.7-.9a1.7,1.7,0,0,1,0-3l22.4-12.2a4.87,4.87,0,0,1,4.4,0l14.2,7.9,7.6,4.3A1.69,1.69,0,0,1,303.82,238.23Z"/><path class="cls-148" d="M279.72,237.93h0c-6.5-3.5-11.7-10.5-11.5-15.6l.5-23.8,23.5,12.7-.5,23.8C291.52,240.13,286.22,241.43,279.72,237.93Z"/><polygon class="cls-148" points="286.21 214.23 292.12 211.23 289.21 239.33 283.12 242.43 286.21 214.23"/><path class="cls-149" d="M273.82,240.93h0c-6.5-3.5-11.7-10.5-11.5-15.6l.5-23.8,23.5,12.7-.5,23.8C285.62,243.13,280.32,244.43,273.82,240.93Z"/><polygon class="cls-150" points="262.71 201.53 268.62 198.53 292.12 211.23 286.21 214.23 262.71 201.53"/><path class="cls-151" d="M285.92,198.13c0-4.4-3.4-9.7-7.7-12.1-2.3-1.3-4.6-1.6-6.3-.7a4.93,4.93,0,0,0-2.5,4.7v12.4h0c0,.3.7.7,1.6.9s1.6,0,1.6-.3h0v-12.4a2.55,2.55,0,0,1,1.1-2.4,4,4,0,0,1,3.4.5c3,1.7,5.6,5.7,5.6,8.7v12.4h0c0,.3.7.7,1.59.9s1.6,0,1.6-.3v-.1h0v-12.2Z"/><path class="cls-56" d="M276.22,222.33a1.64,1.64,0,0,0,1-1.7,6.56,6.56,0,0,0-3.2-5.1c-1.8-1-3.2-.4-3.2,1.4a5.75,5.75,0,0,0,1.3,3.3c.1.1.1.2.1.4l-1.3,7.6a.72.72,0,0,0,.2.5l5.2,3.1a.46.46,0,0,0,.7-.5l-1.1-8.3A.56.56,0,0,1,276.22,222.33Z"/><path class="cls-148" d="M273.22,229a.37.37,0,0,1-.2-.5l1.3-7.6a.6.6,0,0,0-.1-.4,5.51,5.51,0,0,1-1.3-3.3c0-1,.4-1.6,1.1-1.8h-.1c-1.8-1-3.2-.4-3.2,1.4a5.75,5.75,0,0,0,1.3,3.3c.1.1.1.2.1.4l-1.3,7.6a.76.76,0,0,0,.2.5l5.2,3.1a.48.48,0,0,0,.7-.4Z"/></g></g></svg>