<svg xmlns="http://www.w3.org/2000/svg" xmlns:xlink="http://www.w3.org/1999/xlink" viewBox="0 0 210.8 238.32"><defs><style>.cls-1{fill:#a80d03;}.cls-2{fill:#fff;}.cls-3{fill:#fefefe;}.cls-4{fill:#fef9fa;}.cls-5{fill:#fef6f6;}.cls-6{fill:#fdf2f2;}.cls-7{fill:#fdf0f0;}.cls-8{fill:#fdeced;}.cls-9{fill:#fceaeb;}.cls-10{fill:#fce6e7;}.cls-11{fill:#fce3e4;}.cls-12{fill:#fbe1e2;}.cls-13{fill:#fbddde;}.cls-14{fill:#fad9da;}.cls-15{fill:#fad7d9;}.cls-16{fill:#fad4d5;}.cls-17{fill:#f9d2d3;}.cls-18,.cls-71{fill:#f9d0d1;}.cls-19{fill:#f9ccce;}.cls-20{fill:#f9cacc;}.cls-21{fill:#f8c6c8;}.cls-22{fill:#f8c3c5;}.cls-23{fill:#f7c1c3;}.cls-24{fill:#f7bdbf;}.cls-25{fill:#f7bbbd;}.cls-26{fill:#f6b7ba;}.cls-27{fill:#f6b3b6;}.cls-28{fill:#f6b2b4;}.cls-29{fill:#f5aeb0;}.cls-30{fill:#f5aaad;}.cls-31{fill:#f4a8ab;}.cls-32{fill:#f4a4a7;}.cls-33{fill:#f4a0a4;}.cls-34{fill:#f39da0;}.cls-35{fill:#f3999c;}.cls-36{fill:#f2979b;}.cls-37{fill:#f29397;}.cls-38{fill:#f18f93;}.cls-39{fill:#f18e91;}.cls-40{fill:#f18a8e;}.cls-41{fill:#f0868a;}.cls-42{fill:#f08488;}.cls-43{fill:#f08085;}.cls-44{fill:#ef7e83;}.cls-45{fill:#ef7b7f;}.cls-46{fill:#ee777b;}.cls-47{fill:#ee757a;}.cls-48{fill:#ee7176;}.cls-49{fill:#ee6f74;}.cls-50{fill:#ed6d72;}.cls-51{fill:#ed6a6f;}.cls-52{fill:#ed686d;}.cls-53{fill:#ec6469;}.cls-54{fill:#ec6066;}.cls-55{fill:#eb5e64;}.cls-56{fill:#eb5b60;}.cls-57{fill:#eb575c;}.cls-58{fill:#ea555b;}.cls-59{fill:#ea5157;}.cls-60{fill:#ea4f55;}.cls-61{fill:#e94b51;}.cls-62{fill:#e9484e;}.cls-63{fill:#e8464c;}.cls-64{fill:#e84248;}.cls-65{fill:#eed1cf;}.cls-66{fill:#e9c2bf;}.cls-67{fill:#a70b00;}.cls-68{fill:#b2281f;}.cls-69{fill:#f5acaf;}.cls-70{fill:url(#Degradado_sin_nombre_1790);}.cls-71{opacity:0.35;isolation:isolate;}.cls-72{fill:url(#Degradado_sin_nombre_1797);}.cls-73{fill:#f9ced0;}.cls-74{fill:#f8c4c6;}.cls-75{fill:#f6b5b8;}.cls-76{fill:#f29599;}.cls-77{fill:#f18c90;}.cls-78{fill:#ef7d81;}.cls-79{fill:#ee7378;}.cls-80{fill:#b83931;}.cls-81{fill:#c96a64;}.cls-82{fill:#ffc2c3;}.cls-83{fill:#ff4549;}.cls-84{fill:url(#Degradado_sin_nombre_1789);}.cls-85{fill:url(#Degradado_sin_nombre_1789-2);}.cls-86{fill:#ff0005;}.cls-87{fill:url(#Degradado_sin_nombre_1789-3);}.cls-88{fill:url(#Degradado_sin_nombre_1789-4);}.cls-89{fill:#ff3c48;}.cls-90{fill:#ff2126;}.cls-91{fill:#be4a43;}.cls-92{fill:url(#Degradado_sin_nombre_1789-5);}</style><linearGradient id="Degradado_sin_nombre_1790" x1="8654.05" y1="-6307.79" x2="8753.25" y2="-6307.79" gradientTransform="translate(8860.45 -6244.07) rotate(180)" gradientUnits="userSpaceOnUse"><stop offset="0" stop-color="#c96a64"/><stop offset="1" stop-color="#b1261c"/></linearGradient><linearGradient id="Degradado_sin_nombre_1797" x1="13.7" y1="-6462.19" x2="81.3" y2="-6462.19" gradientTransform="matrix(1, 0, 0, -1, 0, -6244.07)" gradientUnits="userSpaceOnUse"><stop offset="0" stop-color="#f1d8d6"/><stop offset="1" stop-color="#fff" stop-opacity="0"/></linearGradient><linearGradient id="Degradado_sin_nombre_1789" x1="27.12" y1="-6440.42" x2="31.96" y2="-6440.42" gradientTransform="matrix(1, 0, 0, -1, 0, -6244.07)" gradientUnits="userSpaceOnUse"><stop offset="0" stop-color="#ff8088"/><stop offset="1" stop-color="#ff4549"/></linearGradient><linearGradient id="Degradado_sin_nombre_1789-2" x1="25.78" y1="-6427.7" x2="32.57" y2="-6427.7" xlink:href="#Degradado_sin_nombre_1789"/><linearGradient id="Degradado_sin_nombre_1789-3" x1="32.98" y1="-6389.84" x2="54.42" y2="-6375.85" xlink:href="#Degradado_sin_nombre_1789"/><linearGradient id="Degradado_sin_nombre_1789-4" x1="24.63" y1="-6390.72" x2="56.97" y2="-6390.72" xlink:href="#Degradado_sin_nombre_1789"/><linearGradient id="Degradado_sin_nombre_1789-5" x1="92.3" y1="-6295.2" x2="163.02" y2="-6295.2" xlink:href="#Degradado_sin_nombre_1789"/></defs><g id="Capa_2" data-name="Capa 2"><g id="Capa_1-2" data-name="Capa 1"><path class="cls-1" d="M20.8,207.62s.1,1.8,1.6,1L67,182.42a2.12,2.12,0,0,0,0-3.6l-12.3-6.4a.74.74,0,0,1,0-1.4l18.9-9.5a1.44,1.44,0,0,0,.8-1.3,1.34,1.34,0,0,0-.8-1.3l-18-9.3c-.3-.1-.4-.4-.5-.7a.84.84,0,0,1,.4-.7l41.6-21.9a.25.25,0,0,0,.1-.4c-.1-.2-.3-.2-.5-.1l-41.6,21.9a1.56,1.56,0,0,0-.8,1.3,1.34,1.34,0,0,0,.8,1.3l18.1,9.3a.67.67,0,0,1,.4.7.84.84,0,0,1-.4.7l-18.9,9.5a1.56,1.56,0,0,0-.8,1.3,1.34,1.34,0,0,0,.8,1.3l12.2,6.4a1.38,1.38,0,0,1,0,2.4l-44.4,26a.34.34,0,0,1-.5-.3Z"/><path class="cls-2" d="M126.9,167.12a9.66,9.66,0,0,0,4.5-1.1l58.4-32.5a6.36,6.36,0,0,0,3.4-5.3,6.27,6.27,0,0,0-3.2-5.3l-82.1-47.8a9.36,9.36,0,0,0-4.5-1.1,9.66,9.66,0,0,0-4.5,1.1l-58.4,32.5a6.36,6.36,0,0,0-3.4,5.3,6.27,6.27,0,0,0,3.2,5.3L122.4,166A9.36,9.36,0,0,0,126.9,167.12Z"/><path class="cls-3" d="M98.9,75.12l-58.3,32.5a6,6,0,0,0-2.8,8,6.88,6.88,0,0,0,2.5,2.6L122.4,166a9.36,9.36,0,0,0,4.5,1.1,9.66,9.66,0,0,0,4.5-1.1l58.3-32.5a6.23,6.23,0,0,0,3.4-5.3,7,7,0,0,0-.5-2.5,6.34,6.34,0,0,0-2.6-2.8l-82-47.8a9.23,9.23,0,0,0-9.1,0Z"/><path class="cls-4" d="M99,75.12l-58.2,32.5a6.2,6.2,0,0,0-3.4,5.2,4.75,4.75,0,0,0,.6,2.6,6.59,6.59,0,0,0,2.4,2.6l82.1,47.8a9.36,9.36,0,0,0,4.5,1.1,9,9,0,0,0,4.4-1.1l58.1-32.4a6.2,6.2,0,0,0,3.4-5.2,5.59,5.59,0,0,0-.5-2.5,6.1,6.1,0,0,0-2.5-2.8l-82-47.8a9.41,9.41,0,0,0-4.5-1.2A10.66,10.66,0,0,0,99,75.12Z"/><path class="cls-5" d="M99,75.22l-58.1,32.4a6.2,6.2,0,0,0-3.4,5.2,5.75,5.75,0,0,0,.5,2.6,6.59,6.59,0,0,0,2.4,2.6l82.1,47.8a9.36,9.36,0,0,0,4.5,1.1,10.21,10.21,0,0,0,4.4-1.1l57.9-32.3a6.2,6.2,0,0,0,3.4-5.2,6.37,6.37,0,0,0-.4-2.4,5.59,5.59,0,0,0-2.5-2.8l-81.9-47.7a9.41,9.41,0,0,0-4.5-1.2A8.39,8.39,0,0,0,99,75.22Z"/><path class="cls-6" d="M99,75.32l-57.9,32.3a6.77,6.77,0,0,0-3.5,5.2,5.75,5.75,0,0,0,.5,2.6,5.4,5.4,0,0,0,2.4,2.6l82.1,47.8a9.66,9.66,0,0,0,4.5,1.1,9.33,9.33,0,0,0,4.4-1.2l57.8-32.2a5.91,5.91,0,0,0,3-7.5,5.87,5.87,0,0,0-2.4-2.8L108,75.52a9.33,9.33,0,0,0-4.4-1.2A7.83,7.83,0,0,0,99,75.32Z"/><path class="cls-7" d="M99.1,75.32l-57.9,32.3c-1.9,1.1-3.5,3.1-3.5,5.1a5.42,5.42,0,0,0,2.7,5.2l82.1,47.8a9.66,9.66,0,0,0,4.5,1.1,9.33,9.33,0,0,0,4.4-1.2l57.6-32.1c1.9-1.1,3.5-3.1,3.5-5.1a4.88,4.88,0,0,0-.4-2.4,5.38,5.38,0,0,0-2.4-2.8l-81.8-47.7a9.33,9.33,0,0,0-4.4-1.2A9.2,9.2,0,0,0,99.1,75.32Z"/><path class="cls-8" d="M99.1,75.42l-57.7,32.2a6.38,6.38,0,0,0-3.5,5.1,5.08,5.08,0,0,0,.4,2.5,5.16,5.16,0,0,0,2.3,2.6l82.1,47.8a8.53,8.53,0,0,0,4.5,1,9.33,9.33,0,0,0,4.4-1.2l57.5-32a6.14,6.14,0,0,0,3.2-7.5,5.38,5.38,0,0,0-2.4-2.8L108,75.62a9.33,9.33,0,0,0-4.4-1.2A8.53,8.53,0,0,0,99.1,75.42Z"/><path class="cls-9" d="M99.1,75.52l-57.6,32.1c-1.9,1-3.5,3.1-3.5,5a6.88,6.88,0,0,0,.3,2.5,4.94,4.94,0,0,0,2.2,2.6l82.1,47.8a8.53,8.53,0,0,0,4.5,1,9.66,9.66,0,0,0,4.4-1.2l57.3-31.9c1.8-1,3.5-3.1,3.5-5a5.83,5.83,0,0,0-.3-2.3,4.78,4.78,0,0,0-2.3-2.8L108,75.72a9.08,9.08,0,0,0-4.4-1.3A8.59,8.59,0,0,0,99.1,75.52Z"/><path class="cls-10" d="M99.2,75.52l-57.5,32c-1.8,1-3.6,3.1-3.6,5a5.24,5.24,0,0,0,.3,2.5,4.94,4.94,0,0,0,2.2,2.6l82.1,47.8a8.53,8.53,0,0,0,4.5,1,10.21,10.21,0,0,0,4.3-1.2l57.1-31.8c1.8-1,3.5-3.1,3.5-5a5.83,5.83,0,0,0-.2-2.3,4.34,4.34,0,0,0-2.3-2.7L108,75.82a9,9,0,0,0-8.8-.3Z"/><path class="cls-11" d="M99.2,75.62l-57.4,32c-1.8,1-3.6,3.1-3.6,5a6.88,6.88,0,0,0,.2,2.5,4.73,4.73,0,0,0,2.1,2.6l82.1,47.8a8.53,8.53,0,0,0,4.5,1,10.21,10.21,0,0,0,4.3-1.2l57-31.8c1.8-1,3.5-3.1,3.6-4.9a5.83,5.83,0,0,0-.2-2.3,4.17,4.17,0,0,0-2.2-2.7l-81.5-47.7a10.74,10.74,0,0,0-4.4-1.3A8.53,8.53,0,0,0,99.2,75.62Z"/><path class="cls-12" d="M99.2,75.72,42,107.62c-1.8,1-3.6,3.1-3.6,4.9a5.23,5.23,0,0,0,.2,2.5,4.73,4.73,0,0,0,2.1,2.6l82.1,47.8a8.53,8.53,0,0,0,4.5,1,10.21,10.21,0,0,0,4.3-1.2l56.8-31.7c1.8-1,3.6-3.1,3.6-4.9a6,6,0,0,0-.2-2.3,4.42,4.42,0,0,0-2.2-2.7L108.1,76a10.74,10.74,0,0,0-4.4-1.3A7.68,7.68,0,0,0,99.2,75.72Z"/><path class="cls-13" d="M99.3,75.72l-57.2,31.9c-1.7,1-3.6,3.1-3.7,4.9a4.83,4.83,0,0,0,.2,2.4,4,4,0,0,0,2.1,2.6l82.1,47.8a7.63,7.63,0,0,0,4.5.9,10.64,10.64,0,0,0,4.3-1.2l56.7-31.6c1.7-1,3.6-3.1,3.6-4.8a5.37,5.37,0,0,0-.1-2.2,4.51,4.51,0,0,0-2.1-2.7l-81.6-47.6a10.74,10.74,0,0,0-4.4-1.3A8.32,8.32,0,0,0,99.3,75.72Z"/><path class="cls-14" d="M99.3,75.82l-57,31.8c-1.7.9-3.7,3.1-3.7,4.8a6.38,6.38,0,0,0,.1,2.4,4.15,4.15,0,0,0,2,2.6l82.1,47.8a7.63,7.63,0,0,0,4.5.9,10.76,10.76,0,0,0,4.3-1.3l56.5-31.5c1.7-.9,3.6-3.1,3.6-4.8a5.37,5.37,0,0,0-.1-2.2,4.16,4.16,0,0,0-2.1-2.7l-81.4-47.4a10.3,10.3,0,0,0-4.4-1.3A8.32,8.32,0,0,0,99.3,75.82Z"/><path class="cls-15" d="M99.4,75.92l-57,31.7c-1.7.9-3.7,3.1-3.7,4.8,0,.8-.3,1.7.1,2.4a3.84,3.84,0,0,0,2,2.6l82.1,47.8a8.48,8.48,0,0,0,4.5.9,9.86,9.86,0,0,0,4.2-1.3l56.3-31.4c1.7-.9,3.6-3,3.6-4.8a5.37,5.37,0,0,0-.1-2.2,4.16,4.16,0,0,0-2.1-2.7l-81.2-47.4a10.4,10.4,0,0,0-4.3-1.4A7.36,7.36,0,0,0,99.4,75.92Z"/><path class="cls-16" d="M99.4,75.92l-56.8,31.7c-1.6.9-3.7,3.1-3.7,4.8a6.46,6.46,0,0,0,0,2.4,3.68,3.68,0,0,0,1.9,2.6l82.1,47.8a8.48,8.48,0,0,0,4.5.9,9.86,9.86,0,0,0,4.2-1.3l56.2-31.3c1.6-.9,3.7-3,3.7-4.7,0-.7.3-1.6,0-2.2a3.71,3.71,0,0,0-2-2.7l-81.3-47.3a10.4,10.4,0,0,0-4.3-1.4A6.87,6.87,0,0,0,99.4,75.92Z"/><path class="cls-17" d="M99.4,76l-56.7,31.6c-1.6.9-3.7,3.1-3.8,4.7,0,.7-.3,1.7,0,2.3a3.68,3.68,0,0,0,1.9,2.6L122.9,165a8.48,8.48,0,0,0,4.5.9,10.31,10.31,0,0,0,4.2-1.3l56-31.2c1.6-.9,3.7-3,3.7-4.7,0-.7.3-1.6,0-2.2a3.71,3.71,0,0,0-2-2.7l-81.2-47.3a10.9,10.9,0,0,0-4.3-1.4A8.51,8.51,0,0,0,99.4,76Z"/><path class="cls-18" d="M99.5,76l-56.6,31.6c-1.6.9-3.8,3.1-3.8,4.7,0,.7-.4,1.7-.1,2.3a3.42,3.42,0,0,0,1.9,2.6L123,165a8.48,8.48,0,0,0,4.5.9,12.1,12.1,0,0,0,4.2-1.3l55.9-31.1c1.6-.9,3.7-3,3.7-4.6a7.58,7.58,0,0,0,.1-2.1,3.57,3.57,0,0,0-1.9-2.7l-81.3-47.5a10.9,10.9,0,0,0-4.3-1.4A7.27,7.27,0,0,0,99.5,76Z"/><path class="cls-19" d="M99.5,76.12,43,107.62c-1.5.8-3.8,3.1-3.8,4.6,0,.7-.4,1.7-.1,2.3a3.71,3.71,0,0,0,1.8,2.6l82.1,47.8a7.41,7.41,0,0,0,4.4.8,12.1,12.1,0,0,0,4.2-1.3l55.7-31c1.5-.8,3.7-3,3.7-4.6,0-.6.4-1.5.1-2.1a3.57,3.57,0,0,0-1.9-2.7l-81.1-47.2a12.1,12.1,0,0,0-4.3-1.4A6.49,6.49,0,0,0,99.5,76.12Z"/><path class="cls-20" d="M99.5,76.22l-56.3,31.4c-1.5.8-3.8,3.1-3.8,4.6,0,.7-.5,1.7-.1,2.3a3.2,3.2,0,0,0,1.8,2.6l82.1,47.8a7.41,7.41,0,0,0,4.4.8,12.1,12.1,0,0,0,4.2-1.3l55.6-31c1.5-.8,3.7-3,3.8-4.6,0-.6.4-1.5.1-2.1a3.43,3.43,0,0,0-1.8-2.7l-81-47.2a12.1,12.1,0,0,0-4.3-1.4A8.11,8.11,0,0,0,99.5,76.22Z"/><path class="cls-21" d="M99.6,76.22l-56.3,31.4c-1.5.8-3.9,3-3.9,4.6,0,.7-.5,1.7-.2,2.2a3.29,3.29,0,0,0,1.7,2.6l82.1,47.8a7.27,7.27,0,0,0,4.4.8,11.58,11.58,0,0,0,4.1-1.3l55.4-30.9c1.5-.8,3.8-3,3.8-4.5,0-.6.4-1.5.2-2.1a3.21,3.21,0,0,0-1.8-2.7l-81-47.2a12.21,12.21,0,0,0-4.3-1.5A7.72,7.72,0,0,0,99.6,76.22Z"/><path class="cls-22" d="M99.6,76.32l-56.1,31.3c-1.4.8-3.9,3-3.9,4.5,0,.6-.5,1.6-.2,2.2a3.29,3.29,0,0,0,1.7,2.6l82.1,47.8a7.27,7.27,0,0,0,4.4.8,14,14,0,0,0,4.1-1.3l55.2-30.8c1.4-.8,3.8-3,3.8-4.5,0-.6.5-1.5.2-2a3.3,3.3,0,0,0-1.7-2.7l-80.9-47.1a12.21,12.21,0,0,0-4.3-1.5A6.78,6.78,0,0,0,99.6,76.32Z"/><path class="cls-23" d="M99.6,76.42l-56,31.2c-1.4.8-3.9,3-3.9,4.5,0,.6-.6,1.6-.3,2.2a2.94,2.94,0,0,0,1.6,2.6l82.1,47.8a7.27,7.27,0,0,0,4.4.8,11.73,11.73,0,0,0,4.1-1.4l55.1-30.7c1.4-.8,3.8-3,3.8-4.4,0-.6.5-1.5.3-2a2.91,2.91,0,0,0-1.7-2.7l-80.8-47.1a13,13,0,0,0-4.3-1.5A6.78,6.78,0,0,0,99.6,76.42Z"/><path class="cls-24" d="M99.7,76.42l-55.9,31.2c-1.4.8-3.9,3-3.9,4.4,0,.6-.6,1.6-.3,2.2a2.94,2.94,0,0,0,1.6,2.6l82.1,47.8a6.59,6.59,0,0,0,4.4.7,11.73,11.73,0,0,0,4.1-1.4l54.9-30.6c1.4-.8,3.8-3,3.9-4.4,0-.6.5-1.5.3-2a2.91,2.91,0,0,0-1.7-2.7l-80.8-47.1a12.42,12.42,0,0,0-4.2-1.5A8.44,8.44,0,0,0,99.7,76.42Z"/><path class="cls-25" d="M99.7,76.52l-55.8,31.1c-1.3.7-4,3-4,4.4,0,.6-.6,1.6-.4,2.1a2.76,2.76,0,0,0,1.6,2.6l82.1,47.8a6.59,6.59,0,0,0,4.4.7,12.47,12.47,0,0,0,4.1-1.4l54.8-30.5c1.3-.7,3.9-3,3.9-4.3,0-.6.6-1.5.3-2a2.8,2.8,0,0,0-1.6-2.7l-80.7-47a12.42,12.42,0,0,0-4.2-1.5A7,7,0,0,0,99.7,76.52Z"/><path class="cls-26" d="M99.7,76.62l-55.6,31c-1.3.7-4,3-4,4.4,0,.6-.7,1.6-.4,2.1a2.6,2.6,0,0,0,1.5,2.5l82.1,47.8a6.59,6.59,0,0,0,4.4.7,11.23,11.23,0,0,0,4-1.4l54.6-30.4c1.3-.7,3.9-3,3.9-4.3,0-.5.6-1.5.4-1.9a2.8,2.8,0,0,0-1.6-2.7l-80.7-47a12.42,12.42,0,0,0-4.2-1.5A6.78,6.78,0,0,0,99.7,76.62Z"/><path class="cls-27" d="M99.8,76.62l-55.6,31c-1.3.7-4,3-4,4.3,0,.6-.7,1.6-.5,2.1a2.32,2.32,0,0,0,1.5,2.5l82.1,47.8a6.59,6.59,0,0,0,4.4.7,13.58,13.58,0,0,0,4-1.4l54.4-30.3c1.3-.7,3.9-3,3.9-4.3,0-.5.6-1.5.4-1.9a2.7,2.7,0,0,0-1.5-2.7l-80.6-47a12.61,12.61,0,0,0-4.2-1.6A8.25,8.25,0,0,0,99.8,76.62Z"/><path class="cls-28" d="M99.8,76.72l-55.4,30.9c-1.2.7-4,3-4.1,4.3,0,.6-.8,1.6-.5,2.1a2.36,2.36,0,0,0,1.4,2.5l82.1,47.8a6.59,6.59,0,0,0,4.4.7,13.58,13.58,0,0,0,4-1.4l54.3-30.2c1.2-.7,3.9-2.9,3.9-4.2,0-.5.7-1.4.4-1.9a2.63,2.63,0,0,0-1.5-2.7l-80.4-47c-.8-.4-3.2-1.6-4.2-1.6A7.48,7.48,0,0,0,99.8,76.72Z"/><path class="cls-29" d="M99.9,76.82l-55.4,30.8c-1.2.7-4.1,3-4.1,4.2,0,.5-.8,1.6-.5,2a2.36,2.36,0,0,0,1.4,2.5l82.1,47.8a7.36,7.36,0,0,0,4.4.7,13.58,13.58,0,0,0,4-1.4l54.1-30.2c1.2-.7,4-2.9,4-4.2,0-.5.7-1.4.5-1.9a2.69,2.69,0,0,0-1.4-2.7l-80.5-46.9a14.09,14.09,0,0,0-4.2-1.6A7.31,7.31,0,0,0,99.9,76.82Z"/><path class="cls-30" d="M99.9,76.82l-55.2,30.8c-1.2.6-4.1,3-4.1,4.2,0,.5-.8,1.6-.6,2a2.24,2.24,0,0,0,1.4,2.5l82.1,47.8a6.65,6.65,0,0,0,4.4.6,13.58,13.58,0,0,0,4-1.4l54-30.1c1.2-.6,4-2.9,4-4.1,0-.5.7-1.4.5-1.9a2.24,2.24,0,0,0-1.4-2.6l-80.4-46.9a15.21,15.21,0,0,0-4.2-1.6A7.69,7.69,0,0,0,99.9,76.82Z"/><path class="cls-31" d="M99.9,76.92l-55.1,30.7c-1.1.6-4.1,3-4.1,4.2,0,.5-.9,1.6-.6,2a2.16,2.16,0,0,0,1.3,2.5l82.1,47.8a6.65,6.65,0,0,0,4.4.6,13.76,13.76,0,0,0,4-1.5l53.8-30c1.1-.6,4-2.9,4-4.1,0-.5.8-1.4.6-1.8a2.24,2.24,0,0,0-1.4-2.6l-80.4-46.8a15.21,15.21,0,0,0-4.2-1.6A6.73,6.73,0,0,0,99.9,76.92Z"/><path class="cls-32" d="M100,77l-55,30.6c-1.1.6-4.2,3-4.2,4.1,0,.5-.9,1.5-.7,2a2.06,2.06,0,0,0,1.3,2.5L123.5,164a6.65,6.65,0,0,0,4.4.6,12.18,12.18,0,0,0,3.9-1.5l53.7-29.9c1.1-.6,4-2.9,4-4,0-.5.8-1.4.6-1.8a2.17,2.17,0,0,0-1.3-2.6L108.5,78c-.7-.4-3.3-1.7-4.2-1.7A6,6,0,0,0,100,77Z"/><path class="cls-33" d="M100,77l-54.9,30.6c-1.1.6-4.2,3-4.2,4.1,0,.5-.9,1.5-.7,2a2.09,2.09,0,0,0,1.2,2.5L123.5,164a6.65,6.65,0,0,0,4.4.6,13.16,13.16,0,0,0,3.9-1.5l53.5-29.8c1.1-.6,4-2.9,4.1-4,0-.4.8-1.4.6-1.8a2.21,2.21,0,0,0-1.3-2.6l-80.2-46.7a16.18,16.18,0,0,0-4.1-1.7A6.13,6.13,0,0,0,100,77Z"/><path class="cls-33" d="M100,77.12l-54.7,30.5c-1,.6-4.2,3-4.2,4,0,.5-1,1.5-.8,1.9a1.91,1.91,0,0,0,1.2,2.5l82.1,47.8a6.65,6.65,0,0,0,4.4.6,13.16,13.16,0,0,0,3.9-1.5l53.3-29.7c1-.6,4.1-2.9,4.1-4,0-.4.9-1.4.7-1.8.4-.9-.1-1.9-1.2-2.6l-80.2-46.7a14.8,14.8,0,0,0-4.1-1.7A7.81,7.81,0,0,0,100,77.12Z"/><path class="cls-34" d="M100.1,77.12l-54.7,30.5c-1,.6-4.2,3-4.2,4,0,.5-1,1.5-.8,1.9a1.94,1.94,0,0,0,1.1,2.5l82.1,47.8a6.07,6.07,0,0,0,4.4.5,16.61,16.61,0,0,0,3.9-1.5l53.2-29.6c1-.6,4.1-2.9,4.1-3.9,0-.4.9-1.4.7-1.7.4-.9,0-1.9-1.2-2.6l-80.1-46.7a14.8,14.8,0,0,0-4.1-1.7A6.62,6.62,0,0,0,100.1,77.12Z"/><path class="cls-35" d="M100.1,77.22l-54.5,30.4c-1,.5-4.3,3-4.3,4,0,.4-1.1,1.5-.9,1.9a1.94,1.94,0,0,0,1.1,2.5l82.1,47.8a6.07,6.07,0,0,0,4.4.5,16.61,16.61,0,0,0,3.9-1.5l53-29.5c1-.5,4.1-2.9,4.1-3.9,0-.4.9-1.4.8-1.7a2.08,2.08,0,0,0-1.1-2.6l-80.1-46.6c-.6-.3-3.3-1.7-4.1-1.7A5.63,5.63,0,0,0,100.1,77.22Z"/><path class="cls-36" d="M100.1,77.32l-54.4,30.3c-.9.5-4.3,3-4.3,3.9,0,.4-1.1,1.5-.9,1.9a1.88,1.88,0,0,0,1.1,2.5l82.1,47.8a6.07,6.07,0,0,0,4.4.5,18.48,18.48,0,0,0,3.9-1.5l52.9-29.5c.9-.5,4.1-2.9,4.1-3.8,0-.4,1-1.3.8-1.7a2,2,0,0,0-1.1-2.6l-80-46.6a20.88,20.88,0,0,0-4.1-1.7A6.39,6.39,0,0,0,100.1,77.32Z"/><path class="cls-37" d="M100.2,77.32l-54.3,30.3c-.9.5-4.3,3-4.3,3.9,0,.4-1.1,1.5-.9,1.8a1.83,1.83,0,0,0,1,2.5l82.1,47.8a6.07,6.07,0,0,0,4.4.5,15.85,15.85,0,0,0,3.8-1.5l52.7-29.4c.9-.5,4.2-2.9,4.2-3.8,0-.4,1-1.3.8-1.7.5-.9.1-1.9-1.1-2.6l-79.9-46.5a18.89,18.89,0,0,0-4.1-1.8A6.62,6.62,0,0,0,100.2,77.32Z"/><path class="cls-38" d="M100.2,77.42,46,107.62c-.9.5-4.3,3-4.4,3.8,0,.4-1.2,1.5-1,1.8a1.76,1.76,0,0,0,1,2.5l82.1,47.8a6.07,6.07,0,0,0,4.4.5,16.07,16.07,0,0,0,3.8-1.6l52.5-29.3c.9-.5,4.2-2.9,4.2-3.8,0-.4,1-1.3.9-1.6.5-.9.2-1.9-1-2.6l-79.9-46.5a18.89,18.89,0,0,0-4.1-1.8A6.61,6.61,0,0,0,100.2,77.42Z"/><path class="cls-39" d="M100.3,77.52l-54.1,30.1c-.8.5-4.4,2.9-4.4,3.8,0,.4-1.2,1.5-1,1.8a1.78,1.78,0,0,0,.9,2.5l82.1,47.8a5.59,5.59,0,0,0,4.4.4,18,18,0,0,0,3.8-1.6l52.4-29.2c.8-.5,4.2-2.9,4.2-3.7,0-.3,1.1-1.3.9-1.6.5-.9.2-1.9-1-2.6l-79.8-46.5a18.89,18.89,0,0,0-4.1-1.8A6.44,6.44,0,0,0,100.3,77.52Z"/><path class="cls-40" d="M100.3,77.52l-54,30.1c-.8.4-4.4,2.9-4.4,3.8,0,.4-1.2,1.4-1.1,1.8-.6.8-.3,1.9.9,2.5l82.1,47.8a5.59,5.59,0,0,0,4.4.4,18,18,0,0,0,3.8-1.6l52.2-29.1c.8-.4,4.2-2.8,4.2-3.7,0-.3,1.1-1.3.9-1.6.6-.9.2-1.9-.9-2.6l-79.8-46.5a18.89,18.89,0,0,0-4.1-1.8A6.19,6.19,0,0,0,100.3,77.52Z"/><path class="cls-41" d="M100.3,77.62l-53.8,30c-.8.4-4.4,2.9-4.4,3.7,0,.3-1.3,1.4-1.1,1.7-.6.8-.3,1.8.8,2.5l82.1,47.8a6.05,6.05,0,0,0,4.4.4,18,18,0,0,0,3.8-1.6l52.1-29c.8-.4,4.2-2.8,4.3-3.6,0-.3,1.1-1.3,1-1.6.6-.8.3-1.9-.9-2.6l-79.7-46.4a20.44,20.44,0,0,0-4-1.8A7.21,7.21,0,0,0,100.3,77.62Z"/><path class="cls-42" d="M100.4,77.72l-53.8,29.9c-.7.4-4.5,2.9-4.5,3.7,0,.3-1.3,1.4-1.2,1.7-.6.8-.3,1.8.8,2.5l82.1,47.8a6.05,6.05,0,0,0,4.4.4,15.33,15.33,0,0,0,3.7-1.6l51.9-28.9c.7-.4,4.3-2.8,4.3-3.6,0-.3,1.1-1.3,1-1.5.6-.8.3-1.9-.8-2.6l-79.6-46.4a20.44,20.44,0,0,0-4-1.8A5.39,5.39,0,0,0,100.4,77.72Z"/><path class="cls-43" d="M100.4,77.72l-53.6,29.9c-.7.4-4.5,2.9-4.5,3.6,0,.3-1.4,1.4-1.2,1.7-.6.8-.4,1.8.8,2.5l82.1,47.8a6.05,6.05,0,0,0,4.4.4,24.3,24.3,0,0,0,3.7-1.6l51.8-28.8c.7-.4,4.3-2.8,4.3-3.5,0-.3,1.2-1.3,1.1-1.5.6-.8.4-1.9-.8-2.6l-79.6-46.4a20.88,20.88,0,0,0-4-1.9A6.37,6.37,0,0,0,100.4,77.72Z"/><path class="cls-44" d="M100.4,77.82l-53.5,29.8c-.7.4-4.5,2.9-4.5,3.6,0,.3-1.4,1.4-1.3,1.7-.7.8-.4,1.8.7,2.5l82.1,47.8a6.05,6.05,0,0,0,4.4.4A24.3,24.3,0,0,0,132,162l51.6-28.7c.7-.4,4.3-2.8,4.3-3.5,0-.3,1.2-1.3,1.1-1.5.7-.8.4-1.9-.8-2.6l-79.5-46.3a29.28,29.28,0,0,0-4-1.9A5.42,5.42,0,0,0,100.4,77.82Z"/><path class="cls-45" d="M100.5,77.92l-53.4,29.7c-.6.3-4.5,2.9-4.5,3.6,0,.3-1.4,1.4-1.3,1.6-.7.8-.5,1.8.7,2.5l82.1,47.8a5.58,5.58,0,0,0,4.4.3,24.3,24.3,0,0,0,3.7-1.6l51.4-28.7c.6-.3,4.3-2.8,4.3-3.5,0-.3,1.2-1.2,1.1-1.5.7-.8.5-1.9-.7-2.6l-79.5-46.3a29.28,29.28,0,0,0-4-1.9A6.44,6.44,0,0,0,100.5,77.92Z"/><path class="cls-46" d="M100.5,77.92l-53.3,29.7c-.6.3-4.6,2.9-4.6,3.5,0,.3-1.5,1.4-1.3,1.6-.7.8-.5,1.8.6,2.5L124,163a5.58,5.58,0,0,0,4.4.3,24.3,24.3,0,0,0,3.7-1.6l51.3-28.6c.6-.3,4.4-2.8,4.4-3.4,0-.3,1.3-1.2,1.2-1.5.7-.8.5-1.9-.7-2.6l-79.4-46.3a29.28,29.28,0,0,0-4-1.9A6.76,6.76,0,0,0,100.5,77.92Z"/><path class="cls-47" d="M100.5,78l-53.1,29.6c-.6.3-4.6,2.9-4.6,3.5,0,.3-1.5,1.4-1.4,1.6-.8.8-.6,1.8.6,2.5L124.1,163a5.58,5.58,0,0,0,4.4.3,30.44,30.44,0,0,0,3.7-1.7l51.1-28.5c.6-.3,4.4-2.8,4.4-3.4,0-.2,1.3-1.2,1.2-1.4.8-.8.5-1.9-.6-2.6l-79.4-46.1a24.57,24.57,0,0,0-4-1.9A5.64,5.64,0,0,0,100.5,78Z"/><path class="cls-48" d="M100.6,78.12l-53,29.6c-.5.3-4.6,2.9-4.6,3.4,0,.2-1.5,1.4-1.4,1.6-.8.8-.6,1.8.6,2.5L124.3,163a5.58,5.58,0,0,0,4.4.3,23.68,23.68,0,0,0,3.6-1.7l51-28.4c.5-.3,4.4-2.8,4.4-3.3,0-.2,1.3-1.2,1.3-1.4.8-.8.6-1.9-.6-2.6l-79.3-46.2a24.57,24.57,0,0,0-4-1.9A5.83,5.83,0,0,0,100.6,78.12Z"/><path class="cls-49" d="M100.6,78.12l-52.9,29.5c-.5.3-4.6,2.9-4.6,3.4,0,.2-1.6,1.3-1.5,1.5-.8.8-.6,1.8.5,2.5l82.1,47.8a5.58,5.58,0,0,0,4.4.3,23.68,23.68,0,0,0,3.6-1.7l50.8-28.3c.5-.3,4.4-2.8,4.4-3.3,0-.2,1.4-1.2,1.3-1.4a1.49,1.49,0,0,0-.5-2.5L109,79.72a29.86,29.86,0,0,0-4-2A6.14,6.14,0,0,0,100.6,78.12Z"/><path class="cls-50" d="M100.7,78.22l-52.9,29.4c-.5.3-4.7,2.9-4.7,3.4,0,.2-1.6,1.3-1.5,1.5-.8.8-.7,1.8.5,2.5l82.1,47.8a5.19,5.19,0,0,0,4.4.2,23.68,23.68,0,0,0,3.6-1.7l50.6-28.2c.5-.3,4.5-2.8,4.5-3.2,0-.2,1.4-1.2,1.3-1.4a1.46,1.46,0,0,0-.5-2.5l-79.2-46.1a36,36,0,0,0-3.9-2A5.4,5.4,0,0,0,100.7,78.22Z"/><path class="cls-51" d="M100.7,78.32,48,107.62c-.4.2-4.7,2.9-4.7,3.3,0,.2-1.7,1.3-1.6,1.5-.9.8-.7,1.8.4,2.5l82.1,47.8a5.21,5.21,0,0,0,4.4.2c.3,0,3.3-1.6,3.6-1.7l50.5-28.1c.4-.2,4.5-2.8,4.5-3.2,0-.2,1.4-1.2,1.4-1.3a1.44,1.44,0,0,0-.4-2.5L109.1,80a36,36,0,0,0-3.9-2A5.83,5.83,0,0,0,100.7,78.32Z"/><path class="cls-52" d="M100.7,78.32l-52.6,29.3c-.4.2-4.7,2.9-4.7,3.3,0,.2-1.7,1.3-1.6,1.5-.9.8-.8,1.8.4,2.5l82.1,47.8a5.21,5.21,0,0,0,4.4.2c.3,0,3.3-1.6,3.6-1.7l50.3-28c.4-.2,4.5-2.8,4.5-3.2,0-.2,1.5-1.2,1.4-1.3.9-.8.8-1.8-.4-2.5l-79-46c-.2-.1-3.6-2-3.9-2A5.08,5.08,0,0,0,100.7,78.32Z"/><path class="cls-53" d="M100.8,78.42l-52.5,29.2c-.4.2-4.7,2.9-4.8,3.3,0,.2-1.7,1.3-1.7,1.5-.9.7-.8,1.8.3,2.5l82.1,47.8a5.21,5.21,0,0,0,4.4.2,37.78,37.78,0,0,0,3.5-1.7l50.2-28c.4-.2,4.5-2.7,4.5-3.1,0-.2,1.5-1.2,1.4-1.3.9-.8.8-1.8-.4-2.5l-79-46c-.2-.1-3.6-2-3.9-2A4.28,4.28,0,0,0,100.8,78.42Z"/><path class="cls-54" d="M100.8,78.42l-52.4,29.2c-.3.2-4.8,2.9-4.8,3.2s-1.8,1.3-1.7,1.4c-1,.7-.9,1.8.3,2.5l82.1,47.8a5.21,5.21,0,0,0,4.4.2,37.78,37.78,0,0,0,3.5-1.7l50-27.9c.3-.2,4.5-2.7,4.5-3.1,0-.1,1.5-1.1,1.5-1.3,1-.8.8-1.8-.3-2.5l-78.9-46c-.2-.1-3.6-2-3.9-2A5.83,5.83,0,0,0,100.8,78.42Z"/><path class="cls-55" d="M100.8,78.52l-52.2,29.1c-.3.2-4.8,2.9-4.8,3.2,0,.1-1.8,1.3-1.7,1.4-1,.7-.9,1.8.3,2.5l82.1,47.8a5.6,5.6,0,0,0,4.4.2c.2,0,3.3-1.7,3.5-1.8l49.9-27.8c.3-.2,4.6-2.7,4.6-3,0-.1,1.6-1.1,1.5-1.2,1-.7.9-1.8-.3-2.5l-79-46c-.2-.1-3.7-2.1-3.9-2.1A5.64,5.64,0,0,0,100.8,78.52Z"/><path class="cls-56" d="M100.9,78.62l-52.1,29a44.12,44.12,0,0,0-4.8,3.1c0,.1-1.8,1.3-1.8,1.4-1,.7-.9,1.8.2,2.5l82.1,47.8a5.2,5.2,0,0,0,4.4.1c.2,0,3.3-1.7,3.5-1.8L182.1,133c.3-.1,4.6-2.7,4.6-3,0-.1,1.6-1.1,1.6-1.2,1-.7.9-1.8-.2-2.5l-79-45.8c-.2-.1-3.7-2.1-3.9-2.1A5,5,0,0,0,100.9,78.62Z"/><path class="cls-57" d="M100.9,78.62l-52,29c-.2.1-4.9,2.8-4.9,3.1,0,.1-1.9,1.3-1.8,1.4-1,.7-1,1.8.2,2.5l82.1,47.8a5.2,5.2,0,0,0,4.4.1c.2,0,3.3-1.7,3.5-1.8l49.5-27.6c.2-.1,4.6-2.7,4.6-3,0-.1,1.6-1.1,1.6-1.2,1-.7,1-1.8-.2-2.5l-78.8-45.8c-.1-.1-3.7-2.1-3.9-2.1A5,5,0,0,0,100.9,78.62Z"/><path class="cls-58" d="M100.9,78.72,49,107.62c-.2.1-4.9,2.8-4.9,3.1a21.41,21.41,0,0,1-1.9,1.3c-1.1.7-1,1.8.1,2.5l82.1,47.8a5.2,5.2,0,0,0,4.4.1c.2,0,3.3-1.7,3.5-1.8l49.4-27.5a51.56,51.56,0,0,0,4.6-2.9c0-.1,1.7-1.1,1.6-1.2,1.1-.7,1-1.8-.1-2.5l-78.7-45.8c-.1-.1-3.7-2.1-3.9-2.1A5,5,0,0,0,100.9,78.72Z"/><path class="cls-59" d="M101,78.82l-51.8,28.8c-.2.1-4.9,2.8-4.9,3s-1.9,1.2-1.9,1.3c-1.1.7-1.1,1.8.1,2.5l82.1,47.8a5.2,5.2,0,0,0,4.4.1c.1,0,3.3-1.7,3.4-1.8l49.2-27.4a53.5,53.5,0,0,0,4.7-2.9c0-.1,1.7-1.1,1.7-1.2,1.1-.7,1.1-1.8-.1-2.5l-78.6-45.8c-.1-.1-3.7-2.1-3.8-2.1A5.41,5.41,0,0,0,101,78.82Z"/><path class="cls-60" d="M101,78.82l-51.7,28.8c-.1.1-4.9,2.8-4.9,3s-2,1.2-2,1.3c-1.1.7-1.1,1.8.1,2.5l82.1,47.8a5,5,0,0,0,4.3.1c.1,0,3.3-1.8,3.4-1.8l49.1-27.3c.1-.1,4.7-2.7,4.7-2.8a16.29,16.29,0,0,1,1.7-1.1c1.1-.7,1.1-1.8-.1-2.5L109.1,81c-.1,0-3.7-2.1-3.8-2.1A4.38,4.38,0,0,0,101,78.82Z"/><path class="cls-61" d="M101.1,78.92l-51.6,28.7c-.1.1-5,2.8-5,2.9a22.63,22.63,0,0,0-2,1.3c-1.1.7-1.2,1.8,0,2.5l82.1,47.8a4.66,4.66,0,0,0,4.3,0c.1,0,3.3-1.8,3.4-1.8l48.9-27.2c.1-.1,4.7-2.7,4.7-2.8l1.8-1.1c1.1-.7,1.2-1.8,0-2.5L109.2,81c-.1,0-3.7-2.2-3.8-2.2A5,5,0,0,0,101.1,78.92Z"/><path class="cls-62" d="M101.1,79l-51.5,28.6c-.1,0-5,2.8-5,2.9s-2.1,1.2-2,1.2a1.32,1.32,0,0,0,0,2.5L124.7,162a4.66,4.66,0,0,0,4.3,0c.1,0,3.3-1.8,3.4-1.8L181.1,133c.1,0,4.7-2.7,4.7-2.7l1.8-1.1a1.32,1.32,0,0,0,0-2.5L109.2,81l-3.8-2.2A5.39,5.39,0,0,0,101.1,79Z"/><path class="cls-63" d="M101.1,79l-51.3,28.6s-5,2.8-5,2.9l-2.1,1.2c-1.2.7-1.2,1.8-.1,2.5L124.7,162a4.66,4.66,0,0,0,4.3,0s3.3-1.8,3.4-1.9L181,133l4.7-2.7,1.8-1.1c1.2-.7,1.2-1.8.1-2.5L109.2,81l-3.8-2.2A5.41,5.41,0,0,0,101.1,79Z"/><path class="cls-64" d="M187.6,126.92l-82.1-47.8a4.66,4.66,0,0,0-4.3,0l-58.4,32.5c-1.2.7-1.3,1.8-.1,2.5l82.1,47.8a4.66,4.66,0,0,0,4.3,0l58.4-32.5C188.7,128.72,188.8,127.62,187.6,126.92Z"/><path class="cls-65" d="M208.1,47.12,129.8,1.52A4.6,4.6,0,0,0,123,4s3.3-3,5.3-1.8l78.3,45.6a5.5,5.5,0,0,1,2.7,4.8l-19.6,70.6a2.15,2.15,0,0,1-2.1,1.4c1.5.7,3-.2,3.6-1.9l19.6-70.8A5.5,5.5,0,0,0,208.1,47.12Z"/><path class="cls-19" d="M187.6,124.42l-82.1-47.8a4.66,4.66,0,0,0-4.3,0l-58.4,32.5c-1.2.7-1.3,1.8-.1,2.5l82.1,47.8a4.66,4.66,0,0,0,4.3,0l58.4-32.5C188.7,126.22,188.8,125.12,187.6,124.42Z"/><path class="cls-66" d="M180.9,125.32l-77.5-45.1a.91.91,0,0,0-1,0l-34,19a1,1,0,0,0,0,1.8l77.5,45.1a.91.91,0,0,0,1,0l34-19A1,1,0,0,0,180.9,125.32Z"/><path class="cls-65" d="M113.9,129.62l-19.3-11.3a6.37,6.37,0,0,0-5.4,0L73.6,127c-1.5.8-1.6,2.2-.1,3.1l19.3,11.3a6.37,6.37,0,0,0,5.4,0l15.6-8.7C115.3,131.82,115.3,130.52,113.9,129.62Z"/><path class="cls-2" d="M113.9,130.22l-19.3-11.3a6.37,6.37,0,0,0-5.4,0l-15.6,8.7c-1.5.8-1.6,2.2-.1,3.1L92.8,142a6.37,6.37,0,0,0,5.4,0l15.6-8.7C115.3,132.42,115.3,131.12,113.9,130.22Z"/><path class="cls-65" d="M187.5,126.92l-58.4,32.5a4.66,4.66,0,0,1-4.3,0s-82.4-48.1-82.5-48.1-.2-.2-.2-.3h0c-.1-.1-.1-.2-.2-.6v1.9a1.71,1.71,0,0,0,.9,1.4c.1,0,81.9,47.8,81.9,47.8a4.66,4.66,0,0,0,4.3,0L187.4,129a1.88,1.88,0,0,0,1-1.2l.1-2A2.39,2.39,0,0,1,187.5,126.92Z"/><path class="cls-67" d="M178.3,126.42l-3,1.6c-.1,0-.2.1-.3.1h-.6a.35.35,0,0,1-.2-.1l-3.7-2.1a.1.1,0,0,1-.1-.1l2.6-1.4c.2-.1.2-.2.2-.3v-1c0,.1-.1.2-.2.3l-3,1.6c-.1,0-.2.1-.3.1h-.6a.35.35,0,0,1-.2-.1l-3.7-2.1a.1.1,0,0,1-.1-.1l2.6-1.4c.2-.1.2-.2.2-.3v-1c0,.1-.1.2-.2.3l-3,1.6c-.1,0-.2.1-.3.1h-.6c-.1,0-.2,0-.2-.1l-3.7-2.1a.1.1,0,0,1-.1-.1l2.6-1.4c.2-.1.2-.2.2-.3v-1c0,.1-.1.2-.2.3l-3,1.6c-.1,0-.2.1-.3.1h-.6c-.1,0-.2,0-.2-.1l-3.7-2.1a.1.1,0,0,1-.1-.1l2.6-1.4c.2-.1.2-.2.2-.3v-1c0,.1,0,.1-.1.2s-.1.1-.2.1l-3,1.6c-.1,0-.2.1-.3.1h-.6a.35.35,0,0,1-.2-.1l-3.7-2.1a.1.1,0,0,1-.1-.1l2.6-1.4c.2-.1.2-.2.2-.3v-1c0,.1,0,.1-.1.2s-.1.1-.2.1l-3,1.6c-.1,0-.2.1-.3.1h-.6a.35.35,0,0,1-.2-.1l-3.7-2.1c-.1,0-.1-.1-.2-.1l2.6-1.4c.2-.1.2-.2.2-.3v-1c0,.1-.1.2-.2.3l-3,1.6c-.1,0-.2.1-.3.1h-.6a.35.35,0,0,1-.2-.1l-3.7-2.1a.1.1,0,0,1-.1-.1l2.6-1.4c.2-.1.2-.2.2-.3v-1c0,.1-.1.2-.2.3l-3,1.6c-.1,0-.2.1-.3.1H137a.35.35,0,0,1-.2-.1l-3.7-2.1a.1.1,0,0,1-.1-.1l2.6-1.4c.2-.1.2-.2.2-.3v-1c0,.1-.1.2-.2.3l-3,1.6c-.1,0-.2.1-.3.1h-.6c-.1,0-.2,0-.2-.1l-3.7-2.1a.1.1,0,0,1-.1-.1l2.6-1.4c.2-.1.2-.2.2-.3v-1c0,.1-.1.2-.2.3l-3,1.6c-.1,0-.2.1-.3.1h-.6c-.1,0-.2,0-.2-.1l-3.7-2.1a.1.1,0,0,1-.1-.1l2.6-1.4c.2-.1.2-.2.2-.3v-1c0,.1-.1.2-.2.3L122,98c-.1,0-.2.1-.3.1h-.6a.35.35,0,0,1-.2-.1l-3.7-2.1a.1.1,0,0,1-.1-.1l2.6-1.4c.2-.1.2-.2.2-.3v-1c0,.1-.1.2-.2.3l-3,1.6c-.1,0-.2.1-.3.1h-.6a.35.35,0,0,1-.2-.1l-3.7-2.1c-.1,0-.1-.1-.2-.1h0l2.5-1.4c.2-.1.2-.2.2-.3v-1c0,.1-.1.2-.2.3l-3,1.6c-.1,0-.2.1-.3.1h-.6c-.1,0-.2,0-.2-.1l-3.7-2.1a.1.1,0,0,1-.1-.1l2.6-1.4c.2-.1.2-.2.2-.3v-1c0,.1-.1.2-.2.3l-3,1.6c-.1,0-.2.1-.3.1H105c-.1,0-.2,0-.2-.1l-3.7-2.1-.1-.1,2.6-1.4c.2-.1.2-.2.2-.3v-1c0,.1-.1.2-.2.3l-3,1.6c-.1,0-.2.1-.3.1h-.6a.35.35,0,0,1-.2-.1l-3.7-2.1c-.1,0-.1-.1-.2-.1h0v.8h0v.1a.1.1,0,0,1,.1.1h0l3.7,2.1c.1,0,.1.1.2.1h.8a.1.1,0,0,0,.1-.1l.2-.1v.7h0v.1a.1.1,0,0,1,.1.1h0l3.7,2.1c.1,0,.1.1.2.1h.7a.1.1,0,0,0,.1-.1l.3-.2v.8h0v.1a.1.1,0,0,1,.1.1h0l1.6.9-.1.1-3,1.7c-.1,0-.2.1-.3.1h-.6a.35.35,0,0,1-.2-.1l-12.4-7.2c-.1,0-.1-.1-.2-.1h0c0-.1-.1-.1-.1-.2v1h0v.1a.1.1,0,0,1,.1.1h0l3.6,2.1-.1.1-3,1.7c-.1,0-.2.1-.3.1h-.6c-.1,0-.2,0-.2-.1l-4-2.3c-.1,0-.1-.1-.2-.1h0c0-.1-.1-.1,0-.2v1h0l.1.1.1.1h0l2.4,1.4-.1.1-7.5,4.2c-.1,0-.2.1-.3.1H80c-.1,0-.2-.1-.3-.1l-2.8-1.6c-.1,0-.1-.1-.2-.1h0a.35.35,0,0,1-.1-.2v1h0l.1.1h0l2.4,1.4-.1.1-7.5,4.2c-.1,0-.2.1-.3.1h-.6a.35.35,0,0,1-.2-.1l-2.8-1.6c-.1,0-.1-.1-.2-.1h0v.8h0l.1.1a.1.1,0,0,1,.1.1h0l2.8,1.6c.1,0,.1.1.2.1h.8a.1.1,0,0,0,.1-.1l4.7-2.6v.7h0v.1a.1.1,0,0,1,.1.1h0l4.2,2.4c.1,0,.1.1.2.1h.7a.1.1,0,0,0,.1-.1l.3-.2v.8h0l.1.1.1.1h0l2.1,1.2c.1,0,.1.1.2.1h.8a.1.1,0,0,0,.1-.1l.5-.3v1h0v.1a.1.1,0,0,1,.1.1h0l.6.4-.1.1-3,1.6c-.1,0-.2.1-.3.1h-.6a.35.35,0,0,1-.2-.1l-3.7-2.1a.1.1,0,0,1-.1-.1l2.6-1.4c.2-.1.2-.2.2-.3v-1c0,.1-.1.2-.2.3l-3,1.6c-.1,0-.2.1-.3.1h-.6a.35.35,0,0,1-.2-.1l-3.7-2.1c-.1,0-.1-.1-.2-.1h0c0-.1-.1-.1,0-.2v1h0v.1a.1.1,0,0,1,.1.1h0l3.7,2.1c.1,0,.1.1.2.1h.9a.1.1,0,0,0,.1-.1l.3-.2v.8h0l.1.1.1.1h0l3.7,2.1c.1,0,.1.1.2.1h.7a.1.1,0,0,0,.1-.1l.4-.2v.9h0l.1.1a.1.1,0,0,1,.1.1h0l3.7,2.1c.1,0,.1.1.2.1h.8a.1.1,0,0,0,.1-.1l.3-.2v.8h0v.1l.1.1h0l3.7,2.1a.31.31,0,0,1,.2.1h.7a.1.1,0,0,0,.1-.1l.3-.2v.8h0v.1a.1.1,0,0,1,.1.1h0l24.7,14.4c.1,0,.1.1.2.1h.8a.1.1,0,0,0,.1-.1l.3-.2v.8h0a.1.1,0,0,1,.1.1h0l3.7,2.1c.1,0,.1.1.2.1h.7a.1.1,0,0,0,.1-.1l.3-.2v.8h0v.1a.1.1,0,0,1,.1.1h0l3.7,2.1c.1,0,.1.1.2.1h.7a.1.1,0,0,0,.1-.1l.3-.2v.8h0v.1a.1.1,0,0,1,.1.1h0l3.7,2.1c.1,0,.1.1.2.1h.9a.1.1,0,0,0,.1-.1l.3-.2v.8h0a.1.1,0,0,1,.1.1h0l3.7,2.1a.35.35,0,0,0,.2.1h.9a.1.1,0,0,0,.1-.1l.3-.2v.9h0l.1.1h0l2.8,1.7a.35.35,0,0,0,.2.1h.7a.1.1,0,0,0,.1-.1l3-1.6c.2-.1.2-.2.2-.3v-1h.3a.1.1,0,0,0,.1-.1l3-1.6c.2-.1.2-.2.2-.3v-.7l1.1.7c.1,0,.1.1.2.1h.9l3-1.6c.2-.1.2-.2.2-.3v-.7l.2.1a.35.35,0,0,0,.2.1h.7a.1.1,0,0,0,.1-.1l3-1.6c.2-.1.2-.2.2-.3v-.7l.2.1a.35.35,0,0,0,.2.1h.7a.1.1,0,0,0,.1-.1l3-1.6c.2-.1.2-.2.2-.3v-1c0,.1-.1.2-.2.3l-3,1.6c-.1,0-.2.1-.3.1h-.6c-.1,0-.2,0-.2-.1l-8-4.7c-.1,0-.1-.1-.2-.1h0l2.5-1.4c.2-.1.2-.2.2-.3v-.7l2.9,1.7c.1,0,.1.1.2.1h.7a.1.1,0,0,0,.1-.1l.3-.2v.8h0l.1.1h0l3.7,2.1c.1,0,.1.1.2.1h1a.1.1,0,0,0,.1-.1h.1l2.9-1.6c.2-.1.2-.2.2-.3v-.7l1.9,1.1a.35.35,0,0,0,.2.1h.7a.1.1,0,0,0,.1-.1l3-1.6c.2-.1.2-.2.2-.3v-1C178.5,126.22,178.4,126.32,178.3,126.42Zm-71.4-31.2-4,2.2v1l1.4-.8v.9h0l.1.1.1.1h0l1.6.9-.1.1-3,1.6c-.1,0-.2.1-.3.1h-.6a.35.35,0,0,1-.2-.1l-7.3-4.2c-.1,0-.1-.1-.2-.1h0v.8h0v.1a.1.1,0,0,1,.1.1h0l3.3,1.9-.1.1-3,1.6c-.1,0-.2.1-.3.1h-.6c-.1,0-.2,0-.2-.1l-4.8-2.8c-.1,0-.1-.1-.2-.1h0v-.1l2.5-1.4c.2-.1.2-.2.2-.3v-.7l.2.1a.31.31,0,0,1,.2.1h.9a.1.1,0,0,0,.1-.1l3-1.6c.2-.1.2-.2.2-.3v-.7l1.3.8c.1,0,.1.1.2.1h.7a.1.1,0,0,0,.1-.1l3-1.6c.2-.1.2-.2.2-.3v-.7l3.2,1.9c.1,0,.1.1.2.1h.8a.1.1,0,0,0,.1-.1l.3-.2v.8h0v.1a.1.1,0,0,1,.1.1h0l.8.6Z"/><path class="cls-68" d="M87.7,94.32h0l-.1-.1h0v-.8l-4.5,2.2.1.1,4,2.3c.1,0,.1.1.2.1H88c.1,0,.2-.1.3-.1l3-1.6.1-.1-3.7-2Z"/><path class="cls-68" d="M93.4,92.42h0l-.1-.1h0v-.7l-.2.1a.1.1,0,0,0-.1.1h-.7c-.1,0-.1,0-.2-.1l-1.4-.8v.7c0,.1-.1.2-.2.3l-2.6,1.4.1.1,4,2.3a.35.35,0,0,1,.2.1h.6c.1,0,.2-.1.3-.1l3-1.6.1-.1-2.8-1.6Z"/><path class="cls-68" d="M96.2,89.52c0,.1-.1.2-.2.3l-2.6,1.4.1.1,4,2.3c.1,0,.1.1.2.1h.6c.1,0,.2-.1.3-.1l3-1.6a.1.1,0,0,0,.1-.1l-5.3-3.1Z"/><path class="cls-68" d="M103.3,103.12h0v-.8l-.3.2a.1.1,0,0,0-.1.1h-.7c-.1,0-.1,0-.2-.1l-3.8-2.2v.7c0,.1-.1.2-.2.3l-2.5,1.4h0c0,.1.1.1.2.1l3.7,2.1c.1,0,.1.1.2.1h.6c.1,0,.2-.1.3-.1l3-1.6c-.3,0-.2-.1-.2-.2Z"/><path class="cls-68" d="M105.9,109.92h0l-.1-.1h0V109l-.3.2a.1.1,0,0,0-.1.1h-.9c-.1,0-.1,0-.2-.1l-2-1.2v.7c0,.1-.1.2-.2.3l-2.6,1.4.1.1,3.7,2.1c.1,0,.1.1.2.1h.6c.1,0,.2-.1.3-.1l3-1.6a.1.1,0,0,0,.1-.1l-1.6-1Z"/><path class="cls-68" d="M111.2,113h0l-.1-.1h0v-.8l-.3.2a.1.1,0,0,0-.1.1h-.9c-.1,0-.1,0-.2-.1l-2-1.2v.7c0,.1-.1.2-.2.3l-2.6,1.4.1.1,3.7,2.1c.1,0,.1.1.2.1h.6c.1,0,.2-.1.3-.1l3-1.6a.1.1,0,0,0,.1-.1l-1.6-1Z"/><path class="cls-68" d="M116.4,116.12c0-.1-.1-.1,0,0l-.1-.1h0v-.8l-.3.2a.1.1,0,0,0-.1.1h-.8c-.1,0-.1,0-.2-.1l-2-1.2v.7c0,.1-.1.2-.2.3l-2.6,1.4.1.1,3.7,2.1c.1,0,.1.1.2.1h.6c.1,0,.2-.1.3-.1l3-1.6a.1.1,0,0,0,.1-.1l-1.7-1Z"/><path class="cls-68" d="M121.7,119.12h0l-.1-.1h0v-.8l-.3.2a.1.1,0,0,0-.1.1h-.8c-.1,0-.1,0-.2-.1l-2-1.2v.7c0,.1-.1.2-.2.3l-2.6,1.4.1.1,3.7,2.1c.1,0,.1.1.2.1h.6c.1,0,.2-.1.3-.1l3-1.6a.1.1,0,0,0,.1-.1l-1.7-1Z"/><path class="cls-68" d="M126.9,122.22h0l-.1-.1h0v-.8l-.3.2h-.9c-.1,0-.1,0-.2-.1l-2-1.1v.7c0,.1-.1.2-.2.3l-2.6,1.4a.35.35,0,0,0,.2.1l3.7,2.1c.1,0,.1.1.2.1h.6c.1,0,.2-.1.3-.1l3-1.6a.1.1,0,0,0,.1-.1l-1.8-1Z"/><path class="cls-68" d="M132.2,125.22h0l-.1-.1h0v-.8l-.3.2a.1.1,0,0,0-.1.1H131c-.1,0-.1,0-.2-.1l-2-1.2v.7c0,.1-.1.2-.2.3l-2.6,1.4.1.1,3.7,2.1a.35.35,0,0,1,.2.1h.6c.1,0,.2-.1.3-.1l3-1.6a.1.1,0,0,0,.1-.1l-1.8-1Z"/><path class="cls-68" d="M137.4,128.32h0l-.1-.1h0v-.8l-.3.2a.1.1,0,0,0-.1.1h-.7c-.1,0-.1,0-.2-.1l-2-1.1v.7c0,.1-.1.2-.2.3l-2.6,1.4.1.1,3.7,2.1c.1,0,.1.1.2.1h.6c.1,0,.2-.1.3-.1l3-1.6a.1.1,0,0,0,.1-.1l-1.8-1.1Z"/><path class="cls-68" d="M142.7,131.42c-.1,0-.1-.1,0,0l-.1-.1h0v-.8l-.3.2a.1.1,0,0,0-.1.1h-.8c-.1,0-.1,0-.2-.1l-2-1.2v.7c0,.1-.1.2-.2.3l-2.6,1.4.1.1,3.7,2.1c.1,0,.1.1.2.1h.6c.1,0,.2-.1.3-.1l3-1.6a.1.1,0,0,0,.1-.1l-1.7-1Z"/><path class="cls-68" d="M148,134.52h0l-.1-.1h0v-.9l-.4.2a.1.1,0,0,0-.1.1h-.7c-.1,0-.1,0-.2-.1l-2-1.2v.7c0,.1-.1.2-.2.3l-2.6,1.4.1.1,3.7,2.1c.1,0,.1.1.2.1h.6c.1,0,.2-.1.3-.1l3-1.6a.1.1,0,0,0,.1-.1l-1.7-.9Z"/><path class="cls-68" d="M153.7,122.32h0l-.1-.1h0v-.8l-.3.2a.1.1,0,0,0-.1.1h-.8c-.1,0-.1,0-.2-.1l-2.9-1.7v.7c0,.1-.1.2-.2.3l-2.6,1.4.1.1,3.7,2.1c.1,0,.1.1.2.1h.6c.1,0,.2-.1.3-.1l3-1.6a.1.1,0,0,0,.1-.1l-.8-.5Z"/><path class="cls-68" d="M148.5,119.32c0-.1-.1-.1,0,0l-.1-.1h0v-.8l-.3.2a.1.1,0,0,0-.1.1h-.7c-.1,0-.1,0-.2-.1l-2.9-1.7v.7c0,.1-.1.2-.2.3l-2.6,1.4.1.1,3.7,2.1a.35.35,0,0,1,.2.1h.6c.1,0,.2-.1.3-.1l3-1.6a.1.1,0,0,0,.1-.1l-.9-.5Z"/><path class="cls-68" d="M143.2,116.22h0l-.1-.1h0v-.8l-.3.2a.1.1,0,0,0-.1.1h-.8c-.1,0-.1,0-.2-.1l-3-1.7v.7c0,.1-.1.2-.2.3l-2.6,1.4a.35.35,0,0,0,.2.1l3.7,2.1c.1,0,.1.1.2.1h.6c.1,0,.2-.1.3-.1l3-1.6a.1.1,0,0,0,.1-.1l-.8-.5Z"/><path class="cls-68" d="M138,113.12h0l-.1-.1h0v-.8l-.3.2a.1.1,0,0,0-.1.1h-.8c-.1,0-.1,0-.2-.1l-2.9-1.7v.7c0,.1-.1.2-.2.3l-2.6,1.4.1.1,3.7,2.1c.1,0,.1.1.2.1h.6c.1,0,.2-.1.3-.1l3-1.6a.1.1,0,0,0,.1-.1l-.8-.5Z"/><path class="cls-68" d="M132.7,110.12h0l-.1-.1h0v-.8l-.3.2a.1.1,0,0,0-.1.1h-.7c-.1,0-.1,0-.2-.1l-2.9-1.7v.7c0,.1-.1.2-.2.3l-2.6,1.4.1.1,3.7,2.1c.1,0,.1.1.2.1h.6c.1,0,.2-.1.3-.1l3-1.6.1-.1-.9-.5Z"/><path class="cls-68" d="M127.5,107h0l-.1-.1h0v-.8l-.3.2a.1.1,0,0,0-.1.1h-.7c-.1,0-.1,0-.2-.1l-2.9-1.7v.7c0,.1-.1.2-.2.3l-2.6,1.4.1.1,3.7,2.1a.35.35,0,0,1,.2.1h.6c.1,0,.2-.1.3-.1l3-1.6.1-.1-.9-.5Z"/><path class="cls-68" d="M122.2,104c0-.1-.1-.1,0,0l-.1-.1h0v-.8l-.3.2a.1.1,0,0,0-.1.1h-.8c-.1,0-.1,0-.2-.1l-2.9-1.7v.7c0,.1-.1.2-.2.3L115,104l.1.1,3.7,2.1a.35.35,0,0,1,.2.1h.6c.1,0,.2-.1.3-.1l3-1.6.1-.1-.8-.5Z"/><path class="cls-68" d="M117,100.92c-.1,0-.1-.1,0,0l-.1-.1h0V100l-.3.2a.1.1,0,0,0-.1.1h-.7c-.1,0-.1,0-.2-.1l-2.9-1.7v.7c0,.1-.1.2-.2.3l-2.6,1.4.1.1,3.7,2.1c.1,0,.1.1.2.1h.6c.1,0,.2-.1.3-.1l3-1.6.1-.1-.9-.5Z"/><path class="cls-68" d="M111.7,97.82h0l-.1-.1h0v-.8l-.3.2a.1.1,0,0,0-.1.1h-.7c-.1,0-.1,0-.2-.1l-3-1.7v.7c0,.1-.1.2-.2.3l-2.5,1.4h0a.35.35,0,0,0,.2.1l3.7,2.1c.1,0,.1.1.2.1h.6c.1,0,.2-.1.3-.1l3-1.6.1-.1-1-.5Z"/><path class="cls-68" d="M109.7,101.82h0l-.1-.1h0v-.8l-.3.2a.1.1,0,0,0-.1.1h-.7c-.1,0-.1,0-.2-.1l-1.9-1.1v.7c0,.1-.1.2-.2.3l-2.6,1.4.1.1,3.7,2.1c.1,0,.1.1.2.1h.6c.1,0,.2-.1.3-.1l3-1.6a.1.1,0,0,0,.1-.1l-1.9-1.1Z"/><path class="cls-68" d="M113.8,109.22h0v-.8l-.3.2a.1.1,0,0,0-.1.1h-.8c-.1,0-.1,0-.2-.1l-3.7-2.1h0l-.1-.1v.7c0,.1-.1.2-.2.3l-2.6,1.4.1.1,3.7,2.1a.35.35,0,0,1,.2.1h.6c.1,0,.2-.1.3-.1l3-1.6s.1,0,.1-.2Z"/><path class="cls-68" d="M119,112.32h0v-.8l-.3.2a.1.1,0,0,0-.1.1h-.7c-.1,0-.1,0-.2-.1l-3.7-2.1h-.1v.7c0,.1-.1.2-.2.3l-2.6,1.4.1.1,3.7,2.1c.1,0,.1.1.2.1h.6c.1,0,.2-.1.3-.1l3-1.6v-.3Z"/><path class="cls-68" d="M124.3,115.42h0v-.8l-.3.2a.1.1,0,0,0-.1.1H123c-.1,0-.1,0-.2-.1l-3.7-2.1h0l-.1-.1v.7c0,.1-.1.2-.2.3l-2.6,1.4.1.1,3.7,2.1c.1,0,.1.1.2.1h.6c.1,0,.2-.1.3-.1l3-1.6c.1-.1.2-.1.2-.2Z"/><path class="cls-68" d="M129.6,117.62l-.3.2a.1.1,0,0,0-.1.1h-.7c-.1,0-.1,0-.2-.1l-3.7-2.1h-.1v.7c0,.1-.1.2-.2.3l-2.6,1.4.1.1,3.7,2.1c.1,0,.1.1.2.1h.6c.1,0,.2-.1.3-.1l3-1.6a.1.1,0,0,0,.1-.1h0Z"/><path class="cls-68" d="M134.8,121.52h0v-.8l-.3.2a.1.1,0,0,0-.1.1h-.8c-.1,0-.1,0-.2-.1l-3.7-2.1h0a.1.1,0,0,1-.1-.1v.7c0,.1-.1.2-.2.3l-2.6,1.4c0,.1.1.1.2.1l3.7,2.1c.1,0,.1.1.2.1h.6c.1,0,.2-.1.3-.1l3-1.6c-.1-.1,0-.1,0-.2Z"/><path class="cls-68" d="M140,124.52h0v-.8l-.3.2a.1.1,0,0,0-.1.1h-.7c-.1,0-.1,0-.2-.1l-3.7-2.1h-.1v.7c0,.1-.1.2-.2.3l-2.6,1.4.1.1,3.7,2.1a.35.35,0,0,1,.2.1h.6c.1,0,.2-.1.3-.1l3-1.6v-.3Z"/><path class="cls-68" d="M145.3,127.62h0v-.8l-.3.2a.1.1,0,0,0-.1.1h-.7c-.1,0-.1,0-.2-.1l-3.7-2.1h0l-.1-.1v.7c0,.1-.1.2-.2.3l-2.6,1.4.1.1,3.7,2.1c.1,0,.1.1.2.1h.6c.1,0,.2-.1.3-.1l3-1.6v-.2Z"/><path class="cls-68" d="M146.5,123.32h0l-.1-.1h0v-.8l-.3.2h-.8c-.1,0-.1,0-.2-.1l-1.9-1.1v.7c0,.1-.1.2-.2.3l-2.6,1.4.1.1,3.7,2.1c.1,0,.1.1.2.1h.6c.1,0,.2-.1.3-.1l3-1.6a.1.1,0,0,0,.1-.1l-1.9-1Z"/><path class="cls-68" d="M141.2,120.22h0l-.1-.1h0v-.8l-.3.2a.1.1,0,0,0-.1.1H140c-.1,0-.1,0-.2-.1l-1.9-1.1v.7c0,.1-.1.2-.2.3l-2.6,1.4.1.1,3.7,2.1a.35.35,0,0,1,.2.1h.6c.1,0,.2-.1.3-.1l3-1.6a.1.1,0,0,0,.1-.1l-1.9-1.1Z"/><path class="cls-68" d="M136,117.12h0l-.1-.1h0v-.8l-.3.2a.1.1,0,0,0-.1.1h-.7c-.1,0-.1,0-.2-.1l-1.9-1.1v.7c0,.1-.1.2-.2.3l-2.6,1.4a.35.35,0,0,0,.2.1l3.7,2.1c.1,0,.1.1.2.1h.6c.1,0,.2-.1.3-.1l3-1.6a.1.1,0,0,0,.1-.1l-2-1.1Z"/><path class="cls-68" d="M130.7,114.12h0l-.1-.1h0v-.8l-.3.2a.1.1,0,0,0-.1.1h-.8c-.1,0-.1,0-.2-.1l-1.9-1.1v.7c0,.1-.1.2-.2.3l-2.6,1.4.1.1,3.7,2.1c.1,0,.1.1.2.1h.6c.1,0,.2-.1.3-.1l3-1.6a.1.1,0,0,0,.1-.1l-1.8-1.1Z"/><path class="cls-68" d="M125.5,111h0l-.1-.1h0v-.8l-.3.2a.1.1,0,0,0-.1.1h-.8c-.1,0-.1,0-.2-.1l-1.9-1.1v.7c0,.1-.1.2-.2.3l-2.6,1.4.1.1,3.7,2.1c.1,0,.1.1.2.1h.6c.1,0,.2-.1.3-.1l3-1.6a.1.1,0,0,0,.1-.1l-1.8-1.1Z"/><path class="cls-68" d="M120.2,108c0-.1-.1-.1,0,0l-.1-.1h0v-.8l-.3.2a.1.1,0,0,0-.1.1H119c-.1,0-.1,0-.2-.1l-1.9-1.1v.7c0,.1-.1.2-.2.3l-2.6,1.4.1.1,3.7,2.1c.1,0,.1.1.2.1h.6c.1,0,.2-.1.3-.1l3-1.6a.1.1,0,0,0,.1-.1l-1.9-1.1Z"/><path class="cls-68" d="M115,104.92h0l-.1-.1h0V104l-.3.2a.1.1,0,0,0-.1.1h-.9c-.1,0-.1,0-.2-.1l-1.9-1.1v.7c0,.1-.1.2-.2.3l-2.6,1.4.1.1,3.7,2.1a.35.35,0,0,1,.2.1h.6c.1,0,.2-.1.3-.1l3-1.6a.1.1,0,0,0,.1-.1l-1.7-1.1Z"/><path class="cls-68" d="M151.7,126.32h0l-.1-.1h0v-.8l-.3.2a.1.1,0,0,0-.1.1h-.7c-.1,0-.1,0-.2-.1l-1.9-1.1v.7c0,.1-.1.2-.2.3l-2.6,1.4.1.1,3.7,2.1a.35.35,0,0,1,.2.1h.6c.1,0,.2-.1.3-.1l3-1.6a.1.1,0,0,0,.1-.1l-1.9-1.1Z"/><path class="cls-68" d="M150.5,130.72h0v-.8l-.3.2a.1.1,0,0,0-.1.1h-.8c-.1,0-.1,0-.2-.1l-3.7-2.1h-.1v.7c0,.1-.1.2-.2.3l-2.6,1.4.1.1,3.7,2.1c.1,0,.1.1.2.1h.6c.1,0,.2-.1.3-.1l3-1.6c.1-.2.1-.2.1-.3Z"/><path class="cls-68" d="M108.5,106.22h0v-.8l-.3.2a.1.1,0,0,0-.1.1h-.7c-.1,0-.1,0-.2-.1l-3.7-2.1h-.1v.7c0,.1-.1.2-.2.3l-2.6,1.4.1.1,3.7,2.1c.1,0,.1.1.2.1h.6c.1,0,.2-.1.3-.1l3-1.6v-.3Z"/><path class="cls-68" d="M112.7,93.32c0-.1-.1-.1,0,0l-.1-.1h0v-.8l-.4.2a.1.1,0,0,0-.1.1h-.8c-.1,0-.1,0-.2-.1l-1.9-1.1v.7c0,.1-.1.2-.2.3l-2.6,1.4h0c0,.1.1.1.2.1l3.7,2.1c.1,0,.1.1.2.1h.6c.1,0,.2-.1.3-.1l3-1.6a.1.1,0,0,0,.1-.1l-1.8-1.1Z"/><path class="cls-68" d="M117.9,96.32h0l-.1-.1h0v-.8l-.3.2a.1.1,0,0,0-.1.1h-.7c-.1,0-.1,0-.2-.1l-1.9-1.1v.7c0,.1-.1.2-.2.3l-2.6,1.4.1.1,3.7,2.1c.1,0,.1.1.2.1h.6c.1,0,.2-.1.3-.1l3-1.6a.1.1,0,0,0,.1-.1l-1.9-1.1Z"/><path class="cls-68" d="M123.2,99.42c0-.1-.1-.1,0,0l-.1-.1h0v-.8l-.3.2a.1.1,0,0,0-.1.1h-.8c-.1,0-.1,0-.2-.1l-1.9-1.1v.7c0,.1-.1.2-.2.3L117,100l.1.1,3.7,2.1c.1,0,.1.1.2.1h.6c.1,0,.2-.1.3-.1l3-1.6a.1.1,0,0,0,.1-.1l-1.8-1.1Z"/><path class="cls-68" d="M128.5,102.42h0l-.1-.1h0v-.8l-.3.2a.1.1,0,0,0-.1.1h-.7c-.1,0-.1,0-.2-.1l-1.9-1.1v.7c0,.1-.1.2-.2.3l-2.6,1.4.1.1,3.7,2.1c.1,0,.1.1.2.1h.6c.1,0,.2-.1.3-.1l3-1.6a.1.1,0,0,0,.1-.1l-1.9-1.1Z"/><path class="cls-68" d="M133.7,105.52h0l-.1-.1h0v-.8l-.3.2a.1.1,0,0,0-.1.1h-.7c-.1,0-.1,0-.2-.1l-1.9-1.1v.7c0,.1-.1.2-.2.3l-2.6,1.4.1.1,3.7,2.1c.1,0,.1.1.2.1h.6c.1,0,.2-.1.3-.1l3-1.6a.1.1,0,0,0,.1-.1l-1.9-1.1Z"/><path class="cls-68" d="M139,108.52h0l-.1-.1h0v-.8l-.3.2a.1.1,0,0,0-.1.1h-.7c-.1,0-.1,0-.2-.1l-1.9-1.1v.7c0,.1-.1.2-.2.3l-2.6,1.4.1.1,3.7,2.1c.1,0,.1.1.2.1h.6c.1,0,.2-.1.3-.1l3-1.6a.1.1,0,0,0,.1-.1l-1.9-1.1Z"/><path class="cls-68" d="M144.2,111.62h0l-.1-.1h0v-.8l-.3.2a.1.1,0,0,0-.1.1H143c-.1,0-.1,0-.2-.1l-1.9-1.1v.7c0,.1-.1.2-.2.3l-2.6,1.4.1.1,3.7,2.1c.1,0,.1.1.2.1h.6c.1,0,.2-.1.3-.1l3-1.6a.1.1,0,0,0,.1-.1l-1.9-1.1Z"/><path class="cls-68" d="M149.5,114.72c-.1,0-.1-.1,0,0l-.1-.1h0v-.8l-.3.2a.1.1,0,0,0-.1.1h-.8c-.1,0-.1,0-.2-.1l-1.9-1.1v.7c0,.1-.1.2-.2.3l-2.6,1.4.1.1,3.7,2.1c.1,0,.1.1.2.1h.6c.1,0,.2-.1.3-.1l3-1.6a.1.1,0,0,0,.1-.1l-1.8-1.1Z"/><path class="cls-68" d="M154.7,117.72h0l-.1-.1h0v-.8l-.3.2a.1.1,0,0,0-.1.1h-.7c-.1,0-.1,0-.2-.1l-1.9-1.1v.7c0,.1-.1.2-.2.3l-2.6,1.4.1.1,3.7,2.1c.1,0,.1.1.2.1h.6c.1,0,.2-.1.3-.1l3-1.6a.1.1,0,0,0,.1-.1l-1.9-1.1Z"/><path class="cls-68" d="M160,120.82c-.1,0-.1-.1,0,0l-.1-.1h0v-.8l-.3.2a.1.1,0,0,0-.1.1h-.7c-.1,0-.1,0-.2-.1l-1.9-1.1v.7c0,.1-.1.2-.2.3l-2.6,1.4.1.1,3.7,2.1c.1,0,.1.1.2.1h.6c.1,0,.2-.1.3-.1l3-1.6a.1.1,0,0,0,.1-.1l-1.9-1.1Z"/><path class="cls-68" d="M170.5,126.92h0l-.1-.1h0V126l-.3.2a.1.1,0,0,0-.1.1h-.7c-.1,0-.1,0-.2-.1l-1.9-1.1v.7c0,.1-.1.2-.2.3l-2.6,1.4.1.1,3.7,2.1c.1,0,.1.1.2.1h.6c.1,0,.2-.1.3-.1l3-1.6a.1.1,0,0,0,.1-.1l-1.9-1.1Z"/><path class="cls-68" d="M165.2,123.92h0l-.1-.1h0V123l-.3.2a.1.1,0,0,0-.1.1H164c-.1,0-.1,0-.2-.1l-1.9-1.1v.7c0,.1-.1.2-.2.3l-2.6,1.4.1.1,3.7,2.1a.35.35,0,0,1,.2.1h.6c.1,0,.2-.1.3-.1l3-1.6a.1.1,0,0,0,.1-.1l-1.9-1.1Z"/><path class="cls-68" d="M159,125.42h0l-.1-.1h0v-.8l-.3.2a.1.1,0,0,0-.1.1h-.8c-.1,0-.1,0-.2-.1l-2.9-1.7v.7c0,.1-.1.2-.2.3l-2.6,1.4.1.1,3.7,2.1c.1,0,.1.1.2.1h.6c.1,0,.2-.1.3-.1l3-1.6a.1.1,0,0,0,.1-.1l-.8-.5Z"/><path class="cls-68" d="M157.1,129.42h0l-.1-.1h0v-.9l-.4.2a.1.1,0,0,0-.1.1h-.7c-.1,0-.1,0-.2-.1l-1.9-1.1v.7c0,.1-.1.2-.2.3l-2.6,1.4.1.1,3.7,2.1c.1,0,.1.1.2.1h.6c.1,0,.2-.1.3-.1l3-1.6a.1.1,0,0,0,.1-.1l-1.8-1Z"/><path class="cls-68" d="M158.7,131.12c0,.1-.1.2-.2.3l-2.6,1.4.1.1,4.6,2.7c.1,0,.1.1.2.1h.6c.1,0,.2-.1.3-.1l3-1.6a.1.1,0,0,0,.1-.1l-6-3.5Z"/><path class="cls-68" d="M156,134h0l-.1-.1h0v-.8l-.3.2a.1.1,0,0,0-.1.1h-.7c-.1,0-.1,0-.2-.1l-3.7-2.1h0l-.1-.1v.7c0,.1-.1.2-.2.3l-2.5,1.4h0c0,.1.1.1.2.1l8,4.7c.1,0,.1.1.2.1h.6c.1,0,.2-.1.3-.1l3-1.6a.1.1,0,0,0,.1-.1L156,134Z"/><path class="cls-68" d="M149.6,136.22c0,.1-.1.2-.2.3l-2.6,1.4.1.1,3.7,2.1c.1,0,.1.1.2.1h.6c.1,0,.2-.1.3-.1l3-1.6a.1.1,0,0,0,.1-.1l-5.1-3Z"/><path class="cls-68" d="M151.1,141.32h-.5c-.1,0-.1,0-.2-.1l-3.7-2.1h0a.1.1,0,0,1-.1-.1v.7c0,.1-.1.2-.2.3l-2.6,1.4.1.1,2.8,1.7c.1,0,.1.1.2.1h.6c.1,0,.2-.1.3-.1l3-1.6q.45-.15.3-.3Z"/><path class="cls-68" d="M146.7,138.82h0V138l-.3.2a.1.1,0,0,0-.1.1h-.8c-.1,0-.1,0-.2-.1l-3.7-2.1h0a.1.1,0,0,1-.1-.1v.7c0,.1-.1.2-.2.3l-2.6,1.4.1.1,3.7,2.1c.1,0,.1.1.2.1h.6c.1,0,.2-.1.3-.1l3-1.6a.35.35,0,0,0,.1-.2Z"/><path class="cls-68" d="M141.4,135.72h0v-.8l-.3.2a.1.1,0,0,0-.1.1h-.7c-.1,0-.1,0-.2-.1l-3.7-2.1h0a.1.1,0,0,1-.1-.1v.7c0,.1-.1.2-.2.3l-2.6,1.4.1.1,3.7,2.1c.1,0,.1.1.2.1h.6c.1,0,.2-.1.3-.1l3-1.6v-.2Z"/><path class="cls-68" d="M136.2,132.72h0v-.8l-.3.2a.1.1,0,0,0-.1.1h-.7c-.1,0-.1,0-.2-.1l-3.7-2.1h0a.1.1,0,0,1-.1-.1v.7c0,.1-.1.2-.2.3l-2.6,1.4.1.1,3.7,2.1c.1,0,.1.1.2.1h.6c.1,0,.2-.1.3-.1l3-1.6c-.1-.1,0-.1,0-.2Z"/><path class="cls-68" d="M130.9,129.62h0v-.8l-.3.2h-.8c-.1,0-.1,0-.2-.1l-3.7-2.1h0a.1.1,0,0,1-.1-.1v.7c0,.1-.1.2-.2.3l-2.6,1.4.1.1,3.7,2.1c.1,0,.1.1.2.1h.6c.1,0,.2-.1.3-.1l3-1.6v-.1Z"/><path class="cls-68" d="M125.7,126.52h0v-.8l-.3.2a.1.1,0,0,0-.1.1h-.8c-.1,0-.1,0-.2-.1l-3.7-2.1h0a.1.1,0,0,1-.1-.1v-.1h0v-.8l-.3.2a.1.1,0,0,0-.1.1h-.7c-.1,0-.1,0-.2-.1l-3.7-2.1h0a.1.1,0,0,1-.1-.1h0V120l-.3.2a.1.1,0,0,0-.1.1h-.7c-.1,0-.1,0-.2-.1l-4-2.6h0a.1.1,0,0,1-.1-.1v-.1h0v-.8l-.3.2a.1.1,0,0,0-.1.1h-.8c-.1,0-.1,0-.2-.1l-3.7-2.1h0a.1.1,0,0,1-.1-.1v-.1h0v-.8l-.3.2a.1.1,0,0,0-.1.1h-.7c-.1,0-.1,0-.2-.1l-3.7-2.1h0a.1.1,0,0,1-.1-.1v.7c0,.1-.1.2-.2.3l-2.6,1.4.1.1,24.7,14.4c.1,0,.1.1.2.1h.6c.1,0,.2-.1.3-.1l3-1.6c-.2-.3-.1-.3-.1-.5Z"/><path class="cls-68" d="M99.4,111.22h0v-.8l-.3.2a.1.1,0,0,0-.1.1h-.7c-.1,0-.1,0-.2-.1l-3.8-2.2v.7c0,.1-.1.2-.2.3l-2.6,1.4.1.1,3.7,2.1c.1,0,.1.1.2.1h.6c.1,0,.2-.1.3-.1l3-1.6v-.2Z"/><path class="cls-68" d="M92,107.12h0l-.1-.1h0v-.9l-.4.2a.1.1,0,0,0-.1.1h-.7c-.1,0-.1,0-.2-.1l-1.4-.8v.7c0,.1-.1.2-.2.3l-2.5,1.4h0c0,.1.1.1.2.1l3.7,2.1c.1,0,.1.1.2.1h.6c.1,0,.2-.1.3-.1l3-1.6a.1.1,0,0,0,.1-.1l-2.5-1.3Z"/><path class="cls-68" d="M100.7,106.92c-.1,0-.1-.1,0,0l-.1-.1h0V106l-.3.2a.1.1,0,0,0-.1.1h-.7c-.1,0-.1,0-.2-.1l-3.7-2.1h0a.1.1,0,0,1-.1-.1v-.1h0v-.8l-.4.2a.1.1,0,0,0-.1.1h-.7c-.1,0-.1,0-.2-.1l-3-1.8v.7c0,.1-.1.2-.2.3l-2.5,1.4v.1h0c0,.1.1.1.2.1l2.2,1.3c.1,0,.1.1.2.1h.6c.1,0,.2-.1.3-.1l3-1.6c.2-.1.2-.2.2-.3v1c0,.1-.1.2-.2.3l-2.5,1.4h0c0,.1.1.1.2.1l6,3.5c.1,0,.1.1.2.1h.6a.37.37,0,0,0,.3-.1l3-1.6a.1.1,0,0,0,.1-.1l-2.1-1.2Z"/><path class="cls-68" d="M88.9,100.12h0l-.1-.1h0v-.9l-.5.3a.1.1,0,0,0-.1.1h-.7c-.1,0-.1,0-.2-.1l-.1-.1v.7c0,.1-.1.2-.2.3l-2.6,1.4a.35.35,0,0,0,.2.1l2.1,1.2a.35.35,0,0,1,.2.1h.6c.1,0,.2-.1.3-.1l3-1.6a.1.1,0,0,0,.1-.1l-2-1.2Z"/><path class="cls-68" d="M83.2,96.82h0l-.1-.1h0v-.8l-.3.2a.1.1,0,0,0-.1.1H82c-.1,0-.1,0-.2-.1l-.2-.1v.7c0,.1-.1.2-.2.3l-2.6,1.4h.1l4.2,2.4c.1,0,.1.1.2.1h.6c.1,0,.2-.1.3-.1l3-1.6.1-.1-4.1-2.3Z"/><path class="cls-68" d="M104.8,83l-3.7-2.1a1.08,1.08,0,0,0-1.1,0l-3,1.6c-.3.2-.3.5,0,.6l3.7,2.1a1.08,1.08,0,0,0,1.1,0l3-1.6C105.1,83.42,105.1,83.12,104.8,83Z"/><path class="cls-68" d="M109.9,86l-3.7-2.1a1.08,1.08,0,0,0-1.1,0l-3,1.6c-.3.2-.3.5,0,.6l3.7,2.1a1.08,1.08,0,0,0,1.1,0l3-1.6C110.2,86.42,110.2,86.12,109.9,86Z"/><path class="cls-68" d="M115.2,89l-3.7-2.1a1.08,1.08,0,0,0-1.1,0l-3,1.6c-.3.2-.3.5,0,.6l3.7,2.1a1.08,1.08,0,0,0,1.1,0l3-1.6C115.5,89.52,115.5,89.22,115.2,89Z"/><path class="cls-68" d="M120.5,92.12,116.8,90a1.08,1.08,0,0,0-1.1,0l-3,1.6c-.3.2-.3.5,0,.6l3.7,2.1a1.08,1.08,0,0,0,1.1,0l3-1.6C120.8,92.62,120.8,92.32,120.5,92.12Z"/><path class="cls-68" d="M125.7,95.22l-3.7-2.1a1.08,1.08,0,0,0-1.1,0l-3,1.6c-.3.2-.3.5,0,.6l3.7,2.1a1.08,1.08,0,0,0,1.1,0l3-1.6C126,95.62,126,95.32,125.7,95.22Z"/><path class="cls-68" d="M131,98.22l-3.7-2.1a1.08,1.08,0,0,0-1.1,0l-3,1.6c-.3.2-.3.5,0,.6l3.7,2.1a1.08,1.08,0,0,0,1.1,0l3-1.6C131.3,98.72,131.3,98.42,131,98.22Z"/><path class="cls-68" d="M136.3,101.32l-3.7-2.1a1.08,1.08,0,0,0-1.1,0l-3,1.6c-.3.2-.3.5,0,.6l3.7,2.1a1.08,1.08,0,0,0,1.1,0l3-1.6A.38.38,0,0,0,136.3,101.32Z"/><path class="cls-68" d="M141.5,104.32l-3.7-2.1a1.08,1.08,0,0,0-1.1,0l-3,1.6c-.3.2-.3.5,0,.6l3.7,2.1a1.08,1.08,0,0,0,1.1,0l3-1.6C141.8,104.82,141.8,104.52,141.5,104.32Z"/><path class="cls-68" d="M146.8,107.42l-3.7-2.1a1.08,1.08,0,0,0-1.1,0l-3,1.6c-.3.2-.3.5,0,.6l3.7,2.1a1.08,1.08,0,0,0,1.1,0l3-1.6C147,107.92,147,107.62,146.8,107.42Z"/><path class="cls-68" d="M152,110.52l-3.7-2.1a1.08,1.08,0,0,0-1.1,0l-3,1.6c-.3.2-.3.5,0,.6l3.7,2.1a1.08,1.08,0,0,0,1.1,0l3-1.6C152.3,110.92,152.3,110.62,152,110.52Z"/><path class="cls-68" d="M157.3,113.52l-3.7-2.1a1.08,1.08,0,0,0-1.1,0l-3,1.6c-.3.2-.3.5,0,.6l3.7,2.1a1.08,1.08,0,0,0,1.1,0l3-1.6A.33.33,0,0,0,157.3,113.52Z"/><path class="cls-68" d="M162.5,116.62l-3.7-2.1a1.08,1.08,0,0,0-1.1,0l-3,1.6c-.3.2-.3.5,0,.6l3.7,2.1a1.08,1.08,0,0,0,1.1,0l3-1.6Q163,116.92,162.5,116.62Z"/><path class="cls-68" d="M167.8,119.62l-3.7-2.1a1.08,1.08,0,0,0-1.1,0l-3,1.6c-.3.2-.3.5,0,.6l3.7,2.1a1.08,1.08,0,0,0,1.1,0l3-1.6C168.1,120.12,168.1,119.82,167.8,119.62Z"/><path class="cls-68" d="M173,122.72l-3.7-2.1a1.08,1.08,0,0,0-1.1,0l-3,1.6c-.3.2-.3.5,0,.6l3.7,2.1a1.08,1.08,0,0,0,1.1,0l3-1.6C173.3,123.22,173.3,122.92,173,122.72Z"/><path class="cls-68" d="M178.3,125.82l-3.7-2.1a1.08,1.08,0,0,0-1.1,0l-3,1.6c-.3.2-.3.5,0,.6l3.7,2.1a1.08,1.08,0,0,0,1.1,0l3-1.6C178.6,126.22,178.6,125.92,178.3,125.82Z"/><path class="cls-68" d="M109,90.62l-12.4-7.2a1.08,1.08,0,0,0-1.1,0l-3,1.6c-.3.2-.3.5,0,.6l12.4,7.2a1.08,1.08,0,0,0,1.1,0l3-1.6C109.3,91,109.3,90.72,109,90.62Z"/><path class="cls-68" d="M114.3,93.62l-3.7-2.1a1.08,1.08,0,0,0-1.1,0l-3,1.6c-.3.2-.3.5,0,.6l3.7,2.1a1.08,1.08,0,0,0,1.1,0l3-1.6C114.5,94.12,114.5,93.82,114.3,93.62Z"/><path class="cls-68" d="M119.5,96.72l-3.7-2.1a1.08,1.08,0,0,0-1.1,0l-3,1.6c-.3.2-.3.5,0,.6l3.7,2.1a1.08,1.08,0,0,0,1.1,0l3-1.6Q120,97,119.5,96.72Z"/><path class="cls-68" d="M124.8,99.72l-3.7-2.1a1.08,1.08,0,0,0-1.1,0l-3,1.6c-.3.2-.3.5,0,.6l3.7,2.1a1.08,1.08,0,0,0,1.1,0l3-1.6C125,100.22,125,99.92,124.8,99.72Z"/><path class="cls-68" d="M130,102.82l-3.7-2.1a1.08,1.08,0,0,0-1.1,0l-3,1.6c-.3.2-.3.5,0,.6l3.7,2.1a1.08,1.08,0,0,0,1.1,0l3-1.6C130.3,103.32,130.3,103,130,102.82Z"/><path class="cls-68" d="M135.3,105.92l-3.7-2.1a1.08,1.08,0,0,0-1.1,0l-3,1.6c-.3.2-.3.5,0,.6l3.7,2.1a1.08,1.08,0,0,0,1.1,0l3-1.6C135.5,106.32,135.6,106,135.3,105.92Z"/><path class="cls-68" d="M140.5,108.92l-3.7-2.1a1.08,1.08,0,0,0-1.1,0l-3,1.6c-.3.2-.3.5,0,.6l3.7,2.1a1.08,1.08,0,0,0,1.1,0l3-1.6C140.8,109.42,140.8,109.12,140.5,108.92Z"/><path class="cls-68" d="M145.8,112l-3.7-2.1a1.08,1.08,0,0,0-1.1,0l-3,1.6c-.3.2-.3.5,0,.6l3.7,2.1a1.08,1.08,0,0,0,1.1,0l3-1.6Q146.25,112.32,145.8,112Z"/><path class="cls-68" d="M151,115.12l-3.7-2.1a1.08,1.08,0,0,0-1.1,0l-3,1.6q-.45.3,0,.6l3.7,2.1a1.08,1.08,0,0,0,1.1,0l3-1.6C151.3,115.52,151.3,115.22,151,115.12Z"/><path class="cls-68" d="M156.3,118.12l-3.7-2.1a1.08,1.08,0,0,0-1.1,0l-3,1.6c-.3.2-.3.5,0,.6l3.7,2.1a1.08,1.08,0,0,0,1.1,0l3-1.6C156.6,118.62,156.6,118.32,156.3,118.12Z"/><path class="cls-68" d="M161.5,121.22l-3.7-2.1a1.08,1.08,0,0,0-1.1,0l-3,1.6c-.3.2-.3.5,0,.6l3.7,2.1a1.08,1.08,0,0,0,1.1,0l3-1.6C161.8,121.62,161.8,121.32,161.5,121.22Z"/><path class="cls-68" d="M166.8,124.22l-3.7-2.1a1.08,1.08,0,0,0-1.1,0l-3,1.6q-.45.3,0,.6l3.7,2.1a1.08,1.08,0,0,0,1.1,0l3-1.6C167.1,124.72,167.1,124.42,166.8,124.22Z"/><path class="cls-68" d="M172,127.32l-3.7-2.1a1.08,1.08,0,0,0-1.1,0l-3,1.6c-.3.2-.3.5,0,.6l3.7,2.1a1.08,1.08,0,0,0,1.1,0l3-1.6Q172.45,127.62,172,127.32Z"/><path class="cls-68" d="M96,88.22l-4-2.3a1.08,1.08,0,0,0-1.1,0l-3,1.6c-.3.2-.3.5,0,.6l4,2.3a1.08,1.08,0,0,0,1.1,0l3-1.6Q96.45,88.52,96,88.22Z"/><path class="cls-68" d="M101.5,91.42l-4-2.3a1.08,1.08,0,0,0-1.1,0l-3,1.6c-.3.2-.3.5,0,.6l4,2.3a1.08,1.08,0,0,0,1.1,0l3-1.6C101.7,91.82,101.8,91.62,101.5,91.42Z"/><path class="cls-68" d="M90.3,90l-2.8-1.6a1.08,1.08,0,0,0-1.1,0l-7.5,4.2q-.45.3,0,.6l2.8,1.6a1.08,1.08,0,0,0,1.1,0l7.5-4.2A.33.33,0,0,0,90.3,90Z"/><path class="cls-68" d="M95.8,93.32l-4-2.3a1.08,1.08,0,0,0-1.1,0l-3,1.6q-.45.3,0,.6l4,2.3a1.08,1.08,0,0,0,1.1,0l3-1.6C96.1,93.72,96.1,93.42,95.8,93.32Z"/><path class="cls-68" d="M112.3,97.62l-3.7-2.1a1.08,1.08,0,0,0-1.1,0l-3,1.6q-.45.3,0,.6l3.7,2.1a1.08,1.08,0,0,0,1.1,0l3-1.6A.33.33,0,0,0,112.3,97.62Z"/><path class="cls-68" d="M107,94.52l-3.7-2.1a1.08,1.08,0,0,0-1.1,0l-4.5,2.5-1.1.6-1.9,1c-.3.2-.3.5,0,.6l7.3,4.2a1.08,1.08,0,0,0,1.1,0l3-1.6q.45-.3,0-.6l-3.1-1.8,4-2.2C107.2,95,107.2,94.72,107,94.52Z"/><path class="cls-68" d="M117.5,100.72l-3.7-2.1a1.08,1.08,0,0,0-1.1,0l-3,1.6c-.3.2-.3.5,0,.6l3.7,2.1a1.08,1.08,0,0,0,1.1,0l3-1.6Q118,101,117.5,100.72Z"/><path class="cls-68" d="M122.8,103.82l-3.7-2.2a1.08,1.08,0,0,0-1.1,0l-3,1.6c-.3.2-.3.5,0,.6l3.7,2.1a1.08,1.08,0,0,0,1.1,0l3-1.6C123,104.22,123.1,103.92,122.8,103.82Z"/><path class="cls-68" d="M128,106.82l-3.7-2.1a1.08,1.08,0,0,0-1.1,0l-3,1.6c-.3.2-.3.5,0,.6l3.7,2.1a1.08,1.08,0,0,0,1.1,0l3-1.6C128.3,107.32,128.3,107,128,106.82Z"/><path class="cls-68" d="M133.3,109.92l-3.7-2.1a1.08,1.08,0,0,0-1.1,0l-3,1.6c-.3.2-.3.5,0,.6l3.7,2.1a1.08,1.08,0,0,0,1.1,0l3-1.6C133.5,110.32,133.6,110,133.3,109.92Z"/><path class="cls-68" d="M138.5,112.92l-3.7-2.1a1.08,1.08,0,0,0-1.1,0l-3,1.6c-.3.2-.3.5,0,.6l3.7,2.1a1.08,1.08,0,0,0,1.1,0l3-1.6C138.8,113.42,138.8,113.12,138.5,112.92Z"/><path class="cls-68" d="M143.8,116l-3.7-2.1a1.08,1.08,0,0,0-1.1,0l-3,1.6c-.3.2-.3.5,0,.6l3.7,2.1a1.08,1.08,0,0,0,1.1,0l3-1.6C144.1,116.52,144.1,116.22,143.8,116Z"/><path class="cls-68" d="M149,119.12l-3.7-2.1a1.08,1.08,0,0,0-1.1,0l-3,1.6c-.3.2-.3.5,0,.6l3.7,2.1a1.08,1.08,0,0,0,1.1,0l3-1.6C149.3,119.52,149.3,119.22,149,119.12Z"/><path class="cls-68" d="M154.3,122.12l-3.7-2.1a1.08,1.08,0,0,0-1.1,0l-3,1.6q-.45.3,0,.6l3.7,2.1a1.08,1.08,0,0,0,1.1,0l3-1.6C154.6,122.62,154.6,122.32,154.3,122.12Z"/><path class="cls-68" d="M159.5,125.22l-3.7-2.1a1.08,1.08,0,0,0-1.1,0l-3,1.6c-.3.2-.3.5,0,.6l3.7,2.1a1.08,1.08,0,0,0,1.1,0l3-1.6C159.8,125.62,159.8,125.32,159.5,125.22Z"/><path class="cls-68" d="M169.2,130.82l-8-4.7a1.08,1.08,0,0,0-1.1,0l-3,1.6c-.3.2-.3.5,0,.6l8,4.7a1.08,1.08,0,0,0,1.1,0l3-1.6C169.5,131.32,169.5,131,169.2,130.82Z"/><path class="cls-68" d="M111.3,102.22l-3.7-2.1a1.08,1.08,0,0,0-1.1,0l-3,1.6c-.3.2-.3.5,0,.6l3.7,2.1a1.08,1.08,0,0,0,1.1,0l3-1.6A.33.33,0,0,0,111.3,102.22Z"/><path class="cls-68" d="M116.5,105.32l-3.7-2.1a1.08,1.08,0,0,0-1.1,0l-3,1.6c-.3.2-.3.5,0,.6l3.7,2.1a1.08,1.08,0,0,0,1.1,0l3-1.6Q117,105.62,116.5,105.32Z"/><path class="cls-68" d="M121.8,108.32l-3.7-2.1a1.08,1.08,0,0,0-1.1,0l-3,1.6c-.3.2-.3.5,0,.6l3.7,2.1a1.08,1.08,0,0,0,1.1,0l3-1.6A.33.33,0,0,0,121.8,108.32Z"/><path class="cls-68" d="M127,111.42l-3.7-2.1a1.08,1.08,0,0,0-1.1,0l-3,1.6c-.3.2-.3.5,0,.6l3.7,2.1a1.08,1.08,0,0,0,1.1,0l3-1.6C127.3,111.92,127.3,111.62,127,111.42Z"/><path class="cls-68" d="M132.3,114.52l-3.7-2.1a1.08,1.08,0,0,0-1.1,0l-3,1.6c-.3.2-.3.5,0,.6l3.7,2.1a1.08,1.08,0,0,0,1.1,0l3-1.6C132.5,114.92,132.6,114.62,132.3,114.52Z"/><path class="cls-68" d="M137.5,117.52l-3.7-2.1a1.08,1.08,0,0,0-1.1,0l-3,1.6c-.3.2-.3.5,0,.6l3.7,2.1a1.08,1.08,0,0,0,1.1,0l3-1.6C137.8,118,137.8,117.72,137.5,117.52Z"/><path class="cls-68" d="M142.8,120.62l-3.7-2.1a1.08,1.08,0,0,0-1.1,0l-3,1.6c-.3.2-.3.5,0,.6l3.7,2.1a1.08,1.08,0,0,0,1.1,0l3-1.6Q143.25,120.92,142.8,120.62Z"/><path class="cls-68" d="M148,123.62l-3.7-2.1a1.08,1.08,0,0,0-1.1,0l-3,1.6c-.3.2-.3.5,0,.6l3.7,2.1a1.08,1.08,0,0,0,1.1,0l3-1.6C148.3,124.12,148.3,123.82,148,123.62Z"/><path class="cls-68" d="M153.3,126.72l-3.7-2.1a1.08,1.08,0,0,0-1.1,0l-3,1.6c-.3.2-.3.5,0,.6l3.7,2.1a1.08,1.08,0,0,0,1.1,0l3-1.6C153.6,127.22,153.6,126.92,153.3,126.72Z"/><path class="cls-68" d="M158.5,129.82l-3.7-2.1a1.08,1.08,0,0,0-1.1,0l-3,1.6c-.3.2-.3.5,0,.6l3.7,2.1a1.08,1.08,0,0,0,1.1,0l3-1.6C158.8,130.22,158.8,129.92,158.5,129.82Z"/><path class="cls-68" d="M164.7,133.32l-4.6-2.7a1.08,1.08,0,0,0-1.1,0l-3,1.6c-.3.2-.3.5,0,.6l4.6,2.7a1.08,1.08,0,0,0,1.1,0l3-1.6C165,133.82,165,133.52,164.7,133.32Z"/><path class="cls-68" d="M91.3,95.82l-4-2.3a1.08,1.08,0,0,0-1.1,0l-3,1.6c-.3.2-.3.5,0,.6l4,2.3a1.08,1.08,0,0,0,1.1,0l3-1.6Q91.75,96.12,91.3,95.82Z"/><path class="cls-68" d="M97.9,99.62l-4.8-2.8a1.08,1.08,0,0,0-1.1,0l-3,1.6c-.3.2-.3.5,0,.6l4.8,2.8a1.08,1.08,0,0,0,1.1,0l3-1.6Q98.35,99.92,97.9,99.62Z"/><path class="cls-68" d="M103.2,102.72l-3.7-2.1a1.08,1.08,0,0,0-1.1,0l-3,1.6c-.3.2-.3.5,0,.6l3.7,2.1a1.08,1.08,0,0,0,1.1,0l3-1.6Q103.65,103,103.2,102.72Z"/><path class="cls-68" d="M108.5,105.72l-3.7-2.1a1.08,1.08,0,0,0-1.1,0l-3,1.6c-.3.2-.3.5,0,.6l3.7,2.1a1.08,1.08,0,0,0,1.1,0l3-1.6C108.7,106.22,108.7,105.92,108.5,105.72Z"/><path class="cls-68" d="M113.7,108.82l-3.7-2.1a1.08,1.08,0,0,0-1.1,0l-3,1.6c-.3.2-.3.5,0,.6l3.7,2.1a1.08,1.08,0,0,0,1.1,0l3-1.6Q114.15,109.12,113.7,108.82Z"/><path class="cls-68" d="M119,111.92l-3.7-2.1a1.08,1.08,0,0,0-1.1,0l-3,1.6c-.3.2-.3.5,0,.6l3.7,2.1a1.08,1.08,0,0,0,1.1,0l3-1.6C119.2,112.32,119.2,112,119,111.92Z"/><path class="cls-68" d="M124.2,114.92l-3.7-2.1a1.08,1.08,0,0,0-1.1,0l-3,1.6c-.3.2-.3.5,0,.6l3.7,2.1a1.08,1.08,0,0,0,1.1,0l3-1.6C124.5,115.42,124.5,115.12,124.2,114.92Z"/><path class="cls-68" d="M129.5,118l-3.7-2.1a1.08,1.08,0,0,0-1.1,0l-3,1.6c-.3.2-.3.5,0,.6l3.7,2.1a1.08,1.08,0,0,0,1.1,0l3-1.6C129.7,118.42,129.8,118.12,129.5,118Z"/><path class="cls-68" d="M134.7,121l-3.7-2.1a1.08,1.08,0,0,0-1.1,0l-3,1.6c-.3.2-.3.5,0,.6l3.7,2.1a1.08,1.08,0,0,0,1.1,0l3-1.6C135,121.52,135,121.22,134.7,121Z"/><path class="cls-68" d="M140,124.12l-3.7-2.1a1.08,1.08,0,0,0-1.1,0l-3,1.6c-.3.2-.3.5,0,.6l3.7,2.1a1.08,1.08,0,0,0,1.1,0l3-1.6C140.3,124.62,140.3,124.32,140,124.12Z"/><path class="cls-68" d="M145.2,127.22l-3.7-2.1a1.08,1.08,0,0,0-1.1,0l-3,1.6q-.45.3,0,.6l3.7,2.1a1.08,1.08,0,0,0,1.1,0l3-1.6C145.5,127.62,145.5,127.32,145.2,127.22Z"/><path class="cls-68" d="M150.5,130.22l-3.7-2.1a1.08,1.08,0,0,0-1.1,0l-3,1.6c-.3.2-.3.5,0,.6l3.7,2.1a1.08,1.08,0,0,0,1.1,0l3-1.6C150.8,130.72,150.8,130.42,150.5,130.22Z"/><path class="cls-68" d="M160.2,135.92l-8-4.7a1.08,1.08,0,0,0-1.1,0l-3,1.7q-.45.3,0,.6l8,4.7a1.08,1.08,0,0,0,1.1,0l3-1.6C160.4,136.32,160.4,136,160.2,135.92Z"/><path class="cls-68" d="M81.2,95.12l-2.8-1.6a1.08,1.08,0,0,0-1.1,0l-7.5,4.2c-.3.2-.3.5,0,.6l2.8,1.6a1.08,1.08,0,0,0,1.1,0l7.5-4.2Q81.65,95.42,81.2,95.12Z"/><path class="cls-68" d="M86.9,98.42,82.7,96a1.08,1.08,0,0,0-1.1,0l-3,1.6c-.3.2-.3.5,0,.6l4.2,2.4a1.08,1.08,0,0,0,1.1,0l3-1.6Q87.35,98.72,86.9,98.42Z"/><path class="cls-68" d="M90.6,100.52l-2.1-1.2a1.08,1.08,0,0,0-1.1,0l-3,1.6c-.3.2-.3.5,0,.6l2.1,1.2a1.08,1.08,0,0,0,1.1,0l3-1.6A.33.33,0,0,0,90.6,100.52Z"/><path class="cls-68" d="M94.5,102.82l-2.2-1.3a1.08,1.08,0,0,0-1.1,0l-3,1.6q-.45.3,0,.6l2.2,1.3a1.08,1.08,0,0,0,1.1,0l3-1.6C94.8,103.32,94.8,103,94.5,102.82Z"/><path class="cls-68" d="M102.2,107.32l-6-3.5a1.08,1.08,0,0,0-1.1,0l-3,1.6c-.3.2-.3.5,0,.6l6,3.5a1.08,1.08,0,0,0,1.1,0l3-1.6C102.4,107.72,102.5,107.52,102.2,107.32Z"/><path class="cls-68" d="M107.4,110.32l-3.7-2.1a1.08,1.08,0,0,0-1.1,0l-3,1.6q-.45.3,0,.6l3.7,2.1a1.08,1.08,0,0,0,1.1,0l3-1.6C107.7,110.82,107.7,110.52,107.4,110.32Z"/><path class="cls-68" d="M112.7,113.42l-3.7-2.1a1.08,1.08,0,0,0-1.1,0l-3,1.6c-.3.2-.3.5,0,.6l3.7,2.1a1.08,1.08,0,0,0,1.1,0l3-1.6A.33.33,0,0,0,112.7,113.42Z"/><path class="cls-68" d="M117.9,116.52l-3.7-2.1a1.08,1.08,0,0,0-1.1,0l-3,1.6c-.3.2-.3.5,0,.6l3.7,2.1a1.08,1.08,0,0,0,1.1,0l3-1.6C118.2,116.92,118.2,116.62,117.9,116.52Z"/><path class="cls-68" d="M123.2,119.52l-3.7-2.1a1.08,1.08,0,0,0-1.1,0l-3,1.6c-.3.2-.3.5,0,.6l3.7,2.1a1.08,1.08,0,0,0,1.1,0l3-1.6A.33.33,0,0,0,123.2,119.52Z"/><path class="cls-68" d="M128.4,122.62l-3.7-2.1a1.08,1.08,0,0,0-1.1,0l-3,1.6c-.3.2-.3.5,0,.6l3.7,2.1a1.08,1.08,0,0,0,1.1,0l3-1.6Q128.85,122.92,128.4,122.62Z"/><path class="cls-68" d="M133.7,125.72l-3.7-2.1a1.08,1.08,0,0,0-1.1,0l-3,1.6c-.3.2-.3.5,0,.6l3.7,2.1a1.08,1.08,0,0,0,1.1,0l3-1.6C134,126.12,134,125.82,133.7,125.72Z"/><path class="cls-68" d="M138.9,128.72l-3.7-2.1a1.08,1.08,0,0,0-1.1,0l-3,1.6c-.3.2-.3.5,0,.6l3.7,2.1a1.08,1.08,0,0,0,1.1,0l3-1.6C139.2,129.22,139.2,128.92,138.9,128.72Z"/><path class="cls-68" d="M144.2,131.82l-3.7-2.1a1.08,1.08,0,0,0-1.1,0l-3,1.6c-.3.2-.3.5,0,.6l3.7,2.1a1.08,1.08,0,0,0,1.1,0l3-1.6C144.5,132.22,144.5,131.92,144.2,131.82Z"/><path class="cls-68" d="M149.4,134.82l-3.7-2.1a1.08,1.08,0,0,0-1.1,0l-3,1.6c-.3.2-.3.5,0,.6l3.7,2.1a1.08,1.08,0,0,0,1.1,0l3-1.6C149.7,135.32,149.7,135,149.4,134.82Z"/><path class="cls-68" d="M154.7,137.92l-3.7-2.1a1.08,1.08,0,0,0-1.1,0l-3,1.6c-.3.2-.3.5,0,.6l3.7,2.1a1.08,1.08,0,0,0,1.1,0l3-1.6Q155.15,138.22,154.7,137.92Z"/><path class="cls-68" d="M83.5,101.62l-3.7-2.1a1.08,1.08,0,0,0-1.1,0l-3,1.6c-.3.2-.3.5,0,.6l3.7,2.1a1.08,1.08,0,0,0,1.1,0l3-1.6C83.8,102.12,83.8,101.82,83.5,101.62Z"/><path class="cls-68" d="M88.8,104.72l-3.7-2.1a1.08,1.08,0,0,0-1.1,0l-3,1.6c-.3.2-.3.5,0,.6l3.7,2.1a1.08,1.08,0,0,0,1.1,0l3-1.6C89.1,105.12,89.1,104.82,88.8,104.72Z"/><path class="cls-68" d="M94.1,107.82l-3.7-2.1a1.08,1.08,0,0,0-1.1,0l-3,1.6c-.3.2-.3.5,0,.6L90,110a1.08,1.08,0,0,0,1.1,0l3-1.6C94.4,108.22,94.4,107.92,94.1,107.82Z"/><path class="cls-68" d="M99.3,110.82l-3.7-2.1a1.08,1.08,0,0,0-1.1,0l-3,1.6c-.3.2-.3.5,0,.6l3.7,2.1a1.08,1.08,0,0,0,1.1,0l3-1.6C99.6,111.32,99.6,111,99.3,110.82Z"/><path class="cls-68" d="M125.6,126.12l-24.7-14.4a1.08,1.08,0,0,0-1.1,0l-3,1.6c-.3.2-.3.5,0,.6l24.7,14.4a1.08,1.08,0,0,0,1.1,0l3-1.6C125.9,126.62,125.9,126.32,125.6,126.12Z"/><path class="cls-68" d="M130.9,129.22l-3.7-2.1a1.08,1.08,0,0,0-1.1,0l-3,1.6c-.3.2-.3.5,0,.6l3.7,2.1a1.08,1.08,0,0,0,1.1,0l3-1.6A.38.38,0,0,0,130.9,129.22Z"/><path class="cls-68" d="M136.1,132.22l-3.7-2.1a1.08,1.08,0,0,0-1.1,0l-3,1.6c-.3.2-.3.5,0,.6l3.7,2.1a1.08,1.08,0,0,0,1.1,0l3-1.6C136.4,132.72,136.4,132.42,136.1,132.22Z"/><path class="cls-68" d="M141.4,135.32l-3.7-2.1a1.08,1.08,0,0,0-1.1,0l-3,1.6c-.3.2-.3.5,0,.6l3.7,2.1a1.08,1.08,0,0,0,1.1,0l3-1.6A.33.33,0,0,0,141.4,135.32Z"/><path class="cls-68" d="M146.6,138.42l-3.7-2.1a1.08,1.08,0,0,0-1.1,0l-3,1.6c-.3.2-.3.5,0,.6l3.7,2.1a1.08,1.08,0,0,0,1.1,0l3-1.6C146.9,138.82,146.9,138.52,146.6,138.42Z"/><path class="cls-68" d="M151,140.92l-2.8-1.7a1.08,1.08,0,0,0-1.1,0l-3,1.6c-.3.2-.3.5,0,.6l2.8,1.7a1.08,1.08,0,0,0,1.1,0l3-1.6C151.3,141.42,151.3,141.12,151,140.92Z"/><path class="cls-69" d="M206.6,47.82,128,2a3.52,3.52,0,0,0-5.1,2.5l-19.6,70.1a1.56,1.56,0,0,0,.8,1.3l83.4,48.6c1,.6,1.9-.1,2.3-1.3l19.6-70.6A5.55,5.55,0,0,0,206.6,47.82Z"/><polygon class="cls-70" points="126 7.62 107.2 73.62 187.4 119.82 206.4 54.12 126 7.62"/><polygon class="cls-71" points="137.8 14.42 155.8 101.62 174.8 112.52 156.8 25.42 137.8 14.42"/><polygon class="cls-71" points="163.7 29.42 163.7 29.42 181.6 116.42 187.4 119.82 189.3 113.22 173.2 34.92 173.2 34.82 163.7 29.42"/><polygon class="cls-72" points="13.7 215.82 53.1 238.32 81.3 225.02 33.9 197.92 13.7 215.82"/><path class="cls-2" d="M53.7,204.92l-23.6-13.5a4.2,4.2,0,0,0-2.1-.6,4.28,4.28,0,0,0-2.2.6L2.2,204.22a4.68,4.68,0,0,0,.1,8l23.6,13.3a3.94,3.94,0,0,0,2.1.6,4.28,4.28,0,0,0,2.2-.6l23.6-12.6a4.58,4.58,0,0,0,2.3-4A4.89,4.89,0,0,0,53.7,204.92Z"/><path class="cls-5" d="M25.8,191.52,2.3,204.32a4.36,4.36,0,0,0-1.4,1.3,4.3,4.3,0,0,0-.8,2.7,4.64,4.64,0,0,0,2.4,3.9L26,225.42a5.78,5.78,0,0,0,1.4.5c.2,0,.5.1.7.1a3.94,3.94,0,0,0,2.1-.6l23.4-12.6a4.49,4.49,0,0,0,1.3-1.1,4.27,4.27,0,0,0,1-2.9,4.76,4.76,0,0,0-2.3-3.9l-23.5-13.4a3.94,3.94,0,0,0-2.1-.6h-.7A9.38,9.38,0,0,0,25.8,191.52Z"/><path class="cls-7" d="M25.9,191.62,2.5,204.42a4.36,4.36,0,0,0-1.4,1.3,4.3,4.3,0,0,0-.8,2.7,4.7,4.7,0,0,0,2.4,3.8L26,225.32a3.26,3.26,0,0,0,1.3.4H28a5.09,5.09,0,0,0,2.1-.6l23.3-12.5,1.3-1a3.76,3.76,0,0,0,.9-2.9,4.7,4.7,0,0,0-2.4-3.8l-23.1-13.2a5.09,5.09,0,0,0-2.1-.6h-.7A12.13,12.13,0,0,0,25.9,191.62Z"/><path class="cls-10" d="M26,191.82,2.6,204.52a5.53,5.53,0,0,0-1.4,1.2,3.46,3.46,0,0,0-.7,2.6A4.8,4.8,0,0,0,3,212l23.2,13.1a3.26,3.26,0,0,0,1.3.4h.7a5.09,5.09,0,0,0,2.1-.6l23.1-12.4a6.42,6.42,0,0,0,1.3-1,3.66,3.66,0,0,0,.9-2.8,4.93,4.93,0,0,0-2.4-3.7l-22.9-13.1a5.09,5.09,0,0,0-2.1-.6h-.7A2.46,2.46,0,0,0,26,191.82Z"/><path class="cls-13" d="M26,191.92,2.8,204.62a5.53,5.53,0,0,0-1.4,1.2,3.46,3.46,0,0,0-.7,2.6c0,1.4,1.4,3,2.5,3.6l23,13a3.26,3.26,0,0,0,1.3.4h.7a5.56,5.56,0,0,0,2.1-.6l23-12.3a6.42,6.42,0,0,0,1.3-1,3.24,3.24,0,0,0,.8-2.8,4.85,4.85,0,0,0-2.4-3.6l-22.7-13a4.66,4.66,0,0,0-2-.6h-.6A3.06,3.06,0,0,0,26,191.92Z"/><path class="cls-15" d="M26.1,192,2.9,204.72a5.53,5.53,0,0,0-1.4,1.2,3,3,0,0,0-.6,2.6c0,1.3,1.5,2.9,2.6,3.5l22.9,12.9a3.26,3.26,0,0,0,1.3.4h.7a6.64,6.64,0,0,0,2-.6l22.8-12.2a4,4,0,0,0,1.2-1,3.16,3.16,0,0,0,.8-2.8c0-1.3-1.4-2.9-2.5-3.5l-22.5-12.9a4.66,4.66,0,0,0-2-.6h-.6A2.06,2.06,0,0,0,26.1,192Z"/><path class="cls-73" d="M26.2,192.12,3.1,204.72a4.07,4.07,0,0,0-1.4,1.2,3,3,0,0,0-.6,2.6c0,1.2,1.6,2.9,2.6,3.5l22.7,12.8a3.26,3.26,0,0,0,1.3.4h.7a4.79,4.79,0,0,0,2-.7l22.7-12.2a4,4,0,0,0,1.2-1,3,3,0,0,0,.8-2.7c0-1.2-1.5-2.8-2.5-3.4l-22.3-12.7a4.66,4.66,0,0,0-2-.6c-.2,0-.5-.1-.6,0A1.88,1.88,0,0,0,26.2,192.12Z"/><path class="cls-74" d="M26.3,192.32,3.2,204.92a5.66,5.66,0,0,0-1.5,1.2,3,3,0,0,0-.6,2.6c0,1.2,1.7,2.8,2.7,3.4l22.5,12.7a3.08,3.08,0,0,0,1.3.3h.7a5.33,5.33,0,0,0,2-.7l22.5-12.1a5.8,5.8,0,0,0,1.2-1,2.74,2.74,0,0,0,.7-2.7c0-1.2-1.6-2.8-2.6-3.3l-22-12.6a4.9,4.9,0,0,0-1.9-.7c-.2,0-.5-.1-.6,0A1.59,1.59,0,0,0,26.3,192.32Z"/><path class="cls-24" d="M26.3,192.42l-23,12.5A8.28,8.28,0,0,0,1.8,206a2.57,2.57,0,0,0-.5,2.5c0,1.1,1.8,2.8,2.7,3.3l22.4,12.6a3.08,3.08,0,0,0,1.3.3c.2,0,.5-.1.7-.1a4.79,4.79,0,0,0,2-.7l22.4-12A12.49,12.49,0,0,0,54,211a2.74,2.74,0,0,0,.7-2.7c0-1.1-1.7-2.7-2.6-3.2l-21.8-12.5a6.19,6.19,0,0,0-1.9-.7c-.1,0-.5-.1-.6-.1A6.71,6.71,0,0,0,26.3,192.42Z"/><path class="cls-75" d="M26.4,192.52,3.5,205a14.31,14.31,0,0,0-1.5,1.1,2.35,2.35,0,0,0-.5,2.5c0,1,1.9,2.7,2.8,3.2l22.2,12.5a3.08,3.08,0,0,0,1.3.3c.2,0,.5-.1.7-.1a6.79,6.79,0,0,0,2-.7l22.2-11.9a12.49,12.49,0,0,0,1.2-.9,2.57,2.57,0,0,0,.6-2.6c0-1-1.8-2.7-2.7-3.2l-21.6-12.4a6.19,6.19,0,0,0-1.9-.7c-.1,0-.5-.1-.6-.1A6.94,6.94,0,0,0,26.4,192.52Z"/><path class="cls-69" d="M26.5,192.62,3.6,205.12a8.28,8.28,0,0,0-1.5,1.1,2.35,2.35,0,0,0-.5,2.5c0,.9,2.1,2.7,2.8,3.1l22.1,12.4a3.08,3.08,0,0,0,1.3.3c.1,0,.5-.1.7-.1a6.19,6.19,0,0,0,1.9-.7l22.1-11.8a6.23,6.23,0,0,0,1.2-.9,2.57,2.57,0,0,0,.6-2.6c0-.9-1.9-2.6-2.7-3.1l-21.4-12.2a6.19,6.19,0,0,0-1.9-.7c-.1,0-.5-.1-.6-.1A3,3,0,0,0,26.5,192.62Z"/><path class="cls-32" d="M26.5,192.82,3.7,205.22a8.28,8.28,0,0,0-1.5,1.1,2.12,2.12,0,0,0-.4,2.5c0,.9,2.2,2.6,2.9,3l21.9,12.4a2.77,2.77,0,0,0,1.3.3c.1,0,.5-.1.7-.1a6.19,6.19,0,0,0,1.9-.7l21.9-11.8a3.78,3.78,0,0,0,1.2-.9,2.33,2.33,0,0,0,.5-2.6c0-.9-2-2.5-2.7-3l-21.1-12.1a5.63,5.63,0,0,0-1.8-.7c-.1,0-.5-.1-.6-.1A1.74,1.74,0,0,0,26.5,192.82Z"/><path class="cls-34" d="M26.6,192.92,3.9,205.32a8.28,8.28,0,0,0-1.5,1.1,2.12,2.12,0,0,0-.4,2.5c0,.8,2.3,2.6,3,2.9l21.8,12.3a1.91,1.91,0,0,0,1.3.2c.1,0,.5-.1.6-.1a10.66,10.66,0,0,0,1.9-.7l21.8-11.7a5.38,5.38,0,0,0,1.2-.9,2.3,2.3,0,0,0,.5-2.6c0-.8-2.1-2.5-2.8-2.9l-20.9-12a5.63,5.63,0,0,0-1.8-.7c-.1,0-.5-.1-.6-.1A1.74,1.74,0,0,0,26.6,192.92Z"/><path class="cls-76" d="M26.7,193,4,205.42a7.17,7.17,0,0,0-1.5,1.1,2,2,0,0,0-.4,2.4c0,.7,2.4,2.5,3,2.9L26.7,224a1.91,1.91,0,0,0,1.3.2c.1,0,.5-.1.6-.1a7.71,7.71,0,0,0,1.9-.8l21.6-11.7a12.49,12.49,0,0,0,1.2-.8,1.89,1.89,0,0,0,.4-2.5c0-.7-2.2-2.4-2.8-2.8l-20.6-11.9a6.7,6.7,0,0,0-1.8-.7c-.1,0-.5-.1-.6-.1A1.8,1.8,0,0,0,26.7,193Z"/><path class="cls-77" d="M26.7,193.12,4.1,205.52a7.84,7.84,0,0,0-1.5,1,1.85,1.85,0,0,0-.3,2.4c0,.6,2.5,2.5,3.1,2.8l21.5,12.1a1.72,1.72,0,0,0,1.2.2c.1,0,.5-.1.6-.1a7.71,7.71,0,0,0,1.9-.8l21.5-11.5a12.49,12.49,0,0,0,1.2-.8,1.89,1.89,0,0,0,.4-2.5c0-.6-2.3-2.4-2.9-2.7l-20.5-11.7c-.3-.1-1.5-.7-1.7-.7s-.5-.2-.5-.1A1.4,1.4,0,0,0,26.7,193.12Z"/><path class="cls-42" d="M26.8,193.32,4.3,205.62a7.84,7.84,0,0,0-1.5,1,1.85,1.85,0,0,0-.3,2.4c0,.6,2.6,2.4,3.1,2.7l21.3,12a1.72,1.72,0,0,0,1.2.2c.1,0,.5-.2.6-.2a9.82,9.82,0,0,0,1.8-.8l21.3-11.4a12.49,12.49,0,0,0,1.2-.8,1.89,1.89,0,0,0,.4-2.5c0-.6-2.4-2.3-2.9-2.6L30.3,194a13,13,0,0,0-1.7-.8,2.57,2.57,0,0,1-.5-.2A2.08,2.08,0,0,0,26.8,193.32Z"/><path class="cls-78" d="M26.9,193.42,4.4,205.62a7.84,7.84,0,0,0-1.5,1,1.73,1.73,0,0,0-.2,2.4c0,.5,2.7,2.4,3.2,2.6l21.2,11.9a1.29,1.29,0,0,0,1.2.1c.1,0,.5-.2.6-.2a14.17,14.17,0,0,0,1.8-.8l21.2-11.4c.1-.1,1.1-.7,1.2-.8a1.66,1.66,0,0,0,.3-2.4c0-.5-2.5-2.3-2.9-2.5L30.5,194a13,13,0,0,0-1.7-.8,2.57,2.57,0,0,1-.5-.2A2.89,2.89,0,0,0,26.9,193.42Z"/><path class="cls-79" d="M26.9,193.52,4.5,205.72a13,13,0,0,0-1.5,1,1.53,1.53,0,0,0-.2,2.3c0,.4,2.9,2.3,3.2,2.5l21,11.8a1.29,1.29,0,0,0,1.2.1c.1,0,.5-.2.6-.2a14.17,14.17,0,0,0,1.8-.8l21-11.3a12.49,12.49,0,0,0,1.2-.8,1.66,1.66,0,0,0,.3-2.4c0-.4-2.6-2.2-3-2.4l-19.8-11.3a13,13,0,0,0-1.7-.8,2.57,2.57,0,0,1-.5-.2A3,3,0,0,0,26.9,193.52Z"/><path class="cls-51" d="M27,193.62,4.7,205.82c-.1.1-1.5.8-1.5,1a1.53,1.53,0,0,0-.2,2.3c0,.4,3,2.3,3.3,2.4l20.8,11.8a1.67,1.67,0,0,0,1.2.1c.1,0,.5-.2.6-.2a14.17,14.17,0,0,0,1.8-.8l20.9-11.2a12.49,12.49,0,0,0,1.2-.8A1.57,1.57,0,0,0,53,208c0-.4-2.7-2.1-3-2.3l-19.6-11.2a11.94,11.94,0,0,0-1.6-.8l-.5-.2A2,2,0,0,0,27,193.62Z"/><path class="cls-53" d="M27.1,193.82,4.8,205.92c-.1.1-1.5.8-1.5.9a1.46,1.46,0,0,0-.1,2.3c0,.3,3.1,2.2,3.3,2.3l20.7,11.7a1.67,1.67,0,0,0,1.2.1,4.17,4.17,0,0,1,.6-.2c.1,0,1.6-.8,1.8-.8l20.7-11.1a12.75,12.75,0,0,0,1.2-.7,1.47,1.47,0,0,0,.2-2.3c0-.3-2.8-2.1-3.1-2.2l-19.3-11.1a11.94,11.94,0,0,0-1.6-.8l-.5-.2A1,1,0,0,0,27.1,193.82Z"/><path class="cls-56" d="M27.1,193.92,4.9,206c-.1,0-1.5.9-1.6.9a1.46,1.46,0,0,0-.1,2.3,28.84,28.84,0,0,0,3.4,2.3l20.5,11.6a1.67,1.67,0,0,0,1.2.1,4.17,4.17,0,0,1,.6-.2,9.15,9.15,0,0,0,1.7-.9l20.6-11a12.75,12.75,0,0,0,1.2-.7,1.4,1.4,0,0,0,.1-2.3,24,24,0,0,0-3.1-2.1l-19.1-10.9c-.1,0-1.5-.8-1.6-.8l-.5-.2C28,193.62,27.5,193.72,27.1,193.92Z"/><path class="cls-59" d="M27.2,194,5.1,206.12s-1.5.9-1.6.9a1.46,1.46,0,0,0-.1,2.3c0,.1,3.3,2.1,3.4,2.2L27.2,223a1.28,1.28,0,0,0,1.2,0,3.33,3.33,0,0,1,.6-.3,9.15,9.15,0,0,0,1.7-.9l20.4-11,1.2-.7a1.4,1.4,0,0,0,.1-2.3,32.84,32.84,0,0,0-3.1-2L30.4,195c-.1,0-1.5-.8-1.6-.8l-.5-.2A1.07,1.07,0,0,0,27.2,194Z"/><path class="cls-61" d="M27.3,194.12l-22.1,12-1.6.9a1.31,1.31,0,0,0,0,2.2,40.5,40.5,0,0,0,3.5,2.1l20.2,11.4a1.27,1.27,0,0,0,1.2,0l.5-.3,1.7-.9L51,210.62l1.2-.7a1.31,1.31,0,0,0,0-2.2,33.71,33.71,0,0,0-3.2-1.9l-18.7-10.7-1.5-.8-.5-.3A1.23,1.23,0,0,0,27.3,194.12Z"/><path class="cls-64" d="M28.5,194.32a1.28,1.28,0,0,0-1.2,0L3.7,207.12a1.31,1.31,0,0,0,0,2.2l23.6,13.3a1.27,1.27,0,0,0,1.2,0L52.1,210a1.31,1.31,0,0,0,0-2.2Z"/><path class="cls-80" d="M4.1,206.72l22.4-12.2a4.87,4.87,0,0,1,4.4,0l21.8,12.2a1.69,1.69,0,0,1,0,2.9l-21.8,12.2a4.33,4.33,0,0,1-4.4,0L4.1,209.62A1.62,1.62,0,0,1,4.1,206.72Z"/><rect class="cls-80" x="3.2" y="205.02" width="50.3" height="3.2"/><path class="cls-2" d="M4.1,203.42l22.4-12.2a4.87,4.87,0,0,1,4.4,0l21.8,12.2a1.69,1.69,0,0,1,0,2.9l-21.8,12.2a4.33,4.33,0,0,1-4.4,0L4.1,206.32A1.62,1.62,0,0,1,4.1,203.42Z"/><path class="cls-81" d="M52.6,205.92l-8,4.5-13.8,7.7a4.33,4.33,0,0,1-4.4,0L12,210.32l-6.3-3.4L4,206a1.7,1.7,0,0,1,0-3l22.4-12.2a4.87,4.87,0,0,1,4.4,0l14.2,7.9,7.6,4.3A1.62,1.62,0,0,1,52.6,205.92Z"/><path class="cls-82" d="M29.7,147.42c.1.7,0,1.3.3,1.2s.8-1,.9-.9c.6.1-.3,1.5-.9,1.9s.9,6.2.9,6.2l-2.3.5s-.2-5.1-.7-6.3a2.7,2.7,0,0,1,0-2c.1-.2,1.2-.3.9-1.1s-.3-1.4-.2-1.4C29,145.32,29.6,146.72,29.7,147.42Z"/><path class="cls-1" d="M23,163.22c1,1.3,2.4.5,4.2-1a11.89,11.89,0,0,0,4.1-6c.3-1.1-2.7-1.3-3.2-.8a45.11,45.11,0,0,1-3.1,3.4C23,160.62,22.2,162,23,163.22Z"/><path class="cls-2" d="M23.9,201.62a3.19,3.19,0,0,0-.4,2.1.71.71,0,0,0,.6.3c1.7.6,4.3-1.6,4.7-2a1.66,1.66,0,0,0,.6-1.6C29.2,200.12,24.3,201.32,23.9,201.62Z"/><path class="cls-1" d="M26.4,200.32a20.37,20.37,0,0,0-2.6,1.4,1.89,1.89,0,0,0-.3,1.6c.1.2.5.3.7.4.8.3,3.1-.8,4.2-1.8.4-.3,1.1-1.1.8-1.6C29.1,199.92,27.6,199.82,26.4,200.32Z"/><ellipse class="cls-2" cx="25.8" cy="202.72" rx="0.2" ry="0.3"/><path class="cls-2" d="M23.9,201.82a1.92,1.92,0,0,0-.3,1.5,1.12,1.12,0,0,0,.7.4,4.19,4.19,0,0,1,.2-1.4l.1-.2-.5-.6Z"/><path class="cls-82" d="M24.1,201c-.1.3-.1.6-.2.8a.45.45,0,0,1,.5,0,.76.76,0,0,1,.2.4,1.64,1.64,0,0,0,1.2-.2c1-.4,1.2-1,1.1-1.3C26.6,200.12,24.4,201,24.1,201Z"/><path class="cls-83" d="M23.1,187.82a11.08,11.08,0,0,0-.3,4.3c.2,2.1.8,8.8.8,8.8a3.11,3.11,0,0,0,3.2-.2s.7-9.5.8-12.4S23.6,186.72,23.1,187.82Z"/><path class="cls-83" d="M27.4,173.32c-1.5-1.3-3.1-1.1-3.6-.7-2.1,1.6-2.1,5.3-1.9,6.5s.9,7.3,1.2,9.1c.5,2.7,4.5,2.9,4.5.9S30.1,175.72,27.4,173.32Z"/><path class="cls-2" d="M28.5,203.92a3.19,3.19,0,0,0-.4,2.1.71.71,0,0,0,.6.3c1.7.6,4.3-1.6,4.7-2a1.66,1.66,0,0,0,.6-1.6C33.8,202.42,28.9,203.52,28.5,203.92Z"/><path class="cls-1" d="M30.9,202.52a20.37,20.37,0,0,0-2.6,1.4,1.89,1.89,0,0,0-.3,1.6c.1.2.5.3.7.4.8.3,3.1-.8,4.2-1.8.4-.3,1.1-1.1.8-1.6C33.7,202.12,32.1,202.12,30.9,202.52Z"/><ellipse class="cls-2" cx="30.4" cy="204.92" rx="0.2" ry="0.3"/><path class="cls-2" d="M28.5,204.12a1.92,1.92,0,0,0-.3,1.5,1.12,1.12,0,0,0,.7.4,4.19,4.19,0,0,1,.2-1.4l.1-.2-.5-.6Z"/><path class="cls-82" d="M28.6,203.22c-.1.3-.1.6-.2.8a.45.45,0,0,1,.5,0,.4.4,0,0,1,.2.4,1.64,1.64,0,0,0,1.2-.2c1-.4,1.2-1,1.1-1.3C31.2,202.32,28.9,203.32,28.6,203.22Z"/><path class="cls-84" d="M27.3,189.92a15,15,0,0,0-.1,4.6c.2,2.1.8,9.2.8,9.2a2.66,2.66,0,0,0,3.2-.8s.7-9.3.8-12.3S27.8,188.82,27.3,189.92Z"/><path class="cls-85" d="M31.5,174.92c-1.6-1.3-3.5-.2-4,.2-2.1,1.6-1.7,3.6-1.6,4.9.1,1.1,1.3,8.9,1.6,10.7.5,2.7,4.5,2.9,4.5.9S33.6,176.72,31.5,174.92Z"/><path class="cls-80" d="M32.4,164.42c0-3.4-5.3-4.8-6.9-4.8-3.3,0-3.4,4.2-3,7.2s-.8,10-.8,10c2.4,2.8,11.1.9,11.1.9C31.9,174.22,32.4,167.52,32.4,164.42Z"/><path class="cls-82" d="M26.4,159.62a12.24,12.24,0,0,0,2.7.9,5,5,0,0,1-.5-2.9c-.6,0-1.4,1.2-2.1.9C26.5,158.92,26.4,159.32,26.4,159.62Z"/><path class="cls-82" d="M27.8,153.22c-.3-.3-.5.2-.9.2a1.92,1.92,0,0,0-1.2.4,2,2,0,0,0-.8.8,1.1,1.1,0,0,0,0,.8,7.29,7.29,0,0,0,1.7,3.4,3.47,3.47,0,0,0,1.9-1h0c.7-.3.5-1.4.4-2.7,0-.4-.5-.8-.7-.9C27.9,153.92,28.1,153.52,27.8,153.22Z"/><path class="cls-1" d="M25.3,152.42c-.6-.9-2.4.4-1.5,1.2a1.6,1.6,0,0,0-.2,2.8c.2,1.2,1.7,1.4,2.3,1.8a6.13,6.13,0,0,0,.6.4s1.3-.5,1.5-1.1a2.63,2.63,0,0,0-.3-2.1c-.5-1.1.4-1-.2-1.8.2-.4.8-.1.8-.1C27.9,151.32,25.8,151.32,25.3,152.42Z"/><path class="cls-2" d="M29,159.62a4.61,4.61,0,0,0-2.5-.8.76.76,0,0,0-.5.2l-.4.6,4,1.3A1.49,1.49,0,0,0,29,159.62Z"/><path class="cls-86" d="M25.8,150.82a13.36,13.36,0,0,0,12.3,0c2.7-1.5,3.2-3.9,1.7-5.7l17.4-10.2v-.8l-17.4,10.2-1.2.1L56,134.22v-.8l-5.7-.1v.8l.4,1.4-4.5,2.7-3.1-.6v.8l.3,1.9-3.6,2.1-3-.4-1.2.7a13.48,13.48,0,0,0-9.9,1C22.4,145.72,22.4,148.82,25.8,150.82Z"/><path class="cls-87" d="M25.8,150a13.36,13.36,0,0,0,12.3,0c2.7-1.5,3.2-3.9,1.7-5.7l17.4-10.2-.6-.3L39.2,144l-.6-.4L56,133.42l-.5-.3-4.4-.1-.7.4.5.4a.85.85,0,0,1-.1,1.3l-4.1,2.3a.9.9,0,0,1-.5.1l-2.2-.3-.9.4.3,1.9-3.6,2.1-3-.4-1.2.7a13.48,13.48,0,0,0-9.9,1C22.4,144.82,22.4,148,25.8,150Z"/><path class="cls-88" d="M39.3,146.52v-.1a3.49,3.49,0,0,0-2.1-2.6,12.81,12.81,0,0,0-10.5,0,3.55,3.55,0,0,0-2.2,2.7,3.21,3.21,0,0,0,1.6,2.6,10,10,0,0,0,3.4,1.3,12.35,12.35,0,0,0,7.6-1A4.14,4.14,0,0,0,39.3,146.52Z"/><path class="cls-86" d="M30.9,147.82h0a.94.94,0,0,0-.6-.8,3.9,3.9,0,0,0-3,0,.94.94,0,0,0-.6.8.75.75,0,0,0,.5.7,3,3,0,0,0,1,.4,3.41,3.41,0,0,0,2.2-.3A1,1,0,0,0,30.9,147.82Z"/><path class="cls-86" d="M26.7,144.22a12.81,12.81,0,0,1,10.5,0,3.53,3.53,0,0,1,2.1,2.5v-.3a3.49,3.49,0,0,0-2.1-2.6,12.81,12.81,0,0,0-10.5,0,3.55,3.55,0,0,0-2.2,2.7v.4A3.61,3.61,0,0,1,26.7,144.22Z"/><path class="cls-82" d="M39.1,151.62c0,1.5.5,4.6-.2,6.7-.2.6-1.9,0-2.3-.5-.8-1.1,1.1-5.1.9-5.6Z"/><path class="cls-82" d="M37.5,152.52a4,4,0,0,0-.4-2.4c-.1-.5.1-.7,0-.9s.4-.1.4.6.1-1.2.4-1.5.7-.7.7-.5-.2.4-.4.7a.76.76,0,0,0-.1.4s.5-1.1,1-1.2c.1,0,.6.6.3,1a.83.83,0,0,0-.2.8c.4,2.2-.3,1.6-.1,2.7Z"/><path class="cls-80" d="M29.1,163.92c.6,1.5,2.3,1.1,4.3,0a12.3,12.3,0,0,0,5.4-4.9c.5-1-2.3-1.9-2.9-1.5a31.13,31.13,0,0,1-3.8,2.6C29.6,161.42,28.6,162.62,29.1,163.92Z"/><path class="cls-89" d="M159.2,96.82a12.57,12.57,0,0,0,7.3-3.9c5.2-5.3-10.3-7.8-10.3-7.8l-3.5,6.7Z"/><path class="cls-90" d="M129,25.32a10.18,10.18,0,0,1-4.8-8.2h0a6.22,6.22,0,0,0-3-5.2L105.5,3c-4-2.2-7.8.1-7.7,4.7L98.2,52a9.8,9.8,0,0,0,4.8,8.2l57.9,32.9c4,2.3,7.8-.1,7.7-4.7l-.3-34.7a10.68,10.68,0,0,0-5.4-9.2Z"/><path class="cls-86" d="M166.9,91.72c.8-1.4.7-1.3.7-2.2v-.7l-.3-34.7a10.68,10.68,0,0,0-5.4-9.2l-33.8-19.2a10.18,10.18,0,0,1-4.8-8.2,6.22,6.22,0,0,0-3-5.2l-15.7-8.9c-4-2.2-7.8.1-7.7,4.7l.4,44.3a9.8,9.8,0,0,0,4.8,8.2l51.6,29.3-.8,1.5,6,3.3s1.7,1.6,5.9-1A10.22,10.22,0,0,0,166.9,91.72Z"/><path class="cls-65" d="M157.6,29.42,104.9.22a2.73,2.73,0,0,0-3.8,2.4l1.5,60.5a1.6,1.6,0,0,0,.8,1.4l51.7,30.6c1.1.6,3.4-.3,3.4-2.7V30.92A1.72,1.72,0,0,0,157.6,29.42Z"/><path class="cls-15" d="M156.6,30.22,103.4.72a1.62,1.62,0,0,0-2.4,1.4v61.8a1.6,1.6,0,0,0,.8,1.4L155,94.82a1.62,1.62,0,0,0,2.4-1.4V31.62A1.6,1.6,0,0,0,156.6,30.22Z"/><polygon class="cls-91" points="118.9 69.32 107.9 63.12 107.9 65.72 118.9 71.92 118.9 69.32"/><polygon class="cls-91" points="144.3 84.02 133.4 77.82 133.4 80.32 144.3 86.62 144.3 84.02"/><polygon class="cls-91" points="131.5 76.52 120.6 70.32 120.6 72.92 131.5 79.12 131.5 76.52"/><polygon class="cls-91" points="131.8 55.72 136 58.12 136 57.12 131.8 54.82 131.8 55.72"/><polygon class="cls-91" points="126 52.42 131 55.32 131 54.32 126 51.42 126 52.42"/><polygon class="cls-91" points="120.5 49.32 124.4 51.52 124.4 50.52 120.5 48.32 120.5 49.32"/><polygon class="cls-91" points="111.7 44.32 119.3 48.62 119.3 47.62 111.7 43.32 111.7 44.32"/><polygon class="cls-91" points="137.1 58.82 152.3 67.32 152.3 66.32 137.1 57.82 137.1 58.82"/><polygon class="cls-91" points="113.8 47.62 117.5 49.72 117.5 48.82 113.8 46.62 113.8 47.62"/><polygon class="cls-91" points="107.8 44.22 111.9 46.52 111.9 45.52 107.8 43.22 107.8 44.22"/><polygon class="cls-91" points="138 61.42 152.3 69.52 152.3 68.52 138 60.52 138 61.42"/><polygon class="cls-91" points="133.5 58.92 137.2 61.02 137.2 60.02 133.5 57.92 133.5 58.92"/><polygon class="cls-91" points="106.2 38.92 117.7 45.52 117.7 44.52 106.2 37.92 106.2 38.92"/><polygon class="cls-91" points="138 57.12 152.3 65.12 152.3 64.12 138 56.12 138 57.12"/><polygon class="cls-91" points="133.5 54.52 137.2 56.62 137.2 55.72 133.5 53.62 133.5 54.52"/><polygon class="cls-91" points="121.4 43.22 133.8 50.42 133.8 49.42 121.4 42.32 121.4 43.22"/><polygon class="cls-91" points="146.5 59.62 152.3 62.92 152.3 62.02 146.5 58.72 146.5 59.62"/><polygon class="cls-91" points="140.2 56.12 144.9 58.82 144.9 57.82 140.2 55.12 140.2 56.12"/><polygon class="cls-91" points="131.8 51.32 138.9 55.32 138.9 54.42 131.8 50.32 131.8 51.32"/><polygon class="cls-91" points="124 46.82 130.8 50.72 130.8 49.72 124 45.92 124 46.82"/><polygon class="cls-91" points="116.1 42.32 122.7 46.12 122.7 45.12 116.1 41.32 116.1 42.32"/><polygon class="cls-91" points="109.3 38.52 114.8 41.62 114.8 40.72 109.3 37.52 109.3 38.52"/><polygon class="cls-91" points="126 65.72 136 71.42 136 70.52 126 64.72 126 65.72"/><polygon class="cls-91" points="111.7 57.62 124.4 64.82 124.4 63.82 111.7 56.62 111.7 57.62"/><polygon class="cls-91" points="106.2 54.42 110.4 56.82 110.4 55.82 106.2 53.42 106.2 54.42"/><polygon class="cls-91" points="137.1 72.12 147.7 78.02 147.7 77.12 137.1 71.12 137.1 72.12"/><polygon class="cls-91" points="119 63.92 128.4 69.32 128.4 68.32 119 62.92 119 63.92"/><polygon class="cls-91" points="129.2 69.72 132.7 71.72 132.7 70.82 129.2 68.82 129.2 69.72"/><polygon class="cls-91" points="113.5 60.82 117.5 63.12 117.5 62.12 113.5 59.82 113.5 60.82"/><polygon class="cls-91" points="108.2 57.72 112.7 60.32 112.7 59.42 108.2 56.82 108.2 57.72"/><polygon class="cls-91" points="133.5 72.22 137.2 74.32 137.2 73.32 133.5 71.32 133.5 72.22"/><polygon class="cls-91" points="113.2 56.22 117.7 58.82 117.7 57.82 113.2 55.22 113.2 56.22"/><polygon class="cls-91" points="107.7 53.12 111.4 55.22 111.4 54.22 107.7 52.12 107.7 53.12"/><polygon class="cls-91" points="138 70.42 152.3 78.42 152.3 77.52 138 69.42 138 70.42"/><polygon class="cls-91" points="133.5 67.92 137.2 70.02 137.2 69.02 133.5 66.92 133.5 67.92"/><polygon class="cls-91" points="128.4 58.32 147.6 69.22 147.6 68.32 128.4 57.32 128.4 58.32"/><polygon class="cls-91" points="121.3 54.22 126.2 57.12 126.2 56.12 121.3 53.32 121.3 54.22"/><polygon class="cls-91" points="110.9 48.32 120 53.52 120 52.62 120.1 52.62 110.9 47.42 110.9 48.32"/><polygon class="cls-91" points="121.4 56.62 133.8 63.72 133.8 62.72 121.4 55.62 121.4 56.62"/><polygon class="cls-91" points="106.3 47.92 119.6 55.52 119.6 54.52 106.3 46.92 106.3 47.92"/><polygon class="cls-91" points="138.4 66.22 152.3 74.12 152.3 73.12 138.4 65.32 138.4 66.22"/><polygon class="cls-91" points="135.5 64.62 137.7 65.82 137.7 64.92 135.5 63.62 135.5 64.62"/><polygon class="cls-91" points="146.5 73.02 152.3 76.32 152.3 75.32 146.5 72.02 146.5 73.02"/><polygon class="cls-91" points="141.1 69.92 144.9 72.12 144.9 71.12 141.1 68.92 141.1 69.92"/><polygon class="cls-91" points="129.6 63.42 140.2 69.42 140.2 68.42 129.6 62.42 129.6 63.42"/><polygon class="cls-91" points="117.3 56.32 122.4 59.22 122.4 58.32 117.3 55.42 117.3 56.32"/><polygon class="cls-91" points="109.3 51.82 113.6 54.32 113.6 53.32 109.3 50.82 109.3 51.82"/><polygon class="cls-91" points="114.3 54.62 116.5 55.92 116.5 54.92 114.3 53.72 114.3 54.62"/><polygon class="cls-91" points="123.5 59.92 128.8 62.92 128.8 61.92 123.5 58.92 123.5 59.92"/><path class="cls-90" d="M163.9,90.92a6.06,6.06,0,0,1-1.6,4.4,3.77,3.77,0,0,1-1.5.9,5.2,5.2,0,0,1-4.6-.6l-9-5.1L98.4,62.82a10.18,10.18,0,0,1-4.8-8.2l-.4-44.3a4.14,4.14,0,0,1,.2-1.6,4.93,4.93,0,0,1,2.1-3.3,4.84,4.84,0,0,1,1.8-.7h0a5.83,5.83,0,0,1,3.7.8l15.7,8.9a5.81,5.81,0,0,1,2.2,2.2v.1c0,.1.1.1.1.2a6,6,0,0,1,.7,2.7,9.8,9.8,0,0,0,4.8,8.2l16.6,9.5,11.3,6.4,5.9,3.3a10.68,10.68,0,0,1,5.4,9.2Z"/><path class="cls-92" d="M163.1,91.42a6.17,6.17,0,0,1-.7,3.1,4,4,0,0,1-1.6,1.8c-1.5,1-3.4,1-5.5-.2L144,89.72,97.3,63.22a9.81,9.81,0,0,1-4.6-8.1l-.4-44.3a5.28,5.28,0,0,1,.1-1.3,5,5,0,0,1,3-4,4.85,4.85,0,0,1,2.7-.2h0a5.17,5.17,0,0,1,1.9.8L115.7,15a4.17,4.17,0,0,1,.8.6c.2.1.3.3.5.4h0a4.7,4.7,0,0,1,.9,1.2,6.11,6.11,0,0,1,.8,3,9.8,9.8,0,0,0,4.8,8.2l17.5,9.9,11.3,6.4,5,2.9a10.68,10.68,0,0,1,5.4,9.2Z"/><path class="cls-2" d="M129.9,51.22v-5.6c0-2.4-1.9-5.3-4.3-6.7a3.78,3.78,0,0,0-3.5-.4,2.79,2.79,0,0,0-1.4,2.6v5.1l-3.2-1.7-.3,15.3c-.1,3.3,3.3,7.8,7.4,10.1s7.6,1.4,7.7-1.9l.3-15.3Zm-3.6,11.1c0,.2-.2.3-.3.2l-2.4-1.4c-.1,0-.1-.1-.1-.2l.6-3.5v-.2a2.4,2.4,0,0,1-.6-1.5c0-.8.7-1.1,1.5-.6a3.16,3.16,0,0,1,1.5,2.3.89.89,0,0,1-.4.8.22.22,0,0,0-.2.2Zm1.9-12.1-5.6-3v-5.7a1.38,1.38,0,0,1,.6-1.3,2.31,2.31,0,0,1,1.9.3,6.19,6.19,0,0,1,3.1,4.8Z"/></g></g></svg>