<svg xmlns="http://www.w3.org/2000/svg" viewBox="0 0 420.99 71.31"><defs><style>.cls-1{fill:#0cc;}</style></defs><g id="Capa_2" data-name="Capa 2"><g id="Capa_1-2" data-name="Capa 1"><path class="cls-1" d="M16.31,43.81V23.38H38.65a2.58,2.58,0,0,1,2.56,2.55v3.83a4.85,4.85,0,0,1-1.52,3.61l-.08.1a4.92,4.92,0,0,1,1.36,1,4.86,4.86,0,0,1,1.51,3.59v3.19a2.54,2.54,0,0,1-2.55,2.56ZM34.82,31a1.25,1.25,0,0,0,.9-.36,1.28,1.28,0,0,0,.38-.92,1.25,1.25,0,0,0-.38-.9,1.23,1.23,0,0,0-.9-.38H21.41V31Zm.64,7.66a1.27,1.27,0,0,0,.9-2.18,1.22,1.22,0,0,0-.9-.37h-14V38.7Z"/><path class="cls-1" d="M50.78,43.81a5.1,5.1,0,0,1-5.1-5.11V28.48a5.12,5.12,0,0,1,5.1-5.1H66.11a5.16,5.16,0,0,1,5.1,5.1V38.7a4.84,4.84,0,0,1-1.51,3.61,4.9,4.9,0,0,1-3.59,1.5ZM63.55,38.7a2.56,2.56,0,0,0,2.56-2.55V31a2.6,2.6,0,0,0-2.56-2.56H53.34A2.56,2.56,0,0,0,50.78,31v5.11a2.53,2.53,0,0,0,2.56,2.55Zm-7-17.88,2.55-5.11h5.11l-5.11,5.11Z"/><path class="cls-1" d="M83.66,42.53a5.67,5.67,0,0,1-1-1.28L73.77,23.38h6.38L87.3,37.7a.57.57,0,0,0,.51.34.54.54,0,0,0,.5-.34l7.17-14.32h6.38L92.92,41.25a5.41,5.41,0,0,1-1,1.28,6.18,6.18,0,0,1-8.3,0Z"/><path class="cls-1" d="M109.52,43.81a5.12,5.12,0,0,1-5.11-5.11V28.48a5.14,5.14,0,0,1,5.11-5.1h17.24v5.1h-16a1.26,1.26,0,0,0-1.28,1.28V31h17v5.11h-17v1.27a1.23,1.23,0,0,0,1.28,1.28h16.6v5.11Z"/><path class="cls-1" d="M131.23,43.81V23.38h20.43a4.81,4.81,0,0,1,3.59,1.51,4.88,4.88,0,0,1,1.52,3.59V38.7a5.16,5.16,0,0,1-5.11,5.11Zm17.88-5.11a2.56,2.56,0,0,0,2.55-2.55V31a2.6,2.6,0,0,0-2.55-2.56H136.34V38.7Z"/><path class="cls-1" d="M159.32,43.81l8.94-17.88a6,6,0,0,1,1-1.28,6.21,6.21,0,0,1,8.3,0,6,6,0,0,1,1,1.28l8.93,17.88H181L179.11,40H167.62l-1.91,3.83Zm17.88-7.66-3.33-6.65a.58.58,0,0,0-.5-.34.62.62,0,0,0-.52.34l-3.31,6.65Z"/><path class="cls-1" d="M200.18,43.81V23.38h20.43a5.17,5.17,0,0,1,5.11,5.1V38.7a4.81,4.81,0,0,1-1.52,3.61,4.87,4.87,0,0,1-3.59,1.5Zm17.88-5.11a2.54,2.54,0,0,0,2.55-2.55V31a2.47,2.47,0,0,0-.75-1.8,2.5,2.5,0,0,0-1.8-.76H205.29V38.7Z"/><path class="cls-1" d="M234.66,43.81a5.12,5.12,0,0,1-5.11-5.11V28.48a5.14,5.14,0,0,1,5.11-5.1H251.9v5.1h-16a1.26,1.26,0,0,0-1.28,1.28V31h17v5.11h-17v1.27a1.23,1.23,0,0,0,1.28,1.28h16.6v5.11Z"/><path class="cls-1" d="M266.58,43.81V23.38H287a5.16,5.16,0,0,1,5.11,5.1V38.7a4.84,4.84,0,0,1-1.51,3.61,4.91,4.91,0,0,1-3.6,1.5Zm17.88-5.11A2.54,2.54,0,0,0,287,36.15V31a2.47,2.47,0,0,0-.75-1.8,2.5,2.5,0,0,0-1.8-.76H271.69V38.7Z"/><path class="cls-1" d="M294.68,43.81l8.93-17.88a6,6,0,0,1,1-1.28,6.21,6.21,0,0,1,8.3,0,6,6,0,0,1,1,1.28l8.94,17.88h-6.39L314.47,40H303l-1.92,3.83Zm17.87-7.66-3.33-6.65a.57.57,0,0,0-.5-.34.62.62,0,0,0-.52.34l-3.31,6.65Z"/><path class="cls-1" d="M334.26,43.81V28.48H324v-5.1h25.54v5.1H339.37V43.81Z"/><path class="cls-1" d="M357.24,43.81a4.88,4.88,0,0,1-3.61-1.5,5,5,0,0,1-1.49-3.61V28.48a5.12,5.12,0,0,1,5.1-5.1h15.33a5.16,5.16,0,0,1,5.1,5.1V38.7a4.84,4.84,0,0,1-1.51,3.61,4.9,4.9,0,0,1-3.59,1.5ZM370,38.7a2.56,2.56,0,0,0,2.56-2.55V31A2.6,2.6,0,0,0,370,28.48H359.8A2.56,2.56,0,0,0,357.24,31v5.11a2.53,2.53,0,0,0,2.56,2.55Z"/><path class="cls-1" d="M380.87,43.81V38.7h19.79a1.27,1.27,0,0,0,.9-2.18,1.24,1.24,0,0,0-.9-.37h-16.6a2.51,2.51,0,0,1-2.55-2.56V26a2.54,2.54,0,0,1,.73-1.82,2.5,2.5,0,0,1,1.82-.75h22.35v5.1H387.89a1.26,1.26,0,0,0-1.28,1.28A1.23,1.23,0,0,0,387.89,31h16.6A2.58,2.58,0,0,1,407,33.59v7.66a2.54,2.54,0,0,1-2.55,2.56Z"/><path class="cls-1" d="M1.74,13.49A1.72,1.72,0,0,1,0,11.8V1.69A1.71,1.71,0,0,1,1.74,0H12.2a1.71,1.71,0,0,1,1.74,1.69A1.71,1.71,0,0,1,12.2,3.37H3.48V11.8a1.72,1.72,0,0,1-1.74,1.69Z"/><path class="cls-1" d="M419.24,13.49A1.72,1.72,0,0,0,421,11.8V1.69A1.71,1.71,0,0,0,419.24,0H408.79A1.72,1.72,0,0,0,407,1.69a1.72,1.72,0,0,0,1.75,1.68h8.71V11.8a1.72,1.72,0,0,0,1.74,1.69Z"/><path class="cls-1" d="M419.24,71.24H408.79a1.69,1.69,0,1,1,0-3.37h8.71V59.43a1.75,1.75,0,0,1,3.49,0V69.55a1.72,1.72,0,0,1-1.75,1.69Z"/><path class="cls-1" d="M12.2,71.31H1.74A1.72,1.72,0,0,1,0,69.62V59.5a1.71,1.71,0,0,1,1.74-1.68A1.71,1.71,0,0,1,3.48,59.5v8.44H12.2a1.69,1.69,0,1,1,0,3.37Z"/></g></g></svg>