<svg xmlns="http://www.w3.org/2000/svg" viewBox="0 0 512.84 71.31"><defs><style>.cls-1{fill:#66cd00;}</style></defs><g id="Capa_2" data-name="Capa 2"><g id="Capa_1-2" data-name="Capa 1"><path class="cls-1" d="M18.65,45.58a4.27,4.27,0,0,1-4.25-4.25v-8.5a4.29,4.29,0,0,1,4.25-4.25h14.7v4.25H20.78A2.13,2.13,0,0,0,18.65,35V39.2a2.12,2.12,0,0,0,2.13,2.13H33.53v4.25Z"/><path class="cls-1" d="M41,45.58a4.25,4.25,0,0,1-4.25-4.25v-8.5A4.27,4.27,0,0,1,41,28.58H53.72a4,4,0,0,1,3,1.26,4.05,4.05,0,0,1,1.27,3v8.5a4.3,4.3,0,0,1-4.25,4.25Zm10.62-4.25a2.06,2.06,0,0,0,1.49-.62,2,2,0,0,0,.64-1.51V35a2.17,2.17,0,0,0-2.13-2.12h-8.5A2.12,2.12,0,0,0,41,35V39.2a2.1,2.1,0,0,0,2.12,2.13Z"/><path class="cls-1" d="M61.15,45.58v-13a4.29,4.29,0,0,1,4.25-4.25,4.76,4.76,0,0,1,3.19,1.33Q69,30,79.22,40.26a.49.49,0,0,0,.79,0,1.2,1.2,0,0,0,.27-.79V28.58h4.25v13a4.27,4.27,0,0,1-4.25,4.25,5,5,0,0,1-3.19-1.33q-.39-.36-10.62-10.62a.5.5,0,0,0-.8,0,1.22,1.22,0,0,0-.27.79v10.9Z"/><path class="cls-1" d="M87.18,45.58V41.33h16.47a1.06,1.06,0,0,0,1.07-1.07,1,1,0,0,0-.32-.74,1,1,0,0,0-.75-.32H89.84a2.08,2.08,0,0,1-2.12-2.12V30.72a2.08,2.08,0,0,1,.61-1.51,2.05,2.05,0,0,1,1.51-.63h18.59v4.25H93a1,1,0,0,0-.77.31A1.06,1.06,0,0,0,93,35h13.81A2.17,2.17,0,0,1,109,37.08v6.37a2,2,0,0,1-.64,1.51,2.06,2.06,0,0,1-1.49.62Z"/><path class="cls-1" d="M116.4,45.58a4.27,4.27,0,0,1-4.25-4.25v-8.5a4.29,4.29,0,0,1,4.25-4.25h14.35v4.25H117.47a1,1,0,0,0-1.07,1.06V35h14.16V39.2H116.4v1.06a1,1,0,0,0,1.07,1.07h13.81v4.25Z"/><path class="cls-1" d="M134.47,45.58v-13a4.27,4.27,0,0,1,4.25-4.25,4.75,4.75,0,0,1,3.18,1.33q.4.36,10.63,10.62a.5.5,0,0,0,.8,0,1.25,1.25,0,0,0,.26-.79V28.58h4.25v13a4.27,4.27,0,0,1-4.25,4.25,5,5,0,0,1-3.19-1.33q-.39-.36-10.62-10.62a.5.5,0,0,0-.8,0,1.21,1.21,0,0,0-.26.79v10.9Z"/><path class="cls-1" d="M168.47,45.58V32.83H160V28.58h21.25v4.25h-8.5V45.58Z"/><path class="cls-1" d="M183.34,45.58v-17h4.25v17Z"/><path class="cls-1" d="M190.78,45.58v-13A4.27,4.27,0,0,1,195,28.31a4.82,4.82,0,0,1,3.52,1.26,4.91,4.91,0,0,1,.73,1.13l5.31,10.63L209.9,30.7a4.91,4.91,0,0,1,.73-1.13,4.82,4.82,0,0,1,3.52-1.26,4,4,0,0,1,3,1.26,4.06,4.06,0,0,1,1.26,3v13h-4.25V35c0-.66-.22-1-.66-1.06a.48.48,0,0,0-.53.26l-5.71,11.43h-5.32l-5.71-11.43a.48.48,0,0,0-.53-.26c-.44,0-.66.4-.66,1.06V45.58Z"/><path class="cls-1" d="M221.59,45.58v-17h4.25v17Z"/><path class="cls-1" d="M233.28,45.58A4.25,4.25,0,0,1,229,41.33v-8.5a4.27,4.27,0,0,1,4.25-4.25h14.34v4.25H234.34a1,1,0,0,0-.76.31,1.05,1.05,0,0,0-.3.75V35h14.16V39.2H233.28v1.06a1.08,1.08,0,0,0,.3.77,1.06,1.06,0,0,0,.76.3h13.81v4.25Z"/><path class="cls-1" d="M251.34,45.58v-13a4.29,4.29,0,0,1,4.25-4.25,4.78,4.78,0,0,1,3.19,1.33q.39.36,10.62,10.62a.5.5,0,0,0,.8,0,1.2,1.2,0,0,0,.27-.79V28.58h4.25v13a4.29,4.29,0,0,1-4.25,4.25,5,5,0,0,1-3.19-1.33q-.4-.36-10.63-10.62a.49.49,0,0,0-.79,0,1.22,1.22,0,0,0-.27.79v10.9Z"/><path class="cls-1" d="M285.34,45.58V32.83h-8.5V28.58h21.25v4.25h-8.5V45.58Z"/><path class="cls-1" d="M304.47,45.58a4.25,4.25,0,0,1-4.25-4.25v-8.5a4.27,4.27,0,0,1,4.25-4.25h12.75a4,4,0,0,1,3,1.26,4.05,4.05,0,0,1,1.27,3v8.5a4.3,4.3,0,0,1-4.25,4.25Zm10.62-4.25a2.06,2.06,0,0,0,1.49-.62,2,2,0,0,0,.64-1.51V35a2.17,2.17,0,0,0-2.13-2.12h-8.5A2.12,2.12,0,0,0,304.47,35V39.2a2.1,2.1,0,0,0,2.12,2.13Z"/><path class="cls-1" d="M337.4,45.58a4.27,4.27,0,0,1-4.25-4.25v-8.5a4.29,4.29,0,0,1,4.25-4.25h14.35v4.25H338.47a1,1,0,0,0-1.07,1.06V35h14.16V39.2H337.4v1.06a1,1,0,0,0,1.07,1.07h13.81v4.25Z"/><path class="cls-1" d="M354.93,45.58l8.5-8.5-8.5-8.5h5.85L367.15,35l6.38-6.37h5.84l-8.5,8.5,8.5,8.5h-5.84l-6.38-6.38-6.37,6.38Z"/><path class="cls-1" d="M382,45.58v-17h19.12a2.15,2.15,0,0,1,2.13,2.12v6.38a2.12,2.12,0,0,1-2.13,2.12H386.28v6.38ZM398,35A1.06,1.06,0,0,0,399,33.89a1,1,0,0,0-.32-.75,1,1,0,0,0-.74-.31H386.28V35Z"/><path class="cls-1" d="M406.47,45.58v-17h19.12a2.17,2.17,0,0,1,2.13,2.12v3.72a4,4,0,0,1-1.27,3,3.32,3.32,0,0,1-.68.57,4.12,4.12,0,0,1,1.22.88,3.93,3.93,0,0,1,.54.63,2.45,2.45,0,0,1,.34.61,12.38,12.38,0,0,1,.38,1.22l1.06,4.25h-4.62l-.83-5a2,2,0,0,0-.49-.78,2,2,0,0,0-1.5-.63H410.72v6.38ZM422.4,35a1.05,1.05,0,0,0,.75-.3,1.05,1.05,0,0,0,0-1.51,1,1,0,0,0-.75-.31H410.72V35Z"/><path class="cls-1" d="M435.15,45.58a4.27,4.27,0,0,1-4.25-4.25v-8.5a4.29,4.29,0,0,1,4.25-4.25H449.5v4.25H436.22a1,1,0,0,0-1.07,1.06V35h14.16V39.2H435.15v1.06a1,1,0,0,0,1.07,1.07H450v4.25Z"/><path class="cls-1" d="M452.68,45.58V41.33h16.47a1.06,1.06,0,0,0,1.07-1.07,1,1,0,0,0-.32-.74,1,1,0,0,0-.75-.32H455.34a2.08,2.08,0,0,1-2.12-2.12V30.72a2.08,2.08,0,0,1,.61-1.51,2.05,2.05,0,0,1,1.51-.63h18.59v4.25h-15.4a1,1,0,0,0-.77.31,1.06,1.06,0,0,0,.77,1.81h13.81a2.17,2.17,0,0,1,2.13,2.13v6.37a2,2,0,0,1-.64,1.51,2.06,2.06,0,0,1-1.49.62Z"/><path class="cls-1" d="M481.9,45.58a4.27,4.27,0,0,1-4.25-4.25v-8.5a4.29,4.29,0,0,1,4.25-4.25h12.75a4.3,4.3,0,0,1,4.25,4.25v8.5a4.29,4.29,0,0,1-4.25,4.25Zm10.63-4.25a2.13,2.13,0,0,0,2.12-2.13V35a2.15,2.15,0,0,0-2.12-2.12H484A2.13,2.13,0,0,0,481.9,35V39.2A2.12,2.12,0,0,0,484,41.33Z"/><path class="cls-1" d="M1.74,13.49A1.72,1.72,0,0,1,0,11.8V1.69A1.71,1.71,0,0,1,1.74,0H12.2a1.71,1.71,0,0,1,1.74,1.69A1.71,1.71,0,0,1,12.2,3.37H3.48V11.8a1.72,1.72,0,0,1-1.74,1.69Z"/><path class="cls-1" d="M511.1,13.49a1.71,1.71,0,0,0,1.74-1.69V1.69A1.71,1.71,0,0,0,511.1,0H500.65a1.71,1.71,0,0,0-1.75,1.69,1.71,1.71,0,0,0,1.75,1.68h8.71V11.8a1.72,1.72,0,0,0,1.74,1.69Z"/><path class="cls-1" d="M511.1,71.24H500.64a1.69,1.69,0,1,1,0-3.37h8.72V59.43a1.74,1.74,0,0,1,3.48,0V69.55a1.71,1.71,0,0,1-1.74,1.69Z"/><path class="cls-1" d="M12.2,71.31H1.74A1.72,1.72,0,0,1,0,69.62V59.5a1.71,1.71,0,0,1,1.74-1.68A1.71,1.71,0,0,1,3.48,59.5v8.44H12.2a1.69,1.69,0,1,1,0,3.37Z"/></g></g></svg>