<svg xmlns="http://www.w3.org/2000/svg" viewBox="0 0 300.08 72.61"><defs><style>.cls-1{fill:#e70000;}</style></defs><g id="Capa_2" data-name="Capa 2"><g id="Capa_1-2" data-name="Capa 1"><path class="cls-1" d="M15.45,45.43V33.7a3.93,3.93,0,0,1,3.91-3.91H33.05V33.7H20.34a1,1,0,0,0-.71.29,1,1,0,0,0-.27.69v1h13.2v3.91H19.36v5.87Z"/><path class="cls-1" d="M36,45.43V29.79h3.91V45.43Z"/><path class="cls-1" d="M42.82,45.43V29.79h17.6a2,2,0,0,1,2,1.95v3.42a3.73,3.73,0,0,1-1.16,2.77,3.78,3.78,0,0,1-.63.52,3.76,3.76,0,0,1,1.12.81,3.85,3.85,0,0,1,.5.58,2.6,2.6,0,0,1,.31.56,9.61,9.61,0,0,1,.35,1.12l1,3.91H59.6l-.77-4.57a2,2,0,0,0-.45-.72A1.92,1.92,0,0,0,57,39.56H46.73v5.87Zm14.67-9.78a1,1,0,0,0,.69-.27,1,1,0,0,0,.29-.7.94.94,0,0,0-.29-.69,1,1,0,0,0-.69-.29H46.73v1.95Z"/><path class="cls-1" d="M65.31,45.43v-12a3.94,3.94,0,0,1,3.91-3.91,4.43,4.43,0,0,1,3.24,1.16,4,4,0,0,1,.67,1L78,41.52l4.89-9.78a4.57,4.57,0,0,1,.67-1,4.46,4.46,0,0,1,3.24-1.16,4,4,0,0,1,3.91,3.91v12H86.82V35.65c0-.61-.2-.93-.61-1a.46.46,0,0,0-.49.24L80.47,45.43H75.58L70.32,34.92a.45.45,0,0,0-.49-.24c-.4,0-.61.36-.61,1v9.78Z"/><path class="cls-1" d="M92.69,45.43l6.84-13.69a4.73,4.73,0,0,1,.74-1,4.74,4.74,0,0,1,6.35,0,4.73,4.73,0,0,1,.74,1l6.84,13.69h-4.89l-1.47-2.93H99l-1.46,2.93Zm13.69-5.87-2.55-5.08a.44.44,0,0,0-.39-.26.45.45,0,0,0-.39.26l-2.54,5.08Z"/><path class="cls-1" d="M124,45.43V29.79h3.91V45.43Z"/><path class="cls-1" d="M130.82,45.43v-12a3.94,3.94,0,0,1,3.91-3.91,4.42,4.42,0,0,1,2.94,1.22q.36.34,9.77,9.78a.46.46,0,0,0,.74,0,1.14,1.14,0,0,0,.24-.73v-10h3.91v12a3.93,3.93,0,0,1-3.91,3.91,4.52,4.52,0,0,1-2.93-1.22q-.37-.33-9.78-9.77a.45.45,0,0,0-.73,0,1.08,1.08,0,0,0-.25.73v10Z"/><path class="cls-1" d="M155.27,45.43V33.7a3.93,3.93,0,0,1,3.91-3.91h13.68V33.7H160.15a1,1,0,0,0-1,1v1h13.2v3.91h-13.2v5.87Z"/><path class="cls-1" d="M174.82,45.43l6.84-13.69a4.73,4.73,0,0,1,.74-1,4.74,4.74,0,0,1,6.35,0,4.73,4.73,0,0,1,.74,1l6.84,13.69h-4.89L190,42.5h-8.8l-1.47,2.93Zm13.69-5.87L186,34.48a.43.43,0,0,0-.38-.26.46.46,0,0,0-.4.26l-2.54,5.08Z"/><path class="cls-1" d="M202.2,45.43a3.89,3.89,0,0,1-3.91-3.91V29.79h3.91v9.77a1.93,1.93,0,0,0,2,2h11.74v3.91Z"/><path class="cls-1" d="M218.82,45.43V29.79h3.91V45.43Z"/><path class="cls-1" d="M225.66,45.43V29.79h17.11a1.88,1.88,0,0,1,1.38.58,1.84,1.84,0,0,1,.58,1.37v2.94a3.71,3.71,0,0,1-1.16,2.76l-.06.08a3.9,3.9,0,0,1,1,.76A3.75,3.75,0,0,1,245.71,41v2.45a1.95,1.95,0,0,1-2,2Zm14.18-9.78a1,1,0,0,0,1-1,.94.94,0,0,0-.29-.69,1,1,0,0,0-.69-.29H229.57v1.95Zm.49,5.87a1,1,0,0,0,.69-.27,1,1,0,0,0,.29-.71,1,1,0,0,0-1-1H229.57v2Z"/><path class="cls-1" d="M252.06,45.43a3.73,3.73,0,0,1-2.76-1.14,3.77,3.77,0,0,1-1.15-2.77V29.79h3.91v9.77a1.95,1.95,0,0,0,2,2h11.73v3.91Z"/><path class="cls-1" d="M272.6,45.43a3.75,3.75,0,0,1-2.77-1.14,3.81,3.81,0,0,1-1.15-2.77V33.7a3.94,3.94,0,0,1,3.92-3.91h13.2V33.7H273.57a1,1,0,0,0-1,1v1h13v3.91h-13v1a1,1,0,0,0,.27.71,1,1,0,0,0,.7.27h12.71v3.91Z"/><path class="cls-1" d="M1.74,13.49A1.72,1.72,0,0,1,0,11.8V1.69A1.71,1.71,0,0,1,1.74,0H12.2a1.71,1.71,0,0,1,1.74,1.69A1.71,1.71,0,0,1,12.2,3.37H3.48V11.8a1.72,1.72,0,0,1-1.74,1.69Z"/><path class="cls-1" d="M298.34,14.86a1.71,1.71,0,0,0,1.74-1.68V3.06a1.71,1.71,0,0,0-1.74-1.68H287.88a1.71,1.71,0,0,0-1.74,1.68,1.72,1.72,0,0,0,1.74,1.69h8.72v8.43a1.71,1.71,0,0,0,1.74,1.68Z"/><path class="cls-1" d="M298.34,72.61H287.88a1.69,1.69,0,1,1,0-3.37h8.72V60.81a1.74,1.74,0,0,1,3.48,0V70.93a1.71,1.71,0,0,1-1.74,1.68Z"/><path class="cls-1" d="M12.2,71.31H1.74A1.72,1.72,0,0,1,0,69.62V59.5a1.71,1.71,0,0,1,1.74-1.68A1.71,1.71,0,0,1,3.48,59.5v8.44H12.2a1.69,1.69,0,1,1,0,3.37Z"/></g></g></svg>