<svg xmlns="http://www.w3.org/2000/svg" viewBox="0 0 257.39 71.31"><defs><style>.cls-1{fill:#eae500;}</style></defs><g id="Capa_2" data-name="Capa 2"><g id="Capa_1-2" data-name="Capa 1"><path class="cls-1" d="M22.25,43a4.66,4.66,0,0,1-.8-1.06L14,27h5.31l5.95,11.92a.48.48,0,0,0,.43.28.44.44,0,0,0,.41-.28l6-11.92h5.32L30,41.9a4.62,4.62,0,0,1-4.25,2.39A4.91,4.91,0,0,1,22.25,43Z"/><path class="cls-1" d="M39.51,44V27h4.25V44Z"/><path class="cls-1" d="M47,44V27H64a4.3,4.3,0,0,1,4.25,4.25v8.5A4.27,4.27,0,0,1,64,44Zm14.87-4.25A2.12,2.12,0,0,0,64,37.65V33.4a2.15,2.15,0,0,0-2.13-2.13H51.2v8.5Z"/><path class="cls-1" d="M75.64,44a4.06,4.06,0,0,1-3-1.24,4.11,4.11,0,0,1-1.24-3v-8.5A4.27,4.27,0,0,1,75.64,27H90v4.25H76.7a1,1,0,0,0-1.06,1.06V33.4H89.8v4.25H75.64v1.06a1,1,0,0,0,1.06,1.06H90.51V44Z"/><path class="cls-1" d="M98,44a4.06,4.06,0,0,1-3-1.24,4.11,4.11,0,0,1-1.24-3v-8.5A4.27,4.27,0,0,1,98,27H110.7A4.3,4.3,0,0,1,115,31.27v8.5A4.27,4.27,0,0,1,110.7,44Zm10.62-4.25a2.12,2.12,0,0,0,2.13-2.12V33.4a2.15,2.15,0,0,0-2.13-2.13h-8.5A2.12,2.12,0,0,0,98,33.4v4.25a2.08,2.08,0,0,0,2.12,2.12Z"/><path class="cls-1" d="M134.07,44V31.27h-8.5V27h21.25v4.25h-8.5V44Z"/><path class="cls-1" d="M153.2,44a4.06,4.06,0,0,1-3-1.24,4.11,4.11,0,0,1-1.24-3v-8.5A4.27,4.27,0,0,1,153.2,27H166a4.3,4.3,0,0,1,4.25,4.25v8.5A4.27,4.27,0,0,1,166,44Zm10.62-4.25A2.12,2.12,0,0,0,166,37.65V33.4a2.15,2.15,0,0,0-2.13-2.13h-8.5a2.12,2.12,0,0,0-2.12,2.13v4.25a2.08,2.08,0,0,0,2.12,2.12Z"/><path class="cls-1" d="M173.39,44V27h4.25V33.4H183L189.32,27h5.85l-8.5,8.5,8.5,8.5h-5.85L183,37.65h-5.31V44Z"/><path class="cls-1" d="M202.07,44a4.05,4.05,0,0,1-3-1.24,4.12,4.12,0,0,1-1.25-3v-8.5A4.29,4.29,0,0,1,202.07,27h14.35v4.25H203.14a1.06,1.06,0,0,0-.77.32,1,1,0,0,0-.3.74V33.4h14.16v4.25H202.07v1.06a1.06,1.06,0,0,0,.3.76,1.08,1.08,0,0,0,.77.3H217V44Z"/><path class="cls-1" d="M220.14,44V31a4.27,4.27,0,0,1,4.25-4.25,4.7,4.7,0,0,1,3.18,1.32q.41.38,10.63,10.63a.51.51,0,0,0,.8,0,1.28,1.28,0,0,0,.26-.8V27h4.25V40a4,4,0,0,1-1.26,3,4.09,4.09,0,0,1-3,1.25A5,5,0,0,1,236.07,43q-.39-.36-10.62-10.63a.51.51,0,0,0-.8,0,1.22,1.22,0,0,0-.26.8V44Z"/><path class="cls-1" d="M1.74,13.49A1.72,1.72,0,0,1,0,11.8V1.69A1.71,1.71,0,0,1,1.74,0H12.2a1.71,1.71,0,0,1,1.74,1.69A1.71,1.71,0,0,1,12.2,3.37H3.48V11.8a1.72,1.72,0,0,1-1.74,1.69Z"/><path class="cls-1" d="M255.65,13.49a1.72,1.72,0,0,0,1.74-1.69V1.69A1.71,1.71,0,0,0,255.65,0H245.19a1.71,1.71,0,0,0-1.74,1.69,1.71,1.71,0,0,0,1.74,1.68h8.72V11.8a1.72,1.72,0,0,0,1.74,1.69Z"/><path class="cls-1" d="M255.65,71.24H245.19a1.69,1.69,0,1,1,0-3.37h8.72V59.43a1.74,1.74,0,0,1,3.48,0V69.55a1.72,1.72,0,0,1-1.74,1.69Z"/><path class="cls-1" d="M12.2,71.31H1.74A1.72,1.72,0,0,1,0,69.62V59.5a1.71,1.71,0,0,1,1.74-1.68A1.71,1.71,0,0,1,3.48,59.5v8.44H12.2a1.69,1.69,0,1,1,0,3.37Z"/></g></g></svg>